<svg xmlns="http://www.w3.org/2000/svg" width="246.448" height="491.683" viewBox="0 0 246.448 491.683"><g transform="translate(-0.637 -799.443)"><g transform="translate(-61.608 -103.5)"><g transform="translate(-229.764 534.371)" opacity="0.53"><g opacity="0.21"><g transform="translate(0 527.598)"><g transform="translate(0 108.444)"><path d="M501.4,165.3a30.583,30.583,0,0,0-17.7-1.7,6.959,6.959,0,0,0-.5-3.2,6.723,6.723,0,1,0-12.4,5.2,7.008,7.008,0,0,0,1.9,2.6A30.885,30.885,0,0,0,461.5,182a30.153,30.153,0,0,0,.1,23.4,30.512,30.512,0,0,0,16.6,16.5,30.153,30.153,0,0,0,23.4-.1,30.512,30.512,0,0,0,16.5-16.6,30.623,30.623,0,0,0-16.7-39.9Zm11.9,16.2-48.5,20.3a29.413,29.413,0,0,1-1.2-5.9l46.3-19.4a24.489,24.489,0,0,1,3.4,5ZM474.7,164a2.535,2.535,0,1,1,3.3,1.4,2.618,2.618,0,0,1-3.3-1.4Zm5,5.2a26.438,26.438,0,0,1,27.1,4.1l-43.1,18.1a26.116,26.116,0,0,1,16-22.2ZM496,208.3a2.823,2.823,0,1,1,1.5-3.7,2.871,2.871,0,0,1-1.5,3.7Zm5.9,8.7-2.5-6a6.975,6.975,0,1,0-3.8,1.6l2.5,6a26.524,26.524,0,0,1-31.7-13l48.5-20.3a26.524,26.524,0,0,1-13,31.7Z" fill="#fff"/><g transform="translate(446.409)"><path d="M-142.7,68a28.939,28.939,0,0,1,4.7-3.8l.7-.5c1.9-1.2,3.8-2.4,5.8-3.4.4.3.7.5,1.1.8a11.725,11.725,0,0,1,3.4,4.8,1.446,1.446,0,0,0,1.9.9,1.446,1.446,0,0,0,.9-1.9h0a13.148,13.148,0,0,0-4.3-6.1h0c1-.5,3.2-1.4,3.3-1.4a10.211,10.211,0,0,1,1.6,4.2,1.456,1.456,0,0,0,1.6,1.3,1.456,1.456,0,0,0,1.3-1.6h0a13.652,13.652,0,0,0-3-6.7,13.907,13.907,0,0,0-6.1-4.3,1.446,1.446,0,0,0-1.9.9h0a1.446,1.446,0,0,0,.9,1.9,11.708,11.708,0,0,1,3.7,2.2c-1.4.6-2.8,1.2-4.2,1.9a12.662,12.662,0,0,0-3.9-1.2,1.537,1.537,0,0,0-1.7,1.2h0a1.537,1.537,0,0,0,1.2,1.7,2.92,2.92,0,0,1,.9.2c-1.4.8-2.7,1.6-4.1,2.5l-.7.5a29.224,29.224,0,0,0-5.1,4.2,32.036,32.036,0,0,0-9.1,18.1,1.575,1.575,0,0,0,.4,1.3,1.235,1.235,0,0,0,.8.4,1.537,1.537,0,0,0,1.7-1.2A28.22,28.22,0,0,1-142.7,68Z" fill="#fff"/><path d="M-119.7,54a1.431,1.431,0,0,0,1.8,1h0l11.1-3.4a1.941,1.941,0,0,1,1.6.5h0a1.845,1.845,0,0,1,.5,1.6l-1.5,8.7a2.2,2.2,0,0,0,.9,2.1,27.857,27.857,0,0,1,4.2,3.5l4.5,4.5a2.107,2.107,0,0,0,1.8.6l8.1-1.4a1.845,1.845,0,0,1,1.6.5,1.845,1.845,0,0,1,.5,1.6L-86,81.9a2.016,2.016,0,0,0,.6,1.8l3.3,3.3a29.6,29.6,0,0,1,7.8,13.9,1.612,1.612,0,0,0,.4.7,1.485,1.485,0,0,0,1.4.4,1.491,1.491,0,0,0,1.1-1.8A32.13,32.13,0,0,0-80,85l-3-3,1.3-7.7A4.7,4.7,0,0,0-83,70.1a4.616,4.616,0,0,0-4.2-1.3l-7.7,1.3L-99,66a27.858,27.858,0,0,0-4.2-3.5l1.4-8.2a4.7,4.7,0,0,0-1.3-4.2h0a4.7,4.7,0,0,0-4.2-1.3h-.2l-11.2,3.4a1.431,1.431,0,0,0-1,1.8Z" fill="#fff"/><path d="M-54.9,114.6a5.129,5.129,0,0,0-1.2-3.8,5.213,5.213,0,0,0-7.3-.7,6.758,6.758,0,0,1-7.2,1,28.415,28.415,0,0,0,.1-4.1,1.453,1.453,0,0,0-1.5-1.4h0a1.453,1.453,0,0,0-1.4,1.5,30.955,30.955,0,0,1-.2,4.3,2.031,2.031,0,0,0,1,2,9.673,9.673,0,0,0,11-1,2.241,2.241,0,0,1,3.2.3,2.241,2.241,0,0,1-.3,3.2,14.921,14.921,0,0,1-8.8,3.3,15.4,15.4,0,0,1-5.6-1,2.03,2.03,0,0,0-2.6,1.1,20.965,20.965,0,0,1-2.2,4.2,24.592,24.592,0,0,0-4.5-5.7,29.393,29.393,0,0,0-41.6,0,28.932,28.932,0,0,0-4.7,6.2l-14.2-14.2a29.2,29.2,0,0,1-8.6-19.5,1.453,1.453,0,0,0-1.5-1.4,1.453,1.453,0,0,0-1.4,1.5h0a32.031,32.031,0,0,0,9.5,21.4l14.6,14.6a5.464,5.464,0,0,0,3.8,1.6h46.4a5.419,5.419,0,0,0,4.5-2.4,25.488,25.488,0,0,0,2.3-4.3,19.636,19.636,0,0,0,5.9.9,17.684,17.684,0,0,0,10.6-3.9A5.8,5.8,0,0,0-54.9,114.6ZM-125.8,125a28.789,28.789,0,0,1,4-5.2,26.617,26.617,0,0,1,37.5,0,24.876,24.876,0,0,1,4,5.2h-3.5c-.4-.5-.8-1.1-1.2-1.6a1.539,1.539,0,0,0-2.1-.2,1.529,1.529,0,0,0-.4,1.8h-31.2c.3-.4,1.3-1.3,1.4-1.5a1.547,1.547,0,0,0,.1-2.1,1.547,1.547,0,0,0-2.1-.1c-.2.2-1.6,1.7-2.1,2.3a1.592,1.592,0,0,0-.3,1.3Z" fill="#fff"/><path d="M-108.7,75.8a1.45,1.45,0,0,0-2.1,0l-1.7,1.7a2.342,2.342,0,0,1-1.7-.7,2.133,2.133,0,0,1-.6-2,1.48,1.48,0,0,0-1.2-1.7,1.48,1.48,0,0,0-1.7,1.2,5.172,5.172,0,0,0,1.4,4.6,5.423,5.423,0,0,0,2.9,1.5,5.423,5.423,0,0,0,1.5,2.9,4.987,4.987,0,0,0,4.6,1.4,1.48,1.48,0,0,0,1.2-1.7,1.48,1.48,0,0,0-1.7-1.2,2.417,2.417,0,0,1-2-.6,2.413,2.413,0,0,1-.7-1.7l1.7-1.7a1.27,1.27,0,0,0,.1-2Z" fill="#fff"/><path d="M-117.2,65.6a1.933,1.933,0,0,0,0,2.8,1.933,1.933,0,0,0,2.8,0,1.933,1.933,0,0,0,0-2.8A2.128,2.128,0,0,0-117.2,65.6Z" fill="#fff"/><circle cx="2" cy="2" r="2" transform="translate(-101.8 81)" fill="#fff"/><path d="M-91.7,95.8a14.764,14.764,0,0,0-6.1-4.3,1.446,1.446,0,0,0-1.9.9,1.446,1.446,0,0,0,.9,1.9h0A10.339,10.339,0,0,1-94,97.7a10.848,10.848,0,0,1,2.5,5.3,1.48,1.48,0,0,0,1.7,1.2,1.48,1.48,0,0,0,1.2-1.7h0a13.8,13.8,0,0,0-3.1-6.7Z" fill="#fff"/><path d="M-83.9,99a1.446,1.446,0,0,0,.9-1.9h0A14.764,14.764,0,0,0-87.3,91,12.815,12.815,0,0,0-94,88a1.456,1.456,0,0,0-1.6,1.3,1.456,1.456,0,0,0,1.3,1.6,10.366,10.366,0,0,1,5.2,2.4,11.166,11.166,0,0,1,3.4,4.9A1.332,1.332,0,0,0-83.9,99Z" fill="#fff"/><path d="M-113.9,119.2a1.555,1.555,0,0,0,2,.7,26.043,26.043,0,0,1,2.5-1,1.344,1.344,0,0,0,.9-1.8h0a1.344,1.344,0,0,0-1.8-.9h0a14.763,14.763,0,0,0-2.9,1.2,1.2,1.2,0,0,0-.7,1.8Z" fill="#fff"/><path d="M-94.8,119.5c.1.1.3.2.4.3.8.4,1.6.8,2.4,1.3a1.528,1.528,0,0,0,2-.4h0a1.528,1.528,0,0,0-.4-2h0a18.212,18.212,0,0,0-2.7-1.5,1.471,1.471,0,0,0-1.9.7,1.358,1.358,0,0,0,.2,1.6Z" fill="#fff"/><path d="M-104.2,117.5a1.433,1.433,0,0,0,1,.4,12.287,12.287,0,0,1,2.7.2,1.456,1.456,0,0,0,1.6-1.3,1.456,1.456,0,0,0-1.3-1.6h0c-1-.1-2.1-.2-3.1-.2a1.538,1.538,0,0,0-1.5,1.5h0a2.664,2.664,0,0,0,.6,1Z" fill="#fff"/></g></g><g transform="translate(616.957)"><path d="M-154.3,71.7V122a1.538,1.538,0,0,0,1.5,1.5h69.7a1.514,1.514,0,0,0,1.5-1.3l3.1-34.6a1.5,1.5,0,0,0-.4-1.1A1.606,1.606,0,0,0-80,86H-96V71.7a.9.9,0,0,0-.1-.5.758.758,0,0,0-.2-.4l-8.8-12V53a4.439,4.439,0,0,0-4.4-4.4h-29.8a4.439,4.439,0,0,0-4.4,4.4v5.7l-10.2,12a.758.758,0,0,0-.2.4,1.421,1.421,0,0,0-.2.6Zm72,25.4a8.588,8.588,0,0,0-5.9.7,5.933,5.933,0,0,1-5.2,0,8.909,8.909,0,0,0-3.9-.9,8.6,8.6,0,0,0-3.9.9,5.857,5.857,0,0,1-4.5.3l-.8-9.2h25Zm-24.4,23.5h-7.4v-5.1h6.9ZM-108.2,86a1.606,1.606,0,0,0-1.1.5,1.5,1.5,0,0,0-.4,1.1l1,11.7v.1l1.2,13.2h-6.7V73.1H-99V85.9Zm-18.6-4.8a5.164,5.164,0,0,0-5.2,5.2h0v5.9a2.22,2.22,0,0,1-2.2,2.2,2.22,2.22,0,0,1-2.2-2.2V89.7a5.164,5.164,0,0,0-5.2-5.2h0a5.164,5.164,0,0,0-5.2,5.2V92a2.22,2.22,0,0,1-2.2,2.2,2.22,2.22,0,0,1-2.2-2.2V73.1H-117V94.2a2.22,2.22,0,0,1-2.2,2.2,2.22,2.22,0,0,1-2.2-2.2V86.3a5.457,5.457,0,0,0-5.4-5.1Zm-14.8-20.4h32.1l-6.9,9.4h-33.2Zm41.2,9.4h-12.3l6.1-8.4Zm-40.4-17.1a1.367,1.367,0,0,1,1.4-1.4h29.8a1.367,1.367,0,0,1,1.4,1.4v4.8h-32.7Zm-10.5,62.3h10.5a1.538,1.538,0,0,0,1.5-1.5,1.538,1.538,0,0,0-1.5-1.5h-10.5V96.7a5.852,5.852,0,0,0,2.2.5,5.164,5.164,0,0,0,5.2-5.2V89.6a2.22,2.22,0,0,1,2.2-2.2,2.22,2.22,0,0,1,2.2,2.2v2.6a5.164,5.164,0,0,0,5.2,5.2,5.164,5.164,0,0,0,5.2-5.2V86.3a2.22,2.22,0,0,1,2.2-2.2,2.22,2.22,0,0,1,2.2,2.2v7.9a5.164,5.164,0,0,0,5.2,5.2h0a5.45,5.45,0,0,0,2.2-.5v13.5h-10.5a1.538,1.538,0,0,0-1.5,1.5,1.538,1.538,0,0,0,1.5,1.5h10.5v5.1h-34.2Zm66.9,5.2h-19.3l-1.7-19.3a8.694,8.694,0,0,0,5.5-.8,5.834,5.834,0,0,1,2.6-.6,5.834,5.834,0,0,1,2.6.6,8.909,8.909,0,0,0,3.9.9,8.6,8.6,0,0,0,3.9-.9,5.835,5.835,0,0,1,4.3-.4Z" fill="#fff"/></g></g><g transform="translate(0 108.444)"><path d="M506.1,415.7a11.275,11.275,0,0,1,14.1-14.1,1.979,1.979,0,0,0,1.8-.4,1.739,1.739,0,0,0,.4-1.8,14.56,14.56,0,0,0-3.6-6.1,14.854,14.854,0,0,0-13.4-4.1,31.85,31.85,0,0,0-3-16.4l7.8-7.8a1.751,1.751,0,0,0,0-2.5c-6.1-6.1-14.6-7.9-20.9-5.1a23.859,23.859,0,0,0-4.9-2.8c-1.7-.7,0,0-.1-.1-8.7-4.1-17.9-4.5-25.4-.9a1.962,1.962,0,0,0-.9.9c-3.6,7.5-3.2,16.8,1,25.4a38.3,38.3,0,0,0,7.5,10.4c7.6,7.6,17.9,11.6,27.3,10.7a15.043,15.043,0,0,0,4.1,13.4A13.589,13.589,0,0,0,504,418a1.739,1.739,0,0,0,1.8-.4A2.657,2.657,0,0,0,506.1,415.7Zm.3-51.9-5.8,5.8a33.681,33.681,0,0,0-5.9-7.6,20.885,20.885,0,0,0-2.2-2c4.3-1.2,9.6.2,13.9,3.8Zm-44.7,13.6c-3.2-7.3-3.5-14.8-.8-21,6.2-2.6,13.7-2.3,20.9.9v.5a19.317,19.317,0,0,1-5.6,14,19.825,19.825,0,0,1-14,5.7C462.1,377.3,461.9,377.3,461.7,377.4Zm38.6,34.3a11.24,11.24,0,0,1-2.4-12.4,1.529,1.529,0,0,0-.3-1.8,1.832,1.832,0,0,0-1.7-.6c-9.1,1.9-19.4-1.7-27-9.2a35.724,35.724,0,0,1-5.4-6.9,23.53,23.53,0,0,0,8.7-2,15.6,15.6,0,0,0,13.7,3.9,1.888,1.888,0,0,0,1.3-1.3,15.964,15.964,0,0,0-3.9-13.7,20.16,20.16,0,0,0,2-8.7,35.724,35.724,0,0,1,6.9,5.4c7.6,7.6,11.2,17.9,9.3,27a1.832,1.832,0,0,0,.6,1.7,1.939,1.939,0,0,0,1.8.3,11.24,11.24,0,0,1,12.4,2.4,11.924,11.924,0,0,1,1.5,1.8,13.71,13.71,0,0,0-11.2,4.1,14.536,14.536,0,0,0-4.3,11.3,3.9,3.9,0,0,1-2-1.3Zm-18.9-40.8a12.316,12.316,0,0,1,2.6,8.5,12.316,12.316,0,0,1-8.5-2.6,17.83,17.83,0,0,0,5.9-5.9Zm-6.4-7.8a1.768,1.768,0,1,1,0-2.5,1.751,1.751,0,0,1,0,2.5Z" fill="#fff"/><g transform="translate(465.155 369.828)"><path d="M-111.3,92.3a17.346,17.346,0,0,0-4.6-15.9,16.945,16.945,0,0,0-15.9-4.6l-13.9,3a10.564,10.564,0,0,0-5.9,3.5,11.512,11.512,0,0,0-2.7,6.3,10.839,10.839,0,0,0,1.6,6.6,10.928,10.928,0,0,0,5.3,4.4l.1.1a21.32,21.32,0,0,1,12,12.1,10.294,10.294,0,0,0,2.4,3.7A8.961,8.961,0,0,0-131,113a10.483,10.483,0,0,0,6.7,1.6,10.567,10.567,0,0,0,6.3-2.7,10.564,10.564,0,0,0,3.5-5.9Zm-13.2,18.3a6.662,6.662,0,0,1-6.8-4.3,25.68,25.68,0,0,0-5.7-8.8,24.3,24.3,0,0,0-8.8-5.7h-.1a6.793,6.793,0,0,1-4.2-6.8,6.8,6.8,0,0,1,5.3-6.1l13.9-3a13.181,13.181,0,0,1,12.1,3.5,12.743,12.743,0,0,1,3.5,12l-3,13.9a6.918,6.918,0,0,1-6.2,5.3Z" fill="#fff"/><path d="M-135.8,67.8a8.394,8.394,0,0,0,7.1-.2,10.351,10.351,0,0,0,5.1-5.4,10.533,10.533,0,0,0,.6-7.4,8.289,8.289,0,0,0-4.6-5.4c-4.5-2-10,.5-12.2,5.6a10.223,10.223,0,0,0,1.6,11.2A12.54,12.54,0,0,0-135.8,67.8Zm-.2-11.2c1.3-3,4.4-4.6,6.8-3.5a8.342,8.342,0,0,1,1.2.8,6.657,6.657,0,0,1,1.2,2,6.689,6.689,0,0,1-.4,4.6,6.255,6.255,0,0,1-3.1,3.3,4.527,4.527,0,0,1-3.6.2h0c-2.6-1.1-3.4-4.4-2.1-7.4Z" fill="#fff"/><path d="M-118.6,71.7c4.1,4.1,11.1,3.6,15.7-1s5.1-11.7,1-15.7-11.1-3.6-15.7,1S-122.7,67.6-118.6,71.7Zm13.8-13.8c2.4,2.4,2,6.9-1,9.9s-7.4,3.5-9.9,1-2-6.9,1-9.9,7.5-3.5,9.9-1Z" fill="#fff"/><path d="M-108,86.4h0a6.914,6.914,0,0,0,1.6,2.2c3,3,8,3.7,12.4,1.5a11.506,11.506,0,0,0,5.5-5.8,9.166,9.166,0,0,0-.1-7.6,8.919,8.919,0,0,0-6-4.7,11.7,11.7,0,0,0-8,1C-107.9,75.7-110.3,81.7-108,86.4Zm7.3-9.6a7.571,7.571,0,0,1,5.1-.7,4.912,4.912,0,0,1,3.3,2.5,4.894,4.894,0,0,1,0,4.1,7.61,7.61,0,0,1-3.6,3.7c-3.3,1.7-7.1.8-8.4-1.8s.3-6.2,3.6-7.8Z" fill="#fff"/><path d="M-91.5,100.9h0c-.7-4.9-5.8-8.1-11.3-7.3s-9.4,5.4-8.7,10.3a9.145,9.145,0,0,0,2.3,4.6,10.621,10.621,0,0,0,9,2.8C-94.7,110.4-90.8,105.8-91.5,100.9Zm-9.3,6.2c-3.3.5-6.2-1.2-6.6-3.8s1.9-5.1,5.2-5.6a5.931,5.931,0,0,1,5.4,1.6,4.637,4.637,0,0,1,1.2,2.3c.4,2.5-2,5.1-5.2,5.5Z" fill="#fff"/></g><g transform="translate(460.977 211.428)"><path d="M-121.8,113.9h30.3a2.22,2.22,0,0,1,2.2,2.2,2.22,2.22,0,0,1-2.2,2.2h-15.2v4.3h15.2a6.487,6.487,0,0,0,6.5-6.5h0a6.487,6.487,0,0,0-6.5-6.5h-14.2A32.588,32.588,0,0,0-89.4,81.3a32.521,32.521,0,0,0-32.5-32.6,32.649,32.649,0,0,0-32.5,32.6A32.8,32.8,0,0,0-121.8,113.9Zm-10.8-8.8A39.053,39.053,0,0,1-97.9,66.4a27.436,27.436,0,0,1,2.1,4.2,34.618,34.618,0,0,0-32.5,34.6c0,1.3.1,2.5.2,3.8a38.8,38.8,0,0,1-4.5-1.4c0-1,0-1.7,0-2.5Zm15.8-19.6a36.567,36.567,0,0,0,21,6.6h0A34.822,34.822,0,0,1-98,96.4a41.008,41.008,0,0,1-21.4-7.3,33.2,33.2,0,0,1,2.6-3.6Zm22.4,2.2h-1.4a32.451,32.451,0,0,1-17.9-5.4,32.687,32.687,0,0,1,3.7-2.8,28.33,28.33,0,0,0,14.2,3.9,14.769,14.769,0,0,0,2.1-.1A21.264,21.264,0,0,1-94.4,87.7Zm-1.4-8.6a23.8,23.8,0,0,1-9.5-2,29.578,29.578,0,0,1,10.9-2.3c.3,1.4.5,2.8.7,4.2a14.768,14.768,0,0,1-2.1.1Zm-27.8,30.4a32.53,32.53,0,0,1-.3-4.4c0-1.2.1-2.3.2-3.5a51.916,51.916,0,0,0,13,5.7,27.807,27.807,0,0,1-11,2.3c-.7,0-1.3-.1-1.9-.1Zm18.3-5.3a49.075,49.075,0,0,1-17.6-7.1,35.232,35.232,0,0,1,1.5-4.2,46.008,46.008,0,0,0,20.3,7.6,37.048,37.048,0,0,1-4.2,3.7Zm4.5-41.8a43.358,43.358,0,0,0-36.1,42.7h0a33.916,33.916,0,0,1-4.2-3.3,47.7,47.7,0,0,1,36.4-43,26.434,26.434,0,0,1,3.9,3.6Zm-18.4-2.6a22.823,22.823,0,0,1-.4-4.5,16.2,16.2,0,0,1,.1-2.2,29.046,29.046,0,0,1,9.7,2.6,48.716,48.716,0,0,0-9.4,4.1Zm-3.9,2.5c-1.3.9-2.5,1.8-3.7,2.8a32.833,32.833,0,0,1-1.5-9.8V53.7a31.068,31.068,0,0,1,4.4-.7,16.2,16.2,0,0,0-.1,2.2,41.777,41.777,0,0,0,.9,7.1Zm-7.2,5.9c-1.1,1.1-2.2,2.3-3.2,3.5a41.572,41.572,0,0,1-3.4-14.4,35.5,35.5,0,0,1,4.3-2.3v.1a37.992,37.992,0,0,0,2.3,13.1ZM-141,60.6a43.993,43.993,0,0,0,4.5,15.1c-.9,1.4-1.8,2.8-2.6,4.2a48.3,48.3,0,0,1-5.6-15.1,37.05,37.05,0,0,1,3.7-4.2Zm-6.8,9.8a52.77,52.77,0,0,0,6.4,14.1,51.377,51.377,0,0,0-3.7,12.7,28.469,28.469,0,0,1-4.9-16,31.537,31.537,0,0,1,2.2-10.8Z" fill="#fff"/></g></g></g></g></g></g></svg>