<svg xmlns="http://www.w3.org/2000/svg" xmlns:xlink="http://www.w3.org/1999/xlink" width="1250" height="631" viewBox="0 0 1250 631">
  <defs>
    <clipPath id="clip-path">
      <rect id="Rectangle_307" data-name="Rectangle 307" width="1250" height="631"/>
    </clipPath>
  </defs>
  <g id="Base_Slider_MAIN" data-name="Base Slider MAIN" clip-path="url(#clip-path)">
    <g id="Group_1489" data-name="Group 1489" transform="translate(-27 -22.055)">
      <g id="Group_1487" data-name="Group 1487" transform="translate(2864.178 1071.557)">
        <path id="Path_1941" data-name="Path 1941" d="M-2395.341-414.591c4.21-8.661,8.092-17.5,12.69-25.952,14.431-26.519,32.98-49.671,57.264-67.919a158.255,158.255,0,0,1,75.219-30.927c21.137-2.835,42.018-1.312,62.867,2.546,22.128,4.095,44.268,8.139,66.454,11.9,15.485,2.629,31.018,5.047,46.6,7.008,12.764,1.606,25.614,2.657,38.457,3.471,11.208.71,22.467,1.187,33.689,1,33.734-.573,66.649-5.743,98.066-18.648,32.423-13.318,60.2-33.327,83.971-58.856,9.713-10.434,18.55-21.688,27.674-32.663,26.151-31.457,58.767-53.826,96.7-68.7a294.452,294.452,0,0,1,63.6-16.706,310.616,310.616,0,0,1,61.428-3.083c35.959,1.706,70.85,8.374,103.33,24.718,13.865,6.977,26.472,15.675,36.108,28.121.507.655.982,1.335,1.478,2a26.948,26.948,0,0,1,5.568,17.072c-.227,72.656-.142,145.313-.143,217.97,0,3.716,0,3.766-3.755,3.786q-53.933.291-107.867.552-60.71.311-121.421.63-55.178.282-110.357.551-56.838.28-113.677.555-55.593.274-111.187.551l-112.839.554q-55.594.274-111.187.551-56.424.278-112.847.553-31.115.151-62.229.293h-2.934Z" fill="#0443b2"/>
      </g>
      <g id="Group_1488" data-name="Group 1488" transform="translate(-274.498 336)">
        <path id="Path_1941-2" data-name="Path 1941" d="M-1299.925-376.478c-4.749-9.77-9.127-19.74-14.314-29.272-16.277-29.912-37.2-56.026-64.59-76.608a178.5,178.5,0,0,0-84.843-34.884c-23.841-3.2-47.394-1.48-70.91,2.872-24.959,4.619-49.932,9.18-74.956,13.428-17.466,2.965-34.986,5.693-52.562,7.9-14.4,1.812-28.891,3-43.377,3.915-12.642.8-25.341,1.339-38,1.124-38.05-.646-75.176-6.478-110.612-21.034-36.571-15.021-67.907-37.591-94.714-66.386-10.957-11.769-20.924-24.463-31.215-36.842-29.5-35.481-66.285-60.713-109.076-77.488a332.132,332.132,0,0,0-71.734-18.844,350.353,350.353,0,0,0-69.287-3.478c-40.56,1.924-79.915,9.446-116.551,27.881-15.639,7.87-29.859,17.681-40.729,31.719-.573.738-1.107,1.506-1.667,2.255a30.4,30.4,0,0,0-6.281,19.256c.256,81.952.16,163.9.16,245.857,0,4.191,0,4.248,4.236,4.271q60.833.329,121.667.623,68.478.351,136.956.711,62.238.318,124.477.621,64.11.316,128.22.626,62.706.309,125.412.622,63.638.314,127.276.624,62.707.309,125.412.622,63.643.314,127.285.624,35.1.17,70.191.331c1.1.005,2.206,0,3.309,0Z" transform="translate(2395.341 712.481)" fill="#fdbf10"/>
      </g>
    </g>
    <path id="Path_1984" data-name="Path 1984" d="M-2211,10291H-957.006v180.186s-61.222-72.1-139.516-91.164-335.718-78.158-511.612,163.992S-2211,10671.675-2211,10671.675Z" transform="translate(2211 -10291)" fill="#fff"/>
  </g>
</svg>
