<svg xmlns="http://www.w3.org/2000/svg" width="1501.103" height="188.463" viewBox="0 0 1501.103 188.463">
  <g id="Group_1558" data-name="Group 1558" transform="translate(117.103 -424.769)">
    <g id="Group_1487" data-name="Group 1487" transform="translate(3176.341 1138.172)">
      <path id="Path_1941" data-name="Path 1941" d="M-2395.341-527.519c2.614-5.378,5.024-10.867,7.879-16.114,8.96-16.466,20.478-30.841,35.555-42.171a98.262,98.262,0,0,1,46.7-19.2c13.124-1.76,26.089-.815,39.034,1.581,13.739,2.543,27.486,5.053,41.262,7.392,9.615,1.632,19.259,3.134,28.934,4.351,7.925,1,15.9,1.65,23.878,2.155,6.959.441,13.949.737,20.918.619,20.945-.356,41.382-3.566,60.889-11.578a147.137,147.137,0,0,0,52.138-36.544c6.031-6.479,11.518-13.466,17.183-20.28,16.237-19.531,36.489-33.421,60.044-42.655a182.827,182.827,0,0,1,39.488-10.373,192.864,192.864,0,0,1,38.141-1.915c22.327,1.059,43.991,5.2,64.158,15.348,8.609,4.332,16.437,9.733,22.42,17.461.315.406.609.829.918,1.241a16.732,16.732,0,0,1,3.458,10.6c-.141,45.113-.088,90.226-.089,135.338,0,2.307,0,2.338-2.331,2.351q-33.488.181-66.975.343-37.7.193-75.391.391-34.261.175-68.521.342-35.291.174-70.582.345l-69.036.342-70.062.344-69.036.342q-35.034.173-70.067.344-19.319.094-38.638.182c-.607,0-1.214,0-1.821,0Z" transform="translate(0 0)" fill="#0443b2"/>
    </g>
    <g id="Group_1488" data-name="Group 1488" transform="translate(-117.103 424.769)">
      <path id="Path_1941-2" data-name="Path 1941" d="M-1782.843-524.606c-2.655-5.463-5.1-11.038-8-16.367-9.1-16.725-20.8-31.326-36.115-42.835a99.81,99.81,0,0,0-47.439-19.505c-13.331-1.788-26.5-.827-39.649,1.606-13.956,2.583-27.919,5.133-41.911,7.508-9.766,1.658-19.562,3.183-29.39,4.42-8.05,1.013-16.155,1.676-24.254,2.189-7.069.448-14.169.749-21.247.628-21.275-.361-42.034-3.622-61.849-11.761a149.457,149.457,0,0,1-52.959-37.119c-6.126-6.581-11.7-13.678-17.453-20.6-16.493-19.839-37.063-33.947-60.99-43.327a185.717,185.717,0,0,0-40.11-10.537,195.9,195.9,0,0,0-38.742-1.945c-22.679,1.076-44.684,5.281-65.169,15.59-8.745,4.4-16.7,9.886-22.773,17.735-.32.413-.619.842-.932,1.261a16.993,16.993,0,0,0-3.512,10.767c.143,45.823.089,91.647.089,137.47,0,2.343,0,2.375,2.369,2.388q34.014.184,68.03.348,38.289.2,76.578.4,34.8.178,69.6.347,35.847.177,71.694.35l70.124.348,71.166.349,70.124.348q35.585.175,71.171.349,19.624.095,39.247.185c.617,0,1.233,0,1.85,0Z" transform="translate(2395.341 712.481)" fill="#fdbf10"/>
    </g>
  </g>
</svg>
