<svg xmlns="http://www.w3.org/2000/svg" width="638.835" height="644.563" viewBox="0 0 638.835 644.563">
  <g id="Grupo_440" data-name="Grupo 440" transform="translate(204.017 -75.581) rotate(30)">
    <path id="Trazado_654" data-name="Trazado 654" d="M337.674,69.744a151.467,151.467,0,0,0-255.057,0L15.166,174.967a95.874,95.874,0,0,0,119.3,139.509l1.272-.565a188.47,188.47,0,0,1,150.074.565,95.332,95.332,0,0,0,38.471,8.14,96.553,96.553,0,0,0,21.461-2.435,95.887,95.887,0,0,0,59.378-145.22Z" transform="translate(78.316 221.065)" fill="#eff3fc"/>
    <path id="Trazado_655" data-name="Trazado 655" d="M111.651,170.515c20.065-7.707,35.31-23.877,42.923-45.533,7.246-20.607,6.653-43.873-1.675-65.514s-23.493-39.283-42.686-49.72C90.051-1.211,67.9-2.995,47.868,4.727c-40.3,15.5-58.8,65.3-41.223,111.048,14.038,36.411,46.782,59.4,79.885,59.4A69.636,69.636,0,0,0,111.651,170.515Z" transform="translate(0 120.156)" fill="#eff3fc"/>
    <path id="Trazado_656" data-name="Trazado 656" d="M91.366,208.233c50.384,0,91.375-46.7,91.375-104.1S141.75,0,91.366,0,0,46.71,0,104.128,40.986,208.233,91.366,208.233Z" transform="translate(151.161 0)" fill="#eff3fc"/>
    <path id="Trazado_657" data-name="Trazado 657" d="M55.041,184.9h0a74.485,74.485,0,0,0,23.531,3.8c36.744,0,72.553-26.743,86.217-67.843,7.869-23.659,7.352-48.676-1.457-70.436-9.217-22.781-26.3-39.316-48.1-46.563s-45.391-4.225-66.411,8.5C28.744,24.525,13.356,44.254,5.5,67.912-11.091,117.823,11.135,170.3,55.041,184.9Z" transform="translate(345.292 48.906)" fill="#eff3fc"/>
    <path id="Trazado_658" data-name="Trazado 658" d="M135.033,13.831l-.015-.015C100.273-11.85,48.308-.725,19.173,38.629-9.934,78-5.383,130.934,29.31,156.62a71.432,71.432,0,0,0,42.9,13.853c26.668,0,54.413-13.611,72.961-38.641C174.278,92.458,169.732,39.526,135.033,13.831Z" transform="translate(457.728 207.828)" fill="#eff3fc"/>
  </g>
</svg>
