<svg xmlns="http://www.w3.org/2000/svg" width="197.998" height="187" viewBox="0 0 197.998 187">
  <g id="ic-anadir-gatito" transform="translate(-546.002 -187)">
    <g id="Group_1053" data-name="Group 1053" transform="translate(-325.332 107.666)">
      <circle id="Ellipse_28" data-name="Ellipse 28" cx="93.5" cy="93.5" r="93.5" transform="translate(871.334 79.334)" fill="#7a9fe9"/>
      <g id="Group_320" data-name="Group 320" transform="translate(893.266 123.541)" opacity="0.56">
        <path id="Path_179" data-name="Path 179" d="M416.992,41.805c-4.188-1.449-8.295-2.868-12.4-4.291-2.058-.713-4.1-1.465-6.178-2.124a1.6,1.6,0,0,0-1.365.166c-4.9,5.472-11.375,8.488-17.859,11.451-7.475,3.415-15.184,6.095-23.449,6.852-11.965,1.1-23.089-1.9-33.8-6.91-5.1-2.387-10.241-4.726-14.58-8.435a10.822,10.822,0,0,1-2.075-1.972c-.97-1.444-2.042-1.354-3.5-.824-5.735,2.085-11.512,4.055-17.437,6.126l-2.407-6.883,18.138-5.226c-.691-2.392-1.283-4.686-2.058-6.916-.144-.413-1.009-.774-1.567-.815-5.251-.382-10.508-.688-15.763-1.02a6.7,6.7,0,0,1-.713-.134c-.206-1.963-.41-3.9-.634-6.035,1.571.071,3.041.123,4.509.206,4.248.24,8.5.516,12.746.7a1.412,1.412,0,0,0,1.056-.883,45.917,45.917,0,0,1,4.669-16.308,3.285,3.285,0,0,0,.13-1.843,96.838,96.838,0,0,1-1.146-25.751,32.146,32.146,0,0,1,3.279-11.914,1.663,1.663,0,0,1,2.125-1,35.786,35.786,0,0,1,22.732,14.428q1.766,2.362,3.645,4.639a3.778,3.778,0,0,0,3.956,1.306,51.462,51.462,0,0,1,8.73-.715c5.951.042,11.924.07,17.837.638,2.582.248,4.116-.4,5.544-2.3,3-4,5.986-8.012,9.984-11.132a36.4,36.4,0,0,1,15.748-6.939,1.408,1.408,0,0,1,1.741.908,30.335,30.335,0,0,1,3.3,11.408c1.064,8.953.307,17.84-1.1,26.7a2.471,2.471,0,0,0,.076,1.381,45.33,45.33,0,0,1,4.806,17.417l18.257-.986c-.21,2.032-.415,4-.638,6.151-3.66.235-7.3.47-10.94.7-1.964.124-3.931.2-5.889.387-.431.04-1.09.351-1.2.682-.731,2.26-1.343,4.559-2.047,7.03l18.115,5.218Z" transform="translate(-279.344 42.11)" fill="#002e8d"/>
      </g>
    </g>
    <circle id="Ellipse_163" data-name="Ellipse 163" cx="31.5" cy="31.5" r="31.5" transform="translate(681 311)" fill="#febf10"/>
    <text id="_" data-name="+" transform="translate(713 355)" fill="#0043bd" font-size="40" font-family="Helvetica"><tspan x="-11.68" y="0">+</tspan></text>
  </g>
</svg>
