<svg id="Group_1228" data-name="Group 1228" xmlns="http://www.w3.org/2000/svg" width="78.581" height="62.006" viewBox="0 0 78.581 62.006">
  <g id="Group_614" data-name="Group 614" transform="translate(36.032 52.002)">
    <g id="Group_613" data-name="Group 613" transform="translate(0)">
      <g id="Group_612" data-name="Group 612">
        <g id="Group_611" data-name="Group 611">
          <path id="Path_1174" data-name="Path 1174" d="M-395.15,394.819h0Z" transform="translate(404.557 -394.819)" fill="#581e1c"/>
          <path id="Path_1175" data-name="Path 1175" d="M-444.407,394.819h0Z" transform="translate(453.232 -394.819)" fill="#581e1c"/>
        </g>
      </g>
    </g>
  </g>
  <g id="Group_615" data-name="Group 615" transform="translate(0 0)">
    <path id="Path_1176" data-name="Path 1176" d="M-282.137,172.828a1.774,1.774,0,0,0-1.6-1.018h-1.385a1.774,1.774,0,0,0-1.6,1.018,1.774,1.774,0,0,0,.243,1.881l.692.831a1.763,1.763,0,0,0,1.358.636,1.763,1.763,0,0,0,1.358-.636l.692-.831a1.774,1.774,0,0,0,.243-1.881Z" transform="translate(348.451 -154.035)" fill="#581e1c"/>
    <path id="Path_1177" data-name="Path 1177" d="M-310.165,138.073a1.546,1.546,0,0,0-1.085.45,1.549,1.549,0,0,0-.45,1.085,1.544,1.544,0,0,0,.45,1.085,1.541,1.541,0,0,0,1.085.451,1.541,1.541,0,0,0,1.085-.451,1.541,1.541,0,0,0,.45-1.085,1.546,1.546,0,0,0-.45-1.085A1.546,1.546,0,0,0-310.165,138.073Z" transform="translate(369.454 -125.476)" fill="#581e1c"/>
    <path id="Path_1178" data-name="Path 1178" d="M-248.5,141.143a1.54,1.54,0,0,0,1.085-.45,1.544,1.544,0,0,0,.45-1.085,1.546,1.546,0,0,0-.45-1.085,1.546,1.546,0,0,0-1.085-.45,1.55,1.55,0,0,0-1.087.45,1.545,1.545,0,0,0-.448,1.085,1.542,1.542,0,0,0,.448,1.085A1.541,1.541,0,0,0-248.5,141.143Z" transform="translate(317.249 -125.476)" fill="#581e1c"/>
    <path id="Path_1179" data-name="Path 1179" d="M-619.389,84.522a12.881,12.881,0,0,0,9.97-12.53,12.889,12.889,0,0,0-2.42-7.509,15.746,15.746,0,0,0,.36-2.327,15.68,15.68,0,0,0-.162-3.8,2.806,2.806,0,0,0-1.427-2.011,2.806,2.806,0,0,0-2.463-.123A15.539,15.539,0,0,0-620.2,59.3a12.846,12.846,0,0,0-2.077-.17h-3.4a12.851,12.851,0,0,0-2.061.167,15.542,15.542,0,0,0-4.67-3.074,2.806,2.806,0,0,0-2.463.124,2.806,2.806,0,0,0-1.427,2.011,15.674,15.674,0,0,0-.162,3.8,15.8,15.8,0,0,0,.356,2.308,12.855,12.855,0,0,0-1.452,2.607h-21.689a21.057,21.057,0,0,0-8.931,1.965,1.535,1.535,0,0,0-.746,2.038,1.535,1.535,0,0,0,1.393.889,1.531,1.531,0,0,0,.645-.143,18.008,18.008,0,0,1,7.639-1.679H-638.4a12.823,12.823,0,0,0-.137,1.851,12.876,12.876,0,0,0,12.861,12.861h3.04a15.618,15.618,0,0,1-7.394,9.3l-.814-1.739a1.535,1.535,0,0,0-2.041-.739,1.535,1.535,0,0,0-.739,2.041l4.144,8.851a1.537,1.537,0,0,0,.3.43l1.788,1.8a.947.947,0,0,1,.209,1.067.947.947,0,0,1-.9.6h-4.364s-16.6-21.506-16.644-21.546a12.285,12.285,0,0,0-9.621-4.647,1.535,1.535,0,0,0-1.535,1.535,1.535,1.535,0,0,0,1.535,1.535,9.245,9.245,0,0,1,9.234,9.234,9.278,9.278,0,0,1-3.761,7.436,1.535,1.535,0,0,0-.547,1.715,1.535,1.535,0,0,0,1.458,1.055h2.438a5.227,5.227,0,0,1,4.988,3.683h-14.34A18.183,18.183,0,0,1-677.41,88.3a18.012,18.012,0,0,1,1.659-7.6,1.535,1.535,0,0,0-.751-2.036,1.535,1.535,0,0,0-2.036.751A21.06,21.06,0,0,0-680.48,88.3a21.179,21.179,0,0,0,.76,5.633A12.432,12.432,0,0,0-688,105.622,12.4,12.4,0,0,0-675.618,118h41.13a1.535,1.535,0,0,0,1.535-1.535,9.967,9.967,0,0,0-2.8-6.935h7.666a3.988,3.988,0,0,0,3.738-2.492,3.988,3.988,0,0,0-.863-4.409l-1.6-1.614-1.913-4.085a18.678,18.678,0,0,0,9.339-12.413Zm-16.081-12.53a9.807,9.807,0,0,1,2.222-6.211,1.536,1.536,0,0,0,.29-1.4,12.65,12.65,0,0,1-.444-2.47,12.626,12.626,0,0,1,.082-2.739,12.513,12.513,0,0,1,3.952,2.837,1.535,1.535,0,0,0,1.466.444,9.851,9.851,0,0,1,2.225-.257h3.4a9.847,9.847,0,0,1,2.237.26,1.534,1.534,0,0,0,1.468-.444,12.512,12.512,0,0,1,3.955-2.84,12.614,12.614,0,0,1,.082,2.739,12.658,12.658,0,0,1-.387,2.264,1.535,1.535,0,0,0,.215,1.6,9.806,9.806,0,0,1,2.222,6.211,9.8,9.8,0,0,1-9.792,9.792h-3.4A9.8,9.8,0,0,1-635.47,71.992Zm-13.29,27.8a12.362,12.362,0,0,0,2.317-6.424l10.112,13.1h-5.419A8.309,8.309,0,0,0-648.76,99.789Zm-26.858,15.145a9.323,9.323,0,0,1-9.313-9.313,9.349,9.349,0,0,1,6.24-8.794,21.261,21.261,0,0,0,19.443,12.707h16.291a6.947,6.947,0,0,1,6.764,5.4h-39.424Z" transform="translate(688 -55.998)" fill="#581e1c"/>
    <path id="Path_1180" data-name="Path 1180" d="M-599.967,168.9a1.55,1.55,0,0,0,1.087-.45,1.545,1.545,0,0,0,.448-1.085,1.545,1.545,0,0,0-.448-1.085,1.55,1.55,0,0,0-1.087-.45,1.549,1.549,0,0,0-1.085.45,1.545,1.545,0,0,0-.448,1.085,1.545,1.545,0,0,0,.448,1.085A1.55,1.55,0,0,0-599.967,168.9Z" transform="translate(614.776 -148.977)" fill="#581e1c"/>
  </g>
</svg>
