<svg id="Group_1227" data-name="Group 1227" xmlns="http://www.w3.org/2000/svg" width="66.353" height="87.903" viewBox="0 0 66.353 87.903">
  <g id="Group_609" data-name="Group 609" transform="translate(0)">
    <path id="Path_1162" data-name="Path 1162" d="M127.825,71.07a1.288,1.288,0,0,0,1.288-1.288V5.807a3.1,3.1,0,0,0-3.1-3.1H113.779A3.1,3.1,0,0,0,110.71,0h-5.723a1.288,1.288,0,0,0,0,2.575h5.723a.521.521,0,0,1,.52.52v7.661a.521.521,0,0,1-.52.52H84.091a.521.521,0,0,1-.52-.52V3.1a.521.521,0,0,1,.52-.52H98.819a1.288,1.288,0,0,0,0-2.575H84.091a3.1,3.1,0,0,0-3.069,2.711H68.783a3.1,3.1,0,0,0-3.1,3.1V52.074a3.1,3.1,0,0,0-2.928,3.087v3.781a10.621,10.621,0,0,0,2.928,7.327V84.808a3.1,3.1,0,0,0,3.1,3.1h57.235a3.1,3.1,0,0,0,3.1-3.1V75.951a1.288,1.288,0,1,0-2.575,0v8.857a.521.521,0,0,1-.52.52H68.783a.521.521,0,0,1-.52-.52V68.268A10.6,10.6,0,0,0,73.422,69.6h38.939a1.314,1.314,0,0,0,.138-.008,10.658,10.658,0,0,0,10.318-10.655V11.172a3.1,3.1,0,0,0-3.1-3.1h-5.916V5.287h12.212a.521.521,0,0,1,.52.52V69.783a1.287,1.287,0,0,0,1.287,1.288Zm-54.4-4.042a8.1,8.1,0,0,1-8.087-8.087V55.161a.521.521,0,0,1,.52-.52h35.323a.521.521,0,0,1,.52.52v3.781a10.642,10.642,0,0,0,3.721,8.087Zm46.3-56.376a.521.521,0,0,1,.52.52V58.941a8.13,8.13,0,0,1-7.909,8.085h-.013a8.1,8.1,0,0,1-7.394-4.905h3.915a1.288,1.288,0,0,0,0-2.575H104.3c-.015-.2-.025-.4-.025-.606v-1.45h4.568a1.288,1.288,0,0,0,0-2.575h-4.58a3.1,3.1,0,0,0-3.083-2.85h-26.5v-8.6a1.288,1.288,0,0,0-2.575,0v8.6H68.263V5.807a.521.521,0,0,1,.52-.52H81v2.79H75.2a3.1,3.1,0,0,0-3.1,3.1V37.3a1.288,1.288,0,0,0,2.575,0V11.172a.521.521,0,0,1,.52-.52H81v.1a3.1,3.1,0,0,0,3.1,3.1H110.71a3.1,3.1,0,0,0,3.1-3.1v-.1Z" transform="translate(-62.76)" fill="#8a471a"/>
    <path id="Path_1163" data-name="Path 1163" d="M221.152,165.639a2.88,2.88,0,0,1-.965,1.844,5,5,0,0,0-1.683,4.176,5.053,5.053,0,0,0,4.66,4.612q.18.013.359.013a4.99,4.99,0,0,0,1.819-.341,2.888,2.888,0,0,1,2.1,0,5,5,0,0,0,2.174.329,5.06,5.06,0,0,0,4.66-4.558,5.01,5.01,0,0,0-2.018-4.507,2.823,2.823,0,0,1-1.136-1.817,5.032,5.032,0,0,0-9.969.249Zm3.394-1.307a2.456,2.456,0,0,1,4.032,1.465,5.383,5.383,0,0,0,2.146,3.48,2.457,2.457,0,0,1-2.349,4.266,5.454,5.454,0,0,0-3.966,0,2.456,2.456,0,0,1-2.516-4.13,5.45,5.45,0,0,0,1.819-3.493,2.455,2.455,0,0,1,.834-1.588Z" transform="translate(-191.752 -133.494)" fill="#8a471a"/>
    <path id="Path_1164" data-name="Path 1164" d="M217.744,120.914a3.961,3.961,0,1,0-3.961-3.961,3.965,3.965,0,0,0,3.961,3.961Zm0-5.346a1.386,1.386,0,1,1-1.385,1.386A1.387,1.387,0,0,1,217.744,115.567Z" transform="translate(-187.854 -93.593)" fill="#8a471a"/>
    <path id="Path_1165" data-name="Path 1165" d="M273.089,120.914a3.961,3.961,0,1,0-3.961-3.961,3.965,3.965,0,0,0,3.961,3.961Zm0-5.346a1.386,1.386,0,1,1-1.385,1.386A1.387,1.387,0,0,1,273.089,115.567Z" transform="translate(-233.697 -93.593)" fill="#8a471a"/>
    <path id="Path_1166" data-name="Path 1166" d="M178.777,158.381a3.961,3.961,0,1,0-3.961-3.961,3.965,3.965,0,0,0,3.961,3.961Zm0-5.346a1.386,1.386,0,1,1-1.386,1.386,1.387,1.387,0,0,1,1.386-1.386Z" transform="translate(-155.578 -124.627)" fill="#8a471a"/>
    <path id="Path_1167" data-name="Path 1167" d="M308.094,154.419a3.961,3.961,0,1,0,3.961-3.961,3.965,3.965,0,0,0-3.961,3.961Zm3.961-1.385a1.385,1.385,0,1,1-1.385,1.385A1.387,1.387,0,0,1,312.055,153.033Z" transform="translate(-265.974 -124.626)" fill="#8a471a"/>
    <path id="Path_1168" data-name="Path 1168" d="M348.636,98.084a1.288,1.288,0,0,0,1.288,1.288h2.749a1.288,1.288,0,0,0,0-2.575h-2.749A1.288,1.288,0,0,0,348.636,98.084Z" transform="translate(-299.555 -80.177)" fill="#8a471a"/>
    <path id="Path_1169" data-name="Path 1169" d="M198.819,32.84h-.006a1.288,1.288,0,0,0-.006,2.575h.025a1.288,1.288,0,0,0,.006-2.575Z" transform="translate(-174.388 -27.202)" fill="#8a471a"/>
    <path id="Path_1170" data-name="Path 1170" d="M317.715,35.416h.006a1.288,1.288,0,0,0,.006-2.575H317.7a1.288,1.288,0,0,0-.006,2.575Z" transform="translate(-272.866 -27.203)" fill="#8a471a"/>
    <path id="Path_1171" data-name="Path 1171" d="M189.4,266.926H153.362a1.288,1.288,0,1,0,0,2.575H189.4a1.288,1.288,0,0,0,0-2.575Z" transform="translate(-136.74 -221.099)" fill="#8a471a"/>
    <path id="Path_1172" data-name="Path 1172" d="M122.242,463.509a1.288,1.288,0,1,0,0,2.575h2.707a1.288,1.288,0,1,0,0-2.575Z" transform="translate(-110.963 -383.931)" fill="#8a471a"/>
    <path id="Path_1173" data-name="Path 1173" d="M135.449,436.709a1.288,1.288,0,0,0-1.288-1.288H122.241a1.288,1.288,0,1,0,0,2.575h11.921A1.288,1.288,0,0,0,135.449,436.709Z" transform="translate(-110.962 -360.665)" fill="#8a471a"/>
  </g>
</svg>
