<svg id="Group_1226" data-name="Group 1226" xmlns="http://www.w3.org/2000/svg" width="80.346" height="70.976" viewBox="0 0 80.346 70.976">
  <path id="Path_1154" data-name="Path 1154" d="M76.561,40.419a21.281,21.281,0,0,0-35.407-2.045l-.981,1.308-.981-1.307a21.384,21.384,0,0,0-17.025-8.513H21.66A21.279,21.279,0,0,0,3.706,39.717,23.662,23.662,0,0,0,0,52.443v3.872A34.061,34.061,0,0,0,15.438,84.89l2.285,1.5,9.391,6.152,12.324,8.074a1.339,1.339,0,0,0,1.473,0L65.047,84.627a34.084,34.084,0,0,0,15.3-28.484V54.418a27.806,27.806,0,0,0-3.785-14ZM32.28,92.058l.493.987L22.01,85.994l-2.818-1.846-.767-.5,6.793-10.19a1.339,1.339,0,0,0,.225-.743V68.521c0-.088,0-.177,0-.262a7.391,7.391,0,0,1,1.791-4.493l.216-.254.707,2.829a1.339,1.339,0,0,0,1.3,1.015h3.206a2.671,2.671,0,0,1,2.228,1.194,6.334,6.334,0,0,0,3.939,2.681v1.481a2.681,2.681,0,0,1-2.678,2.678,1.339,1.339,0,0,0-1.339,1.339V81.6a4.664,4.664,0,0,1-.788,2.6l-1.665,2.5a1.339,1.339,0,0,0-.225.743v4.017a1.338,1.338,0,0,0,.141.6Zm5.215,4.08-1.339-.877V94.138a1.339,1.339,0,0,0-.142-.6L36,93.509l1.5-1.5Zm10.713-3.572-2.678,1.774V86.773l2.678-2.009ZM50.71,75.8a8.93,8.93,0,0,1-2.084,5.3l-5.239,3.929a1.34,1.34,0,0,0-.536,1.071V96.114l-2.678,1.774V88.781a1.339,1.339,0,0,0-2.286-.947l-3.07,3.07V87.847l1.439-2.16A7.331,7.331,0,0,0,37.495,81.6V77.9a5.365,5.365,0,0,0,4.017-5.187V70.034a1.339,1.339,0,0,0-1.339-1.339,3.662,3.662,0,0,1-3.05-1.631,5.347,5.347,0,0,0-2.234-1.9l2.051-2.051L36.9,63.2l4.652,2.327a17.448,17.448,0,0,0,7.765,1.832h.581l.677,5.072a18.5,18.5,0,0,1,.14,3.372Zm-9.2-21.835v4.35a1.007,1.007,0,0,1-1.006,1.006H38.834v-2.39a12.208,12.208,0,0,1,3.6-8.69,3.325,3.325,0,0,1,2.347-.972h2.9a3.146,3.146,0,0,1,2.24.929l2.7,2.7a1.339,1.339,0,0,0,.947.392h2.678v2.009A2.011,2.011,0,0,1,54.234,55.3H50.886a1.339,1.339,0,0,0-1.339,1.339v8.035h-.234a14.755,14.755,0,0,1-6.566-1.55L40.489,62h.017a3.688,3.688,0,0,0,3.684-3.684v-4.35Zm36.156,2.178a31.412,31.412,0,0,1-14.1,26.251l-12.682,8.4V82.568a11.6,11.6,0,0,0,2.5-6.635,21.209,21.209,0,0,0-.161-3.859l-1-7.484V57.982h2.009a4.692,4.692,0,0,0,4.687-4.687V49.947a1.339,1.339,0,0,0-1.339-1.339H54.119l-2.3-2.3a5.808,5.808,0,0,0-4.134-1.713h-2.9a6,6,0,0,0-4.241,1.756,14.87,14.87,0,0,0-4.384,10.583v3.175l-4.572,4.572H30.506L29.42,60.335a1.339,1.339,0,0,0-2.319-.543l-1.9,2.238a10.078,10.078,0,0,0-2.427,6.138c0,.117-.006.235-.006.352v3.786l-3.738,5.608a33.5,33.5,0,0,1-6.063-5.869l-1.206-1.508A1.339,1.339,0,1,0,9.667,72.21l1.205,1.508a36.184,36.184,0,0,0,6.667,6.428l-1.348,2.022A31.386,31.386,0,0,1,2.678,56.315V52.443A20.986,20.986,0,0,1,5.965,41.155,18.6,18.6,0,0,1,21.66,32.539h.507A18.693,18.693,0,0,1,37.05,39.981L39.1,42.716a1.339,1.339,0,0,0,2.143,0L43.3,39.981a18.6,18.6,0,0,1,30.951,1.787,25.123,25.123,0,0,1,3.42,12.65Z" transform="translate(0 -29.857)" fill="#b57b24"/>
  <path id="Path_1155" data-name="Path 1155" d="M290.133,157.879h2.678v2.678h-2.678Z" transform="translate(-244.603 -137.789)" fill="#b57b24"/>
  <path id="Path_1156" data-name="Path 1156" d="M196.267,285.879h2.678v2.678h-2.678Z" transform="translate(-165.467 -245.702)" fill="#b57b24"/>
  <path id="Path_1157" data-name="Path 1157" d="M358.232,286.17a1.339,1.339,0,0,0-1.882.208h0l-1.205,1.507a33.357,33.357,0,0,1-9.538,8.158L342,298.1a1.339,1.339,0,0,0,1.325,2.328l0,0,3.6-2.06a36.031,36.031,0,0,0,10.3-8.811l1.205-1.507a1.339,1.339,0,0,0-.208-1.882Z" transform="translate(-287.761 -245.7)" fill="#b57b24"/>
  <path id="Path_1158" data-name="Path 1158" d="M454.921,200.546a1.339,1.339,0,0,0-1.339,1.339v.441a20.667,20.667,0,0,1-1.062,6.546l-.208.624a1.339,1.339,0,0,0,2.532.872l.008-.025.208-.624a23.34,23.34,0,0,0,1.2-7.393v-.441a1.339,1.339,0,0,0-1.339-1.339Z" transform="translate(-381.27 -173.76)" fill="#b57b24"/>
  <path id="Path_1159" data-name="Path 1159" d="M462.139,157.879a1.339,1.339,0,0,0-1.339,1.339v1.339a1.339,1.339,0,0,0,2.678,0v-1.339A1.339,1.339,0,0,0,462.139,157.879Z" transform="translate(-388.488 -137.789)" fill="#b57b24"/>
  <path id="Path_1160" data-name="Path 1160" d="M37.873,208.872a20.666,20.666,0,0,1-1.062-6.546v-.441a1.339,1.339,0,0,0-2.678,0v.441a23.34,23.34,0,0,0,1.2,7.393l.208.624a1.339,1.339,0,1,0,2.549-.822l-.008-.025Z" transform="translate(-28.777 -173.76)" fill="#b57b24"/>
</svg>
