<svg xmlns="http://www.w3.org/2000/svg" width="85" height="85" viewBox="0 0 85 85">
  <g id="Grupo_318" data-name="Grupo 318" transform="translate(-1579 -746)">
    <circle id="Elipse_27" data-name="Elipse 27" cx="42.5" cy="42.5" r="42.5" transform="translate(1579 746)" fill="#febf10"/>
    <g id="Grupo_316" data-name="Grupo 316" transform="translate(2159.5 763)">
      <g id="Grupo_311" data-name="Grupo 311" transform="translate(-563)">
        <g id="Grupo_310" data-name="Grupo 310">
          <path id="Trazado_176" data-name="Trazado 176" d="M-538.25,0A24.779,24.779,0,0,0-563,24.75a24.455,24.455,0,0,0,3.861,13.266l-3.75,9.362a1.55,1.55,0,0,0,.343,1.671,1.546,1.546,0,0,0,1.092.452,1.56,1.56,0,0,0,.575-.111l9.362-3.75A24.455,24.455,0,0,0-538.25,49.5,24.779,24.779,0,0,0-513.5,24.75,24.779,24.779,0,0,0-538.25,0Zm0,46.406a21.351,21.351,0,0,1-12.208-3.777,1.531,1.531,0,0,0-.879-.275,1.548,1.548,0,0,0-.575.111l-6.763,2.71,2.71-6.763a1.551,1.551,0,0,0-.164-1.454,21.351,21.351,0,0,1-3.777-12.208A21.68,21.68,0,0,1-538.25,3.094,21.68,21.68,0,0,1-516.594,24.75,21.68,21.68,0,0,1-538.25,46.406Z" transform="translate(563)" fill="#0643b2"/>
        </g>
      </g>
      <g id="Grupo_313" data-name="Grupo 313" transform="translate(-550.625 27.844)">
        <g id="Grupo_312" data-name="Grupo 312">
          <path id="Trazado_177" data-name="Trazado 177" d="M-421.078,288h-12.375A1.547,1.547,0,0,0-435,289.547a1.547,1.547,0,0,0,1.547,1.547h12.375a1.547,1.547,0,0,0,1.547-1.547A1.547,1.547,0,0,0-421.078,288Z" transform="translate(435 -288)" fill="#0643b2"/>
        </g>
      </g>
      <g id="Grupo_315" data-name="Grupo 315" transform="translate(-550.625 18.563)">
        <g id="Grupo_314" data-name="Grupo 314">
          <path id="Trazado_178" data-name="Trazado 178" d="M-411.8,192h-21.656A1.547,1.547,0,0,0-435,193.547a1.547,1.547,0,0,0,1.547,1.547H-411.8a1.547,1.547,0,0,0,1.547-1.547A1.547,1.547,0,0,0-411.8,192Z" transform="translate(435 -192)" fill="#0643b2"/>
        </g>
      </g>
    </g>
  </g>
</svg>
