<svg xmlns="http://www.w3.org/2000/svg" width="56" height="57" viewBox="0 0 56 57">
  <g id="Grupo_1672" data-name="Grupo 1672" transform="translate(-308 -4501)">
    <g id="Grupo_1268" data-name="Grupo 1268" transform="translate(307.666 4501.334)">
      <ellipse id="Elipse_27" data-name="Elipse 27" cx="28" cy="28.5" rx="28" ry="28.5" transform="translate(0.334 -0.333)" fill="#febf10"/>
    </g>
    <g id="Page-1" transform="translate(322.5 4516.5)">
      <g id="_003---Call" data-name="003---Call" transform="translate(0 0)">
        <path id="Shape" d="M-645.918,189.218a10.829,10.829,0,0,1-3.27-6.148.92.92,0,0,1,.264-.77l2.072-2.072a.925.925,0,0,0,.13-1.145l-3.3-5.124a.925.925,0,0,0-1.2-.337l-5.3,2.495a.92.92,0,0,0-.509.919c.277,2.637,1.427,9.119,7.8,15.489s12.851,7.52,15.489,7.8a.92.92,0,0,0,.919-.509l2.495-5.3a.925.925,0,0,0-.335-1.2l-5.124-3.3a.925.925,0,0,0-1.145.13L-639,192.223a.92.92,0,0,1-.77.264,10.829,10.829,0,0,1-6.148-3.27Z" transform="translate(657.03 -173.497)" fill="#0643b2"/>
        <path id="Shape-2" data-name="Shape" d="M-409.866,270.991a.925.925,0,0,1-.925-.925,6.947,6.947,0,0,0-6.939-6.939.925.925,0,0,1-.925-.925.925.925,0,0,1,.925-.925,8.8,8.8,0,0,1,8.789,8.789A.925.925,0,0,1-409.866,270.991Z" transform="translate(431.147 -256.65)" fill="#0643b2"/>
        <path id="Shape-3" data-name="Shape" d="M-405.24,187.341a.925.925,0,0,1-.925-.925A11.578,11.578,0,0,0-417.73,174.85a.925.925,0,0,1-.925-.925.925.925,0,0,1,.925-.925,13.43,13.43,0,0,1,13.415,13.415.925.925,0,0,1-.271.654A.925.925,0,0,1-405.24,187.341Z" transform="translate(431.147 -173)" fill="#0643b2"/>
      </g>
    </g>
  </g>
</svg>
