<svg xmlns="http://www.w3.org/2000/svg" width="142" height="142" viewBox="0 0 142 142">
  <g id="Grupo_1053" data-name="Grupo 1053" transform="translate(-1215 -4624)">
    <circle id="Elipse_58" data-name="Elipse 58" cx="71" cy="71" r="71" transform="translate(1215 4624)" fill="#ff7322"/>
    <g id="Grupo_469" data-name="Grupo 469" transform="translate(1917.59 4656.637)">
      <path id="Trazado_669" data-name="Trazado 669" d="M-280.359,187.118a2.6,2.6,0,0,0-2.621,2.6,2.6,2.6,0,0,0,2.621,2.6,2.6,2.6,0,0,0,2.6-2.6A2.6,2.6,0,0,0-280.359,187.118Z" transform="translate(-318.277 -159.652)" fill="#fff"/>
      <path id="Trazado_670" data-name="Trazado 670" d="M-579.288,46.29c-3.03-19.744-13.5-34.782-33.111-38.58a26.723,26.723,0,0,0-8-9.487c-7.334-5.253-16.142-5.16-24.759-2.154a2.6,2.6,0,0,0,.3,5.014c6.13,1.379,8.7,4.448,10.192,7.122a32.69,32.69,0,0,0-12.1,5.023c-18.382,12.134-23.636,28.589-20.248,42.4v0c3.971,16.173,20.575,26.3,21.28,26.723a2.6,2.6,0,0,0,1.359.371,11.6,11.6,0,0,0,8.473-3.892c2.8-3.3,3.6-8.221,2.372-14.615a2.6,2.6,0,0,0-3.6-1.886,24.476,24.476,0,0,1-9.613,1.68c-6.317-.238-11.284-3.28-14.781-9.047a28.042,28.042,0,0,1,5.624-6.946c5.163-4.506,11.046-5.537,17.487-3.063A129.177,129.177,0,0,0-617.961,50.8c11.575,2.306,25.352,3.34,36.258-1.33a3.792,3.792,0,0,0,2.038-1.379,2.6,2.6,0,0,0,.376-1.8ZM-638.22,68.169c.242,3.213-.3,5.692-1.6,7.259a6.109,6.109,0,0,1-3.886,2.053A55.173,55.173,0,0,1-654.9,67.52,26.026,26.026,0,0,0-638.22,68.169Zm27.7-21.391c-2.229-4.172-5.821-12.592-3.62-20.354,1.256-4.428,4.3-8.1,9.072-10.944,11.849,5.5,17.878,16.683,20.3,29.628C-592.607,48.114-602.229,47.908-610.519,46.778ZM-618.965,6.9a57.149,57.149,0,0,0-10.34.373,19.046,19.046,0,0,0-6.55-7.989A18.038,18.038,0,0,1-618.965,6.9ZM-636.5,40.123c-9.157-3.663-18.765-1.484-26.208,7.483.074-7.766,3.211-19.743,18.811-30.04a26.856,26.856,0,0,1,5.039-2.705,46.433,46.433,0,0,1,12.91-2.705,46.187,46.187,0,0,1,14.841,1.174c-10.332,8.154-10.9,20.316-5.681,32.4a127.433,127.433,0,0,1-19.713-5.6Z" transform="translate(0 0)" fill="#fff"/>
    </g>
  </g>
</svg>
