<svg xmlns="http://www.w3.org/2000/svg" width="142" height="142" viewBox="0 0 142 142">
  <g id="Grupo_1051" data-name="Grupo 1051" transform="translate(-409 -2737)">
    <circle id="Elipse_9" data-name="Elipse 9" cx="71" cy="71" r="71" transform="translate(409 2737)" fill="#f11f39"/>
    <path id="Trazado_661" data-name="Trazado 661" d="M-283.3,367.69a1.562,1.562,0,0,0-.513.086,1.559,1.559,0,0,0-.894.794,1.553,1.553,0,0,0-.07,1.194,1.562,1.562,0,0,0,1.477,1.052,1.546,1.546,0,0,0,.511-.086,1.565,1.565,0,0,0,.966-1.988,1.563,1.563,0,0,0-1.477-1.052Z" transform="translate(767.545 2458.387)" fill="#fff"/>
    <path id="Trazado_662" data-name="Trazado 662" d="M-483.06,17.649a9.932,9.932,0,0,1-3.581-2.244l3.726-2.575a1.563,1.563,0,0,0,.67-1.4,1.563,1.563,0,0,0-.873-1.287L-488.1,7.708l-.145-3.372a1.562,1.562,0,0,0-.543-1.119,1.563,1.563,0,0,0-1.188-.368l-2.829.31-1.222-5.914a1.562,1.562,0,0,0-1.37-1.238,1.56,1.56,0,0,0-1.594.932l-7.9,18.172A22.1,22.1,0,0,0-512.3,13.39a28.475,28.475,0,0,0-17.871,5.29A28.293,28.293,0,0,0-541.276,33.6a21.233,21.233,0,0,0-.676,9.6l-14.829,3.34A1.563,1.563,0,0,0-558,48.061c0,.177.052,4.356,5.06,6.288a9.933,9.933,0,0,1,3.581,2.244l-3.726,2.575a1.563,1.563,0,0,0-.67,1.4,1.563,1.563,0,0,0,.873,1.287l4.985,2.432.145,3.373a1.563,1.563,0,0,0,.544,1.119,1.561,1.561,0,0,0,1.188.367l2.829-.311,1.222,5.914a1.562,1.562,0,0,0,1.37,1.238,1.559,1.559,0,0,0,.161.008,1.563,1.563,0,0,0,1.432-.94l7.9-18.176a21.225,21.225,0,0,0,4.025,1.271,23.839,23.839,0,0,0,4.909.5c.542,0,1.1-.019,1.65-.053a1.565,1.565,0,0,0,1.458-1.661,1.569,1.569,0,0,0-1.659-1.458,19.845,19.845,0,0,1-9.592-1.672,15.633,15.633,0,0,1-3.616-2.327c.094,0,1.139-.012,1.579-.041a25.386,25.386,0,0,0,3.48-.484,35.726,35.726,0,0,0,5.2-1.531,46.337,46.337,0,0,0,5.461-2.477,53.857,53.857,0,0,0,5.525-3.384,47.713,47.713,0,0,0,11.22-10.709,25.567,25.567,0,0,0,3.528-6.488,15.858,15.858,0,0,1,1.031,5.709c.011,6.911-4.094,14.067-10.713,18.675-.237.166-.473.327-.7.475a1.566,1.566,0,0,0-.453,2.163,1.56,1.56,0,0,0,1.309.708,1.562,1.562,0,0,0,.853-.253c.259-.169.522-.347.783-.528a30.662,30.662,0,0,0,5.116-4.486,28.213,28.213,0,0,0,3.78-5.227,23.837,23.837,0,0,0,3.153-11.527,19.566,19.566,0,0,0-.276-3.279l14.838-3.342A1.563,1.563,0,0,0-478,23.937c0-.177-.052-4.356-5.06-6.288ZM-496.092,2.708l.511,2.476a1.563,1.563,0,0,0,1.7,1.237l2.582-.283.113,2.633a1.563,1.563,0,0,0,.876,1.337l3.42,1.669L-498.4,19.735a18.135,18.135,0,0,0-3.717-3.154Zm-55.723,48.726a4.83,4.83,0,0,1-2.707-2.2l13.35-3.007a17.9,17.9,0,0,0,1.7,3.537l-7.286,5.036A12.649,12.649,0,0,0-551.815,51.434Zm17.936,3.979-6.029,13.878-.512-2.477a1.561,1.561,0,0,0-1.7-1.237l-2.582.284-.113-2.633a1.562,1.562,0,0,0-.876-1.337l-3.42-1.669,11.515-7.958a17.966,17.966,0,0,0,1.938,1.858,18.55,18.55,0,0,0,1.779,1.291Zm29.885-24.393A44.348,44.348,0,0,1-514.473,41a47.5,47.5,0,0,1-10.3,5.5,26.068,26.068,0,0,1-8.864,1.861h-.026a11.028,11.028,0,0,1-3.287-.453c-4.846-8.088-1.087-19.937,8.565-26.667s22.127-6.2,28.105,1.106c-.084,2.4-1.424,5.536-3.717,8.67Zm9.162-5.247a17.849,17.849,0,0,0-1.694-3.537l7.288-5.037a12.647,12.647,0,0,0,5.053,3.365,4.83,4.83,0,0,1,2.707,2.2Z" transform="translate(998 2772.001)" fill="#fff"/>
  </g>
</svg>
