<svg xmlns="http://www.w3.org/2000/svg" width="142" height="142" viewBox="0 0 142 142">
  <g id="Grupo_1052" data-name="Grupo 1052" transform="translate(-1032 -4624)">
    <circle id="Elipse_57" data-name="Elipse 57" cx="71" cy="71" r="71" transform="translate(1032 4624)" fill="#f11f39"/>
    <g id="Grupo_468" data-name="Grupo 468" transform="translate(1673.334 4603.245)">
      <g id="Grupo_459" data-name="Grupo 459" transform="translate(-616 56.043)">
        <g id="Grupo_458" data-name="Grupo 458" transform="translate(0 0)">
          <path id="Trazado_664" data-name="Trazado 664" d="M-532.433,68.467c-4.165-3.319-10.043-6.037-17.472-8.077-14.287-3.923-30.4-4.347-36.662-4.347A29.467,29.467,0,0,0-616,85.477V97.948a29.467,29.467,0,0,0,29.434,29.434c7.484,0,13.1-2.344,19.054-4.826,6.154-2.567,12.516-5.221,21.465-5.221a21.4,21.4,0,0,0,21.38-21.38V83.484C-524.667,77.626-527.28,72.573-532.433,68.467Zm-1.5,30.5a1.784,1.784,0,0,0,2.522.076,21.432,21.432,0,0,0,3.178-3.775v.691a17.832,17.832,0,0,1-17.812,17.812c-9.663,0-16.361,2.794-22.838,5.5-5.611,2.341-10.912,4.551-17.681,4.551a25.9,25.9,0,0,1-25.811-24.2,29.457,29.457,0,0,0,25.811,15.3c7.484,0,13.1-2.344,19.054-4.826,6.154-2.567,12.516-5.221,21.465-5.221.665,0,1.336-.031,2-.093a1.784,1.784,0,0,0,1.61-1.942,1.785,1.785,0,0,0-1.942-1.61c-.55.051-1.11.078-1.664.078-9.663,0-16.361,2.794-22.838,5.5-5.611,2.341-10.912,4.551-17.681,4.551a25.9,25.9,0,0,1-25.866-25.866,25.9,25.9,0,0,1,25.866-25.866c6.119,0,21.849.411,35.717,4.219,15.006,4.121,22.614,10.733,22.614,19.653a17.878,17.878,0,0,1-5.624,12.957A1.784,1.784,0,0,0-533.935,98.962Z" transform="translate(616 -56.043)" fill="#fff"/>
        </g>
      </g>
      <g id="Grupo_461" data-name="Grupo 461" transform="translate(-538.804 99.076)">
        <g id="Grupo_460" data-name="Grupo 460" transform="translate(0 0)">
          <path id="Trazado_665" data-name="Trazado 665" d="M-179.848,298.305a1.784,1.784,0,0,0-2.374-.854l-.042.021a1.784,1.784,0,0,0-.8,2.393,1.784,1.784,0,0,0,1.6.986,1.777,1.777,0,0,0,.786-.183A1.784,1.784,0,0,0-179.848,298.305Z" transform="translate(183.25 -297.281)" fill="#fff"/>
        </g>
      </g>
      <g id="Grupo_463" data-name="Grupo 463" transform="translate(-575.707 63.668)">
        <g id="Grupo_462" data-name="Grupo 462" transform="translate(0 0)">
          <path id="Trazado_666" data-name="Trazado 666" d="M-388.105,98.8l-.092-.007a1.784,1.784,0,0,0-1.92,1.636,1.784,1.784,0,0,0,1.636,1.92l.091.007c.048,0,.1.006.144.006a1.784,1.784,0,0,0,1.776-1.642A1.784,1.784,0,0,0-388.105,98.8Z" transform="translate(390.123 -98.789)" fill="#fff"/>
        </g>
      </g>
      <g id="Grupo_465" data-name="Grupo 465" transform="translate(-608.865 63.178)">
        <g id="Grupo_464" data-name="Grupo 464" transform="translate(0 0)">
          <path id="Trazado_667" data-name="Trazado 667" d="M-500.054,111.542c-1.769-3.5-5.706-6.519-11.7-8.982A76.33,76.33,0,0,0-525.508,98.6c-2.155-.423-4.414-.8-6.714-1.121A1.783,1.783,0,0,0-534.236,99a1.784,1.784,0,0,0,1.52,2.014c2.235.313,4.429.679,6.521,1.089,12.253,2.4,20.621,6.43,22.958,11.049a6.914,6.914,0,0,1,.73,3.2,10.688,10.688,0,0,1-10.676,10.676A54.532,54.532,0,0,0-530.855,130c-2.558.862-5.041,1.893-7.443,2.889-1.589.659-3.231,1.341-4.861,1.959a28.691,28.691,0,0,1-10.544,2.225,18.752,18.752,0,0,1-18.731-18.73A18.752,18.752,0,0,1-553.7,99.61c2.015,0,4.06.038,6.079.113q.514.019,1.029.042a1.783,1.783,0,0,0,1.861-1.7,1.784,1.784,0,0,0-1.7-1.861q-.527-.023-1.054-.043c-2.063-.077-4.153-.116-6.212-.116a22.324,22.324,0,0,0-22.3,22.3,22.323,22.323,0,0,0,22.3,22.3,32.008,32.008,0,0,0,11.809-2.456c1.682-.638,3.351-1.33,4.965-2,2.346-.974,4.772-1.981,7.215-2.8a51.022,51.022,0,0,1,16.532-2.787,14.26,14.26,0,0,0,14.244-14.244A10.4,10.4,0,0,0-500.054,111.542Z" transform="translate(576.002 -96.042)" fill="#fff"/>
        </g>
      </g>
      <g id="Grupo_467" data-name="Grupo 467" transform="translate(-593.902 70.274)">
        <g id="Grupo_466" data-name="Grupo 466" transform="translate(0 0)">
          <path id="Trazado_668" data-name="Trazado 668" d="M-483.079,135.82c-4.987,0-9.044,3.679-9.044,8.2s4.057,8.2,9.044,8.2,9.044-3.679,9.044-8.2S-478.092,135.82-483.079,135.82Zm0,12.835c-3.02,0-5.477-2.079-5.477-4.634s2.457-4.634,5.477-4.634,5.477,2.079,5.477,4.634S-480.059,148.655-483.079,148.655Z" transform="translate(492.123 -135.82)" fill="#fff"/>
        </g>
      </g>
    </g>
  </g>
</svg>
