<svg xmlns="http://www.w3.org/2000/svg" width="142" height="142" viewBox="0 0 142 142">
  <g id="Grupo_1054" data-name="Grupo 1054" transform="translate(-1398 -4624)">
    <circle id="Elipse_59" data-name="Elipse 59" cx="71" cy="71" r="71" transform="translate(1398 4624)" fill="#fcd6c0"/>
    <g id="Grupo_470" data-name="Grupo 470" transform="translate(1424.678 4650.588)">
      <path id="Trazado_671" data-name="Trazado 671" d="M80.464,8.226A27.1,27.1,0,0,0,45.308,5.11a25.591,25.591,0,0,0-9.743,14.219c-.474,1.755-.877,3.334-1.267,4.861-2.287,8.951-3.435,13.443-10.669,20.677L20.614,47.88l4.355,4.354L17.36,59.842a10.125,10.125,0,0,0-5.94-1.876A11.451,11.451,0,0,0,.247,71.579,9.84,9.84,0,0,0,6.785,78.9,4.7,4.7,0,0,1,9.779,81.9a9.8,9.8,0,0,0,2.386,3.864c4.193,4.192,11.21,3.8,15.474-.773a10.889,10.889,0,0,0,1.245-13.609L36.5,63.764l4.306,4.305,2.677-2.677c8.6-8.6,13.492-8.87,25.987-12.3A25.8,25.8,0,0,0,87.731,34.6,27.165,27.165,0,0,0,80.464,8.226ZM32.813,60.078,21.3,71.589,23.665,73.4a4.672,4.672,0,0,1,1.82,3.4,6.308,6.308,0,0,1-6.159,6.662,4.73,4.73,0,0,1-4.6-3.217,9.868,9.868,0,0,0-6.29-6.29,4.611,4.611,0,0,1-3.094-3.486,5.95,5.95,0,0,1,1.907-5.613c2.343-2.184,6.146-2.362,8.066.2l1.8,2.4L28.656,55.92ZM68.09,48.063c-12.083,3.318-18.177,3.929-27.274,12.644L27.983,47.875c8.9-9.162,9.358-15.125,12.615-27.188A20.832,20.832,0,0,1,61.033,5.262a22.191,22.191,0,0,1,15.744,6.651C88.806,23.94,83.678,43.784,68.09,48.063Z" transform="translate(0)" fill="#fff"/>
    </g>
  </g>
</svg>
