<svg xmlns="http://www.w3.org/2000/svg" width="142" height="142" viewBox="0 0 142 142">
  <g id="Grupo_1055" data-name="Grupo 1055" transform="translate(-1573 -4624)">
    <circle id="Elipse_60" data-name="Elipse 60" cx="71" cy="71" r="71" transform="translate(1573 4624)" fill="#78c0f8"/>
    <g id="Grupo_471" data-name="Grupo 471" transform="translate(2278.816 4630.209)">
      <path id="Trazado_672" data-name="Trazado 672" d="M-673,45.684v56.085a1.648,1.648,0,0,0,1.648,1.648h77.645a1.648,1.648,0,0,0,1.641-1.5l3.428-38.532a1.648,1.648,0,0,0-.426-1.258,1.648,1.648,0,0,0-1.216-.536h-17.839V45.684a1.536,1.536,0,0,0-.083-.536,1.535,1.535,0,0,0-.235-.438L-618.2,31.366V24.959a4.911,4.911,0,0,0-4.908-4.9h-33.234a4.909,4.909,0,0,0-4.9,4.9V31.3l-11.358,13.318a1.975,1.975,0,0,0-.266.48,1.978,1.978,0,0,0-.128.589Zm80.111,28.293a9.771,9.771,0,0,0-6.566.791,6.407,6.407,0,0,1-5.778,0,9.607,9.607,0,0,0-4.378-1.047A9.617,9.617,0,0,0-614,74.768a6.409,6.409,0,0,1-4.967.34l-.908-10.222h27.791Zm-27.16,26.145h-8.243V94.393h7.734Zm-1.623-38.532a1.648,1.648,0,0,0-1.216.535,1.648,1.648,0,0,0-.426,1.258l1.156,13.007c0,.019,0,.039.005.058l1.3,14.649h-7.441V47.332h16.878V61.59Zm-20.692-5.325a5.8,5.8,0,0,0-5.786,5.791V68.6a2.5,2.5,0,0,1-2.5,2.5,2.5,2.5,0,0,1-2.5-2.5V65.7a5.8,5.8,0,0,0-5.786-5.791,5.8,5.8,0,0,0-5.791,5.791v2.653a2.5,2.5,0,0,1-2.49,2.5,2.5,2.5,0,0,1-2.5-2.5V47.332h38.117V70.856a2.493,2.493,0,0,1-2.491,2.491,2.5,2.5,0,0,1-2.5-2.491v-8.8a5.8,5.8,0,0,0-5.791-5.791ZM-658.84,33.552h35.74l-7.676,10.484h-37.006Zm45.826,10.484h-13.677l6.84-9.342Zm-44.939-19.078a1.61,1.61,0,0,1,1.608-1.608h33.234a1.612,1.612,0,0,1,1.612,1.608v5.3h-36.454ZM-669.7,94.393h11.66a1.648,1.648,0,0,0,1.648-1.648,1.648,1.648,0,0,0-1.648-1.648H-669.7V73.582a5.756,5.756,0,0,0,2.5.566,5.8,5.8,0,0,0,5.786-5.791V65.7a2.5,2.5,0,0,1,2.5-2.5,2.5,2.5,0,0,1,2.491,2.5v2.9a5.8,5.8,0,0,0,5.791,5.791,5.8,5.8,0,0,0,5.791-5.791V62.056a2.5,2.5,0,0,1,2.491-2.5,2.5,2.5,0,0,1,2.5,2.5v8.8a5.8,5.8,0,0,0,5.791,5.786,5.75,5.75,0,0,0,2.491-.564V91.1h-11.66a1.648,1.648,0,0,0-1.648,1.648,1.648,1.648,0,0,0,1.648,1.648h11.66v5.729H-669.7Zm74.489,5.729h-21.526l-1.914-21.536a9.709,9.709,0,0,0,6.148-.878,6.349,6.349,0,0,1,2.894-.691,6.338,6.338,0,0,1,2.889.691,9.686,9.686,0,0,0,4.38,1.043,9.674,9.674,0,0,0,4.375-1.041,6.458,6.458,0,0,1,4.783-.4Z" fill="#fff"/>
    </g>
  </g>
</svg>
