<svg xmlns="http://www.w3.org/2000/svg" width="63" height="63" viewBox="0 0 63 63">
  <g id="Grupo_1052" data-name="Grupo 1052" transform="translate(-1422 -100)">
    <circle id="Elipse_28" data-name="Elipse 28" cx="31.5" cy="31.5" r="31.5" transform="translate(1422 100)" fill="#7a9fe9"/>
    <g id="Grupo_320" data-name="Grupo 320" transform="translate(1149.891 157.11)" opacity="0.56">
      <path id="Trazado_179" data-name="Trazado 179" d="M325.42-14.021l-4.151-1.436c-.689-.239-1.374-.49-2.068-.711a.537.537,0,0,0-.457.056,17.108,17.108,0,0,1-5.978,3.833,24.189,24.189,0,0,1-7.849,2.294A21.692,21.692,0,0,1,293.6-12.3a20.841,20.841,0,0,1-4.881-2.823,3.625,3.625,0,0,1-.695-.66c-.325-.483-.684-.453-1.172-.276-1.92.7-3.853,1.357-5.837,2.05l-.806-2.3,6.071-1.749c-.231-.8-.429-1.569-.689-2.315-.048-.138-.338-.259-.525-.273-1.758-.128-3.517-.23-5.276-.342a2.242,2.242,0,0,1-.239-.045l-.212-2.02c.526.024,1.018.041,1.509.069,1.422.08,2.844.173,4.266.234a.473.473,0,0,0,.354-.3,15.371,15.371,0,0,1,1.563-5.459,1.1,1.1,0,0,0,.044-.617,32.417,32.417,0,0,1-.384-8.62,10.761,10.761,0,0,1,1.1-3.988.557.557,0,0,1,.711-.336,11.979,11.979,0,0,1,7.609,4.83q.591.791,1.22,1.553a1.265,1.265,0,0,0,1.324.437,17.226,17.226,0,0,1,2.922-.239c1.992.014,3.991.024,5.971.214a1.806,1.806,0,0,0,1.856-.771,18.822,18.822,0,0,1,3.342-3.726,12.185,12.185,0,0,1,5.272-2.323.471.471,0,0,1,.583.3,10.155,10.155,0,0,1,1.105,3.819,32.412,32.412,0,0,1-.367,8.937.827.827,0,0,0,.025.462,15.173,15.173,0,0,1,1.609,5.83l6.111-.33-.214,2.059-3.662.234c-.657.042-1.316.068-1.971.13-.144.013-.365.118-.4.228-.245.756-.45,1.526-.685,2.353l6.064,1.747Z" transform="translate(0 0)" fill="#002e8d"/>
    </g>
  </g>
</svg>
