<svg xmlns="http://www.w3.org/2000/svg" width="142" height="142" viewBox="0 0 142 142">
  <g id="Grupo_1052" data-name="Grupo 1052" transform="translate(-1460 -3580)">
    <circle id="Elipse_10" data-name="Elipse 10" cx="71" cy="71" r="71" transform="translate(1460 3580)" fill="#02a2ae"/>
    <path id="Trazado_663" data-name="Trazado 663" d="M-867.226,117.823a6.213,6.213,0,0,0-8.795,0l-14.038,14.064a10.877,10.877,0,0,0-14.212,1.023l-12.2,12.2a10.893,10.893,0,0,0-2.726-.346,10.9,10.9,0,0,0-10.778,9.373,8.656,8.656,0,0,0-.882-.045,8.56,8.56,0,0,0-8.55,8.55c0,.261.013.52.036.777h-4.078a1.555,1.555,0,0,0-1.271.659,1.554,1.554,0,0,0-.193,1.419l8.395,23.475A1.555,1.555,0,0,0-935.051,190h11.193a1.555,1.555,0,0,0,1.555-1.555,3.113,3.113,0,0,1,3.109-3.109h7a1.555,1.555,0,0,0,1.555-1.555,1.555,1.555,0,0,0-1.555-1.555h-7a6.23,6.23,0,0,0-6.022,4.664h-8.74l-7.283-20.365h72.073l-7.283,20.365h-8.74a6.23,6.23,0,0,0-6.022-4.664h-7a1.555,1.555,0,0,0-1.555,1.555,1.555,1.555,0,0,0,1.555,1.555h7a3.113,3.113,0,0,1,3.109,3.109A1.555,1.555,0,0,0-886.547,190h11.193a1.555,1.555,0,0,0,1.464-1.031l8.395-23.475a1.554,1.554,0,0,0-.193-1.419,1.555,1.555,0,0,0-1.271-.659h-4.155a10.9,10.9,0,0,0-10.447-9.319,10.885,10.885,0,0,0,.3-13.417l14.036-14.064a6.213,6.213,0,0,0,0-8.793Zm-7.041,45.593h-61.972a5.521,5.521,0,0,1-.056-.777,5.447,5.447,0,0,1,5.441-5.441,5.421,5.421,0,0,1,1.819.311,1.555,1.555,0,0,0,2.074-1.52,7.781,7.781,0,0,1,7.766-8.119,7.775,7.775,0,0,1,7.773,7.773,1.555,1.555,0,0,0,1.555,1.555,1.555,1.555,0,0,0,1.555-1.555,10.841,10.841,0,0,0-.413-2.976,5.56,5.56,0,0,1,1.63-.116,5.4,5.4,0,0,1,3.711,1.9,1.555,1.555,0,0,0,2.239.137,7.75,7.75,0,0,1,5.27-2.058,7.789,7.789,0,0,1,7.337,5.2,1.555,1.555,0,0,0,2.331.778,7.762,7.762,0,0,1,4.324-1.312,7.787,7.787,0,0,1,7.617,6.219Zm4.841-39-15.058,15.087a1.555,1.555,0,0,0,0,2.2,7.768,7.768,0,0,1,0,10.993l-2.045,2.046a10.98,10.98,0,0,0-4.582-4.213l2.23-2.229a1.555,1.555,0,0,0,0-2.2,1.555,1.555,0,0,0-2.2,0l-3.415,3.415a11,11,0,0,0-1.381-.091,10.851,10.851,0,0,0-6.219,1.95,8.457,8.457,0,0,0-1.876-1.177l8.495-8.495a1.555,1.555,0,0,0,0-2.2,1.555,1.555,0,0,0-2.2,0l-9.922,9.922a8.6,8.6,0,0,0-2.426.367,11.007,11.007,0,0,0-3.38-3.357l11.33-11.328a7.766,7.766,0,0,1,10.992,0,1.555,1.555,0,0,0,2.2,0l15.059-15.087a3.106,3.106,0,0,1,4.4,0,3.106,3.106,0,0,1,0,4.4Z" transform="translate(2436.201 3498)" fill="#fff"/>
    <ellipse id="Elipse_56" data-name="Elipse 56" cx="1" cy="1.5" rx="1" ry="1.5" transform="translate(1530 3680)" fill="#fff"/>
  </g>
</svg>
