<svg xmlns="http://www.w3.org/2000/svg" width="142" height="142" viewBox="0 0 142 142">
  <g id="Grupo_1050" data-name="Grupo 1050" transform="translate(-1418 -1882)">
    <circle id="Elipse_8" data-name="Elipse 8" cx="71" cy="71" r="71" transform="translate(1418 1882)" fill="#ba86d8"/>
    <g id="Grupo_444" data-name="Grupo 444" transform="translate(1458.99 1910.667)">
      <g id="Grupo_443" data-name="Grupo 443">
        <path id="Trazado_659" data-name="Trazado 659" d="M79.57,9.344c-1.957-2.878-3.684-5.526-5.3-7.944a3.5,3.5,0,0,0-.921-.921,3,3,0,0,0-4.145.921c-1.5,2.418-3.224,4.951-5.3,7.944-9.1,13.355-22.68,33.5-22.68,45.016a30.372,30.372,0,0,0,8.98,21.529,30.759,30.759,0,0,0,21.529,8.865,30.661,30.661,0,0,0,30.509-30.509C102.251,42.732,88.665,22.7,79.57,9.344Zm9.556,62.285a24.35,24.35,0,0,1-17.385,7.138,24.835,24.835,0,0,1-17.385-7.138,24.35,24.35,0,0,1-7.138-17.385c0-9.671,13.01-28.9,21.644-41.677,1.036-1.5,1.957-2.993,2.878-4.26.921,1.266,1.842,2.763,2.878,4.26,8.635,12.894,21.644,32.006,21.644,41.677A24.835,24.835,0,0,1,89.126,71.629Z" transform="translate(-41.232 0)" fill="#fff"/>
      </g>
    </g>
    <g id="Grupo_446" data-name="Grupo 446" transform="translate(1495.234 1962.832)">
      <g id="Grupo_445" data-name="Grupo 445" transform="translate(0)">
        <path id="Trazado_660" data-name="Trazado 660" d="M179.264,181.247a2.952,2.952,0,0,0-3.108,2.763,14.82,14.82,0,0,1-2.187,7.023,13.992,13.992,0,0,1-5.3,5.066,3.042,3.042,0,0,0,2.993,5.3,19.95,19.95,0,0,0,7.368-7.138,19.592,19.592,0,0,0,2.993-9.9A2.952,2.952,0,0,0,179.264,181.247Z" transform="translate(-167.152 -181.24)" fill="#fff"/>
      </g>
    </g>
  </g>
</svg>
