<svg xmlns="http://www.w3.org/2000/svg" width="56" height="57" viewBox="0 0 56 57">
  <g id="Grupo_1672" data-name="Grupo 1672" transform="translate(-228 -4983)">
    <ellipse id="Elipse_27" data-name="Elipse 27" cx="28" cy="28.5" rx="28" ry="28.5" transform="translate(228 4983)" fill="#febf10"/>
    <g id="edit" transform="translate(241 4994.256)">
      <path id="Trazado_1985" data-name="Trazado 1985" d="M23.507,112.544H3.748A3.751,3.751,0,0,1,0,108.8V89.037a3.751,3.751,0,0,1,3.748-3.748H15.331a1.022,1.022,0,1,1,0,2.044H3.748a1.706,1.706,0,0,0-1.7,1.7V108.8a1.706,1.706,0,0,0,1.7,1.7h19.76a1.706,1.706,0,0,0,1.7-1.7V97.213a1.022,1.022,0,1,1,2.044,0V108.8A3.751,3.751,0,0,1,23.507,112.544Zm0,0" transform="translate(0 -79.842)" fill="#0643b2"/>
      <path id="Trazado_1986" data-name="Trazado 1986" d="M172.167,21.77a1.022,1.022,0,0,1-1-1.222l.963-4.819a1.019,1.019,0,0,1,.279-.522L186.522,1.095a3.746,3.746,0,1,1,5.3,5.3L177.708,20.507a1.015,1.015,0,0,1-.522.279l-4.817.963A1.007,1.007,0,0,1,172.167,21.77Zm4.819-1.985h0Zm-2.913-3.351-.6,3.012,3.01-.6L190.376,4.949a1.7,1.7,0,0,0-2.409-2.409Zm0,0" transform="translate(-160.213)" fill="#0643b2"/>
      <path id="Trazado_1987" data-name="Trazado 1987" d="M381.883,48.51a1.014,1.014,0,0,1-.722-.3l-3.854-3.855a1.022,1.022,0,0,1,1.446-1.446l3.854,3.855a1.023,1.023,0,0,1-.724,1.746Zm0,0" transform="translate(-352.925 -39.888)" fill="#0643b2"/>
    </g>
  </g>
</svg>
