<svg xmlns="http://www.w3.org/2000/svg" width="53" height="53" viewBox="0 0 53 53">
  <g id="Group_534" data-name="Group 534" transform="translate(-0.107 0)">
    <circle id="Ellipse_73" data-name="Ellipse 73" cx="26.5" cy="26.5" r="26.5" transform="translate(0.107 0)" fill="#fdbf10"/>
    <g id="Group_533" data-name="Group 533" transform="translate(13.348 11.01)">
      <g id="Group_532" data-name="Group 532" transform="translate(0 0)">
        <path id="Path_909" data-name="Path 909" d="M-119.039,416.527a.6.6,0,0,1-.555-.391.594.594,0,0,1,.173-.648.6.6,0,0,1,.693-.051.594.594,0,0,1,.267.616A.6.6,0,0,1-119.039,416.527Z" transform="translate(145.388 -395.391)" fill="#002a91"/>
        <path id="Path_910" data-name="Path 910" d="M-279.621,415.311a2.2,2.2,0,0,1-1.6-.611c-1.112-1.112-.667-3.3,1.012-4.977a5.627,5.627,0,0,1,2.558-1.52,2.466,2.466,0,0,1,2.419.508c1.112,1.112.667,3.3-1.012,4.977h0A5.039,5.039,0,0,1-279.621,415.311Zm2.791-6.032a2.342,2.342,0,0,0-.543.07,4.5,4.5,0,0,0-2,1.208c-1.273,1.273-1.555,2.765-1.012,3.308s2.035.261,3.308-1.012h0c1.273-1.273,1.555-2.765,1.012-3.308A1.049,1.049,0,0,0-276.829,409.279Zm.166,3.992h0Z" transform="translate(298.026 -388.569)" fill="#002a91"/>
        <path id="Path_911" data-name="Path 911" d="M-530.16,99.357a.59.59,0,0,0-.723.416l-.005.019a8.474,8.474,0,0,1-8.161,6.228,8.468,8.468,0,0,1-8.458-8.458c0-5.762,6.667-13.958,8.458-16.055,1.567,1.835,6.866,8.336,8.168,13.8a.59.59,0,0,0,.71.437.59.59,0,0,0,.437-.71,30.615,30.615,0,0,0-5.056-9.974,57.113,57.113,0,0,0-3.823-4.851.59.59,0,0,0-.438-.195.59.59,0,0,0-.438.195c-.018.02-1.446,1.608-3.157,3.929a46.934,46.934,0,0,0-5.034-6.947.59.59,0,0,0-.438-.2h0a.59.59,0,0,0-.438.195,48.941,48.941,0,0,0-3.874,5.032c-2.6,3.879-3.922,7.138-3.922,9.685a8.243,8.243,0,0,0,8.013,8.23,9.655,9.655,0,0,0,9.287,7.058,9.657,9.657,0,0,0,9.3-7.1l.006-.022a.59.59,0,0,0-.416-.723Zm-25.01-7.445c0-4.765,5.448-11.532,7.053-13.42a45.965,45.965,0,0,1,4.716,6.7q-.329.468-.662.963c-3.068,4.574-4.624,8.411-4.624,11.4a9.674,9.674,0,0,0,.1,1.387,7.063,7.063,0,0,1-6.583-7.038Z" transform="translate(556.35 -77)" fill="#002a91"/>
      </g>
    </g>
  </g>
</svg>
