<svg xmlns="http://www.w3.org/2000/svg" width="324.05" height="57.903" viewBox="0 0 324.05 57.903">
  <g id="Group_622" data-name="Group 622" transform="translate(-53.878 -131.902)">
    <g id="Group_621" data-name="Group 621" transform="translate(53.878 149.732)">
      <path id="Path_1181" data-name="Path 1181" d="M54.18,185.176l4.475-24.964a8.229,8.229,0,0,1,1.873-4.413,5.119,5.119,0,0,1,3.783-1.32,5.582,5.582,0,0,1,3.771,1.232,7.008,7.008,0,0,1,2.061,3.721L75.7,181.3l5.2-21.921a6.718,6.718,0,0,1,2.011-3.671,5.469,5.469,0,0,1,3.7-1.232,5.349,5.349,0,0,1,3.972,1.4,8.463,8.463,0,0,1,1.91,4.638l4.073,25.19q.1.554.151,1.069t.05.918a4.368,4.368,0,0,1-1.156,3.192,4.1,4.1,0,0,1-3.067,1.182,3.481,3.481,0,0,1-2.791-1.206,6.889,6.889,0,0,1-1.332-3.671l-2.64-21.871q-3.041,13.122-4.512,18.553a32.9,32.9,0,0,1-2.275,6.712,2.807,2.807,0,0,1-1.32,1.144,5.769,5.769,0,0,1-2.175.339,4.793,4.793,0,0,1-3.218-.955,6.2,6.2,0,0,1-1.684-3.243l-5.405-22.55-2.865,21.343a8.4,8.4,0,0,1-1.458,4.123,3.571,3.571,0,0,1-2.916,1.282A3.879,3.879,0,0,1,55,190.882a4.453,4.453,0,0,1-1.118-3.192,9.678,9.678,0,0,1,.075-1.119Q54.029,185.93,54.18,185.176Z" transform="translate(-53.878 -152.268)" fill="#0643b2"/>
      <path id="Path_1182" data-name="Path 1182" d="M123.479,190.24a8.147,8.147,0,0,1-2.978,2.3,9.118,9.118,0,0,1-3.809.792,11.16,11.16,0,0,1-8.761-4.1A15.049,15.049,0,0,1,104.373,179a14.851,14.851,0,0,1,3.671-10.207,11.51,11.51,0,0,1,8.95-4.148,8.993,8.993,0,0,1,3.657.7,7.724,7.724,0,0,1,2.828,2.187,5.365,5.365,0,0,1,1.685-1.935,3.856,3.856,0,0,1,2.187-.654,3.4,3.4,0,0,1,3.016,1.434,7.986,7.986,0,0,1,.981,4.449v16.316a7.985,7.985,0,0,1-.993,4.45,3.389,3.389,0,0,1-3,1.458,3.772,3.772,0,0,1-2.288-.678A5.2,5.2,0,0,1,123.479,190.24ZM112.77,178.9a7.471,7.471,0,0,0,1.458,4.814,4.629,4.629,0,0,0,3.8,1.823,4.563,4.563,0,0,0,3.746-1.848,7.507,7.507,0,0,0,1.458-4.789,7.18,7.18,0,0,0-1.47-4.675,4.607,4.607,0,0,0-3.734-1.811,4.669,4.669,0,0,0-3.783,1.8A7.166,7.166,0,0,0,112.77,178.9Z" transform="translate(-59.549 -153.41)" fill="#0643b2"/>
      <path id="Path_1183" data-name="Path 1183" d="M148.583,193.464a13.666,13.666,0,0,1-7.2-1.735q-2.853-1.735-2.854-4.3a3.842,3.842,0,0,1,.905-2.589,2.783,2.783,0,0,1,2.187-1.055,9.906,9.906,0,0,1,3.771,1.182,9.916,9.916,0,0,0,3.746,1.182,2.632,2.632,0,0,0,1.633-.478,1.437,1.437,0,0,0,.628-1.182q0-1.208-3.9-2.766c-.235-.1-.4-.167-.5-.2q-4.475-1.86-6.109-3.683a6.652,6.652,0,0,1-1.633-4.613,7.938,7.938,0,0,1,2.878-6.248,10.7,10.7,0,0,1,7.278-2.5,12.721,12.721,0,0,1,6.738,1.684q2.766,1.684,2.765,3.972a3.3,3.3,0,0,1-.968,2.413,3.207,3.207,0,0,1-2.375.981,9.424,9.424,0,0,1-3.156-.981,9.385,9.385,0,0,0-3.381-.98,2.115,2.115,0,0,0-1.332.39,1.227,1.227,0,0,0-.5,1.018q0,1.13,3.218,2.363,1.509.578,2.388.98A14.66,14.66,0,0,1,158,179.775a6.591,6.591,0,0,1,1.546,4.413,8.359,8.359,0,0,1-3.1,6.624A11.671,11.671,0,0,1,148.583,193.464Z" transform="translate(-63.385 -153.391)" fill="#0643b2"/>
      <path id="Path_1184" data-name="Path 1184" d="M167.562,171.7h-.3a5.362,5.362,0,0,1-3.356-.943,3.057,3.057,0,0,1-1.219-2.552,3,3,0,0,1,1.219-2.564,6.709,6.709,0,0,1,3.658-1.031v-3.57a7.906,7.906,0,0,1,1.006-4.45,3.472,3.472,0,0,1,3.067-1.458,3.416,3.416,0,0,1,3.029,1.458,7.99,7.99,0,0,1,.993,4.45v3.57h.7a6.407,6.407,0,0,1,3.758.955,3.063,3.063,0,0,1,1.345,2.639,2.954,2.954,0,0,1-1.3,2.615,6.9,6.9,0,0,1-3.859.88h-.653v14.38a8.053,8.053,0,0,1-.981,4.462,3.417,3.417,0,0,1-3.041,1.445,3.47,3.47,0,0,1-3.067-1.458,7.9,7.9,0,0,1-1.006-4.45Z" transform="translate(-66.098 -152.341)" fill="#0643b2"/>
      <path id="Path_1185" data-name="Path 1185" d="M192.186,181.252a5.15,5.15,0,0,0,1.885,3.57,6.617,6.617,0,0,0,4.248,1.282,12.117,12.117,0,0,0,5.091-1.32,13.114,13.114,0,0,1,3.457-1.32,3.214,3.214,0,0,1,2.338.881,3.016,3.016,0,0,1,.905,2.262q0,2.615-3.646,4.714a16.878,16.878,0,0,1-8.572,2.1,13.481,13.481,0,0,1-10.031-4.1,14.082,14.082,0,0,1-4.022-10.282,14.514,14.514,0,0,1,3.909-10.358,12.835,12.835,0,0,1,9.741-4.148,12.632,12.632,0,0,1,9.427,3.9,13.14,13.14,0,0,1,3.8,9.528,3.291,3.291,0,0,1-.829,2.565,5.028,5.028,0,0,1-3.193.729Zm-.1-5.3h10.709a5,5,0,0,0-1.659-3.444,5.41,5.41,0,0,0-7.14-.075A6.059,6.059,0,0,0,192.086,175.948Z" transform="translate(-68.474 -153.397)" fill="#0643b2"/>
      <path id="Path_1186" data-name="Path 1186" d="M218.136,187.166V170.851a7.92,7.92,0,0,1,.992-4.437,3.451,3.451,0,0,1,3.055-1.446,3.838,3.838,0,0,1,2.187.641,5.536,5.536,0,0,1,1.685,1.948,9.173,9.173,0,0,1,2.665-2.049,6.39,6.39,0,0,1,2.841-.692,4.009,4.009,0,0,1,2.9,1.195,3.829,3.829,0,0,1,1.219,2.828q0,2.438-4.475,4.073-1.608.578-2.413.955a4.419,4.419,0,0,0-2.036,1.621,7.211,7.211,0,0,0-.5,3.231v8.446a7.909,7.909,0,0,1-1.006,4.45,3.942,3.942,0,0,1-6.121,0A7.986,7.986,0,0,1,218.136,187.166Z" transform="translate(-72.326 -153.429)" fill="#0643b2"/>
      <path id="Path_1187" data-name="Path 1187" d="M257.01,185.176l4.475-24.964a8.23,8.23,0,0,1,1.873-4.413,5.118,5.118,0,0,1,3.783-1.32,5.582,5.582,0,0,1,3.771,1.232,7,7,0,0,1,2.061,3.721l5.556,21.871,5.2-21.921a6.723,6.723,0,0,1,2.012-3.671,5.468,5.468,0,0,1,3.7-1.232,5.348,5.348,0,0,1,3.972,1.4,8.456,8.456,0,0,1,1.91,4.638L299.4,185.7q.1.554.151,1.069c.034.344.05.65.05.918a4.368,4.368,0,0,1-1.156,3.192,4.1,4.1,0,0,1-3.067,1.182,3.482,3.482,0,0,1-2.791-1.206,6.889,6.889,0,0,1-1.332-3.671l-2.64-21.871q-3.041,13.122-4.513,18.553a32.808,32.808,0,0,1-2.274,6.712,2.805,2.805,0,0,1-1.319,1.144,5.777,5.777,0,0,1-2.176.339,4.8,4.8,0,0,1-3.218-.955,6.206,6.206,0,0,1-1.684-3.243l-5.405-22.55-2.865,21.343a8.393,8.393,0,0,1-1.458,4.123,3.571,3.571,0,0,1-2.916,1.282,3.879,3.879,0,0,1-2.953-1.182,4.449,4.449,0,0,1-1.119-3.192,9.679,9.679,0,0,1,.075-1.119Q256.859,185.93,257.01,185.176Z" transform="translate(-76.658 -152.268)" fill="#0643b2"/>
      <path id="Path_1188" data-name="Path 1188" d="M326.31,190.24a8.145,8.145,0,0,1-2.98,2.3,9.108,9.108,0,0,1-3.808.792,11.16,11.16,0,0,1-8.761-4.1A15.053,15.053,0,0,1,307.2,179a14.851,14.851,0,0,1,3.671-10.207,11.512,11.512,0,0,1,8.95-4.148,8.99,8.99,0,0,1,3.657.7,7.726,7.726,0,0,1,2.829,2.187,5.355,5.355,0,0,1,1.684-1.935,3.856,3.856,0,0,1,2.187-.654,3.4,3.4,0,0,1,3.016,1.434,7.986,7.986,0,0,1,.981,4.449v16.316a7.985,7.985,0,0,1-.993,4.45,3.387,3.387,0,0,1-3,1.458,3.772,3.772,0,0,1-2.288-.678A5.2,5.2,0,0,1,326.31,190.24ZM315.6,178.9a7.476,7.476,0,0,0,1.458,4.814,4.629,4.629,0,0,0,3.8,1.823,4.562,4.562,0,0,0,3.746-1.848,7.5,7.5,0,0,0,1.458-4.789,7.17,7.17,0,0,0-1.471-4.675,4.6,4.6,0,0,0-3.733-1.811,4.669,4.669,0,0,0-3.783,1.8A7.166,7.166,0,0,0,315.6,178.9Z" transform="translate(-82.329 -153.41)" fill="#0643b2"/>
      <path id="Path_1189" data-name="Path 1189" d="M345.158,171.7h-.3a5.365,5.365,0,0,1-3.357-.943,3.057,3.057,0,0,1-1.219-2.552,3,3,0,0,1,1.219-2.564,6.711,6.711,0,0,1,3.658-1.031v-3.57a7.913,7.913,0,0,1,1.006-4.45,3.474,3.474,0,0,1,3.067-1.458,3.414,3.414,0,0,1,3.029,1.458,7.989,7.989,0,0,1,.994,4.45v3.57h.7a6.409,6.409,0,0,1,3.759.955,3.061,3.061,0,0,1,1.345,2.639,2.958,2.958,0,0,1-1.294,2.615,6.9,6.9,0,0,1-3.86.88h-.653v14.38a8.06,8.06,0,0,1-.981,4.462,3.418,3.418,0,0,1-3.042,1.445,3.472,3.472,0,0,1-3.067-1.458,7.909,7.909,0,0,1-1.006-4.45Z" transform="translate(-86.045 -152.341)" fill="#0643b2"/>
      <path id="Path_1190" data-name="Path 1190" d="M361.437,179a14.382,14.382,0,0,1,3.846-10.407,13.384,13.384,0,0,1,10.105-4,13.087,13.087,0,0,1,6.562,1.445,4.278,4.278,0,0,1,2.514,3.758,3.388,3.388,0,0,1-.955,2.464,3.229,3.229,0,0,1-2.414.98,10.718,10.718,0,0,1-2.539-.616,10.778,10.778,0,0,0-3.168-.616,5,5,0,0,0-4.06,1.885,7.568,7.568,0,0,0-1.545,4.952,7.392,7.392,0,0,0,1.584,5.015,5.432,5.432,0,0,0,4.324,1.823,10.3,10.3,0,0,0,3.18-.616,10.317,10.317,0,0,1,2.4-.616,2.875,2.875,0,0,1,2.238,1.018,3.631,3.631,0,0,1,.9,2.5q0,2.237-2.74,3.821a13.372,13.372,0,0,1-6.787,1.585,12.7,12.7,0,0,1-9.716-3.985A14.585,14.585,0,0,1,361.437,179Z" transform="translate(-88.421 -153.404)" fill="#0643b2"/>
      <path id="Path_1191" data-name="Path 1191" d="M398.925,165.941a7.878,7.878,0,0,1,2.916-1.961,11.648,11.648,0,0,1,4.048-.6q4.8,0,7.34,2.74t2.54,7.97v11.639a7.909,7.909,0,0,1-1.006,4.45,3.955,3.955,0,0,1-6.134,0,7.909,7.909,0,0,1-1.006-4.45v-9.176q0-3.394-1.018-4.839a3.816,3.816,0,0,0-3.356-1.446,3.727,3.727,0,0,0-3.268,1.5,8.236,8.236,0,0,0-1.056,4.689v9.276a7.909,7.909,0,0,1-1.006,4.45,3.942,3.942,0,0,1-6.121,0,7.994,7.994,0,0,1-.992-4.45v-27.8a8.049,8.049,0,0,1,.992-4.475,3.92,3.92,0,0,1,6.121.025,7.985,7.985,0,0,1,1.006,4.45Z" transform="translate(-91.719 -151.988)" fill="#0643b2"/>
    </g>
    <path id="Path_1192" data-name="Path 1192" d="M258.9,142.386a8.408,8.408,0,0,0-16.014-3.725c-.241.517-.413,1.066-.617,1.6l-.113-.005c-.012-.114-.032-.226-.037-.34a8.4,8.4,0,0,0-11.081-7.563c-4.114,1.4-6.371,5.477-5.584,10.068a21.106,21.106,0,0,0,3.509,8,58.835,58.835,0,0,0,10.358,11.544c.336.3.566.215.883.043a56.981,56.981,0,0,0,11.347-7.7c1.655-1.492,3.092-3.227,4.618-4.86a1.437,1.437,0,0,0,.257-.344,13.223,13.223,0,0,0,1.493-2.528.332.332,0,0,0,.024-.13A10.06,10.06,0,0,0,258.9,142.386Z" transform="translate(-19.252 0)" fill="#ea1818"/>
  </g>
</svg>
