<svg xmlns="http://www.w3.org/2000/svg" width="163.2" height="49.735" viewBox="0 0 163.2 49.735">
  <g id="Grupo_1547" data-name="Grupo 1547" transform="translate(-2.6 -1.2)">
    <g id="Grupo_1518" data-name="Grupo 1518" transform="translate(62.924 5.706)">
      <g id="Grupo_1517" data-name="Grupo 1517">
        <path id="Trazado_1945" data-name="Trazado 1945" d="M50.925,7.277A1.843,1.843,0,0,1,52.8,5.4h.375a1.86,1.86,0,0,1,1.752,1l4.631,7.509L64.191,6.4a2,2,0,0,1,1.752-1h.375A1.843,1.843,0,0,1,68.2,7.277V21.044a1.843,1.843,0,0,1-1.877,1.877,1.925,1.925,0,0,1-1.877-1.877V12.409l-3.379,5.256a1.823,1.823,0,0,1-3.254,0l-3.254-5.131v8.636a1.877,1.877,0,1,1-3.755,0V7.277Z" transform="translate(-50.8 -4.649)" fill="#4d4d4d"/>
        <path id="Trazado_1946" data-name="Trazado 1946" d="M73.809,22.367A6.67,6.67,0,0,1,66.8,15.483h0A6.654,6.654,0,0,1,73.433,8.6a6.215,6.215,0,0,1,6.383,6.383,1.642,1.642,0,0,1-1.752,1.752H70.555a3.115,3.115,0,0,0,3.254,2.628,4.719,4.719,0,0,0,2.628-.876,1.056,1.056,0,0,1,.876-.25,1.446,1.446,0,0,1,1.5,1.5,1.586,1.586,0,0,1-.5,1.126A6.7,6.7,0,0,1,73.809,22.367Zm2.5-8.01c-.25-1.627-1.252-2.879-2.753-2.879-1.627,0-2.628,1.126-2.879,2.879Z" transform="translate(-46.775 -3.844)" fill="#4d4d4d"/>
        <path id="Trazado_1947" data-name="Trazado 1947" d="M79.1,10.477a1.877,1.877,0,0,1,3.755,0V11.1c.5-1.252,1.5-2.5,2.5-2.5a1.774,1.774,0,0,1,1.877,1.877,1.668,1.668,0,0,1-1.377,1.752c-1.877.5-3,1.877-3,4.631v3.5a1.877,1.877,0,0,1-3.755,0Z" transform="translate(-43.682 -3.844)" fill="#4d4d4d"/>
        <path id="Trazado_1948" data-name="Trazado 1948" d="M86.2,15.509h0A6.843,6.843,0,0,1,93.209,8.5,6.321,6.321,0,0,1,97.714,10a1.717,1.717,0,0,1,.626,1.252,1.612,1.612,0,0,1-1.752,1.627,2.376,2.376,0,0,1-1.126-.375,3.673,3.673,0,0,0-2.378-.876,3.406,3.406,0,0,0-3.254,3.629h0a3.427,3.427,0,0,0,3.379,3.629,4.325,4.325,0,0,0,2.5-.876,2.389,2.389,0,0,1,1-.375,1.657,1.657,0,0,1,1.627,1.627,2.224,2.224,0,0,1-.5,1.252A7.007,7.007,0,0,1,86.2,15.509Z" transform="translate(-41.896 -3.869)" fill="#4d4d4d"/>
        <path id="Trazado_1949" data-name="Trazado 1949" d="M97,18.237h0c0-3,2.253-4.255,5.382-4.255a11.855,11.855,0,0,1,3.254.5v-.25c0-1.627-1-2.378-2.879-2.378a8.32,8.32,0,0,0-2.628.375.946.946,0,0,1-.5.125A1.552,1.552,0,0,1,98,10.853a1.626,1.626,0,0,1,1-1.5,10.787,10.787,0,0,1,4.255-.751,6.119,6.119,0,0,1,4.506,1.5,5.888,5.888,0,0,1,1.5,4.255v6.007a1.818,1.818,0,0,1-1.877,1.752,1.612,1.612,0,0,1-1.752-1.627h0a4.98,4.98,0,0,1-4,1.627C99.128,22.367,97,20.865,97,18.237Zm8.761-.876v-.626a6.671,6.671,0,0,0-2.378-.5c-1.627,0-2.628.626-2.628,1.877h0c0,1,.876,1.627,2,1.627C104.509,19.739,105.761,18.737,105.761,17.361Z" transform="translate(-39.179 -3.844)" fill="#4d4d4d"/>
        <path id="Trazado_1950" data-name="Trazado 1950" d="M122.492,21.32a1.877,1.877,0,1,1-3.755,0V21.2a4.705,4.705,0,0,1-4.13,2.128c-3.129,0-6.007-2.378-6.007-6.883h0c0-4.506,2.879-6.883,6.007-6.883a4.918,4.918,0,0,1,4.13,2V6.677a1.877,1.877,0,1,1,3.755,0Zm-10.137-5.006h0a3.45,3.45,0,0,0,3.254,3.755,3.409,3.409,0,0,0,3.254-3.629h0a3.335,3.335,0,0,0-3.254-3.629C113.731,12.685,112.355,14.061,112.355,16.314Z" transform="translate(-36.261 -4.8)" fill="#4d4d4d"/>
        <path id="Trazado_1951" data-name="Trazado 1951" d="M121.5,15.509h0A7.056,7.056,0,0,1,128.759,8.5a6.847,6.847,0,0,1,7.134,6.883h0a6.955,6.955,0,0,1-7.259,6.883A6.676,6.676,0,0,1,121.5,15.509Zm10.638,0h0a3.557,3.557,0,0,0-3.5-3.755,3.452,3.452,0,0,0-3.5,3.629h0a3.452,3.452,0,0,0,3.5,3.629A3.224,3.224,0,0,0,132.138,15.509Z" transform="translate(-33.017 -3.869)" fill="#4d4d4d"/>
      </g>
    </g>
    <g id="Grupo_1533" data-name="Grupo 1533" transform="translate(2.6 26.356)">
      <g id="Grupo_1519" data-name="Grupo 1519" transform="translate(4.142)">
        <path id="Trazado_1952" data-name="Trazado 1952" d="M7.9,26.056a10.26,10.26,0,0,1-.5-1.377v-3c0-.125-.125-.375-.25-.375a.4.4,0,0,0-.375.375v2.879s-.375.751-.626,1.377a3.7,3.7,0,0,0,.626,3.5l.125.125a.123.123,0,0,0,.125-.125A2.92,2.92,0,0,0,7.9,26.056Z" transform="translate(-5.909 -21.3)" fill="#ffb600"/>
      </g>
      <g id="Grupo_1520" data-name="Grupo 1520" transform="translate(0 11.715)">
        <path id="Trazado_1953" data-name="Trazado 1953" d="M5.353,32.087c-1.252-.751-2-1.126-2.378-1.377-.25-.125-.375,0-.375.25a15.146,15.146,0,0,0,.125,2.378c.25,1.5,1.126,2.5,3.129,3.5.25.125,1,.5,1.377.751.125.125.25,0,.25-.25V35.591A4.477,4.477,0,0,0,5.353,32.087Z" transform="translate(-2.6 -30.661)" fill="#ffb600"/>
      </g>
      <g id="Grupo_1521" data-name="Grupo 1521" transform="translate(0 2.753)">
        <path id="Trazado_1954" data-name="Trazado 1954" d="M5.479,28.256A14.9,14.9,0,0,0,3.351,27V23.75c0-.125-.125-.25-.375-.25a.4.4,0,0,0-.375.375v3.379a7.849,7.849,0,0,0,.125,2.253c.25,1.5,1.126,2.5,3.129,3.5a8.418,8.418,0,0,1,1.377.876c.125.125.25,0,.25-.25V32.01A4.368,4.368,0,0,0,5.479,28.256Z" transform="translate(-2.6 -23.5)" fill="#ffb600"/>
      </g>
      <g id="Grupo_1522" data-name="Grupo 1522" transform="translate(5.507 11.713)">
        <path id="Trazado_1955" data-name="Trazado 1955" d="M11.506,30.71c-.375.25-1.252.626-2.378,1.377A4.488,4.488,0,0,0,7,35.717v1.627c0,.25.125.375.25.25a13.191,13.191,0,0,0,1.377-.876c2-1,2.879-2,3.129-3.5a15.146,15.146,0,0,0,.125-2.378C11.881,30.71,11.756,30.585,11.506,30.71Z" transform="translate(-7 -30.659)" fill="#ffb600"/>
      </g>
      <g id="Grupo_1523" data-name="Grupo 1523" transform="translate(5.507 2.503)">
        <path id="Trazado_1956" data-name="Trazado 1956" d="M7.25,33.688a13.191,13.191,0,0,0,1.377-.876c2-1,2.753-2,3-3.5a15.146,15.146,0,0,0,.125-2.378V23.675c0-.125-.125-.375-.25-.375s-.375.125-.375.25V26.8c-.375.25-1.252.626-2.128,1.252A5.241,5.241,0,0,0,7,31.81v1.752C7,33.688,7.125,33.813,7.25,33.688Z" transform="translate(-7 -23.3)" fill="#ffb600"/>
      </g>
      <g id="Grupo_1524" data-name="Grupo 1524" transform="translate(0 17.472)">
        <path id="Trazado_1957" data-name="Trazado 1957" d="M5.353,36.687c-1.252-.751-2-1.126-2.378-1.377-.25-.125-.375,0-.375.25a15.146,15.146,0,0,0,.125,2.378c.25,1.5,1.126,2.5,3.129,3.5a8.418,8.418,0,0,1,1.377.876c.125.125.25,0,.25-.25V40.316A4.488,4.488,0,0,0,5.353,36.687Z" transform="translate(-2.6 -35.261)" fill="#ffb600"/>
      </g>
      <g id="Grupo_1525" data-name="Grupo 1525" transform="translate(5.507 17.472)">
        <path id="Trazado_1958" data-name="Trazado 1958" d="M11.506,35.31c-.375.25-1.252.626-2.378,1.377A4.488,4.488,0,0,0,7,40.316v1.752c0,.25.125.375.25.25a13.19,13.19,0,0,0,1.377-.876c2-1,2.879-2,3.129-3.5a15.146,15.146,0,0,0,.125-2.378C11.881,35.31,11.756,35.185,11.506,35.31Z" transform="translate(-7 -35.261)" fill="#ffb600"/>
      </g>
      <g id="Grupo_1526" data-name="Grupo 1526" transform="translate(15.781)">
        <path id="Trazado_1959" data-name="Trazado 1959" d="M17.2,26.056a10.26,10.26,0,0,1-.5-1.377v-3c0-.125-.125-.375-.25-.375a.4.4,0,0,0-.375.375v2.879s-.375.751-.626,1.377a3.7,3.7,0,0,0,.626,3.5l.125.125a.123.123,0,0,0,.125-.125A2.92,2.92,0,0,0,17.2,26.056Z" transform="translate(-15.209 -21.3)" fill="#ffb600"/>
      </g>
      <g id="Grupo_1527" data-name="Grupo 1527" transform="translate(11.639 11.715)">
        <path id="Trazado_1960" data-name="Trazado 1960" d="M14.653,32.087c-1.252-.751-2-1.126-2.378-1.377-.25-.125-.375,0-.375.25a15.146,15.146,0,0,0,.125,2.378c.25,1.5,1.126,2.5,3.129,3.5a8.418,8.418,0,0,1,1.377.876c.125.125.25,0,.25-.25V35.716A4.488,4.488,0,0,0,14.653,32.087Z" transform="translate(-11.9 -30.661)" fill="#ffb600"/>
      </g>
      <g id="Grupo_1528" data-name="Grupo 1528" transform="translate(11.639 2.753)">
        <path id="Trazado_1961" data-name="Trazado 1961" d="M14.779,28.256A14.9,14.9,0,0,0,12.651,27V23.75c0-.125-.125-.25-.375-.25a.4.4,0,0,0-.375.375v3.379a7.849,7.849,0,0,0,.125,2.253c.25,1.5,1.126,2.5,3.129,3.5a8.418,8.418,0,0,1,1.377.876c.125.125.25,0,.25-.25V32.01A4.7,4.7,0,0,0,14.779,28.256Z" transform="translate(-11.9 -23.5)" fill="#ffb600"/>
      </g>
      <g id="Grupo_1529" data-name="Grupo 1529" transform="translate(17.146 11.715)">
        <path id="Trazado_1962" data-name="Trazado 1962" d="M20.806,30.71c-.375.25-1.252.626-2.378,1.377A4.488,4.488,0,0,0,16.3,35.716v1.752c0,.25.125.375.25.25a13.192,13.192,0,0,0,1.377-.876c2-1,2.879-2,3.129-3.5a15.146,15.146,0,0,0,.125-2.378C21.181,30.71,21.056,30.585,20.806,30.71Z" transform="translate(-16.3 -30.661)" fill="#ffb600"/>
      </g>
      <g id="Grupo_1530" data-name="Grupo 1530" transform="translate(17.146 2.503)">
        <path id="Trazado_1963" data-name="Trazado 1963" d="M16.55,33.688a13.191,13.191,0,0,0,1.377-.876c2-1,2.753-2,3-3.5a15.146,15.146,0,0,0,.125-2.378V23.675c0-.125-.125-.375-.25-.375s-.375.125-.375.25V26.8c-.375.25-1.252.626-2.128,1.252a4.461,4.461,0,0,0-2,3.629v1.752C16.3,33.688,16.425,33.813,16.55,33.688Z" transform="translate(-16.3 -23.3)" fill="#ffb600"/>
      </g>
      <g id="Grupo_1531" data-name="Grupo 1531" transform="translate(11.639 17.472)">
        <path id="Trazado_1964" data-name="Trazado 1964" d="M14.653,36.687c-1.252-.751-2-1.126-2.378-1.377-.25-.125-.375,0-.375.25a15.146,15.146,0,0,0,.125,2.378c.25,1.5,1.126,2.5,3.129,3.5a8.418,8.418,0,0,1,1.377.876c.125.125.25,0,.25-.25V40.316A4.488,4.488,0,0,0,14.653,36.687Z" transform="translate(-11.9 -35.261)" fill="#ffb600"/>
      </g>
      <g id="Grupo_1532" data-name="Grupo 1532" transform="translate(17.146 17.472)">
        <path id="Trazado_1965" data-name="Trazado 1965" d="M20.806,35.31c-.375.25-1.252.626-2.378,1.377A4.488,4.488,0,0,0,16.3,40.316v1.752c0,.25.125.375.25.25a13.191,13.191,0,0,0,1.377-.876c2-1,2.879-2,3.129-3.5a15.146,15.146,0,0,0,.125-2.378C21.181,35.31,21.056,35.185,20.806,35.31Z" transform="translate(-16.3 -35.261)" fill="#ffb600"/>
      </g>
    </g>
    <g id="Grupo_1534" data-name="Grupo 1534" transform="translate(2.85 1.2)">
      <path id="Trazado_1966" data-name="Trazado 1966" d="M25.953,8.96a1.077,1.077,0,0,0-1-1V6.081a1.077,1.077,0,0,0,1-1,1.077,1.077,0,0,0-1-1v-1.5a.332.332,0,0,0-.375-.375H23.2a1,1,0,0,0-2,0H19.32a1,1,0,0,0-2,0H15.44a.987.987,0,0,0-1-1,1.077,1.077,0,0,0-1,1H11.561a.987.987,0,0,0-1-1,.921.921,0,0,0-1,1H7.681a.987.987,0,0,0-1-1,.921.921,0,0,0-1,1h-1.5a.332.332,0,0,0-.375.375v1.5a.987.987,0,0,0-1,1,1.077,1.077,0,0,0,1,1V7.958a.987.987,0,0,0-1,1,1.077,1.077,0,0,0,1,1v1.877a1.077,1.077,0,0,0-1,1,1.077,1.077,0,0,0,1,1v1.877a1,1,0,0,0,0,2v2a1,1,0,0,0,0,2v1.5a.332.332,0,0,0,.375.375h1.5a1.077,1.077,0,0,0,1,1,.987.987,0,0,0,1-1H9.558a1.077,1.077,0,0,0,1,1,.987.987,0,0,0,1-1h1.877a1.077,1.077,0,0,0,1,1,.987.987,0,0,0,1-1h1.877a1.077,1.077,0,0,0,1,1,.987.987,0,0,0,1-1H21.2a1.077,1.077,0,0,0,1,1,.987.987,0,0,0,1-1h1.377a.332.332,0,0,0,.375-.375v-1.5a1,1,0,0,0,0-2V17.845a1,1,0,0,0,0-2V13.966a1.077,1.077,0,0,0,1-1,1.077,1.077,0,0,0-1-1v-2A.921.921,0,0,0,25.953,8.96ZM7.055,20.724a.751.751,0,1,1,0-1.5.808.808,0,0,1,.751.751A.721.721,0,0,1,7.055,20.724Zm0-7.134a.751.751,0,0,1,0-1.5.808.808,0,0,1,.751.751A.721.721,0,0,1,7.055,13.59Zm0-7.259A.808.808,0,0,1,6.3,5.58a.808.808,0,0,1,.751-.751.808.808,0,0,1,.751.751A.721.721,0,0,1,7.055,6.331ZM10.685,17.22a.751.751,0,1,1,0-1.5.751.751,0,0,1,0,1.5Zm0-7.259a.7.7,0,0,1-.751-.626.808.808,0,0,1,.751-.751.808.808,0,0,1,.751.751A.7.7,0,0,1,10.685,9.961Zm3.629,10.763a.751.751,0,1,1,.751-.751A.721.721,0,0,1,14.314,20.724Zm0-7.134a.751.751,0,1,1,.751-.751A.721.721,0,0,1,14.314,13.59Zm0-7.259a.808.808,0,0,1-.751-.751.751.751,0,0,1,1.5,0A.721.721,0,0,1,14.314,6.331ZM17.944,17.22a.751.751,0,1,1,.751-.751A.808.808,0,0,1,17.944,17.22Zm0-7.259a.808.808,0,0,1-.751-.751.751.751,0,0,1,1.5,0A.721.721,0,0,1,17.944,9.961Zm3.629,10.763a.751.751,0,1,1,.751-.751A.721.721,0,0,1,21.573,20.724Zm0-7.134a.751.751,0,1,1,.751-.751A.721.721,0,0,1,21.573,13.59Zm0-7.259a.808.808,0,0,1-.751-.751.751.751,0,1,1,1.5,0A.721.721,0,0,1,21.573,6.331Z" transform="translate(-2.8 -1.2)" fill="#e70000"/>
    </g>
    <g id="Grupo_1535" data-name="Grupo 1535" transform="translate(30.885 30.11)">
      <path id="Trazado_1967" data-name="Trazado 1967" d="M39.217,31.934a1.7,1.7,0,0,0,.876-1.377,1.657,1.657,0,0,0-1.627-1.627h0c-1.877,0-3.629,2.128-3.629,4.38,0,2.628,2.378,3.379,3.755,3.379,6.633,0,10.263-9.261,10.263-10.763,0-1.377-8.761-1.627-11.89-1.627S25.2,24.55,25.2,25.927c0,1.5,3.254,6.633,3.254,6.633v.125h0v.125S25.2,37.942,25.2,39.444c0,1.377,8.636,1.627,11.764,1.627s11.89-.25,11.89-1.627c0-1.126-1.752-4.255-2.628-5.757-3.129,4.38-6.883,4.756-8.01,4.756-1.627,0-6.258-.626-6.258-5.256a6.111,6.111,0,0,1,6.258-6.258,4.683,4.683,0,0,1,3.129,1,2.613,2.613,0,0,1,1,2,2,2,0,0,1-2,2.128h0A.9.9,0,0,1,39.217,31.934Z" transform="translate(-25.2 -24.3)" fill="#e70000"/>
    </g>
    <g id="Grupo_1536" data-name="Grupo 1536" transform="translate(62.674 25.855)">
      <path id="Trazado_1968" data-name="Trazado 1968" d="M120.155,25.531h0a2.3,2.3,0,0,0,2.378-2.378A2.146,2.146,0,0,0,120.28,20.9a2.3,2.3,0,0,0-2.378,2.378,2.1,2.1,0,0,0,2.253,2.253" transform="translate(-33.674 -20.9)" fill="#e70000"/>
      <path id="Trazado_1969" data-name="Trazado 1969" d="M54.73,32.434a4.886,4.886,0,0,0,.876,3.129,3.1,3.1,0,0,0,2.628,1.377h0a4.074,4.074,0,0,0,2.879-1.252c.375-.375.626-.626.876-.626s.375.125.751.25c.375.25.751.5.751.876,0,.25-.125.375-.25.751a6.015,6.015,0,0,1-5.507,2.879h0a7.381,7.381,0,0,1-5.256-2A7.2,7.2,0,0,1,50.6,32.684,7,7,0,0,1,57.859,25.3h0a6.262,6.262,0,0,1,5.382,2.753.92.92,0,0,1,.25.751c0,.5-.375.751-.876,1-.375.125-.5.25-.751.25-.375,0-.626-.25-1-.751a3,3,0,0,0-2.628-1.252h0c-2.128,0-3.5,1.627-3.5,4.38" transform="translate(-50.6 -19.793)" fill="#e70000"/>
      <path id="Trazado_1970" data-name="Trazado 1970" d="M82.309,25.3a4.466,4.466,0,0,0-2.879,1.377L79.3,26.8v-.125c0-.751-.25-1-1-1H76.8c-1.126,0-1.5.375-1.5,1.5V38.066q0,.939.375,1.126a1.53,1.53,0,0,0,1.126.375h1c1.126,0,1.5-.375,1.5-1.5V31.433a2.628,2.628,0,0,1,2.753-2.753h.751c.876,0,1.126-.375,1.126-1.377,0-.876-.125-1.252-.375-1.5a1.318,1.318,0,0,0-1.252-.5" transform="translate(-44.387 -19.793)" fill="#e70000"/>
      <path id="Trazado_1971" data-name="Trazado 1971" d="M95.24,27.3a7.2,7.2,0,0,1,1.877,5.131A7.306,7.306,0,0,1,95.24,37.69a7.062,7.062,0,0,1-5.382,2.128h0c-4.38,0-7.259-2.879-7.259-7.134,0-4.506,2.879-7.384,7.384-7.384h0a7.6,7.6,0,0,1,5.256,2m-2.253,5.256c0-3.379-1.627-4.506-3.129-4.631h0c-2.253,0-3.129,2.378-3.129,4.506a6.262,6.262,0,0,0,.751,3.254,2.683,2.683,0,0,0,2.378,1.377h0c1.877,0,3-1.627,3.129-4.506" transform="translate(-42.551 -19.793)" fill="#e70000"/>
      <path id="Trazado_1972" data-name="Trazado 1972" d="M122.1,27.1V37.99c0,1.126-.375,1.5-1.5,1.5h-1c-1.126,0-1.5-.375-1.5-1.5V27.1c0-1.126.375-1.5,1.5-1.5h1c1.126,0,1.5.375,1.5,1.5" transform="translate(-33.622 -19.718)" fill="#e70000"/>
      <path id="Trazado_1973" data-name="Trazado 1973" d="M75.742,27V38.14a2.5,2.5,0,0,1-.25,1.126,1.35,1.35,0,0,1-1.126.375h-1c-1,0-1.377-.375-1.377-1.377V38.14a5.173,5.173,0,0,1-3.755,1.5h0a5.791,5.791,0,0,1-4.38-2A7.718,7.718,0,0,1,62.1,32.509c0-3.88,2.753-7.009,6.133-7.009h0a4.9,4.9,0,0,1,3.629,1.377,1.2,1.2,0,0,1,.25-.876c.25-.25.5-.25,1.126-.375h1c1.126,0,1.5.25,1.5,1.377m-3.88,5.507c0-2-.876-4-2.879-4h0c-2,0-2.879,2.128-2.879,4,0,2.628,1.627,4,2.879,4h0c1.752,0,2.879-1.752,2.879-4" transform="translate(-47.707 -19.743)" fill="#e70000"/>
      <path id="Trazado_1974" data-name="Trazado 1974" d="M105.988,36.488h-4.38a.332.332,0,0,1-.375-.375c0-.125,0-.125.125-.25h0l5.757-7.759a1.72,1.72,0,0,0,.5-1.5c0-.375,0-.626-.25-.751a1.058,1.058,0,0,0-.751-.25H97.353c-1.126,0-1.5.375-1.5,1.5s.375,1.5,1.5,1.5h3.755a.332.332,0,0,1,.375.375c0,.125,0,.125-.125.25h0L95.6,36.989a1.72,1.72,0,0,0-.5,1.5c0,.751.25,1,1,1h9.887c1.126,0,1.5-.375,1.5-1.5s-.375-1.5-1.5-1.5" transform="translate(-39.407 -19.718)" fill="#e70000"/>
      <path id="Trazado_1975" data-name="Trazado 1975" d="M117.088,36.488h-4.38a.332.332,0,0,1-.375-.375c0-.125,0-.125.125-.25h0l5.757-7.759a1.72,1.72,0,0,0,.5-1.5c0-.375,0-.626-.25-.751a1.058,1.058,0,0,0-.751-.25h-9.261c-1.126,0-1.5.375-1.5,1.5s.375,1.5,1.5,1.5h3.755a.332.332,0,0,1,.375.375c0,.125,0,.125-.125.25h0l-5.757,7.76a1.72,1.72,0,0,0-.5,1.5c0,.751.25,1,1,1h9.887c1.126,0,1.5-.375,1.5-1.5s-.375-1.5-1.5-1.5" transform="translate(-36.615 -19.718)" fill="#e70000"/>
    </g>
    <g id="Grupo_1541" data-name="Grupo 1541" transform="translate(31.088 1.669)">
      <g id="Grupo_1537" data-name="Grupo 1537" transform="translate(0 17.897)">
        <path id="Trazado_1976" data-name="Trazado 1976" d="M35.046,15.906a1.258,1.258,0,0,0-1.377.626.688.688,0,0,1-.626.375h-4.38a.688.688,0,0,1-.626-.375,1.258,1.258,0,0,0-1.377-.626,1.65,1.65,0,0,0-1.252,1.126,1.2,1.2,0,0,0,.375,1.252,1.2,1.2,0,0,0-.375,1.252,1.469,1.469,0,0,0,1.252,1.126,1.258,1.258,0,0,0,1.377-.626.688.688,0,0,1,.626-.375h4.38a.688.688,0,0,1,.626.375,1.258,1.258,0,0,0,1.377.626.892.892,0,0,0,.751-.375,1.082,1.082,0,0,0,.375-.751,1.393,1.393,0,0,0-.375-1.252,1.2,1.2,0,0,0,.375-1.252A1.321,1.321,0,0,0,35.046,15.906Z" transform="translate(-25.362 -15.875)" fill="#31006f"/>
      </g>
      <g id="Grupo_1538" data-name="Grupo 1538" transform="translate(0 12.015)">
        <path id="Trazado_1977" data-name="Trazado 1977" d="M35.046,11.206a1.258,1.258,0,0,0-1.377.626.688.688,0,0,1-.626.375h-4.38a.688.688,0,0,1-.626-.375,1.258,1.258,0,0,0-1.377-.626,1.65,1.65,0,0,0-1.252,1.126,1.2,1.2,0,0,0,.375,1.252,1.2,1.2,0,0,0-.375,1.252,1.469,1.469,0,0,0,1.252,1.126,1.258,1.258,0,0,0,1.377-.626.688.688,0,0,1,.626-.375h4.38a.688.688,0,0,1,.626.375,1.258,1.258,0,0,0,1.377.626.892.892,0,0,0,.751-.375,1.082,1.082,0,0,0,.375-.751,1.393,1.393,0,0,0-.375-1.252,1.2,1.2,0,0,0,.375-1.252C36.173,11.707,35.672,11.332,35.046,11.206Z" transform="translate(-25.362 -11.175)" fill="#31006f"/>
      </g>
      <g id="Grupo_1539" data-name="Grupo 1539" transform="translate(0 6.007)">
        <path id="Trazado_1978" data-name="Trazado 1978" d="M35.046,6.406a1.258,1.258,0,0,0-1.377.626.688.688,0,0,1-.626.375h-4.38a.688.688,0,0,1-.626-.375,1.258,1.258,0,0,0-1.377-.626,1.65,1.65,0,0,0-1.252,1.126,1.2,1.2,0,0,0,.375,1.252,1.2,1.2,0,0,0-.375,1.252,1.469,1.469,0,0,0,1.252,1.126,1.258,1.258,0,0,0,1.377-.626.688.688,0,0,1,.626-.375h4.38a.688.688,0,0,1,.626.375,1.258,1.258,0,0,0,1.377.626.892.892,0,0,0,.751-.375,1.082,1.082,0,0,0,.375-.751A1.393,1.393,0,0,0,35.8,8.784a1.2,1.2,0,0,0,.375-1.252A1.321,1.321,0,0,0,35.046,6.406Z" transform="translate(-25.362 -6.375)" fill="#31006f"/>
      </g>
      <g id="Grupo_1540" data-name="Grupo 1540">
        <path id="Trazado_1979" data-name="Trazado 1979" d="M35.046,1.606a1.258,1.258,0,0,0-1.377.626.688.688,0,0,1-.626.375h-4.38a.688.688,0,0,1-.626-.375,1.258,1.258,0,0,0-1.377-.626,1.65,1.65,0,0,0-1.252,1.126,1.2,1.2,0,0,0,.375,1.252,1.2,1.2,0,0,0-.375,1.252,1.469,1.469,0,0,0,1.252,1.126,1.258,1.258,0,0,0,1.377-.626.688.688,0,0,1,.626-.375h4.38a.688.688,0,0,1,.626.375,1.258,1.258,0,0,0,1.377.626.892.892,0,0,0,.751-.375.688.688,0,0,0,.375-.626A1.393,1.393,0,0,0,35.8,4.109a1.2,1.2,0,0,0,.375-1.252A1.331,1.331,0,0,0,35.046,1.606Z" transform="translate(-25.362 -1.575)" fill="#31006f"/>
      </g>
    </g>
    <g id="Grupo_1546" data-name="Grupo 1546" transform="translate(43.105 1.794)">
      <g id="Grupo_1542" data-name="Grupo 1542" transform="translate(0.123 17.897)">
        <path id="Trazado_1980" data-name="Trazado 1980" d="M44.746,16.006a1.258,1.258,0,0,0-1.377.626.688.688,0,0,1-.626.375h-4.38a.688.688,0,0,1-.626-.375,1.258,1.258,0,0,0-1.377-.626,1.65,1.65,0,0,0-1.252,1.126,1.2,1.2,0,0,0,.375,1.252,1.2,1.2,0,0,0-.375,1.252,1.469,1.469,0,0,0,1.252,1.126,1.258,1.258,0,0,0,1.377-.626.688.688,0,0,1,.626-.375h4.38a.688.688,0,0,1,.626.375,1.258,1.258,0,0,0,1.377.626.892.892,0,0,0,.751-.375,1.082,1.082,0,0,0,.375-.751,1.393,1.393,0,0,0-.375-1.252,1.2,1.2,0,0,0,.375-1.252C45.873,16.507,45.372,16.132,44.746,16.006Z" transform="translate(-35.063 -15.975)" fill="#31006f"/>
      </g>
      <g id="Grupo_1543" data-name="Grupo 1543" transform="translate(0.123 11.89)">
        <path id="Trazado_1981" data-name="Trazado 1981" d="M44.746,11.206a1.258,1.258,0,0,0-1.377.626.688.688,0,0,1-.626.375h-4.38a.688.688,0,0,1-.626-.375,1.258,1.258,0,0,0-1.377-.626,1.65,1.65,0,0,0-1.252,1.126,1.2,1.2,0,0,0,.375,1.252,1.2,1.2,0,0,0-.375,1.252,1.469,1.469,0,0,0,1.252,1.126,1.258,1.258,0,0,0,1.377-.626.688.688,0,0,1,.626-.375h4.38a.688.688,0,0,1,.626.375,1.258,1.258,0,0,0,1.377.626.892.892,0,0,0,.751-.375,1.082,1.082,0,0,0,.375-.751,1.393,1.393,0,0,0-.375-1.252,1.2,1.2,0,0,0,.375-1.252A1.321,1.321,0,0,0,44.746,11.206Z" transform="translate(-35.063 -11.175)" fill="#31006f"/>
      </g>
      <g id="Grupo_1544" data-name="Grupo 1544" transform="translate(0 5.882)">
        <path id="Trazado_1982" data-name="Trazado 1982" d="M44.771,6.406a1.258,1.258,0,0,0-1.377.626.688.688,0,0,1-.626.375h-4.38a.688.688,0,0,1-.626-.375,1.258,1.258,0,0,0-1.377-.626,1.65,1.65,0,0,0-1.252,1.126,1.2,1.2,0,0,0,.375,1.252,1.137,1.137,0,0,0-.5,1.252,1.469,1.469,0,0,0,1.252,1.126,1.258,1.258,0,0,0,1.377-.626.688.688,0,0,1,.626-.375h4.38a.688.688,0,0,1,.626.375,1.258,1.258,0,0,0,1.377.626.892.892,0,0,0,.751-.375,1.082,1.082,0,0,0,.375-.751A1.393,1.393,0,0,0,45.4,8.784a1.2,1.2,0,0,0,.375-1.252C45.9,7.032,45.4,6.532,44.771,6.406Z" transform="translate(-34.964 -6.375)" fill="#31006f"/>
      </g>
      <g id="Grupo_1545" data-name="Grupo 1545" transform="translate(0.123)">
        <path id="Trazado_1983" data-name="Trazado 1983" d="M44.746,1.706a1.258,1.258,0,0,0-1.377.626.688.688,0,0,1-.626.375h-4.38a.688.688,0,0,1-.626-.375,1.258,1.258,0,0,0-1.377-.626,1.65,1.65,0,0,0-1.252,1.126,1.2,1.2,0,0,0,.375,1.252,1.2,1.2,0,0,0-.375,1.252,1.469,1.469,0,0,0,1.252,1.126,1.258,1.258,0,0,0,1.377-.626.688.688,0,0,1,.626-.375h4.38a.688.688,0,0,1,.626.375,1.258,1.258,0,0,0,1.377.626.892.892,0,0,0,.751-.375,1.082,1.082,0,0,0,.375-.751A1.393,1.393,0,0,0,45.5,4.084a1.2,1.2,0,0,0,.375-1.252C45.873,2.207,45.372,1.832,44.746,1.706Z" transform="translate(-35.063 -1.675)" fill="#31006f"/>
      </g>
    </g>
  </g>
</svg>
