<svg xmlns="http://www.w3.org/2000/svg" xmlns:xlink="http://www.w3.org/1999/xlink" width="296.847" height="234.981" viewBox="0 0 296.847 234.981">
  <defs>
    <linearGradient id="linear-gradient" x1="-0.103" y1="1.164" x2="0.251" y2="0.75" gradientUnits="objectBoundingBox">
      <stop offset="0.055" stop-color="#e2e3f1"/>
      <stop offset="0.177" stop-color="#b5c0de"/>
      <stop offset="0.368" stop-color="#758fc4"/>
      <stop offset="0.542" stop-color="#4268b0"/>
      <stop offset="0.693" stop-color="#1e4ca1"/>
      <stop offset="0.815" stop-color="#083b98"/>
      <stop offset="0.893" stop-color="#003595"/>
    </linearGradient>
    <radialGradient id="radial-gradient" cx="0.52" cy="-0.077" r="0.493" gradientTransform="matrix(0.5, 0.853, -0.946, 0.605, 0.187, -0.474)" gradientUnits="objectBoundingBox">
      <stop offset="0.101" stop-color="#fdf1ea"/>
      <stop offset="0.115" stop-color="#fcebe1"/>
      <stop offset="0.145" stop-color="#fae2d5"/>
      <stop offset="0.187" stop-color="#fadece"/>
      <stop offset="0.303" stop-color="#faddcd"/>
      <stop offset="0.362" stop-color="#f8d2c4"/>
      <stop offset="0.464" stop-color="#f5b6ad"/>
      <stop offset="0.597" stop-color="#f08787"/>
      <stop offset="0.754" stop-color="#e94853"/>
      <stop offset="0.893" stop-color="#e20b21"/>
    </radialGradient>
  </defs>
  <g id="Grupo_473" data-name="Grupo 473" transform="translate(-357.323 -277.32)">
    <g id="Grupo_292" data-name="Grupo 292" transform="translate(357.323 324.194)">
      <g id="Grupo_291" data-name="Grupo 291" transform="translate(0 0)">
        <path id="Trazado_147" data-name="Trazado 147" d="M640.125,346.476H371.376a14.053,14.053,0,0,0-14.053,14.055l.03,138.994A36.227,36.227,0,0,0,392.67,534.57l227.569.013c18.137,0,33.923-15.617,33.923-33.555l.008-140.5A14.047,14.047,0,0,0,640.125,346.476Z" transform="translate(-357.323 -346.476)" fill="#aeddf5"/>
        <g id="Grupo_279" data-name="Grupo 279" style="mix-blend-mode: multiply;isolation: isolate">
          <path id="Trazado_148" data-name="Trazado 148" d="M640.125,346.476H371.376a14.053,14.053,0,0,0-14.053,14.055l.03,138.994A36.227,36.227,0,0,0,392.67,534.57l227.569.013c18.137,0,33.923-15.617,33.923-33.555l.008-140.5A14.047,14.047,0,0,0,640.125,346.476Z" transform="translate(-357.323 -346.476)" fill="#003595"/>
          <g id="Grupo_278" data-name="Grupo 278" transform="translate(8.427 17.693)">
            <path id="Trazado_149" data-name="Trazado 149" d="M649.73,372.579V507.915l-.054.819a27.872,27.872,0,0,1-25.988,25.459l-1.023.07-225-.007-.767-.009a27.722,27.722,0,0,1-27.1-26.517l-.041-.866V372.579Z" transform="translate(-369.756 -372.579)" fill="url(#linear-gradient)"/>
          </g>
        </g>
        <g id="Grupo_280" data-name="Grupo 280" transform="translate(148.424 94.057)">
          <path id="Trazado_150" data-name="Trazado 150" d="M576.3,485.243" transform="translate(-576.301 -485.243)" fill="#e20b21"/>
        </g>
        <path id="Trazado_151" data-name="Trazado 151" d="M640.907,358.87l-262.312,0a8.836,8.836,0,0,0-8.84,8.828v86.343s78.731-23.222,131.4-10.812c52.632,12.392,132.081,17.177,148.579-4.772V367.695A8.816,8.816,0,0,0,640.907,358.87Z" transform="translate(-361.329 -350.468)" fill="#fe0" fill-rule="evenodd"/>
        <g id="Grupo_284" data-name="Grupo 284" transform="translate(80.334 114.313)">
          <g id="Grupo_281" data-name="Grupo 281" transform="translate(122.631 18.615)">
            <path id="Trazado_152" data-name="Trazado 152" d="M662.31,542.591a5.6,5.6,0,0,1,2.125.416,5.635,5.635,0,0,1,2.99,2.931,5.078,5.078,0,0,1,.409,2.03,5.258,5.258,0,0,1-.409,2.115,4.979,4.979,0,0,1-1.217,1.708,5.621,5.621,0,0,1-1.819,1.2,5.177,5.177,0,0,1-2.08.413,4.806,4.806,0,0,1-2.127-.438,5.563,5.563,0,0,1-1.79-1.193,5.407,5.407,0,0,1-1.625-3.8,4.718,4.718,0,0,1,.327-1.734,4.26,4.26,0,0,1,.849-1.563,5.5,5.5,0,0,1,4.366-2.08Zm0,.693a4.508,4.508,0,0,0-1.838.361,4.659,4.659,0,0,0-1.533,1,5.171,5.171,0,0,0-1.073,1.541,4.659,4.659,0,0,0-.374,1.785,4.242,4.242,0,0,0,.374,1.783,4.311,4.311,0,0,0,1.063,1.5,4,4,0,0,0,1.53,1.039,4.344,4.344,0,0,0,1.792.377,4.927,4.927,0,0,0,1.886-.35,4.868,4.868,0,0,0,1.55-1.042,4.414,4.414,0,0,0,1.069-1.465,4.912,4.912,0,0,0,.32-1.78,5.186,5.186,0,0,0-.32-1.851,4.985,4.985,0,0,0-1.019-1.5,4.873,4.873,0,0,0-1.566-1.043A5.1,5.1,0,0,0,662.31,543.284Zm-2.03,1.553h1.951a3.906,3.906,0,0,1,1.973.4,1.466,1.466,0,0,1,.646,1.265,1.686,1.686,0,0,1-.4,1.116,1.765,1.765,0,0,1-1.043.534l1.419,2.789h-1.1l-1.267-2.679h-1.2v2.679h-.976Zm.976.754v2.023h1a2.14,2.14,0,0,0,1.205-.234.745.745,0,0,0,.371-.741.825.825,0,0,0-.371-.8,2.077,2.077,0,0,0-1.226-.245Z" transform="translate(-656.768 -542.591)" fill="#fe0" fill-rule="evenodd"/>
          </g>
          <g id="Grupo_283" data-name="Grupo 283">
            <g id="Grupo_282" data-name="Grupo 282">
              <path id="Trazado_153" data-name="Trazado 153" d="M557.567,515.128l-16.925,50.949,17.01.776,2.641-8.757h14.184l2.57,8.757,17.751-1.184-17.443-50.541Zm5.6,30.363,4.078-15.923h.155l3.979,15.923Z" transform="translate(-496.722 -515.128)" fill="#fe0"/>
              <path id="Trazado_154" data-name="Trazado 154" d="M608.708,530.015h11.258v36.839l16.4-1.185V530.015h9.657V515.128H612.19Z" transform="translate(-518.652 -515.128)" fill="#fe0"/>
              <path id="Trazado_155" data-name="Trazado 155" d="M503.51,553.06c-7.147,0-11.357-5.659-11.357-11.547s4.209-11.54,11.357-11.54a10.954,10.954,0,0,1,8.19,3.417l11.214-11.142c-4.6-4.284-11.066-7.12-19.4-7.12-18.273,0-27.666,13.526-27.666,26.385S485.237,567.9,503.51,567.9c8.271,0,14.686-2.778,19.269-7l-11.1-11.292A10.88,10.88,0,0,1,503.51,553.06Z" transform="translate(-475.844 -515.128)" fill="#fe0"/>
            </g>
          </g>
        </g>
        <g id="Grupo_287" data-name="Grupo 287" transform="translate(12.804 24.211)">
          <g id="Grupo_286" data-name="Grupo 286">
            <g id="Grupo_285" data-name="Grupo 285">
              <path id="Trazado_156" data-name="Trazado 156" d="M432.846,434.268l16.494,1.156,2.637-8.814h14.2l2.553,8.814,17.736-1.193-17.434-50.854H449.253L433.1,431.543l-6.09-48.166H412.142l-7.093,18.832-7.158-18.832H382.918l-6.7,50.854,15.936,1.193,2.719-23.945h.14l9.668,25.271,9.891-25.33h.142l2.353,24.005Zm172.942,1.151,15.405-1.188V413.948h.29l8.15,21.47,17-1.188L637.034,412.2c5.071-2.276,7.477-6.711,7.477-12.222,0-8.744-5.51-16.6-19.322-16.6h-19.4ZM621.193,397.9h2.039c3.758,0,5.431,2.532,5.431,6.029,0,3.55-1.673,6.088-5.431,6.088h-2.039Zm-23.708,36.33,3.321-14.075H584.05v-5.422h10.188V402.059H584.05v-5.035H599.7l-3.273-13.647H567.672V434.23Zm-71.632-35.88h11.27v37.068l16.342-1.188V398.35h9.674V383.377H529.327Zm-4.81-14.822a71.521,71.521,0,0,0-13.737-1.332c-11.546,0-20.144,5.627-20.144,16.7,0,16.21,19.765,14.359,19.765,19.258,0,2-2.044,2.735-6.348,2.735a64.656,64.656,0,0,1-12.9-1.49v14.544a63.978,63.978,0,0,0,12.9,1.472c14.573,0,23.4-5.858,23.4-17.051,0-15.783-20.461-15.49-20.461-19.468,0-2.618,3.71-2.618,6.437-2.618a43.764,43.764,0,0,1,11.085,1.853Zm-57.968,30.418h-8.22l4.082-16.045h.131Z" transform="translate(-376.214 -382.196)" fill="#aeddf5" fill-rule="evenodd"/>
            </g>
          </g>
        </g>
        <g id="Grupo_290" data-name="Grupo 290" transform="translate(12.804 24.211)" style="mix-blend-mode: multiply;isolation: isolate">
          <g id="Grupo_289" data-name="Grupo 289">
            <g id="Grupo_288" data-name="Grupo 288">
              <path id="Trazado_157" data-name="Trazado 157" d="M432.846,434.268l16.494,1.156,2.637-8.814h14.2l2.553,8.814,17.736-1.193-17.434-50.854H449.253L433.1,431.543l-6.09-48.166H412.142l-7.093,18.832-7.158-18.832H382.918l-6.7,50.854,15.936,1.193,2.719-23.945h.14l9.668,25.271,9.891-25.33h.142l2.353,24.005Zm172.942,1.151,15.405-1.188V413.948h.29l8.15,21.47,17-1.188L637.034,412.2c5.071-2.276,7.477-6.711,7.477-12.222,0-8.744-5.51-16.6-19.322-16.6h-19.4ZM621.193,397.9h2.039c3.758,0,5.431,2.532,5.431,6.029,0,3.55-1.673,6.088-5.431,6.088h-2.039Zm-23.708,36.33,3.321-14.075H584.05v-5.422h10.188V402.059H584.05v-5.035H599.7l-3.273-13.647H567.672V434.23Zm-71.632-35.88h11.27v37.068l16.342-1.188V398.35h9.674V383.377H529.327Zm-4.81-14.822a71.521,71.521,0,0,0-13.737-1.332c-11.546,0-20.144,5.627-20.144,16.7,0,16.21,19.765,14.359,19.765,19.258,0,2-2.044,2.735-6.348,2.735a64.656,64.656,0,0,1-12.9-1.49v14.544a63.978,63.978,0,0,0,12.9,1.472c14.573,0,23.4-5.858,23.4-17.051,0-15.783-20.461-15.49-20.461-19.468,0-2.618,3.71-2.618,6.437-2.618a43.764,43.764,0,0,1,11.085,1.853Zm-57.968,30.418h-8.22l4.082-16.045h.131Z" transform="translate(-376.214 -382.196)" fill="#003595" fill-rule="evenodd"/>
            </g>
          </g>
        </g>
      </g>
    </g>
    <g id="Grupo_293" data-name="Grupo 293" transform="translate(411.818 277.32)">
      <path id="Trazado_158" data-name="Trazado 158" d="M459.436,277.32a14.282,14.282,0,0,1,7.6,1.825,7.2,7.2,0,0,1-.925,2.925,1.578,1.578,0,0,1-2.107.672,14.425,14.425,0,0,0-4.854-.771c-7.514,0-14.8,6.409-14.359,17.2.3,7.311,4.748,11.17,10.73,11.17a21.823,21.823,0,0,0,8.1-1.606l.169.112c-.05,1.566-.453,3.576-1.4,4.458-1.918,1.15-5.327,1.746-8.345,1.746-10.238,0-15.9-5.879-16.309-15.672-.373-9.037,5.815-22.063,21.64-22.063Z" transform="translate(-437.723 -277.32)" fill="#231916"/>
      <path id="Trazado_159" data-name="Trazado 159" d="M494.872,293.223a7.637,7.637,0,0,1,3.842,1.138,24,24,0,0,1,4.878-.907,188.381,188.381,0,0,0-3.428,20.072c-.033.593.028.9.317.9a6.911,6.911,0,0,0,2.862-1.844,2.178,2.178,0,0,1,.46,1.366,3.912,3.912,0,0,1-.841,3.15A9.9,9.9,0,0,1,496.341,320c-1.459,0-2.447-.971-2.122-4.076a26.828,26.828,0,0,1,.544-3.712c-4.536,7.04-8.794,7.789-11.223,7.789-2.553,0-4.668-2.164-4.842-6.4a22.718,22.718,0,0,1,6.138-15.6c4.216-4.372,8.069-4.783,9.979-4.783Zm-.641,4.418c-1.516,0-3.457.873-5.535,3.676a18.455,18.455,0,0,0-3.586,10.614c.065,1.564.631,2.335,1.5,2.335,1.731,0,5.671-3.893,8.758-9.79.4-1.483,1.006-5.049,1.316-5.937a3.527,3.527,0,0,0-2.4-.9Z" transform="translate(-450.921 -282.444)" fill="#231916"/>
      <path id="Trazado_160" data-name="Trazado 160" d="M531.379,309.035c-.306,3.589-.759,4.395-1.669,5.241a11.759,11.759,0,0,1-7.512,3.013c-2.273,0-4.259-1.7-3.7-7.2.392-3.828,1.11-7.856,2.3-13.774a9.135,9.135,0,0,1-3.175-.356,8.72,8.72,0,0,1,.722-1.64,4.837,4.837,0,0,1,3.38-2.319c1.585-4.949,2.5-5.595,3.376-6.106a13.473,13.473,0,0,1,4.365-1.095,71.179,71.179,0,0,0-1.9,7.1,44.473,44.473,0,0,0,6.938-.716c-.275,1.722-.887,3.422-2.023,4.116-.892.539-2.357.737-5.659.952a113.688,113.688,0,0,0-2.124,13.126c-.121,1.608.107,2.385.822,2.385.926,0,3.43-1.538,5.388-3Z" transform="translate(-463.465 -279.729)" fill="#231916"/>
      <path id="Trazado_161" data-name="Trazado 161" d="M557.8,286.28c.535-3.81.791-6.173.9-7.5a38.887,38.887,0,0,1,5.563-.447c.8,0,1.027.546.669,3.393l-3.89,28.358a35.268,35.268,0,0,0,6.7.32,70.063,70.063,0,0,0,7.023-.245l.1.116a7.627,7.627,0,0,1-3.039,4.253c-.87.221-2.553.33-7.169.33a57.385,57.385,0,0,1-10.007-.577l-.681-1.12Z" transform="translate(-475.176 -277.648)" fill="#231916"/>
      <path id="Trazado_162" data-name="Trazado 162" d="M644.394,293.223c1.078,0,1.571,1.531,1.638,3.135a15.391,15.391,0,0,1-2.248,7.769,149.261,149.261,0,0,1-9.157,14.148,2.85,2.85,0,0,1-2.048,1.327c-.788.123-2.916.294-3.974.4-.341-5.291-1.093-15.514-1.783-19.665-.237-1.37-.576-2.035-1.1-2.035a5.365,5.365,0,0,0-2.725,1.377,2.182,2.182,0,0,1-.461-1.4,2.692,2.692,0,0,1,1.013-2.6c2.445-1.989,4-2.463,5.824-2.463,1.582,0,2.821,1.07,3.338,5.247.492,3.759.748,8.777,1.049,12.913,4.337-6.836,6.557-11.641,6.429-14.948a9.249,9.249,0,0,0-.211-1.739,11.661,11.661,0,0,1,4.36-1.472Z" transform="translate(-497.266 -282.444)" fill="#231916"/>
      <path id="Trazado_163" data-name="Trazado 163" d="M668.831,293.223c4.573,0,6.57,3.1,6.7,6.21.321,7.78-8.969,9.516-10.71,9.516-1.382,0-2.512-2.187-2.525-3.928,7.1-.888,7.438-3.787,7.369-5.473a2.157,2.157,0,0,0-2.129-2.17c-3.155,0-6.836,6.2-6.579,12.457.125,2.995,1.557,5.191,4,5.191,3.249,0,6.166-2.509,7.9-4.2a2.83,2.83,0,0,1,1.229,2.464,3.193,3.193,0,0,1-.59,2.224A13.708,13.708,0,0,1,662.933,320c-5.479,0-8.229-3.819-8.458-9.394-.3-7.191,3.985-12.929,6.946-14.949a11.79,11.79,0,0,1,7.353-2.438Z" transform="translate(-507.555 -282.444)" fill="#231916"/>
      <path id="Trazado_164" data-name="Trazado 164" d="M702.846,293.223a3.013,3.013,0,0,1,2.821,1.7c.06,1.487-1.16,4.275-2.19,5.685a4.2,4.2,0,0,0-2.424-.782c-.9,0-2.294.959-3.728,3.457-1.474,2.523-2.366,5.432-3.767,13.193-.244,1.456-.544,2.115-.855,2.344-.5.43-4.361.889-5.943.948a185.578,185.578,0,0,0,3.122-19.94c.174-1.138-.053-1.473-.431-1.473a6.13,6.13,0,0,0-2.67,1.322,4.083,4.083,0,0,1-.483-1.944,3.049,3.049,0,0,1,1.728-2.74,9.906,9.906,0,0,1,5.107-1.776c2.4,0,2.623,1.728,1.461,8.673,3.9-8.346,6.888-8.673,8.2-8.673Z" transform="translate(-517.812 -282.444)" fill="#231916"/>
      <path id="Trazado_165" data-name="Trazado 165" d="M593.018,321.987a2.592,2.592,0,0,1-1.346-.375c-.5-.3-12.286-7.549-11.316-16.757.626-5.924,5.2-10.565,10.425-10.565a8.184,8.184,0,0,1,4.517,1.343,9.225,9.225,0,0,1,4.707-1.34,8.273,8.273,0,0,1,6.213,2.792,10.714,10.714,0,0,1,2.471,8.315c-.427,4.038-3.055,8.04-7.81,11.889a42.258,42.258,0,0,1-6.682,4.416A2.587,2.587,0,0,1,593.018,321.987Z" transform="translate(-483.66 -282.788)" fill="#231916" fill-rule="evenodd"/>
      <path id="Trazado_166" data-name="Trazado 166" d="M593.1,322.108a3.618,3.618,0,0,1-1.877-.531c-.493-.3-11.989-7.394-11.013-16.637.643-6.067,5.4-10.811,10.828-10.8a8.826,8.826,0,0,1,4.185,1.06,9.583,9.583,0,0,1,4.312-1.036,8.867,8.867,0,0,1,6.638,3,11.1,11.1,0,0,1,2.588,8.616c-.428,4.05-3,8.006-7.643,11.75a40.256,40.256,0,0,1-6.371,4.188A3.635,3.635,0,0,1,593.1,322.108Z" transform="translate(-483.612 -282.74)" fill="#231916" fill-rule="evenodd"/>
      <path id="Trazado_167" data-name="Trazado 167" d="M606.874,307.114c.441-4.185-2.071-7.583-5.613-7.591a6.527,6.527,0,0,0-4.449,1.9,5.253,5.253,0,0,0-4.048-1.919c-3.543-.012-6.775,3.373-7.216,7.555-.748,7.06,9.277,13.149,9.277,13.149S606.093,314.5,606.874,307.114Z" transform="translate(-485.338 -284.467)" fill="#e20b21" fill-rule="evenodd"/>
      <path id="Trazado_168" data-name="Trazado 168" d="M595.245,319.65c-1.776-1.175-9.119-6.411-8.514-12.127.4-3.77,3.271-6.837,6.4-6.837a4.485,4.485,0,0,1,3.447,1.638l.55.649.617-.582a5.756,5.756,0,0,1,3.885-1.681,4.423,4.423,0,0,1,3.355,1.52,6.681,6.681,0,0,1,1.471,5.181C605.811,313.517,597.22,318.569,595.245,319.65Z" transform="translate(-485.721 -284.848)" fill-rule="evenodd" fill="url(#radial-gradient)"/>
    </g>
  </g>
</svg>
