<?xml version="1.0" encoding="utf-8"?>
<!-- Generator: Adobe Illustrator 24.1.1, SVG Export Plug-In . SVG Version: 6.00 Build 0)  -->
<svg version="1.1" id="Capa_1" xmlns="http://www.w3.org/2000/svg" xmlns:xlink="http://www.w3.org/1999/xlink" x="0px" y="0px"
	 viewBox="0 0 577.2 574.7" style="enable-background:new 0 0 577.2 574.7;" xml:space="preserve">
<style type="text/css">
	.st0{clip-path:url(#SVGID_2_);fill:#EFF3FC;}
</style>
<g>
	<defs>
		<rect id="SVGID_1_" width="577.2" height="574.7"/>
	</defs>
	<clipPath id="SVGID_2_">
		<use xlink:href="#SVGID_1_"  style="overflow:visible;"/>
	</clipPath>
	<path class="st0" d="M383.8,349.5c-3.9-83.6-74.8-148.2-158.3-144.3c-21.8,1-43.2,6.7-62.6,16.8l-111,57.4
		c-47,24.3-65.5,82.2-41.1,129.2c14.7,28.5,42.8,47.8,74.7,51.3l1.4,0.1c51.8,6.1,98.8,33.5,129.7,75.5
		c7.8,10.7,17.8,19.6,29.2,26.3c6.3,3.6,12.9,6.5,19.8,8.6c50.6,15.6,104.3-12.8,119.9-63.4c3.3-10.6,4.7-21.6,4.2-32.7L383.8,349.5
		z"/>
	<path class="st0" d="M120.3,197.2c21.2,3.4,42.5-3,59.9-18c16.6-14.2,27.7-34.7,31.3-57.6c3.6-22.9-0.7-45.8-12.1-64.4
		c-12-19.6-30.3-32.2-51.5-35.5C105.3,15,64.4,48.9,56.7,97.3c-6,38.6,10.8,74.8,39.5,91.4C103.6,193,111.8,195.9,120.3,197.2"/>
	<path class="st0" d="M274.8,191.2c43.6,25.2,102.5,5.2,131.2-44.5C434.7,97.1,422.6,36.1,379,10.9c-43.6-25.2-102.5-5.2-131.2,44.5
		C219.1,105.1,231.2,166,274.8,191.2"/>
	<path class="st0" d="M398.7,292.3L398.7,292.3c5.3,6,11.6,11.1,18.5,15.1c31.8,18.4,76.2,13.1,108.6-15.6
		c18.6-16.6,30.7-38.5,34-61.7c3.4-24.3-3.1-47.2-18.4-64.4c-15.3-17.2-37.2-26.4-61.8-25.8c-23.5,0.5-46.7,9.9-65.3,26.5
		C375,201.1,368,257.7,398.7,292.3"/>
	<path class="st0" d="M571.4,378L571.4,378c-17.3-39.6-67.8-56-112.7-36.5c-44.9,19.5-67.4,67.7-50.2,107.3
		c6.2,14.1,16.8,25.9,30.2,33.4c23.1,13.3,53.9,15.4,82.5,3C566.1,465.7,588.6,417.6,571.4,378"/>
</g>
</svg>
