<svg xmlns="http://www.w3.org/2000/svg" width="28" height="27.998" viewBox="0 0 28 27.998">
  <g id="Page-1" transform="translate(657.03 -173)">
    <g id="_003---Call" data-name="003---Call" transform="translate(-657.03 173)">
      <path id="Shape" d="M-645.435,189.9a11.3,11.3,0,0,1-3.412-6.416.96.96,0,0,1,.276-.8l2.163-2.162a.965.965,0,0,0,.136-1.195l-3.443-5.347a.966.966,0,0,0-1.251-.352l-5.528,2.6a.96.96,0,0,0-.531.959c.29,2.752,1.489,9.516,8.136,16.163s13.41,7.847,16.163,8.136a.96.96,0,0,0,.959-.531l2.6-5.528a.965.965,0,0,0-.35-1.249l-5.347-3.442a.966.966,0,0,0-1.195.135l-2.162,2.163a.96.96,0,0,1-.8.276,11.3,11.3,0,0,1-6.416-3.412Z" transform="translate(657.03 -173.496)" fill="#002e8d"/>
      <path id="Shape-2" data-name="Shape" d="M-409.483,271.413a.965.965,0,0,1-.965-.965,7.249,7.249,0,0,0-7.241-7.241.965.965,0,0,1-.965-.965.965.965,0,0,1,.965-.965,9.182,9.182,0,0,1,9.172,9.172A.965.965,0,0,1-409.483,271.413Z" transform="translate(431.69 -256.449)" fill="#002e8d"/>
      <path id="Shape-3" data-name="Shape" d="M-404.656,187.965a.965.965,0,0,1-.965-.965,12.082,12.082,0,0,0-12.068-12.068.965.965,0,0,1-.965-.965.965.965,0,0,1,.965-.965,14.015,14.015,0,0,1,14,14,.965.965,0,0,1-.283.683A.965.965,0,0,1-404.656,187.965Z" transform="translate(431.69 -173)" fill="#002e8d"/>
    </g>
  </g>
</svg>
