<?xml version="1.0" encoding="utf-8"?>
<!-- Generator: Adobe Illustrator 25.2.3, SVG Export Plug-In . SVG Version: 6.00 Build 0)  -->
<svg version="1.1" id="Capa_1" xmlns="http://www.w3.org/2000/svg" xmlns:xlink="http://www.w3.org/1999/xlink" x="0px" y="0px"
	 viewBox="0 0 185 439" style="enable-background:new 0 0 185 439;" xml:space="preserve">
<style type="text/css">
	.st0{clip-path:url(#SVGID_2_);fill:#FBE2DB;}
	.st1{clip-path:url(#SVGID_2_);fill:#FEF7E0;}
	.st2{clip-path:url(#SVGID_2_);fill:#DAEFF7;}
	.st3{fill:#231F20;}
	.st4{clip-path:url(#SVGID_4_);fill:url(#SVGID_5_);}
	.st5{clip-path:url(#SVGID_7_);fill:url(#SVGID_8_);}
	.st6{clip-path:url(#SVGID_10_);fill:url(#SVGID_11_);}
	.st7{clip-path:url(#SVGID_13_);fill:url(#SVGID_14_);}
	.st8{clip-path:url(#SVGID_16_);fill:url(#SVGID_17_);}
	.st9{fill:#FFFFFF;}
	.st10{fill:none;stroke:#2E4C80;stroke-width:0.37;stroke-miterlimit:10;}
	.st11{fill:#1D4387;}
	.st12{clip-path:url(#SVGID_19_);fill:url(#SVGID_20_);}
	.st13{clip-path:url(#SVGID_22_);fill:url(#SVGID_23_);}
	.st14{clip-path:url(#SVGID_25_);fill:url(#SVGID_26_);}
</style>
<g>
	<defs>
		<path id="SVGID_1_" d="M88.3-37H42.9c-3.1,0-6,1.2-8,3.2c-2.1,2-3.3,4.7-3.3,7.6v334.3v74.5c0,3,1.3,5.7,3.3,7.6
			c2.1,2,46.6,30,53.5,30c6.2,0,51.4-28,53.5-30c2.1-2,3.3-4.7,3.3-7.6v-74.5l-1.4-334.3c0-3-1.3-5.7-3.3-7.6c-2.1-2-4.9-3.2-8-3.2
			H88.3z"/>
	</defs>
	<clipPath id="SVGID_2_">
		<use xlink:href="#SVGID_1_"  style="overflow:visible;"/>
	</clipPath>
	<rect x="14.1" y="328.6" class="st0" width="141.5" height="102"/>
	<rect x="14.1" y="245.8" class="st1" width="141.5" height="87.1"/>
	<rect x="14.1" y="88" class="st2" width="141.5" height="162.7"/>
</g>
<g>
	<path class="st3" d="M56.5,211.8c-0.2,0.3-0.4,0.6-0.6,0.8c-0.2,0.2-0.5,0.4-0.8,0.5s-0.6,0.2-1,0.2c-0.4,0-0.8-0.1-1.1-0.2
		s-0.6-0.4-0.9-0.7c-0.2-0.2-0.3-0.4-0.4-0.7s-0.2-0.5-0.2-0.8c0-0.3-0.1-0.6-0.1-0.9c0-0.3,0-0.7,0-1.1s0-0.8,0-1.1
		c0-0.3,0-0.6,0.1-0.9s0.1-0.5,0.2-0.8s0.2-0.5,0.4-0.7c0.3-0.3,0.6-0.5,0.9-0.7s0.7-0.2,1.1-0.2c0.7,0,1.3,0.2,1.8,0.7
		c0.5,0.4,0.8,1.1,1,2h-1.2c-0.1-0.4-0.3-0.8-0.5-1.1c-0.3-0.3-0.6-0.4-1-0.4c-0.2,0-0.4,0-0.6,0.1c-0.2,0.1-0.4,0.2-0.5,0.4
		c-0.1,0.1-0.2,0.2-0.2,0.4s-0.1,0.3-0.1,0.5c0,0.2-0.1,0.4-0.1,0.7c0,0.3,0,0.6,0,1.1s0,0.8,0,1.1c0,0.3,0,0.5,0.1,0.7
		s0.1,0.4,0.1,0.5s0.1,0.3,0.2,0.4c0.1,0.2,0.3,0.3,0.5,0.4c0.2,0.1,0.4,0.1,0.6,0.1c0.4,0,0.8-0.1,1-0.4s0.4-0.6,0.5-1.1h1.2
		C56.8,211.1,56.6,211.4,56.5,211.8z"/>
	<path class="st3" d="M64.1,210c0,0.3,0,0.6-0.1,0.9c0,0.3-0.1,0.5-0.2,0.8s-0.2,0.5-0.4,0.7c-0.3,0.3-0.6,0.5-0.9,0.7
		s-0.7,0.2-1.1,0.2s-0.8-0.1-1.1-0.2s-0.6-0.4-0.9-0.7c-0.2-0.2-0.3-0.4-0.4-0.7s-0.2-0.5-0.2-0.8c0-0.3-0.1-0.6-0.1-0.9
		c0-0.3,0-0.7,0-1.1s0-0.8,0-1.1c0-0.3,0-0.6,0.1-0.9s0.1-0.5,0.2-0.8s0.2-0.5,0.4-0.7c0.3-0.3,0.6-0.5,0.9-0.7s0.7-0.2,1.1-0.2
		s0.8,0.1,1.1,0.2s0.6,0.4,0.9,0.7c0.2,0.2,0.3,0.4,0.4,0.7s0.2,0.5,0.2,0.8c0,0.3,0.1,0.6,0.1,0.9s0,0.7,0,1.1S64.1,209.7,64.1,210
		z M62.9,207.8c0-0.3,0-0.5-0.1-0.7s-0.1-0.4-0.1-0.5s-0.1-0.3-0.2-0.4c-0.1-0.2-0.3-0.3-0.5-0.4s-0.4-0.1-0.6-0.1
		c-0.2,0-0.4,0-0.7,0.1c-0.2,0.1-0.4,0.2-0.5,0.4c-0.1,0.1-0.2,0.2-0.2,0.4c-0.1,0.1-0.1,0.3-0.1,0.5s-0.1,0.4-0.1,0.7
		c0,0.3,0,0.6,0,1.1s0,0.8,0,1.1c0,0.3,0,0.5,0.1,0.7s0.1,0.4,0.1,0.5c0.1,0.1,0.1,0.3,0.2,0.4c0.1,0.2,0.3,0.3,0.5,0.4
		c0.2,0.1,0.4,0.1,0.7,0.1c0.2,0,0.4,0,0.6-0.1s0.4-0.2,0.5-0.4c0.1-0.1,0.2-0.2,0.2-0.4s0.1-0.3,0.1-0.5s0.1-0.4,0.1-0.7
		c0-0.3,0-0.6,0-1.1S62.9,208.1,62.9,207.8z"/>
	<path class="st3" d="M71.9,213.2v-5.7l-1.8,4.2h-0.9l-1.8-4.2v5.7h-1.2v-8.6h1.2l2.3,5.3l2.2-5.3h1.2v8.6H71.9z"/>
	<path class="st3" d="M80.7,208.3c-0.1,0.3-0.3,0.6-0.5,0.8c-0.2,0.2-0.5,0.4-0.8,0.5c-0.3,0.1-0.6,0.2-1,0.2h-1.8v3.4h-1.2v-8.6h3
		c0.4,0,0.7,0.1,1,0.2c0.3,0.1,0.6,0.3,0.8,0.5c0.2,0.2,0.4,0.5,0.5,0.8c0.1,0.3,0.2,0.7,0.2,1C80.9,207.6,80.9,207.9,80.7,208.3z
		 M79.4,206.2c-0.3-0.2-0.6-0.4-1-0.4h-1.7v2.8h1.7c0.4,0,0.7-0.1,1-0.4c0.3-0.2,0.4-0.6,0.4-1.1S79.6,206.4,79.4,206.2z"/>
	<path class="st3" d="M88,210c0,0.3,0,0.6-0.1,0.9c0,0.3-0.1,0.5-0.2,0.8s-0.2,0.5-0.4,0.7c-0.3,0.3-0.6,0.5-0.9,0.7
		s-0.7,0.2-1.1,0.2s-0.8-0.1-1.1-0.2s-0.6-0.4-0.9-0.7c-0.2-0.2-0.3-0.4-0.4-0.7s-0.2-0.5-0.2-0.8c0-0.3-0.1-0.6-0.1-0.9
		c0-0.3,0-0.7,0-1.1s0-0.8,0-1.1c0-0.3,0-0.6,0.1-0.9s0.1-0.5,0.2-0.8s0.2-0.5,0.4-0.7c0.3-0.3,0.6-0.5,0.9-0.7s0.7-0.2,1.1-0.2
		s0.8,0.1,1.1,0.2s0.6,0.4,0.9,0.7c0.2,0.2,0.3,0.4,0.4,0.7s0.2,0.5,0.2,0.8c0,0.3,0.1,0.6,0.1,0.9s0,0.7,0,1.1S88,209.7,88,210z
		 M86.8,207.8c0-0.3,0-0.5-0.1-0.7s-0.1-0.4-0.1-0.5s-0.1-0.3-0.2-0.4c-0.1-0.2-0.3-0.3-0.5-0.4s-0.4-0.1-0.6-0.1
		c-0.2,0-0.4,0-0.7,0.1c-0.2,0.1-0.4,0.2-0.5,0.4c-0.1,0.1-0.2,0.2-0.2,0.4c-0.1,0.1-0.1,0.3-0.1,0.5s-0.1,0.4-0.1,0.7
		c0,0.3,0,0.6,0,1.1s0,0.8,0,1.1c0,0.3,0,0.5,0.1,0.7s0.1,0.4,0.1,0.5c0.1,0.1,0.1,0.3,0.2,0.4c0.1,0.2,0.3,0.3,0.5,0.4
		c0.2,0.1,0.4,0.1,0.7,0.1c0.2,0,0.4,0,0.6-0.1s0.4-0.2,0.5-0.4c0.1-0.1,0.2-0.2,0.2-0.4s0.1-0.3,0.1-0.5s0.1-0.4,0.1-0.7
		c0-0.3,0-0.6,0-1.1S86.8,208.1,86.8,207.8z"/>
	<path class="st3" d="M94.8,211.8c-0.1,0.3-0.3,0.6-0.6,0.8c-0.2,0.2-0.5,0.4-0.9,0.5c-0.3,0.1-0.7,0.2-1.1,0.2
		c-0.6,0-1.1-0.1-1.5-0.3c-0.4-0.2-0.8-0.5-1.2-0.9l0.8-0.9c0.3,0.3,0.6,0.5,0.9,0.6s0.7,0.2,1.1,0.2c0.5,0,0.9-0.1,1.2-0.3
		c0.3-0.2,0.4-0.6,0.4-1c0-0.4-0.1-0.7-0.3-0.9c-0.1-0.1-0.2-0.2-0.3-0.2c-0.1,0-0.3-0.1-0.5-0.1l-0.9-0.1c-0.6-0.1-1.1-0.3-1.5-0.7
		c-0.4-0.4-0.6-0.9-0.6-1.6c0-0.4,0.1-0.7,0.2-1s0.3-0.6,0.5-0.8c0.2-0.2,0.5-0.4,0.8-0.5c0.3-0.1,0.7-0.2,1.1-0.2
		c0.5,0,1,0.1,1.3,0.2s0.7,0.4,1.1,0.7l-0.8,0.8c-0.2-0.3-0.5-0.4-0.8-0.5c-0.3-0.1-0.6-0.1-0.9-0.1c-0.5,0-0.8,0.1-1.1,0.4
		c-0.2,0.3-0.4,0.6-0.4,1c0,0.2,0,0.3,0.1,0.4c0,0.1,0.1,0.3,0.2,0.4c0.2,0.2,0.5,0.3,0.9,0.4l0.9,0.1c0.4,0.1,0.7,0.1,0.9,0.2
		c0.2,0.1,0.4,0.2,0.6,0.4c0.2,0.2,0.4,0.5,0.5,0.8s0.2,0.6,0.2,1C95,211.1,94.9,211.5,94.8,211.8z"/>
	<path class="st3" d="M97,213.2v-8.6h1.2v8.6H97z"/>
	<path class="st3" d="M105.5,211.8c-0.2,0.3-0.4,0.6-0.6,0.8c-0.2,0.2-0.5,0.4-0.8,0.5s-0.6,0.2-1,0.2c-0.4,0-0.8-0.1-1.1-0.2
		c-0.3-0.2-0.6-0.4-0.9-0.7c-0.2-0.2-0.3-0.4-0.4-0.7s-0.2-0.5-0.2-0.8c0-0.3-0.1-0.6-0.1-0.9c0-0.3,0-0.7,0-1.1s0-0.8,0-1.1
		c0-0.3,0-0.6,0.1-0.9c0-0.3,0.1-0.5,0.2-0.8s0.2-0.5,0.4-0.7c0.3-0.3,0.6-0.5,0.9-0.7c0.3-0.2,0.7-0.2,1.1-0.2
		c0.7,0,1.3,0.2,1.8,0.7c0.5,0.4,0.8,1.1,1,2h-1.2c-0.1-0.4-0.3-0.8-0.5-1.1c-0.3-0.3-0.6-0.4-1-0.4c-0.2,0-0.4,0-0.6,0.1
		c-0.2,0.1-0.4,0.2-0.5,0.4c-0.1,0.1-0.2,0.2-0.2,0.4c-0.1,0.1-0.1,0.3-0.1,0.5c0,0.2-0.1,0.4-0.1,0.7c0,0.3,0,0.6,0,1.1
		s0,0.8,0,1.1c0,0.3,0,0.5,0.1,0.7c0,0.2,0.1,0.4,0.1,0.5c0.1,0.1,0.1,0.3,0.2,0.4c0.1,0.2,0.3,0.3,0.5,0.4c0.2,0.1,0.4,0.1,0.6,0.1
		c0.4,0,0.8-0.1,1-0.4c0.3-0.3,0.4-0.6,0.5-1.1h1.2C105.8,211.1,105.7,211.4,105.5,211.8z"/>
	<path class="st3" d="M107.8,213.2v-8.6h1.2v8.6H107.8z"/>
	<path class="st3" d="M116.7,210c0,0.3,0,0.6-0.1,0.9c0,0.3-0.1,0.5-0.2,0.8c-0.1,0.2-0.2,0.5-0.4,0.7c-0.3,0.3-0.6,0.5-0.9,0.7
		c-0.3,0.2-0.7,0.2-1.1,0.2s-0.8-0.1-1.1-0.2s-0.6-0.4-0.9-0.7c-0.2-0.2-0.3-0.4-0.4-0.7s-0.2-0.5-0.2-0.8c0-0.3-0.1-0.6-0.1-0.9
		c0-0.3,0-0.7,0-1.1s0-0.8,0-1.1c0-0.3,0-0.6,0.1-0.9c0-0.3,0.1-0.5,0.2-0.8s0.2-0.5,0.4-0.7c0.3-0.3,0.6-0.5,0.9-0.7
		s0.7-0.2,1.1-0.2s0.8,0.1,1.1,0.2c0.3,0.2,0.6,0.4,0.9,0.7c0.2,0.2,0.3,0.4,0.4,0.7c0.1,0.2,0.2,0.5,0.2,0.8c0,0.3,0.1,0.6,0.1,0.9
		s0,0.7,0,1.1S116.7,209.7,116.7,210z M115.5,207.8c0-0.3,0-0.5-0.1-0.7c0-0.2-0.1-0.4-0.1-0.5c-0.1-0.1-0.1-0.3-0.2-0.4
		c-0.1-0.2-0.3-0.3-0.5-0.4c-0.2-0.1-0.4-0.1-0.7-0.1s-0.5,0-0.7,0.1s-0.4,0.2-0.5,0.4c-0.1,0.1-0.2,0.2-0.2,0.4
		c-0.1,0.1-0.1,0.3-0.1,0.5c0,0.2-0.1,0.4-0.1,0.7c0,0.3,0,0.6,0,1.1s0,0.8,0,1.1c0,0.3,0,0.5,0.1,0.7c0,0.2,0.1,0.4,0.1,0.5
		c0.1,0.1,0.1,0.3,0.2,0.4c0.1,0.2,0.3,0.3,0.5,0.4s0.4,0.1,0.7,0.1s0.4,0,0.7-0.1c0.2-0.1,0.4-0.2,0.5-0.4c0.1-0.1,0.2-0.2,0.2-0.4
		c0.1-0.1,0.1-0.3,0.1-0.5c0-0.2,0.1-0.4,0.1-0.7c0-0.3,0-0.6,0-1.1S115.5,208.1,115.5,207.8z M114.2,203.8h-0.8l0.8-1.9h1.2
		L114.2,203.8z"/>
	<path class="st3" d="M123.6,213.2l-3.6-6v6h-1.2v-8.6h1.1l3.6,6v-6h1.2v8.6H123.6z"/>
</g>
<g>
	<path class="st3" d="M58.6,227.8l-3.6-6v6h-1.2v-8.6h1.1l3.6,6v-6h1.2v8.6H58.6z"/>
	<path class="st3" d="M67.3,226.1c-0.1,0.4-0.3,0.7-0.6,0.9s-0.5,0.5-0.9,0.6c-0.3,0.1-0.7,0.2-1.1,0.2c-0.4,0-0.8-0.1-1.1-0.2
		c-0.3-0.1-0.6-0.3-0.9-0.6s-0.4-0.6-0.6-0.9c-0.1-0.4-0.2-0.8-0.2-1.2v-5.7h1.2v5.6c0,0.6,0.1,1,0.4,1.4c0.3,0.3,0.7,0.5,1.2,0.5
		s0.9-0.2,1.2-0.5c0.3-0.3,0.4-0.8,0.4-1.4v-5.6h1.2v5.7C67.5,225.3,67.5,225.7,67.3,226.1z"/>
	<path class="st3" d="M72.5,220.4v7.4h-1.2v-7.4h-2.1v-1.2h5.5v1.2H72.5z"/>
	<path class="st3" d="M80.6,227.8l-1.6-3.6h-1.5v3.6h-1.2v-8.6h3c0.4,0,0.7,0.1,1,0.2c0.3,0.1,0.5,0.3,0.8,0.5
		c0.2,0.2,0.4,0.5,0.5,0.8c0.1,0.3,0.2,0.6,0.2,1c0,0.6-0.1,1.1-0.4,1.5c-0.3,0.4-0.7,0.6-1.1,0.8l1.8,3.8H80.6z M80.2,220.7
		c-0.2-0.2-0.6-0.4-1-0.4h-1.7v2.7h1.7c0.4,0,0.7-0.1,1-0.4c0.2-0.2,0.4-0.6,0.4-1C80.6,221.3,80.5,221,80.2,220.7z"/>
	<path class="st3" d="M83.9,227.8v-8.6H85v8.6H83.9z"/>
	<path class="st3" d="M92.4,226.3c-0.2,0.3-0.4,0.6-0.6,0.8c-0.2,0.2-0.5,0.4-0.8,0.5c-0.3,0.1-0.6,0.2-1,0.2
		c-0.4,0-0.8-0.1-1.1-0.2c-0.3-0.2-0.6-0.4-0.9-0.7c-0.2-0.2-0.3-0.4-0.4-0.7s-0.2-0.5-0.2-0.8s-0.1-0.6-0.1-0.9c0-0.3,0-0.7,0-1.1
		c0-0.4,0-0.8,0-1.1c0-0.3,0-0.6,0.1-0.9s0.1-0.5,0.2-0.8s0.2-0.5,0.4-0.7c0.3-0.3,0.6-0.5,0.9-0.7c0.3-0.2,0.7-0.2,1.1-0.2
		c0.7,0,1.3,0.2,1.8,0.7c0.5,0.4,0.8,1.1,1,2h-1.2c-0.1-0.4-0.3-0.8-0.5-1.1c-0.3-0.3-0.6-0.4-1-0.4c-0.2,0-0.4,0-0.6,0.1
		c-0.2,0.1-0.4,0.2-0.5,0.4c-0.1,0.1-0.2,0.2-0.2,0.4c-0.1,0.1-0.1,0.3-0.1,0.5c0,0.2-0.1,0.4-0.1,0.7c0,0.3,0,0.6,0,1.1
		c0,0.4,0,0.8,0,1.1c0,0.3,0,0.5,0.1,0.7s0.1,0.4,0.1,0.5c0.1,0.1,0.1,0.3,0.2,0.4c0.1,0.2,0.3,0.3,0.5,0.4c0.2,0.1,0.4,0.1,0.6,0.1
		c0.4,0,0.8-0.1,1-0.4c0.3-0.3,0.4-0.6,0.5-1.1h1.2C92.7,225.6,92.6,226,92.4,226.3z"/>
	<path class="st3" d="M94.7,227.8v-8.6h1.2v8.6H94.7z"/>
	<path class="st3" d="M103.6,224.6c0,0.3,0,0.6-0.1,0.9c0,0.3-0.1,0.5-0.2,0.8c-0.1,0.2-0.2,0.5-0.4,0.7c-0.3,0.3-0.6,0.5-0.9,0.7
		c-0.3,0.2-0.7,0.2-1.1,0.2s-0.8-0.1-1.1-0.2s-0.6-0.4-0.9-0.7c-0.2-0.2-0.3-0.4-0.4-0.7s-0.2-0.5-0.2-0.8c0-0.3-0.1-0.6-0.1-0.9
		c0-0.3,0-0.7,0-1.1c0-0.4,0-0.8,0-1.1c0-0.3,0-0.6,0.1-0.9c0-0.3,0.1-0.5,0.2-0.8s0.2-0.5,0.4-0.7c0.3-0.3,0.6-0.5,0.9-0.7
		s0.7-0.2,1.1-0.2s0.8,0.1,1.1,0.2c0.3,0.2,0.6,0.4,0.9,0.7c0.2,0.2,0.3,0.4,0.4,0.7c0.1,0.2,0.2,0.5,0.2,0.8c0,0.3,0.1,0.6,0.1,0.9
		s0,0.7,0,1.1C103.6,223.9,103.6,224.3,103.6,224.6z M102.4,222.4c0-0.3,0-0.5-0.1-0.7c0-0.2-0.1-0.4-0.1-0.5
		c-0.1-0.1-0.1-0.3-0.2-0.4c-0.1-0.2-0.3-0.3-0.5-0.4c-0.2-0.1-0.4-0.1-0.7-0.1s-0.5,0-0.7,0.1s-0.4,0.2-0.5,0.4
		c-0.1,0.1-0.2,0.2-0.2,0.4c-0.1,0.1-0.1,0.3-0.1,0.5c0,0.2-0.1,0.4-0.1,0.7c0,0.3,0,0.6,0,1.1c0,0.4,0,0.8,0,1.1s0,0.5,0.1,0.7
		c0,0.2,0.1,0.4,0.1,0.5c0.1,0.1,0.1,0.3,0.2,0.4c0.1,0.2,0.3,0.3,0.5,0.4c0.2,0.1,0.4,0.1,0.7,0.1s0.4,0,0.7-0.1
		c0.2-0.1,0.4-0.2,0.5-0.4c0.1-0.1,0.2-0.2,0.2-0.4c0.1-0.1,0.1-0.3,0.1-0.5c0-0.2,0.1-0.4,0.1-0.7s0-0.6,0-1.1
		C102.4,223,102.4,222.7,102.4,222.4z"/>
	<path class="st3" d="M110.5,227.8l-3.6-6v6h-1.2v-8.6h1.1l3.6,6v-6h1.2v8.6H110.5z"/>
	<path class="st3" d="M118.5,227.8l-0.5-1.7h-3.1l-0.5,1.7h-1.3l2.9-8.6h1l2.9,8.6H118.5z M116.4,221.1l-1.2,3.8h2.4L116.4,221.1z"
		/>
	<path class="st3" d="M121.2,227.8v-8.6h1.2v7.4h3.7v1.2H121.2z"/>
</g>
<g>
	<path class="st3" d="M59.2,299.5v-8.6h1.2v8.6H59.2z"/>
	<path class="st3" d="M67.5,299.5l-3.6-6v6h-1.2v-8.6h1.1l3.6,6v-6h1.2v8.6H67.5z"/>
	<path class="st3" d="M76.3,296.3c0,0.3,0,0.6-0.1,0.9c0,0.3-0.1,0.5-0.2,0.8s-0.2,0.5-0.4,0.7c-0.3,0.3-0.6,0.5-0.9,0.7
		s-0.7,0.2-1.1,0.2s-0.8-0.1-1.1-0.2s-0.6-0.4-0.9-0.7c-0.2-0.2-0.3-0.4-0.4-0.7s-0.2-0.5-0.2-0.8s-0.1-0.6-0.1-0.9
		c0-0.3,0-0.7,0-1.1c0-0.4,0-0.8,0-1.1c0-0.3,0-0.6,0.1-0.9s0.1-0.5,0.2-0.8c0.1-0.2,0.2-0.5,0.4-0.7c0.3-0.3,0.6-0.5,0.9-0.7
		s0.7-0.2,1.1-0.2s0.8,0.1,1.1,0.2s0.6,0.4,0.9,0.7c0.2,0.2,0.3,0.4,0.4,0.7c0.1,0.2,0.2,0.5,0.2,0.8c0,0.3,0.1,0.6,0.1,0.9
		c0,0.3,0,0.7,0,1.1C76.4,295.6,76.3,296,76.3,296.3z M75.2,294.1c0-0.3,0-0.5-0.1-0.7s-0.1-0.4-0.1-0.5s-0.1-0.3-0.2-0.4
		c-0.1-0.2-0.3-0.3-0.5-0.4c-0.2-0.1-0.4-0.1-0.6-0.1c-0.2,0-0.4,0-0.7,0.1c-0.2,0.1-0.4,0.2-0.5,0.4c-0.1,0.1-0.2,0.2-0.2,0.4
		c-0.1,0.1-0.1,0.3-0.1,0.5s-0.1,0.4-0.1,0.7c0,0.3,0,0.6,0,1.1c0,0.4,0,0.8,0,1.1c0,0.3,0,0.5,0.1,0.7c0,0.2,0.1,0.4,0.1,0.5
		c0.1,0.1,0.1,0.3,0.2,0.4c0.1,0.2,0.3,0.3,0.5,0.4c0.2,0.1,0.4,0.1,0.7,0.1c0.2,0,0.4,0,0.6-0.1c0.2-0.1,0.4-0.2,0.5-0.4
		c0.1-0.1,0.2-0.2,0.2-0.4s0.1-0.3,0.1-0.5c0-0.2,0.1-0.4,0.1-0.7c0-0.3,0-0.6,0-1.1C75.2,294.8,75.2,294.4,75.2,294.1z"/>
	<path class="st3" d="M83.4,298.1c-0.2,0.3-0.4,0.6-0.6,0.8c-0.2,0.2-0.5,0.4-0.8,0.5c-0.3,0.1-0.6,0.2-1,0.2
		c-0.4,0-0.8-0.1-1.1-0.2s-0.6-0.4-0.9-0.7c-0.2-0.2-0.3-0.4-0.4-0.7s-0.2-0.5-0.2-0.8s-0.1-0.6-0.1-0.9c0-0.3,0-0.7,0-1.1
		c0-0.4,0-0.8,0-1.1c0-0.3,0-0.6,0.1-0.9s0.1-0.5,0.2-0.8c0.1-0.2,0.2-0.5,0.4-0.7c0.3-0.3,0.6-0.5,0.9-0.7s0.7-0.2,1.1-0.2
		c0.7,0,1.3,0.2,1.8,0.7c0.5,0.4,0.8,1.1,1,2h-1.2c-0.1-0.4-0.3-0.8-0.5-1.1c-0.3-0.3-0.6-0.4-1-0.4c-0.2,0-0.4,0-0.6,0.1
		c-0.2,0.1-0.4,0.2-0.5,0.4c-0.1,0.1-0.2,0.2-0.2,0.4c-0.1,0.1-0.1,0.3-0.1,0.5s-0.1,0.4-0.1,0.7c0,0.3,0,0.6,0,1.1
		c0,0.4,0,0.8,0,1.1c0,0.3,0,0.5,0.1,0.7s0.1,0.4,0.1,0.5c0.1,0.1,0.1,0.3,0.2,0.4c0.1,0.2,0.3,0.3,0.5,0.4c0.2,0.1,0.4,0.1,0.6,0.1
		c0.4,0,0.8-0.1,1-0.4s0.4-0.6,0.5-1.1h1.2C83.7,297.3,83.6,297.7,83.4,298.1z"/>
	<path class="st3" d="M91,297.8c-0.1,0.4-0.3,0.7-0.6,0.9c-0.2,0.3-0.5,0.5-0.9,0.6c-0.3,0.1-0.7,0.2-1.1,0.2
		c-0.4,0-0.8-0.1-1.1-0.2c-0.3-0.1-0.6-0.3-0.9-0.6s-0.4-0.6-0.6-0.9c-0.1-0.4-0.2-0.8-0.2-1.2v-5.7h1.2v5.6c0,0.6,0.1,1,0.4,1.4
		c0.3,0.3,0.7,0.5,1.2,0.5c0.5,0,0.9-0.2,1.2-0.5c0.3-0.3,0.4-0.8,0.4-1.4v-5.6h1.2v5.7C91.2,297,91.1,297.4,91,297.8z"/>
	<path class="st3" d="M93.5,299.5v-8.6h1.2v8.6H93.5z"/>
	<path class="st3" d="M102.6,296.1c0,0.3,0,0.6-0.1,0.9c0,0.3-0.1,0.6-0.2,0.9s-0.3,0.5-0.5,0.8c-0.2,0.3-0.5,0.5-0.9,0.6
		s-0.7,0.2-1.1,0.2h-2.7v-8.6h2.7c0.4,0,0.8,0.1,1.1,0.2s0.6,0.3,0.9,0.6c0.2,0.2,0.4,0.5,0.5,0.8s0.2,0.5,0.2,0.8
		c0,0.3,0.1,0.6,0.1,0.9c0,0.3,0,0.6,0,0.9S102.6,295.8,102.6,296.1z M101.4,293.6c0-0.4-0.2-0.7-0.4-1c-0.3-0.4-0.8-0.6-1.3-0.6
		h-1.4v6.2h1.4c0.6,0,1-0.2,1.3-0.6c0.2-0.2,0.3-0.6,0.4-1c0-0.4,0.1-1,0.1-1.6S101.4,294.1,101.4,293.6z"/>
	<path class="st3" d="M109.1,299.5l-0.5-1.7h-3.1l-0.5,1.7h-1.3l2.9-8.6h1l2.9,8.6H109.1z M107,292.9l-1.2,3.8h2.4L107,292.9z"/>
	<path class="st3" d="M117.3,296.1c0,0.3,0,0.6-0.1,0.9c0,0.3-0.1,0.6-0.2,0.9s-0.3,0.5-0.5,0.8c-0.2,0.3-0.5,0.5-0.9,0.6
		s-0.7,0.2-1.1,0.2h-2.7v-8.6h2.7c0.4,0,0.8,0.1,1.1,0.2s0.6,0.3,0.9,0.6c0.2,0.2,0.4,0.5,0.5,0.8s0.2,0.5,0.2,0.8
		c0,0.3,0.1,0.6,0.1,0.9c0,0.3,0,0.6,0,0.9S117.3,295.8,117.3,296.1z M116.1,293.6c0-0.4-0.2-0.7-0.4-1c-0.3-0.4-0.8-0.6-1.3-0.6
		H113v6.2h1.4c0.6,0,1-0.2,1.3-0.6c0.2-0.2,0.3-0.6,0.4-1c0-0.4,0.1-1,0.1-1.6S116.1,294.1,116.1,293.6z"/>
</g>
<g>
	<path class="st3" d="M47,314.1v-5.7l-1.8,4.2h-0.9l-1.8-4.2v5.7h-1.2v-8.6h1.2l2.3,5.3l2.2-5.3h1.2v8.6H47z"/>
	<path class="st3" d="M50.6,314.1v-8.6h1.2v8.6H50.6z"/>
	<path class="st3" d="M59.2,312.6c-0.2,0.3-0.4,0.6-0.6,0.8c-0.2,0.2-0.5,0.4-0.8,0.5c-0.3,0.1-0.6,0.2-1,0.2
		c-0.4,0-0.8-0.1-1.1-0.2s-0.6-0.4-0.9-0.7c-0.2-0.2-0.3-0.4-0.4-0.7s-0.2-0.5-0.2-0.8s-0.1-0.6-0.1-0.9c0-0.3,0-0.7,0-1.1
		c0-0.4,0-0.8,0-1.1c0-0.3,0-0.6,0.1-0.9s0.1-0.5,0.2-0.8c0.1-0.2,0.2-0.5,0.4-0.7c0.3-0.3,0.6-0.5,0.9-0.7s0.7-0.2,1.1-0.2
		c0.7,0,1.3,0.2,1.8,0.7c0.5,0.4,0.8,1.1,1,2h-1.2c-0.1-0.4-0.3-0.8-0.5-1.1c-0.3-0.3-0.6-0.4-1-0.4c-0.2,0-0.4,0-0.6,0.1
		c-0.2,0.1-0.4,0.2-0.5,0.4c-0.1,0.1-0.2,0.2-0.2,0.4c-0.1,0.1-0.1,0.3-0.1,0.5s-0.1,0.4-0.1,0.7c0,0.3,0,0.6,0,1.1
		c0,0.4,0,0.8,0,1.1c0,0.3,0,0.5,0.1,0.7s0.1,0.4,0.1,0.5c0.1,0.1,0.1,0.3,0.2,0.4c0.1,0.2,0.3,0.3,0.5,0.4c0.2,0.1,0.4,0.1,0.6,0.1
		c0.4,0,0.8-0.1,1-0.4s0.4-0.6,0.5-1.1h1.2C59.4,311.9,59.3,312.3,59.2,312.6z"/>
	<path class="st3" d="M65.8,314.1l-1.6-3.6h-1.5v3.6h-1.2v-8.6h3c0.4,0,0.7,0.1,1,0.2s0.5,0.3,0.8,0.5c0.2,0.2,0.4,0.5,0.5,0.8
		c0.1,0.3,0.2,0.6,0.2,1c0,0.6-0.1,1.1-0.4,1.5c-0.3,0.4-0.7,0.6-1.1,0.8l1.8,3.8H65.8z M65.4,307c-0.2-0.2-0.6-0.4-1-0.4h-1.7v2.7
		h1.7c0.4,0,0.7-0.1,1-0.4s0.4-0.6,0.4-1C65.7,307.6,65.6,307.3,65.4,307z"/>
	<path class="st3" d="M74.3,310.9c0,0.3,0,0.6-0.1,0.9c0,0.3-0.1,0.5-0.2,0.8s-0.2,0.5-0.4,0.7c-0.3,0.3-0.6,0.5-0.9,0.7
		s-0.7,0.2-1.1,0.2s-0.8-0.1-1.1-0.2s-0.6-0.4-0.9-0.7c-0.2-0.2-0.3-0.4-0.4-0.7s-0.2-0.5-0.2-0.8s-0.1-0.6-0.1-0.9
		c0-0.3,0-0.7,0-1.1c0-0.4,0-0.8,0-1.1c0-0.3,0-0.6,0.1-0.9s0.1-0.5,0.2-0.8c0.1-0.2,0.2-0.5,0.4-0.7c0.3-0.3,0.6-0.5,0.9-0.7
		s0.7-0.2,1.1-0.2s0.8,0.1,1.1,0.2s0.6,0.4,0.9,0.7c0.2,0.2,0.3,0.4,0.4,0.7c0.1,0.2,0.2,0.5,0.2,0.8c0,0.3,0.1,0.6,0.1,0.9
		c0,0.3,0,0.7,0,1.1C74.3,310.2,74.3,310.6,74.3,310.9z M73.1,308.7c0-0.3,0-0.5-0.1-0.7s-0.1-0.4-0.1-0.5s-0.1-0.3-0.2-0.4
		c-0.1-0.2-0.3-0.3-0.5-0.4c-0.2-0.1-0.4-0.1-0.6-0.1c-0.2,0-0.4,0-0.7,0.1c-0.2,0.1-0.4,0.2-0.5,0.4c-0.1,0.1-0.2,0.2-0.2,0.4
		c-0.1,0.1-0.1,0.3-0.1,0.5s-0.1,0.4-0.1,0.7c0,0.3,0,0.6,0,1.1c0,0.4,0,0.8,0,1.1c0,0.3,0,0.5,0.1,0.7c0,0.2,0.1,0.4,0.1,0.5
		c0.1,0.1,0.1,0.3,0.2,0.4c0.1,0.2,0.3,0.3,0.5,0.4c0.2,0.1,0.4,0.1,0.7,0.1c0.2,0,0.4,0,0.6-0.1c0.2-0.1,0.4-0.2,0.5-0.4
		c0.1-0.1,0.2-0.2,0.2-0.4s0.1-0.3,0.1-0.5c0-0.2,0.1-0.4,0.1-0.7c0-0.3,0-0.6,0-1.1C73.1,309.3,73.1,309,73.1,308.7z"/>
	<path class="st3" d="M81.8,312.7c-0.1,0.3-0.3,0.6-0.5,0.8s-0.5,0.4-0.7,0.5c-0.3,0.1-0.6,0.2-0.9,0.2h-3.1v-8.6h3
		c0.7,0,1.3,0.2,1.7,0.6s0.6,1,0.6,1.7c0,0.2,0,0.4-0.1,0.6c-0.1,0.2-0.1,0.4-0.2,0.5c-0.1,0.2-0.2,0.3-0.3,0.4
		c-0.1,0.1-0.3,0.2-0.4,0.2c0.2,0.1,0.3,0.2,0.4,0.3c0.1,0.1,0.3,0.3,0.4,0.4c0.1,0.2,0.2,0.3,0.3,0.6c0.1,0.2,0.1,0.5,0.1,0.7
		C81.9,312,81.9,312.4,81.8,312.7z M80.3,307c-0.2-0.2-0.5-0.3-0.9-0.3h-1.7v2.5h1.7c0.4,0,0.7-0.1,0.9-0.3c0.2-0.2,0.3-0.5,0.3-0.9
		C80.6,307.5,80.5,307.2,80.3,307z M80.4,310.6c-0.2-0.2-0.5-0.4-1-0.4h-1.9v2.6h1.9c0.4,0,0.7-0.1,1-0.4c0.2-0.2,0.3-0.6,0.3-0.9
		C80.8,311.2,80.6,310.9,80.4,310.6z"/>
	<path class="st3" d="M84.1,314.1v-8.6h1.2v8.6H84.1z"/>
	<path class="st3" d="M93,310.9c0,0.3,0,0.6-0.1,0.9c0,0.3-0.1,0.5-0.2,0.8c-0.1,0.2-0.2,0.5-0.4,0.7c-0.3,0.3-0.6,0.5-0.9,0.7
		c-0.3,0.2-0.7,0.2-1.1,0.2s-0.8-0.1-1.1-0.2s-0.6-0.4-0.9-0.7c-0.2-0.2-0.3-0.4-0.4-0.7s-0.2-0.5-0.2-0.8s-0.1-0.6-0.1-0.9
		c0-0.3,0-0.7,0-1.1c0-0.4,0-0.8,0-1.1c0-0.3,0-0.6,0.1-0.9s0.1-0.5,0.2-0.8c0.1-0.2,0.2-0.5,0.4-0.7c0.3-0.3,0.6-0.5,0.9-0.7
		s0.7-0.2,1.1-0.2s0.8,0.1,1.1,0.2c0.3,0.2,0.6,0.4,0.9,0.7c0.2,0.2,0.3,0.4,0.4,0.7c0.1,0.2,0.2,0.5,0.2,0.8c0,0.3,0.1,0.6,0.1,0.9
		c0,0.3,0,0.7,0,1.1C93,310.2,93,310.6,93,310.9z M91.8,308.7c0-0.3,0-0.5-0.1-0.7c0-0.2-0.1-0.4-0.1-0.5c-0.1-0.1-0.1-0.3-0.2-0.4
		c-0.1-0.2-0.3-0.3-0.5-0.4c-0.2-0.1-0.4-0.1-0.7-0.1s-0.5,0-0.7,0.1c-0.2,0.1-0.4,0.2-0.5,0.4c-0.1,0.1-0.2,0.2-0.2,0.4
		c-0.1,0.1-0.1,0.3-0.1,0.5c0,0.2-0.1,0.4-0.1,0.7s0,0.6,0,1.1c0,0.4,0,0.8,0,1.1s0,0.5,0.1,0.7c0,0.2,0.1,0.4,0.1,0.5
		c0.1,0.1,0.1,0.3,0.2,0.4c0.1,0.2,0.3,0.3,0.5,0.4c0.2,0.1,0.4,0.1,0.7,0.1s0.4,0,0.7-0.1c0.2-0.1,0.4-0.2,0.5-0.4
		c0.1-0.1,0.2-0.2,0.2-0.4c0.1-0.1,0.1-0.3,0.1-0.5c0-0.2,0.1-0.4,0.1-0.7s0-0.6,0-1.1C91.8,309.3,91.8,309,91.8,308.7z"/>
	<path class="st3" d="M95.1,314.1v-8.6h1.2v7.4h3.7v1.2H95.1z"/>
	<path class="st3" d="M106.7,310.9c0,0.3,0,0.6-0.1,0.9c0,0.3-0.1,0.5-0.2,0.8c-0.1,0.2-0.2,0.5-0.4,0.7c-0.3,0.3-0.6,0.5-0.9,0.7
		c-0.3,0.2-0.7,0.2-1.1,0.2s-0.8-0.1-1.1-0.2s-0.6-0.4-0.9-0.7c-0.2-0.2-0.3-0.4-0.4-0.7s-0.2-0.5-0.2-0.8c0-0.3-0.1-0.6-0.1-0.9
		c0-0.3,0-0.7,0-1.1c0-0.4,0-0.8,0-1.1c0-0.3,0-0.6,0.1-0.9c0-0.3,0.1-0.5,0.2-0.8c0.1-0.2,0.2-0.5,0.4-0.7c0.3-0.3,0.6-0.5,0.9-0.7
		s0.7-0.2,1.1-0.2s0.8,0.1,1.1,0.2c0.3,0.2,0.6,0.4,0.9,0.7c0.2,0.2,0.3,0.4,0.4,0.7c0.1,0.2,0.2,0.5,0.2,0.8c0,0.3,0.1,0.6,0.1,0.9
		c0,0.3,0,0.7,0,1.1C106.7,310.2,106.7,310.6,106.7,310.9z M105.5,308.7c0-0.3,0-0.5-0.1-0.7c0-0.2-0.1-0.4-0.1-0.5
		c-0.1-0.1-0.1-0.3-0.2-0.4c-0.1-0.2-0.3-0.3-0.5-0.4c-0.2-0.1-0.4-0.1-0.7-0.1s-0.5,0-0.7,0.1c-0.2,0.1-0.4,0.2-0.5,0.4
		c-0.1,0.1-0.2,0.2-0.2,0.4c-0.1,0.1-0.1,0.3-0.1,0.5c0,0.2-0.1,0.4-0.1,0.7s0,0.6,0,1.1c0,0.4,0,0.8,0,1.1s0,0.5,0.1,0.7
		c0,0.2,0.1,0.4,0.1,0.5c0.1,0.1,0.1,0.3,0.2,0.4c0.1,0.2,0.3,0.3,0.5,0.4c0.2,0.1,0.4,0.1,0.7,0.1s0.4,0,0.7-0.1
		c0.2-0.1,0.4-0.2,0.5-0.4c0.1-0.1,0.2-0.2,0.2-0.4c0.1-0.1,0.1-0.3,0.1-0.5c0-0.2,0.1-0.4,0.1-0.7s0-0.6,0-1.1
		C105.5,309.3,105.5,309,105.5,308.7z M104.2,304.7h-0.8l0.8-1.9h1.2L104.2,304.7z"/>
	<path class="st3" d="M114.1,312.1c-0.1,0.4-0.3,0.7-0.5,1c-0.3,0.3-0.6,0.6-1,0.7c-0.4,0.2-0.7,0.2-1.2,0.2c-0.4,0-0.8-0.1-1.1-0.2
		c-0.3-0.2-0.6-0.4-0.9-0.7c-0.2-0.2-0.3-0.4-0.4-0.7s-0.2-0.5-0.2-0.8c0-0.3-0.1-0.6-0.1-0.9c0-0.3,0-0.7,0-1.1c0-0.4,0-0.8,0-1.1
		c0-0.3,0-0.6,0.1-0.9c0-0.3,0.1-0.5,0.2-0.8c0.1-0.2,0.2-0.5,0.4-0.7c0.3-0.3,0.6-0.5,0.9-0.7s0.7-0.2,1.1-0.2s0.8,0.1,1.1,0.2
		c0.3,0.1,0.6,0.3,0.8,0.6s0.4,0.5,0.6,0.8c0.1,0.3,0.2,0.7,0.3,1H113c-0.1-0.5-0.3-0.8-0.6-1.1c-0.3-0.3-0.6-0.4-1.1-0.4
		c-0.2,0-0.4,0-0.6,0.1c-0.2,0.1-0.4,0.2-0.5,0.4c-0.1,0.1-0.2,0.2-0.2,0.4c-0.1,0.1-0.1,0.3-0.1,0.5c0,0.2-0.1,0.4-0.1,0.7
		s0,0.6,0,1.1c0,0.4,0,0.8,0,1.1c0,0.3,0,0.5,0.1,0.7c0,0.2,0.1,0.4,0.1,0.5c0.1,0.1,0.1,0.3,0.2,0.4c0.1,0.2,0.3,0.3,0.5,0.4
		c0.2,0.1,0.4,0.1,0.6,0.1c0.3,0,0.5-0.1,0.7-0.2s0.4-0.3,0.6-0.4c0.1-0.2,0.2-0.4,0.3-0.6c0.1-0.2,0.1-0.5,0.1-0.7v-0.5h-1.7v-1.1
		h2.8v1.3C114.2,311.3,114.2,311.8,114.1,312.1z"/>
	<path class="st3" d="M116.3,314.1v-8.6h1.2v8.6H116.3z"/>
	<path class="st3" d="M124.9,312.6c-0.2,0.3-0.4,0.6-0.6,0.8c-0.2,0.2-0.5,0.4-0.8,0.5c-0.3,0.1-0.6,0.2-1,0.2
		c-0.4,0-0.8-0.1-1.1-0.2c-0.3-0.2-0.6-0.4-0.9-0.7c-0.2-0.2-0.3-0.4-0.4-0.7s-0.2-0.5-0.2-0.8c0-0.3-0.1-0.6-0.1-0.9
		c0-0.3,0-0.7,0-1.1c0-0.4,0-0.8,0-1.1c0-0.3,0-0.6,0.1-0.9c0-0.3,0.1-0.5,0.2-0.8c0.1-0.2,0.2-0.5,0.4-0.7c0.3-0.3,0.6-0.5,0.9-0.7
		c0.3-0.2,0.7-0.2,1.1-0.2c0.7,0,1.3,0.2,1.8,0.7c0.5,0.4,0.8,1.1,1,2H124c-0.1-0.4-0.3-0.8-0.5-1.1c-0.3-0.3-0.6-0.4-1-0.4
		c-0.2,0-0.4,0-0.6,0.1c-0.2,0.1-0.4,0.2-0.5,0.4c-0.1,0.1-0.2,0.2-0.2,0.4c-0.1,0.1-0.1,0.3-0.1,0.5c0,0.2-0.1,0.4-0.1,0.7
		c0,0.3,0,0.6,0,1.1c0,0.4,0,0.8,0,1.1c0,0.3,0,0.5,0.1,0.7c0,0.2,0.1,0.4,0.1,0.5c0.1,0.1,0.1,0.3,0.2,0.4c0.1,0.2,0.3,0.3,0.5,0.4
		c0.2,0.1,0.4,0.1,0.6,0.1c0.4,0,0.8-0.1,1-0.4c0.3-0.3,0.4-0.6,0.5-1.1h1.2C125.1,311.9,125,312.3,124.9,312.6z"/>
	<path class="st3" d="M131.5,314.1l-0.5-1.7h-3.1l-0.5,1.7h-1.3l2.9-8.6h1l2.9,8.6H131.5z M129.5,307.4l-1.2,3.8h2.4L129.5,307.4z"
		/>
</g>
<g>
	<path class="st3" d="M65.8,368.8c-0.1,0.3-0.3,0.6-0.5,0.8c-0.2,0.2-0.5,0.4-0.8,0.5c-0.3,0.1-0.6,0.2-1,0.2h-1.8v3.4h-1.2v-8.6h3
		c0.4,0,0.7,0.1,1,0.2c0.3,0.1,0.6,0.3,0.8,0.5c0.2,0.2,0.4,0.5,0.5,0.8c0.1,0.3,0.2,0.7,0.2,1C66,368.1,65.9,368.5,65.8,368.8z
		 M64.4,366.7c-0.3-0.2-0.6-0.4-1-0.4h-1.7v2.8h1.7c0.4,0,0.7-0.1,1-0.4c0.3-0.2,0.4-0.6,0.4-1.1C64.8,367.3,64.7,366.9,64.4,366.7z
		"/>
	<path class="st3" d="M72.1,373.7l-1.6-3.6H69v3.6h-1.2v-8.6h3c0.4,0,0.7,0.1,1,0.2s0.5,0.3,0.8,0.5c0.2,0.2,0.4,0.5,0.5,0.8
		c0.1,0.3,0.2,0.6,0.2,1c0,0.6-0.1,1.1-0.4,1.5c-0.3,0.4-0.7,0.6-1.1,0.8l1.8,3.8H72.1z M71.7,366.7c-0.2-0.2-0.6-0.4-1-0.4H69v2.7
		h1.7c0.4,0,0.7-0.1,1-0.4s0.4-0.6,0.4-1C72.1,367.2,71.9,366.9,71.7,366.7z"/>
	<path class="st3" d="M80.6,370.5c0,0.3,0,0.6-0.1,0.9c0,0.3-0.1,0.5-0.2,0.8s-0.2,0.5-0.4,0.7c-0.3,0.3-0.6,0.5-0.9,0.7
		s-0.7,0.2-1.1,0.2s-0.8-0.1-1.1-0.2s-0.6-0.4-0.9-0.7c-0.2-0.2-0.3-0.4-0.4-0.7s-0.2-0.5-0.2-0.8s-0.1-0.6-0.1-0.9
		c0-0.3,0-0.7,0-1.1c0-0.4,0-0.8,0-1.1c0-0.3,0-0.6,0.1-0.9s0.1-0.5,0.2-0.8c0.1-0.2,0.2-0.5,0.4-0.7c0.3-0.3,0.6-0.5,0.9-0.7
		s0.7-0.2,1.1-0.2s0.8,0.1,1.1,0.2s0.6,0.4,0.9,0.7c0.2,0.2,0.3,0.4,0.4,0.7c0.1,0.2,0.2,0.5,0.2,0.8c0,0.3,0.1,0.6,0.1,0.9
		c0,0.3,0,0.7,0,1.1C80.7,369.8,80.7,370.2,80.6,370.5z M79.5,368.3c0-0.3,0-0.5-0.1-0.7s-0.1-0.4-0.1-0.5s-0.1-0.3-0.2-0.4
		c-0.1-0.2-0.3-0.3-0.5-0.4c-0.2-0.1-0.4-0.1-0.6-0.1c-0.2,0-0.4,0-0.7,0.1c-0.2,0.1-0.4,0.2-0.5,0.4c-0.1,0.1-0.2,0.2-0.2,0.4
		c-0.1,0.1-0.1,0.3-0.1,0.5s-0.1,0.4-0.1,0.7c0,0.3,0,0.6,0,1.1c0,0.4,0,0.8,0,1.1c0,0.3,0,0.5,0.1,0.7c0,0.2,0.1,0.4,0.1,0.5
		c0.1,0.1,0.1,0.3,0.2,0.4c0.1,0.2,0.3,0.3,0.5,0.4c0.2,0.1,0.4,0.1,0.7,0.1c0.2,0,0.4,0,0.6-0.1c0.2-0.1,0.4-0.2,0.5-0.4
		c0.1-0.1,0.2-0.2,0.2-0.4s0.1-0.3,0.1-0.5c0-0.2,0.1-0.4,0.1-0.7c0-0.3,0-0.6,0-1.1C79.5,369,79.5,368.6,79.5,368.3z"/>
	<path class="st3" d="M87.7,372.3c-0.2,0.3-0.4,0.6-0.6,0.8c-0.2,0.2-0.5,0.4-0.8,0.5c-0.3,0.1-0.6,0.2-1,0.2
		c-0.4,0-0.8-0.1-1.1-0.2s-0.6-0.4-0.9-0.7c-0.2-0.2-0.3-0.4-0.4-0.7s-0.2-0.5-0.2-0.8s-0.1-0.6-0.1-0.9c0-0.3,0-0.7,0-1.1
		c0-0.4,0-0.8,0-1.1c0-0.3,0-0.6,0.1-0.9s0.1-0.5,0.2-0.8c0.1-0.2,0.2-0.5,0.4-0.7c0.3-0.3,0.6-0.5,0.9-0.7s0.7-0.2,1.1-0.2
		c0.7,0,1.3,0.2,1.8,0.7c0.5,0.4,0.8,1.1,1,2h-1.2c-0.1-0.4-0.3-0.8-0.5-1.1c-0.3-0.3-0.6-0.4-1-0.4c-0.2,0-0.4,0-0.6,0.1
		c-0.2,0.1-0.4,0.2-0.5,0.4c-0.1,0.1-0.2,0.2-0.2,0.4c-0.1,0.1-0.1,0.3-0.1,0.5s-0.1,0.4-0.1,0.7c0,0.3,0,0.6,0,1.1
		c0,0.4,0,0.8,0,1.1c0,0.3,0,0.5,0.1,0.7s0.1,0.4,0.1,0.5c0.1,0.1,0.1,0.3,0.2,0.4c0.1,0.2,0.3,0.3,0.5,0.4c0.2,0.1,0.4,0.1,0.6,0.1
		c0.4,0,0.8-0.1,1-0.4s0.4-0.6,0.5-1.1h1.2C88,371.6,87.9,371.9,87.7,372.3z"/>
	<path class="st3" d="M90,373.7v-8.6h5v1.2h-3.8v2.5h3.2v1.2h-3.2v2.6H95v1.2H90z"/>
	<path class="st3" d="M101.6,372.3c-0.1,0.3-0.3,0.6-0.6,0.8c-0.2,0.2-0.5,0.4-0.9,0.5c-0.3,0.1-0.7,0.2-1.1,0.2
		c-0.6,0-1.1-0.1-1.5-0.3c-0.4-0.2-0.8-0.5-1.2-0.9l0.8-0.9c0.3,0.3,0.6,0.5,0.9,0.6s0.7,0.2,1.1,0.2c0.5,0,0.9-0.1,1.2-0.3
		c0.3-0.2,0.4-0.6,0.4-1c0-0.4-0.1-0.7-0.3-0.9c-0.1-0.1-0.2-0.2-0.3-0.2c-0.1,0-0.3-0.1-0.5-0.1l-0.9-0.1c-0.6-0.1-1.1-0.3-1.5-0.7
		c-0.4-0.4-0.6-0.9-0.6-1.6c0-0.4,0.1-0.7,0.2-1c0.1-0.3,0.3-0.6,0.5-0.8c0.2-0.2,0.5-0.4,0.8-0.5s0.7-0.2,1.1-0.2
		c0.5,0,1,0.1,1.3,0.2s0.7,0.4,1.1,0.7l-0.8,0.8c-0.2-0.3-0.5-0.4-0.8-0.5c-0.3-0.1-0.6-0.1-0.9-0.1c-0.5,0-0.8,0.1-1.1,0.4
		c-0.2,0.3-0.4,0.6-0.4,1c0,0.2,0,0.3,0.1,0.4c0,0.1,0.1,0.3,0.2,0.4c0.2,0.2,0.5,0.3,0.9,0.4l0.9,0.1c0.4,0.1,0.7,0.1,0.9,0.2
		c0.2,0.1,0.4,0.2,0.6,0.4c0.2,0.2,0.4,0.5,0.5,0.8c0.1,0.3,0.2,0.6,0.2,1C101.9,371.7,101.8,372,101.6,372.3z"/>
	<path class="st3" d="M109.1,370.5c0,0.3,0,0.6-0.1,0.9c0,0.3-0.1,0.5-0.2,0.8c-0.1,0.2-0.2,0.5-0.4,0.7c-0.3,0.3-0.6,0.5-0.9,0.7
		c-0.3,0.2-0.7,0.2-1.1,0.2s-0.8-0.1-1.1-0.2s-0.6-0.4-0.9-0.7c-0.2-0.2-0.3-0.4-0.4-0.7s-0.2-0.5-0.2-0.8c0-0.3-0.1-0.6-0.1-0.9
		c0-0.3,0-0.7,0-1.1c0-0.4,0-0.8,0-1.1c0-0.3,0-0.6,0.1-0.9c0-0.3,0.1-0.5,0.2-0.8c0.1-0.2,0.2-0.5,0.4-0.7c0.3-0.3,0.6-0.5,0.9-0.7
		s0.7-0.2,1.1-0.2s0.8,0.1,1.1,0.2c0.3,0.2,0.6,0.4,0.9,0.7c0.2,0.2,0.3,0.4,0.4,0.7c0.1,0.2,0.2,0.5,0.2,0.8c0,0.3,0.1,0.6,0.1,0.9
		c0,0.3,0,0.7,0,1.1C109.1,369.8,109.1,370.2,109.1,370.5z M107.9,368.3c0-0.3,0-0.5-0.1-0.7c0-0.2-0.1-0.4-0.1-0.5
		c-0.1-0.1-0.1-0.3-0.2-0.4c-0.1-0.2-0.3-0.3-0.5-0.4c-0.2-0.1-0.4-0.1-0.7-0.1s-0.5,0-0.7,0.1c-0.2,0.1-0.4,0.2-0.5,0.4
		c-0.1,0.1-0.2,0.2-0.2,0.4c-0.1,0.1-0.1,0.3-0.1,0.5c0,0.2-0.1,0.4-0.1,0.7s0,0.6,0,1.1c0,0.4,0,0.8,0,1.1s0,0.5,0.1,0.7
		c0,0.2,0.1,0.4,0.1,0.5c0.1,0.1,0.1,0.3,0.2,0.4c0.1,0.2,0.3,0.3,0.5,0.4c0.2,0.1,0.4,0.1,0.7,0.1s0.4,0,0.7-0.1
		c0.2-0.1,0.4-0.2,0.5-0.4c0.1-0.1,0.2-0.2,0.2-0.4c0.1-0.1,0.1-0.3,0.1-0.5c0-0.2,0.1-0.4,0.1-0.7s0-0.6,0-1.1
		C107.9,369,107.9,368.6,107.9,368.3z"/>
	<path class="st3" d="M115.9,372.3c-0.1,0.3-0.3,0.6-0.6,0.8c-0.2,0.2-0.5,0.4-0.9,0.5c-0.3,0.1-0.7,0.2-1.1,0.2
		c-0.6,0-1.1-0.1-1.5-0.3c-0.4-0.2-0.8-0.5-1.2-0.9l0.8-0.9c0.3,0.3,0.6,0.5,0.9,0.6s0.7,0.2,1.1,0.2c0.5,0,0.9-0.1,1.2-0.3
		c0.3-0.2,0.4-0.6,0.4-1c0-0.4-0.1-0.7-0.3-0.9c-0.1-0.1-0.2-0.2-0.3-0.2c-0.1,0-0.3-0.1-0.5-0.1l-0.9-0.1c-0.6-0.1-1.1-0.3-1.5-0.7
		c-0.4-0.4-0.6-0.9-0.6-1.6c0-0.4,0.1-0.7,0.2-1c0.1-0.3,0.3-0.6,0.5-0.8c0.2-0.2,0.5-0.4,0.8-0.5s0.7-0.2,1.1-0.2
		c0.5,0,1,0.1,1.3,0.2s0.7,0.4,1.1,0.7l-0.8,0.8c-0.2-0.3-0.5-0.4-0.8-0.5c-0.3-0.1-0.6-0.1-0.9-0.1c-0.5,0-0.8,0.1-1.1,0.4
		c-0.2,0.3-0.4,0.6-0.4,1c0,0.2,0,0.3,0.1,0.4c0,0.1,0.1,0.3,0.2,0.4c0.2,0.2,0.5,0.3,0.9,0.4l0.9,0.1c0.4,0.1,0.7,0.1,0.9,0.2
		c0.2,0.1,0.4,0.2,0.6,0.4c0.2,0.2,0.4,0.5,0.5,0.8c0.1,0.3,0.2,0.6,0.2,1C116.1,371.7,116,372,115.9,372.3z"/>
</g>
<g>
	<path class="st3" d="M63.2,388.3l-0.5-1.7h-3.1l-0.5,1.7h-1.3l2.9-8.6h1l2.9,8.6H63.2z M61.2,381.7l-1.2,3.8h2.4L61.2,381.7z"/>
	<path class="st3" d="M71.2,386.6c-0.1,0.4-0.3,0.7-0.6,0.9s-0.5,0.5-0.9,0.6c-0.3,0.1-0.7,0.2-1.1,0.2c-0.4,0-0.8-0.1-1.1-0.2
		c-0.3-0.1-0.6-0.3-0.9-0.6s-0.4-0.6-0.6-0.9c-0.1-0.4-0.2-0.8-0.2-1.2v-5.7H67v5.6c0,0.6,0.1,1,0.4,1.4c0.3,0.3,0.7,0.5,1.2,0.5
		s0.9-0.2,1.2-0.5c0.3-0.3,0.4-0.8,0.4-1.4v-5.6h1.2v5.7C71.4,385.8,71.3,386.2,71.2,386.6z"/>
	<path class="st3" d="M79.2,384.9c0,0.3,0,0.6-0.1,0.9c0,0.3-0.1,0.6-0.2,0.9c-0.1,0.3-0.3,0.5-0.5,0.8c-0.2,0.3-0.5,0.5-0.9,0.6
		s-0.7,0.2-1.1,0.2h-2.7v-8.6h2.7c0.4,0,0.8,0.1,1.1,0.2s0.6,0.3,0.9,0.6c0.2,0.2,0.4,0.5,0.5,0.8c0.1,0.3,0.2,0.5,0.2,0.8
		c0,0.3,0.1,0.6,0.1,0.9c0,0.3,0,0.6,0,0.9S79.2,384.6,79.2,384.9z M78,382.4c0-0.4-0.2-0.7-0.4-1c-0.3-0.4-0.8-0.6-1.3-0.6h-1.4
		v6.2h1.4c0.6,0,1-0.2,1.3-0.6c0.2-0.2,0.3-0.6,0.4-1c0-0.4,0.1-1,0.1-1.6S78,382.8,78,382.4z"/>
	<path class="st3" d="M81.4,388.3v-8.6h1.2v8.6H81.4z"/>
	<path class="st3" d="M87.6,380.9v7.4h-1.2v-7.4h-2.1v-1.2h5.5v1.2H87.6z"/>
	<path class="st3" d="M95.3,388.3l-0.5-1.7h-3.1l-0.5,1.7h-1.3l2.9-8.6h1l2.9,8.6H95.3z M93.2,381.7l-1.2,3.8h2.4L93.2,381.7z"/>
	<path class="st3" d="M103.5,384.9c0,0.3,0,0.6-0.1,0.9c0,0.3-0.1,0.6-0.2,0.9s-0.3,0.5-0.5,0.8c-0.2,0.3-0.5,0.5-0.9,0.6
		s-0.7,0.2-1.1,0.2H98v-8.6h2.7c0.4,0,0.8,0.1,1.1,0.2s0.6,0.3,0.9,0.6c0.2,0.2,0.4,0.5,0.5,0.8s0.2,0.5,0.2,0.8
		c0,0.3,0.1,0.6,0.1,0.9c0,0.3,0,0.6,0,0.9S103.5,384.6,103.5,384.9z M102.3,382.4c0-0.4-0.2-0.7-0.4-1c-0.3-0.4-0.8-0.6-1.3-0.6
		h-1.4v6.2h1.4c0.6,0,1-0.2,1.3-0.6c0.2-0.2,0.3-0.6,0.4-1c0-0.4,0.1-1,0.1-1.6S102.3,382.8,102.3,382.4z"/>
	<path class="st3" d="M111,385.1c0,0.3,0,0.6-0.1,0.9c0,0.3-0.1,0.5-0.2,0.8c-0.1,0.2-0.2,0.5-0.4,0.7c-0.3,0.3-0.6,0.5-0.9,0.7
		c-0.3,0.2-0.7,0.2-1.1,0.2s-0.8-0.1-1.1-0.2s-0.6-0.4-0.9-0.7c-0.2-0.2-0.3-0.4-0.4-0.7s-0.2-0.5-0.2-0.8c0-0.3-0.1-0.6-0.1-0.9
		c0-0.3,0-0.7,0-1.1c0-0.4,0-0.8,0-1.1c0-0.3,0-0.6,0.1-0.9c0-0.3,0.1-0.5,0.2-0.8c0.1-0.2,0.2-0.5,0.4-0.7c0.3-0.3,0.6-0.5,0.9-0.7
		s0.7-0.2,1.1-0.2s0.8,0.1,1.1,0.2c0.3,0.2,0.6,0.4,0.9,0.7c0.2,0.2,0.3,0.4,0.4,0.7c0.1,0.2,0.2,0.5,0.2,0.8c0,0.3,0.1,0.6,0.1,0.9
		c0,0.3,0,0.7,0,1.1C111,384.4,111,384.8,111,385.1z M109.8,382.9c0-0.3,0-0.5-0.1-0.7c0-0.2-0.1-0.4-0.1-0.5
		c-0.1-0.1-0.1-0.3-0.2-0.4c-0.1-0.2-0.3-0.3-0.5-0.4c-0.2-0.1-0.4-0.1-0.7-0.1s-0.5,0-0.7,0.1c-0.2,0.1-0.4,0.2-0.5,0.4
		c-0.1,0.1-0.2,0.2-0.2,0.4c-0.1,0.1-0.1,0.3-0.1,0.5c0,0.2-0.1,0.4-0.1,0.7s0,0.6,0,1.1c0,0.4,0,0.8,0,1.1s0,0.5,0.1,0.7
		c0,0.2,0.1,0.4,0.1,0.5c0.1,0.1,0.1,0.3,0.2,0.4c0.1,0.2,0.3,0.3,0.5,0.4c0.2,0.1,0.4,0.1,0.7,0.1s0.4,0,0.7-0.1
		c0.2-0.1,0.4-0.2,0.5-0.4c0.1-0.1,0.2-0.2,0.2-0.4c0.1-0.1,0.1-0.3,0.1-0.5c0-0.2,0.1-0.4,0.1-0.7s0-0.6,0-1.1
		C109.8,383.6,109.8,383.2,109.8,382.9z"/>
	<path class="st3" d="M117.8,386.9c-0.1,0.3-0.3,0.6-0.6,0.8c-0.2,0.2-0.5,0.4-0.9,0.5c-0.3,0.1-0.7,0.2-1.1,0.2
		c-0.6,0-1.1-0.1-1.5-0.3c-0.4-0.2-0.8-0.5-1.2-0.9l0.8-0.9c0.3,0.3,0.6,0.5,0.9,0.6s0.7,0.2,1.1,0.2c0.5,0,0.9-0.1,1.2-0.3
		c0.3-0.2,0.4-0.6,0.4-1c0-0.4-0.1-0.7-0.3-0.9c-0.1-0.1-0.2-0.2-0.3-0.2c-0.1,0-0.3-0.1-0.5-0.1l-0.9-0.1c-0.6-0.1-1.1-0.3-1.5-0.7
		c-0.4-0.4-0.6-0.9-0.6-1.6c0-0.4,0.1-0.7,0.2-1c0.1-0.3,0.3-0.6,0.5-0.8c0.2-0.2,0.5-0.4,0.8-0.5s0.7-0.2,1.1-0.2
		c0.5,0,1,0.1,1.3,0.2s0.7,0.4,1.1,0.7l-0.8,0.8c-0.2-0.3-0.5-0.4-0.8-0.5c-0.3-0.1-0.6-0.1-0.9-0.1c-0.5,0-0.8,0.1-1.1,0.4
		c-0.2,0.3-0.4,0.6-0.4,1c0,0.2,0,0.3,0.1,0.4c0,0.1,0.1,0.3,0.2,0.4c0.2,0.2,0.5,0.3,0.9,0.4l0.9,0.1c0.4,0.1,0.7,0.1,0.9,0.2
		c0.2,0.1,0.4,0.2,0.6,0.4c0.2,0.2,0.4,0.5,0.5,0.8c0.1,0.3,0.2,0.6,0.2,1C118,386.2,117.9,386.6,117.8,386.9z"/>
</g>
<g>
	<defs>
		<path id="SVGID_3_" d="M96.2,177.3l-10.7,11.8l-5.1-4.1c-0.4-0.3-1-0.4-1.4-0.1c-0.5,0.4-0.7,1.1-0.3,1.6l5.3,7.5
			c0.1,0.2,0.3,0.4,0.5,0.5c1,0.7,2.3,0.4,3-0.6l0.1-0.1L98,178.7c0.3-0.5,0.3-1.1-0.2-1.5c-0.2-0.2-0.5-0.3-0.8-0.3
			C96.7,176.9,96.4,177,96.2,177.3"/>
	</defs>
	<clipPath id="SVGID_4_">
		<use xlink:href="#SVGID_3_"  style="overflow:visible;"/>
	</clipPath>
	
		<linearGradient id="SVGID_5_" gradientUnits="userSpaceOnUse" x1="-218" y1="617.9925" x2="-217" y2="617.9925" gradientTransform="matrix(19.7303 0 0 -19.7303 4379.6655 12379.2607)">
		<stop  offset="0" style="stop-color:#B09164"/>
		<stop  offset="2.480440e-03" style="stop-color:#B09164"/>
		<stop  offset="0.1576" style="stop-color:#C1A16F"/>
		<stop  offset="0.4628" style="stop-color:#ECCB8A"/>
		<stop  offset="0.5131" style="stop-color:#F4D38F"/>
		<stop  offset="0.8297" style="stop-color:#C5A67C"/>
		<stop  offset="1" style="stop-color:#B19274"/>
	</linearGradient>
	<rect x="78.3" y="176.9" class="st4" width="20" height="18.4"/>
</g>
<g>
	<defs>
		<path id="SVGID_6_" d="M96.2,265.6l-10.7,11.8l-5.1-4.1c-0.4-0.3-1-0.4-1.4-0.1c-0.5,0.4-0.7,1.1-0.3,1.6l5.3,7.5
			c0.1,0.2,0.3,0.4,0.5,0.5c1,0.7,2.3,0.4,3-0.6l0.1-0.1L98,267.1c0.3-0.5,0.3-1.1-0.2-1.5c-0.2-0.2-0.5-0.3-0.8-0.3
			C96.7,265.2,96.4,265.4,96.2,265.6"/>
	</defs>
	<clipPath id="SVGID_7_">
		<use xlink:href="#SVGID_6_"  style="overflow:visible;"/>
	</clipPath>
	
		<linearGradient id="SVGID_8_" gradientUnits="userSpaceOnUse" x1="-218" y1="617.9924" x2="-217" y2="617.9924" gradientTransform="matrix(19.7303 0 0 -19.7303 4379.6655 12467.5947)">
		<stop  offset="0" style="stop-color:#B09164"/>
		<stop  offset="2.480440e-03" style="stop-color:#B09164"/>
		<stop  offset="0.1576" style="stop-color:#C1A16F"/>
		<stop  offset="0.4628" style="stop-color:#ECCB8A"/>
		<stop  offset="0.5131" style="stop-color:#F4D38F"/>
		<stop  offset="0.8297" style="stop-color:#C5A67C"/>
		<stop  offset="1" style="stop-color:#B19274"/>
	</linearGradient>
	<rect x="78.3" y="265.2" class="st5" width="20" height="18.3"/>
</g>
<g>
	<defs>
		<path id="SVGID_9_" d="M96.2,340l-10.7,11.8l-5.1-4.1c-0.4-0.3-1-0.4-1.4-0.1c-0.5,0.4-0.7,1.1-0.3,1.6l5.3,7.5
			c0.1,0.2,0.3,0.4,0.5,0.5c1,0.7,2.3,0.4,3-0.6l0.1-0.1L98,341.5c0.3-0.5,0.3-1.1-0.2-1.5c-0.2-0.2-0.5-0.3-0.8-0.3
			C96.7,339.7,96.4,339.8,96.2,340"/>
	</defs>
	<clipPath id="SVGID_10_">
		<use xlink:href="#SVGID_9_"  style="overflow:visible;"/>
	</clipPath>
	
		<linearGradient id="SVGID_11_" gradientUnits="userSpaceOnUse" x1="-218" y1="617.9925" x2="-217" y2="617.9925" gradientTransform="matrix(19.7303 0 0 -19.7303 4379.6655 12542.0137)">
		<stop  offset="0" style="stop-color:#B09164"/>
		<stop  offset="2.480440e-03" style="stop-color:#B09164"/>
		<stop  offset="0.1576" style="stop-color:#C1A16F"/>
		<stop  offset="0.4628" style="stop-color:#ECCB8A"/>
		<stop  offset="0.5131" style="stop-color:#F4D38F"/>
		<stop  offset="0.8297" style="stop-color:#C5A67C"/>
		<stop  offset="1" style="stop-color:#B19274"/>
	</linearGradient>
	<rect x="78.3" y="339.7" class="st6" width="20" height="18.3"/>
</g>
<g>
	<defs>
		<path id="SVGID_12_" d="M22.8,88.8c0,36.2,29.4,65.6,65.6,65.6c36.2,0,65.6-29.4,65.6-65.6c0-36.2-29.4-65.6-65.6-65.6
			C52.1,23.2,22.8,52.6,22.8,88.8"/>
	</defs>
	<clipPath id="SVGID_13_">
		<use xlink:href="#SVGID_12_"  style="overflow:visible;"/>
	</clipPath>
	
		<linearGradient id="SVGID_14_" gradientUnits="userSpaceOnUse" x1="-218" y1="618" x2="-217" y2="618" gradientTransform="matrix(123.2673 -44.8656 -44.8656 -123.2673 54625.9023 66509.7031)">
		<stop  offset="0" style="stop-color:#D9AB5E"/>
		<stop  offset="0.1346" style="stop-color:#DFBE71"/>
		<stop  offset="0.4072" style="stop-color:#F0F0A3"/>
		<stop  offset="0.4081" style="stop-color:#F0F0A3"/>
		<stop  offset="0.6157" style="stop-color:#E1C376"/>
		<stop  offset="0.7476" style="stop-color:#D9AB5E"/>
		<stop  offset="0.8812" style="stop-color:#A3783D"/>
		<stop  offset="0.952" style="stop-color:#8B622E"/>
		<stop  offset="1" style="stop-color:#8B622E"/>
	</linearGradient>
	<polygon class="st7" points="-19.4,38.6 138.6,-18.9 196,139 38.1,196.5 	"/>
</g>
<g>
	<defs>
		<path id="SVGID_15_" d="M38.6,88.7c0,27.6,22.4,49.9,49.9,49.9c27.6,0,49.9-22.4,49.9-49.9c0-27.6-22.4-49.9-49.9-49.9
			C60.9,38.7,38.6,61.1,38.6,88.7"/>
	</defs>
	<clipPath id="SVGID_16_">
		<use xlink:href="#SVGID_15_"  style="overflow:visible;"/>
	</clipPath>
	
		<linearGradient id="SVGID_17_" gradientUnits="userSpaceOnUse" x1="-218" y1="618" x2="-217" y2="618" gradientTransform="matrix(-66.1468 -75.6231 -75.6231 66.1468 32436.459 -57238.3281)">
		<stop  offset="0" style="stop-color:#D9AB5E"/>
		<stop  offset="0.1346" style="stop-color:#DFBE71"/>
		<stop  offset="0.4072" style="stop-color:#F0F0A3"/>
		<stop  offset="0.4081" style="stop-color:#F0F0A3"/>
		<stop  offset="0.6157" style="stop-color:#E1C376"/>
		<stop  offset="0.7476" style="stop-color:#D9AB5E"/>
		<stop  offset="0.8812" style="stop-color:#A3783D"/>
		<stop  offset="0.952" style="stop-color:#8B622E"/>
		<stop  offset="1" style="stop-color:#8B622E"/>
	</linearGradient>
	<polygon class="st8" points="81.9,188.1 -10.9,82 95.2,-10.8 188,95.3 	"/>
</g>
<path class="st9" d="M136.5,88.6c0,26.5-21.5,48-48,48c-26.5,0-48-21.5-48-48c0-26.5,21.5-48,48-48C115,40.6,136.5,62.1,136.5,88.6"
	/>
<circle class="st10" cx="88.5" cy="88.8" r="36.8"/>
<path class="st11" d="M88.5,52.1c-20.3,0-36.8,16.5-36.8,36.8c0,4.6,0.8,8.9,2.3,12.9h68.9c1.5-4,2.3-8.4,2.3-12.9
	C125.2,68.5,108.8,52.1,88.5,52.1"/>
<path class="st9" d="M98.9,68.7c0-5.5-4.4-9.9-9.9-9.9c-5.5,0-9.9,4.4-9.9,9.9c0,5.5,4.4,9.9,9.9,9.9C94.5,78.7,98.9,74.2,98.9,68.7
	"/>
<path class="st9" d="M79,99.9c0,0,0-0.1,0-0.1c0-5.5,4.3-9.9,9.5-9.9c0.1,0,0.1,0,0.2,0V79.6c-0.1,0-0.1,0-0.2,0
	c-10.7,0-19.4,9-19.4,20.2c0,0,0,0.1,0,0.1H79z"/>
<path class="st9" d="M98.4,79.7c0,0,0,0.1,0,0.1c0,5.5-4.3,9.9-9.5,9.9c-0.1,0-0.1,0-0.2,0V100c0.1,0,0.1,0,0.2,0
	c10.7,0,19.4-9,19.4-20.2c0,0,0-0.1,0-0.1H98.4z"/>
<path class="st9" d="M102.1,75.6c1,1.1,1.3,2.5,1.3,2.5s-1.4-0.4-2.4-1.5c-1-1.1-1.3-2.5-1.3-2.5S101.1,74.5,102.1,75.6"/>
<path class="st9" d="M106.3,76.7c-1,1.1-2.4,1.4-2.4,1.4s0.3-1.4,1.3-2.5c1-1.1,2.4-1.4,2.4-1.4S107.4,75.6,106.3,76.7"/>
<path class="st9" d="M104.4,70c0,1.5-0.8,2.7-0.8,2.7s-0.8-1.2-0.8-2.7c0-1.5,0.8-2.7,0.8-2.7S104.4,68.4,104.4,70"/>
<polygon class="st9" points="100.4,70.7 103.6,73.8 106.9,70.9 103.6,75.4 "/>
<path class="st11" d="M69.4,107.6h4.6v9.2h-4.6V107.6z M69.4,104.1h4.6v2.6h-4.6V104.1z"/>
<path class="st11" d="M75.4,110.5c0-1.9,0-2.4,0-2.9h4.5c0.1,0.2,0,0.6,0,0.9c0.5-0.5,1.8-1,3.8-1c2.3,0,4.2,1.3,4.2,2.8v6.5h-4.7
	v-5.4c0-0.7-0.2-1.2-1.4-1.2c-1.1,0-1.8,0.3-1.8,1.4v5.1h-4.5V110.5z"/>
<path class="st11" d="M88.2,107.5h2v-2.6h4.6v2.6h2.4v2.2h-2.4v3.6c0,0.5,0.1,0.7,1.1,0.7c0.3,0,0.4,0,1.3,0v2.7c0,0-2.7,0-3.3,0
	c-3,0-3.7-1-3.7-2.7v-4.3h-2V107.5z"/>
<path class="st11" d="M109.6,114.1c0,0.6,0.1,1.9,0.4,2.3l-4.6,0.1c0,0,0-0.6,0-0.8c-0.8,0.6-2.1,1-3.8,1c-2.9,0-4.2-1.3-4.2-2.8
	c0-1.9,2-2.9,6.2-2.9c0.4,0,1.3-0.1,1.7-0.1v-0.8c0-0.5-0.5-0.9-1.6-0.9c-1.1,0-1.4,0.4-1.4,1h-4.4c0.1-1.6,1.4-2.9,5.9-2.9
	c3.8,0,5.8,0.7,5.8,2.7V114.1z M105.4,112.6c-0.3,0-1,0-1.3,0c-1.7,0-2.1,0.5-2.1,1.1c0,0.5,0.4,1,1.4,1c1.4,0,2.1-0.6,2.1-1.7
	V112.6z"/>
<path class="st11" d="M60.5,118.4L60.5,118.4c-0.2,0-0.4-0.1-0.4-0.1c-0.1,0-0.2,0.1-0.3,0.2l-1.1,1.2c-0.2,0.2-0.3,0.3-0.3,0.5
	c-0.1,0.3,0,0.5,0.2,0.7c0.3,0.3,0.6,0.4,0.9,0.2c0.2-0.1,0.3-0.2,0.5-0.4l1-1.1c0.1-0.1,0.2-0.2,0.2-0.3c0-0.1-0.1-0.2-0.2-0.4
	l0.1-0.1l0.8,0.8l-0.1,0.1c-0.1-0.1-0.2-0.1-0.3-0.1s-0.2,0.1-0.3,0.2l-1.1,1.2c-0.3,0.3-0.6,0.5-0.9,0.5c-0.3,0-0.6-0.1-1-0.4
	c-0.4-0.4-0.6-0.8-0.5-1.2c0-0.2,0.2-0.4,0.4-0.6l1.1-1.2c0.1-0.1,0.2-0.2,0.2-0.3s-0.1-0.2-0.2-0.3l0.1-0.1L60.5,118.4z"/>
<path class="st11" d="M60,122.4c0.2,0.1,0.3,0.2,0.4,0.1c0.1,0,0.2-0.1,0.2-0.2l1.5-1.9c0-0.2,0-0.4,0-0.4c0,0,0-0.1-0.1-0.1
	l0.1-0.1l0.9,0.7l0.1,2.7l0,0l0.9-1.2c0.1-0.1,0.2-0.2,0.1-0.3c0-0.1-0.1-0.2-0.2-0.3l0.1-0.1l0.9,0.7l-0.1,0.1
	c-0.1-0.1-0.2-0.1-0.3-0.1c-0.1,0-0.2,0.1-0.2,0.2l-1.8,2.3l-0.1-0.1l-0.1-3.5l0,0l-1.2,1.5c-0.1,0.1-0.1,0.2-0.1,0.3
	c0,0.1,0.1,0.3,0.2,0.4l-0.1,0.1l-0.9-0.7L60,122.4z"/>
<path class="st11" d="M63.3,124.9c0.1,0.1,0.2,0.1,0.3,0.1c0.1,0,0.2,0,0.3-0.2l1.3-2c0.1-0.1,0.1-0.2,0-0.3c0-0.1-0.1-0.1-0.2-0.2
	l0.1-0.1l1.5,1l-0.1,0.1c-0.1-0.1-0.2-0.1-0.3-0.1c-0.1,0-0.2,0-0.3,0.2l-1.3,2c-0.1,0.1-0.1,0.2-0.1,0.3c0,0.1,0.1,0.2,0.3,0.3
	l-0.1,0.1l-1.5-1L63.3,124.9z"/>
<path class="st11" d="M68.4,124.3l-0.1,0.1c-0.2-0.1-0.3-0.1-0.3-0.1c-0.1,0-0.1,0-0.1,0.1c0,0,0,0,0,0.1c0,0,0,0,0,0.1l-0.2,2l0,0
	l1.4-1.1c0,0,0.1-0.1,0.1-0.1c0,0,0.1-0.1,0.1-0.1c0-0.1,0.1-0.1,0-0.2c0-0.1-0.1-0.1-0.3-0.2l0.1-0.1l1,0.5l-0.1,0.1
	c-0.1-0.1-0.2-0.1-0.3,0c-0.1,0-0.2,0.1-0.3,0.2l-2.5,2l-0.1-0.1L67,124c0-0.1,0-0.2,0-0.3c0-0.1-0.1-0.1-0.2-0.2l0.1-0.1
	L68.4,124.3z"/>
<path class="st11" d="M68.8,128.4l0.1-0.1c0.1,0.1,0.2,0.1,0.3,0.1c0.1,0,0.2-0.1,0.3-0.2l1-2.2c0.1-0.1,0.1-0.2,0-0.3
	c0-0.1-0.1-0.1-0.3-0.2l0.1-0.1l2.7,1.2l-0.4,0.9l-0.1-0.1c0.1-0.3,0.1-0.6,0-0.7c-0.1-0.2-0.3-0.3-0.7-0.5
	c-0.1-0.1-0.2-0.1-0.3-0.1c-0.1,0-0.1,0.1-0.1,0.1l-0.5,1.1c0.3,0.1,0.5,0.2,0.6,0.1c0.1-0.1,0.3-0.2,0.5-0.4l0.1,0.1l-0.7,1.5
	l-0.1-0.1c0.1-0.3,0.1-0.5,0-0.6c-0.1-0.2-0.2-0.3-0.5-0.4l-0.5,1.1c0,0.1,0,0.2,0,0.2c0,0.1,0.1,0.1,0.3,0.2
	c0.3,0.1,0.6,0.2,0.8,0.2s0.5-0.2,0.8-0.4l0.1,0.1l-0.6,0.9L68.8,128.4z"/>
<path class="st11" d="M72.4,129.8c0.2,0.1,0.3,0.1,0.4,0c0.1,0,0.1-0.1,0.2-0.3l0.7-2.1c0.1-0.2,0.1-0.3,0-0.4
	c0-0.1-0.1-0.1-0.3-0.2l0-0.1l1.6,0.5c0.3,0.1,0.6,0.2,0.8,0.4c0.3,0.3,0.5,0.6,0.3,0.9c-0.1,0.3-0.3,0.4-0.5,0.5
	c-0.2,0.1-0.4,0.1-0.6,0l0.6,1.7c0,0,0,0.1,0.1,0.1s0.1,0,0.1,0.1l0,0.1l-1-0.4l-0.6-1.9h0l-0.3,0.9c-0.1,0.2-0.1,0.3,0,0.4
	c0,0.1,0.1,0.1,0.3,0.2l0,0.1l-1.6-0.6L72.4,129.8z M74.9,128.8c0.2,0,0.3-0.2,0.4-0.5c0.1-0.2,0.1-0.3,0.1-0.5
	c0-0.2-0.2-0.4-0.4-0.4c-0.1,0-0.2-0.1-0.3,0c-0.1,0-0.1,0.1-0.1,0.1l-0.4,1.2C74.5,128.8,74.7,128.9,74.9,128.8"/>
<path class="st11" d="M76.7,130.2l0.1,0c0,0.4,0.1,0.7,0.2,0.9c0.1,0.2,0.3,0.3,0.5,0.4c0.2,0.1,0.4,0,0.5,0
	c0.1-0.1,0.2-0.2,0.2-0.3c0-0.1,0-0.3-0.1-0.4c0-0.1-0.2-0.2-0.3-0.3l-0.3-0.2c-0.3-0.2-0.5-0.4-0.6-0.6c-0.1-0.2-0.1-0.4-0.1-0.6
	c0.1-0.2,0.2-0.4,0.4-0.6c0.2-0.2,0.5-0.2,0.9-0.1c0.2,0,0.3,0.1,0.5,0.2c0.2,0.1,0.2,0.1,0.3,0.2c0.1,0,0.1,0,0.1,0
	c0,0,0.1-0.1,0.1-0.1l0.1,0l-0.3,1.1l-0.1,0c0-0.3-0.1-0.5-0.2-0.7c-0.1-0.2-0.3-0.4-0.5-0.4c-0.2,0-0.3,0-0.4,0
	c-0.1,0.1-0.2,0.2-0.2,0.3c0,0.2,0,0.3,0,0.4c0.1,0.1,0.2,0.3,0.5,0.5l0.3,0.3c0.1,0.1,0.3,0.2,0.3,0.4c0.1,0.2,0.2,0.5,0.1,0.7
	c-0.1,0.2-0.2,0.4-0.5,0.6c-0.3,0.2-0.6,0.2-1,0.1c-0.1,0-0.2-0.1-0.3-0.1c-0.1,0-0.2-0.1-0.3-0.2l-0.1-0.1c0,0,0,0-0.1,0
	c0,0,0,0-0.1,0c-0.1,0-0.1,0-0.1,0c0,0-0.1,0.1-0.1,0.1l-0.1,0L76.7,130.2z"/>
<path class="st11" d="M79.5,131.9c0.1,0,0.3,0,0.3,0c0.1,0,0.2-0.1,0.2-0.3l0.4-2.4c0-0.1,0-0.2-0.1-0.3c-0.1,0-0.2-0.1-0.3-0.1
	l0-0.1l1.8,0.3l0,0.1c-0.2,0-0.3,0-0.3,0c-0.1,0-0.2,0.1-0.2,0.3l-0.4,2.4c0,0.1,0,0.2,0.1,0.3c0.1,0.1,0.2,0.1,0.3,0.1l0,0.1
	l-1.8-0.3L79.5,131.9z"/>
<path class="st11" d="M81.8,132.3c0.1,0,0.2,0,0.3,0c0.1,0,0.2-0.1,0.2-0.3l0.3-2.4c0-0.1,0-0.2-0.1-0.3c-0.1,0-0.1-0.1-0.3-0.1
	l0-0.1l1.6,0.2c0.6,0.1,1.1,0.3,1.4,0.6c0.3,0.3,0.4,0.7,0.3,1.2c0,0.4-0.2,0.8-0.6,1.1c-0.4,0.3-0.9,0.4-1.5,0.4l-1.6-0.2
	L81.8,132.3z M83.1,132.4c0,0,0.1,0.1,0.2,0.1c0.3,0,0.6,0,0.8-0.2c0.2-0.2,0.4-0.6,0.4-1.2c0-0.4,0-0.7-0.1-0.9
	c-0.1-0.4-0.4-0.7-0.8-0.7c-0.1,0-0.2,0-0.3,0.1c0,0-0.1,0.1-0.1,0.2l-0.3,2.4C83.1,132.3,83.1,132.3,83.1,132.4"/>
<path class="st11" d="M85.9,132.8c0.1,0,0.2-0.1,0.3-0.2c0-0.1,0.1-0.2,0.2-0.4l1.2-2.7l0.1,0l1.1,2.6c0.1,0.3,0.2,0.5,0.3,0.6
	c0.1,0.1,0.2,0.1,0.3,0.1l0,0.1l-1.7,0l0-0.1c0.2,0,0.3,0,0.3,0c0.1,0,0.1-0.1,0.1-0.2c0,0,0-0.1,0-0.2c0,0,0-0.1-0.1-0.2l-0.1-0.3
	l-1.2,0c-0.1,0.2-0.1,0.3-0.2,0.4c0,0.1-0.1,0.2-0.1,0.3c0,0.1,0,0.1,0.1,0.2c0.1,0,0.1,0,0.3,0l0,0.1l-1.1,0L85.9,132.8z
	 M87.9,131.7l-0.5-1.2h0l-0.5,1.1L87.9,131.7z"/>
<path class="st11" d="M90,132.8c0.1,0,0.2,0,0.3-0.1c0.1-0.1,0.1-0.2,0.1-0.3l-0.2-2.5c0-0.1-0.1-0.2-0.2-0.3c-0.1,0-0.2,0-0.3,0
	l0-0.1l1.6-0.1c0.6,0,1.1,0.1,1.5,0.4c0.3,0.3,0.5,0.7,0.5,1.2c0,0.5-0.1,0.8-0.4,1.2c-0.3,0.4-0.8,0.6-1.4,0.6l-1.6,0.1L90,132.8z
	 M91.4,132.6c0,0,0.1,0.1,0.2,0.1c0.3,0,0.5-0.1,0.7-0.4c0.2-0.2,0.2-0.6,0.2-1.2c0-0.4-0.1-0.6-0.2-0.9c-0.2-0.4-0.5-0.6-0.9-0.5
	c-0.1,0-0.2,0-0.3,0.1c0,0,0,0.1,0,0.2l0.2,2.4C91.3,132.5,91.3,132.5,91.4,132.6"/>
<path class="st11" d="M95.8,132.2c0.1,0,0.2-0.1,0.3-0.1c0.1-0.1,0.1-0.2,0.1-0.3l-0.5-2.4c0-0.1-0.1-0.2-0.2-0.2
	c-0.1,0-0.2,0-0.3,0l0-0.1l1.5-0.3c0.6-0.1,1.1-0.1,1.5,0.2c0.4,0.2,0.6,0.6,0.7,1.1c0.1,0.4,0,0.8-0.2,1.2
	c-0.3,0.4-0.7,0.7-1.3,0.8l-1.6,0.3L95.8,132.2z M97,131.8c0,0,0.1,0,0.2,0c0.3-0.1,0.5-0.2,0.7-0.5c0.1-0.2,0.2-0.7,0-1.2
	c-0.1-0.3-0.2-0.6-0.3-0.9c-0.3-0.4-0.6-0.5-1-0.4c-0.1,0-0.2,0.1-0.2,0.1c0,0,0,0.1,0,0.2l0.5,2.4C97,131.7,97,131.8,97,131.8"/>
<path class="st11" d="M99.9,131.4l0-0.1c0.1,0,0.2-0.1,0.3-0.1c0.1-0.1,0.1-0.2,0.1-0.3l-0.7-2.3c0-0.1-0.1-0.2-0.2-0.2
	c-0.1,0-0.2,0-0.3,0l0-0.1l2.8-0.9l0.3,1l-0.1,0c-0.2-0.3-0.3-0.5-0.5-0.5c-0.2-0.1-0.5,0-0.9,0.1c-0.2,0-0.2,0.1-0.3,0.1
	c0,0,0,0.1,0,0.2l0.3,1.1c0.3-0.1,0.5-0.2,0.5-0.3s0.1-0.3,0.1-0.6l0.1,0l0.5,1.6l-0.1,0c-0.1-0.3-0.3-0.4-0.4-0.5
	c-0.1-0.1-0.4-0.1-0.6,0l0.4,1.2c0,0.1,0.1,0.2,0.1,0.2c0.1,0,0.2,0,0.3,0c0.3-0.1,0.6-0.2,0.7-0.4c0.2-0.2,0.3-0.5,0.3-0.8l0.1,0
	l0.1,1.1L99.9,131.4z"/>
<path class="st11" d="M106,125.6c0.2,0,0.4,0,0.4,0c0.1,0,0.1-0.1,0.1-0.1c0-0.1,0-0.1,0-0.2l0.1-0.1l0.5,1.1l-0.1,0.1
	c-0.2-0.2-0.4-0.3-0.6-0.4c-0.3-0.1-0.6-0.2-0.9,0c-0.3,0.1-0.5,0.4-0.5,0.7c0,0.3,0.1,0.7,0.3,1.1c0.1,0.3,0.3,0.6,0.5,0.7
	c0.3,0.3,0.7,0.4,1.1,0.2c0.2-0.1,0.4-0.3,0.6-0.5c0.1-0.1,0.2-0.3,0.3-0.6l0.2,0c-0.1,0.3-0.2,0.5-0.3,0.7
	c-0.2,0.3-0.4,0.5-0.7,0.6c-0.5,0.2-0.9,0.3-1.3,0.1c-0.5-0.1-0.8-0.5-1.1-0.9c-0.2-0.5-0.2-1-0.1-1.4c0.2-0.4,0.5-0.7,0.9-1
	C105.5,125.7,105.8,125.6,106,125.6"/>
<path class="st11" d="M108.8,127.8c0.1-0.1,0.2-0.1,0.2-0.2c0.1-0.1,0-0.2,0-0.3l-1.2-2.1c-0.1-0.1-0.2-0.2-0.3-0.2
	c-0.1,0-0.2,0-0.3,0.1l-0.1-0.1l1.5-0.9l0.1,0.1c-0.1,0.1-0.2,0.2-0.2,0.2c-0.1,0.1-0.1,0.2,0,0.3l0.5,0.9l1.1-0.6l-0.5-0.9
	c-0.1-0.1-0.2-0.2-0.3-0.2c-0.1,0-0.2,0-0.3,0.1l-0.1-0.1l1.5-0.9l0.1,0.1c-0.1,0.1-0.2,0.2-0.2,0.2c-0.1,0.1,0,0.2,0,0.3l1.2,2.1
	c0.1,0.1,0.2,0.2,0.3,0.2c0.1,0,0.2,0,0.3-0.1l0.1,0.1l-1.5,0.9l-0.1-0.1c0.1-0.1,0.2-0.1,0.2-0.2c0.1-0.1,0-0.2,0-0.3l-0.6-1
	l-1.1,0.6l0.6,1c0.1,0.1,0.2,0.2,0.3,0.2c0.1,0,0.2,0,0.3-0.1l0.1,0.1l-1.5,0.9L108.8,127.8z"/>
<path class="st11" d="M112.5,125.6c0.1-0.1,0.2-0.2,0.2-0.2c0.1-0.1,0-0.2,0-0.3l-1.4-2c-0.1-0.1-0.2-0.2-0.3-0.2
	c-0.1,0-0.2,0.1-0.3,0.1l-0.1-0.1l1.5-1l0.1,0.1c-0.1,0.1-0.2,0.2-0.2,0.2c-0.1,0.1,0,0.2,0,0.3l1.4,2c0.1,0.1,0.2,0.2,0.3,0.2
	c0.1,0,0.2-0.1,0.3-0.1l0.1,0.1l-1.5,1L112.5,125.6z"/>
<path class="st11" d="M114.5,124.2c0.1-0.1,0.2-0.2,0.2-0.2c0-0.1,0-0.2-0.1-0.3l-1.5-1.9c-0.1-0.1-0.2-0.2-0.3-0.1
	c-0.1,0-0.2,0.1-0.3,0.1l-0.1-0.1l1.4-1.1l0.1,0.1c-0.2,0.1-0.3,0.2-0.3,0.3c0,0.1,0,0.2,0.1,0.4l1.5,1.8c0.1,0.1,0.1,0.1,0.2,0.1
	c0.1,0,0.2-0.1,0.3-0.2c0.2-0.2,0.4-0.4,0.5-0.6c0.1-0.2,0.1-0.5-0.1-0.9l0.1-0.1l0.5,1L114.5,124.2L114.5,124.2z"/>
<path class="st11" d="M117.6,121.9L117.6,121.9c0-0.2,0.1-0.3,0.1-0.4c0-0.1,0-0.2-0.1-0.3l-1.7-1.7c-0.1-0.1-0.2-0.1-0.3-0.1
	c-0.1,0-0.2,0.1-0.3,0.2l-0.1-0.1l2.2-2.1l0.7,0.7l-0.1,0.1c-0.3-0.2-0.5-0.3-0.7-0.2c-0.2,0-0.4,0.2-0.7,0.5
	c-0.1,0.1-0.2,0.2-0.2,0.2c0,0.1,0,0.1,0.1,0.2l0.8,0.8c0.2-0.2,0.3-0.4,0.3-0.5c0-0.1-0.1-0.3-0.2-0.6l0.1-0.1l1.2,1.2l-0.1,0.1
	c-0.2-0.2-0.4-0.3-0.6-0.3c-0.2,0-0.3,0.1-0.6,0.3l0.8,0.9c0.1,0.1,0.1,0.1,0.2,0.1c0.1,0,0.2-0.1,0.3-0.2c0.2-0.2,0.4-0.5,0.5-0.7
	c0.1-0.2,0-0.5-0.1-0.9l0.1-0.1l0.6,0.9L117.6,121.9z"/>
<path class="st11" d="M51,105.7c-0.1-0.1-0.1-0.2-0.2-0.2c-0.1-0.1-0.2-0.1-0.3,0l-2.3,1c-0.1,0.1-0.2,0.1-0.2,0.2
	c0,0.1,0,0.2,0.1,0.3l-0.1,0.1l-0.6-1.5l0.1,0c0.1,0.1,0.1,0.2,0.2,0.3c0.1,0.1,0.2,0.1,0.3,0l2.3-1c0.1-0.1,0.2-0.1,0.2-0.2
	c0-0.1,0-0.2-0.1-0.3l0.1,0l0.6,1.5L51,105.7z"/>
<path class="st11" d="M50.2,103.7c-0.1-0.2-0.1-0.3-0.2-0.3c-0.1,0-0.2,0-0.3,0l-2.3,0.8c-0.1,0.2-0.2,0.3-0.2,0.4s0,0.1,0,0.2
	l-0.1,0l-0.3-1l1.5-2.2l0,0l-1.4,0.5c-0.2,0.1-0.3,0.1-0.3,0.2c-0.1,0.1-0.1,0.2,0,0.4l-0.1,0l-0.3-1l0.1,0c0.1,0.1,0.1,0.2,0.2,0.2
	c0.1,0,0.2,0,0.3,0l2.9-1l0,0.1l-2,2.9l0,0l1.9-0.6c0.2,0,0.3-0.1,0.3-0.2c0.1-0.1,0.1-0.2,0-0.4l0.1,0l0.3,1L50.2,103.7z"/>
<path class="st11" d="M48,100.4l0-0.1c0.4-0.2,0.6-0.4,0.7-0.6c0.1-0.2,0.2-0.4,0.1-0.6c0-0.2-0.1-0.3-0.3-0.4
	c-0.1-0.1-0.3-0.1-0.4,0c-0.2,0-0.3,0.1-0.3,0.2c0,0.1-0.1,0.2-0.2,0.4l-0.1,0.3c-0.1,0.3-0.2,0.6-0.3,0.7c-0.1,0.2-0.3,0.3-0.5,0.3
	c-0.2,0.1-0.5,0-0.7-0.1c-0.3-0.1-0.4-0.3-0.5-0.7c0-0.2-0.1-0.3,0-0.5c0-0.2,0-0.3,0-0.3c0,0,0-0.1-0.1-0.1c0,0-0.1,0-0.1,0l0-0.1
	l1.1-0.3l0,0.1c-0.2,0.1-0.4,0.3-0.6,0.5c-0.1,0.2-0.2,0.4-0.1,0.6c0,0.2,0.1,0.3,0.2,0.3c0.1,0.1,0.2,0.1,0.4,0.1
	c0.2,0,0.3-0.1,0.3-0.2c0.1-0.1,0.1-0.3,0.2-0.6l0.1-0.4c0-0.2,0.1-0.3,0.2-0.4c0.1-0.2,0.4-0.4,0.6-0.4c0.3-0.1,0.5,0,0.8,0.1
	c0.3,0.1,0.5,0.4,0.5,0.8c0,0.1,0,0.2,0,0.3c0,0.1,0,0.2,0,0.3l0,0.1c0,0,0,0,0,0.1c0,0,0,0,0,0c0,0,0,0.1,0.1,0.1c0,0,0.1,0,0.1,0
	l0,0.1L48,100.4z"/>
<path class="st11" d="M45.1,97.9l-0.5-2.8l1-0.2l0,0.1c-0.4,0.1-0.6,0.3-0.7,0.5c-0.1,0.1-0.1,0.3,0,0.5l2.7-0.4
	c0.2,0,0.3-0.1,0.4-0.2c0.1-0.1,0.1-0.2,0-0.4l0.1,0l0.3,1.7l-0.1,0c0-0.2-0.1-0.3-0.2-0.3c-0.1,0-0.2-0.1-0.4,0l-2.7,0.4
	c0,0.2,0.1,0.4,0.2,0.5c0.2,0.2,0.4,0.3,0.8,0.3l0,0.1L45.1,97.9z"/>
<path class="st11" d="M47.9,94c0-0.1,0-0.2-0.1-0.3c-0.1-0.1-0.2-0.1-0.3-0.1L45,93.8c-0.2,0-0.2,0.1-0.3,0.2c0,0.1,0,0.2,0,0.3
	l-0.1,0l-0.2-1.7l0.1,0c0,0.1,0,0.2,0.1,0.3c0.1,0.1,0.2,0.1,0.3,0.1l2.5-0.2c0.1,0,0.2-0.1,0.3-0.1c0-0.1,0.1-0.2,0-0.3l0.1,0
	L48,94L47.9,94z"/>
<path class="st11" d="M44.3,91.9l-0.1-2.9l1,0l0,0.1c-0.4,0.1-0.6,0.2-0.7,0.4c-0.1,0.1-0.1,0.3-0.1,0.5l2.7-0.1
	c0.2,0,0.3,0,0.4-0.1s0.1-0.2,0.1-0.4l0.1,0l0,1.7l-0.1,0c0-0.2,0-0.3-0.1-0.4s-0.2-0.1-0.4-0.1l-2.7,0.1c0,0.2,0.1,0.4,0.1,0.5
	c0.1,0.2,0.4,0.3,0.8,0.4l0,0.1L44.3,91.9z"/>
<path class="st11" d="M44.3,86.7l0.1,0c0,0.2,0,0.3,0.1,0.4s0.2,0.1,0.4,0.1l1.7,0.1c0.3,0,0.5,0,0.6-0.1c0.3-0.1,0.4-0.3,0.4-0.6
	c0-0.4-0.1-0.6-0.4-0.8c-0.2-0.1-0.4-0.1-0.7-0.1L45,85.7c-0.2,0-0.3,0-0.4,0.1c-0.1,0.1-0.1,0.2-0.1,0.4l-0.1,0l0.1-1l0.1,0
	c0,0.2,0.1,0.3,0.1,0.3c0,0.1,0.1,0.1,0.3,0.1l1.7,0.1c0.4,0,0.8,0.1,1,0.3c0.2,0.2,0.3,0.5,0.3,0.9c0,0.5-0.2,0.9-0.6,1.1
	C47.1,88,46.9,88,46.6,88l-1.7-0.1c-0.2,0-0.3,0-0.4,0c-0.1,0-0.1,0.1-0.1,0.3l-0.1,0L44.3,86.7z"/>
<path class="st11" d="M44.5,84.3l0.4-2.8l1,0.1l0,0.1c-0.4,0-0.6,0.1-0.8,0.3c-0.1,0.1-0.2,0.3-0.2,0.5l2.7,0.4c0.2,0,0.3,0,0.4,0
	c0.1-0.1,0.1-0.2,0.1-0.4l0.1,0L48,84.2l-0.1,0c0-0.2,0-0.3,0-0.4c-0.1-0.1-0.2-0.1-0.4-0.1l-2.7-0.4c0,0.2,0,0.4,0,0.5
	c0.1,0.2,0.3,0.4,0.7,0.5l0,0.1L44.5,84.3z"/>
<path class="st11" d="M46.1,78c0.4-0.2,0.9-0.3,1.4-0.2c0.5,0.1,0.9,0.4,1.2,0.8c0.3,0.4,0.3,0.8,0.2,1.3c-0.1,0.5-0.4,0.9-0.8,1.1
	c-0.4,0.2-0.8,0.3-1.3,0.2c-0.5-0.1-0.9-0.4-1.2-0.8c-0.3-0.4-0.4-0.8-0.2-1.3C45.4,78.5,45.7,78.2,46.1,78 M48.2,78.9
	c-0.2-0.1-0.5-0.2-0.9-0.3c-0.5-0.1-1-0.1-1.3-0.1c-0.3,0.1-0.5,0.3-0.5,0.5c-0.1,0.3,0.1,0.6,0.5,0.9c0.2,0.1,0.5,0.2,0.9,0.3
	c0.4,0.1,0.7,0.1,1,0.1c0.5,0,0.8-0.2,0.8-0.6C48.8,79.4,48.7,79.2,48.2,78.9"/>
<path class="st11" d="M49.6,76.3c0-0.1,0-0.2,0-0.3c0-0.1-0.1-0.2-0.2-0.2l-2.4-0.9c-0.1,0-0.2,0-0.3,0c0,0-0.1,0.1-0.2,0.2l-0.1,0
	l0.5-1.4c0.2-0.5,0.5-0.9,0.9-1.1c0.4-0.2,0.8-0.1,1.3,0c0.4,0.2,0.8,0.4,1,0.8c0.2,0.4,0.3,0.9,0.1,1.4l-0.5,1.4L49.6,76.3z
	 M50,75.1c0.1,0,0.1-0.1,0.1-0.2c0.1-0.3,0.1-0.5-0.1-0.8c-0.1-0.2-0.5-0.5-1.1-0.7c-0.3-0.1-0.7-0.2-0.9-0.2
	c-0.5,0-0.7,0.2-0.9,0.5c0,0.1,0,0.2,0,0.3c0,0,0.1,0.1,0.2,0.1l2.4,0.9C49.8,75.1,49.9,75.1,50,75.1"/>
<path class="st11" d="M51.1,72.9L51,72.8c0.1-0.1,0.1-0.2,0.1-0.3c0-0.1-0.1-0.2-0.2-0.2l-2.3-1.1c-0.1-0.1-0.2-0.1-0.3,0
	c-0.1,0-0.1,0.1-0.2,0.2l-0.1-0.1l1.2-2.5l0.9,0.4L50,69.4c-0.3-0.1-0.6-0.1-0.8,0s-0.3,0.3-0.5,0.6c-0.1,0.1-0.1,0.2-0.1,0.3
	c0,0,0.1,0.1,0.2,0.1l1.1,0.5c0.1-0.2,0.1-0.4,0.1-0.6c-0.1-0.1-0.2-0.3-0.5-0.5l0.1-0.1l1.6,0.8l-0.1,0.1c-0.3-0.1-0.5-0.1-0.7-0.1
	c-0.2,0-0.3,0.2-0.4,0.4l1.1,0.5c0.1,0,0.2,0.1,0.2,0c0.1,0,0.1-0.1,0.2-0.3c0.1-0.3,0.2-0.5,0.1-0.8c0-0.2-0.2-0.5-0.4-0.8l0.1-0.1
	l0.9,0.6L51.1,72.9z"/>
<path class="st11" d="M53.2,68.4c0.1-0.2,0.1-0.3,0.1-0.3c0-0.1-0.1-0.2-0.2-0.2L51,66.5c-0.2,0-0.4,0-0.4,0.1c0,0-0.1,0-0.1,0.1
	l-0.1-0.1l0.5-0.8l2.7-0.2l0,0l-1.3-0.8c-0.1-0.1-0.3-0.1-0.4-0.1c-0.1,0-0.2,0.1-0.3,0.2l-0.1-0.1l0.5-0.9l0.1,0.1
	c-0.1,0.1-0.1,0.2-0.1,0.3c0,0.1,0.1,0.1,0.2,0.2l2.6,1.6l-0.1,0.1l-3.5,0.3l0,0l1.7,1.1c0.1,0.1,0.2,0.1,0.3,0.1
	c0.1,0,0.2-0.1,0.4-0.2l0.1,0.1l-0.6,0.9L53.2,68.4z"/>
<path class="st11" d="M53.4,62l0.1,0.1c-0.1,0.2-0.2,0.3-0.1,0.3c0,0.1,0.1,0.2,0.2,0.3l1.4,1.1c0.2,0.2,0.4,0.3,0.5,0.3
	c0.3,0.1,0.5,0,0.7-0.2c0.2-0.3,0.3-0.6,0.1-0.9c-0.1-0.2-0.2-0.3-0.5-0.5l-1.3-1c-0.1-0.1-0.3-0.2-0.4-0.2c-0.1,0-0.2,0.1-0.3,0.2
	l-0.1-0.1l0.6-0.8l0.1,0.1c-0.1,0.1-0.1,0.2-0.1,0.3c0,0.1,0.1,0.2,0.2,0.3l1.3,1c0.3,0.3,0.6,0.6,0.6,0.9c0.1,0.3,0,0.6-0.3,0.9
	c-0.3,0.4-0.7,0.6-1.1,0.6c-0.2,0-0.4-0.1-0.7-0.3l-1.4-1.1c-0.2-0.1-0.3-0.2-0.3-0.2c-0.1,0-0.2,0.1-0.3,0.2l-0.1-0.1L53.4,62z"/>
<path class="st11" d="M54.9,60.1l1.9-2.1l0.8,0.7l-0.1,0.1c-0.3-0.2-0.6-0.3-0.8-0.2c-0.1,0-0.3,0.1-0.4,0.3l2,1.8
	c0.1,0.1,0.3,0.2,0.3,0.2c0.1,0,0.2-0.1,0.3-0.2l0.1,0.1L57.9,62L57.8,62c0.1-0.1,0.2-0.2,0.2-0.3c0-0.1-0.1-0.2-0.2-0.3l-2-1.8
	c-0.2,0.2-0.2,0.3-0.3,0.5c-0.1,0.3,0,0.5,0.3,0.8l-0.1,0.1L54.9,60.1z"/>
<path class="st11" d="M59.7,59.9c0.1-0.1,0.2-0.2,0.2-0.3c0-0.1-0.1-0.2-0.2-0.3l-1.6-1.7c-0.1-0.1-0.2-0.2-0.3-0.2
	c-0.1,0-0.2,0.1-0.3,0.2l-0.1-0.1l1.1-1c0.2-0.2,0.4-0.4,0.6-0.4c0.4-0.1,0.7-0.1,1,0.2c0.2,0.2,0.3,0.4,0.2,0.7
	c0,0.2-0.1,0.4-0.2,0.5l1.7,0.4c0,0,0.1,0,0.1,0c0,0,0.1,0,0.1-0.1l0.1,0.1l-0.7,0.7L59.6,58l0,0l0.7,0.7c0.1,0.1,0.2,0.2,0.3,0.2
	c0.1,0,0.2,0,0.3-0.1l0.1,0.1L59.7,59.9L59.7,59.9z M59.9,57.3c0-0.2-0.1-0.4-0.3-0.6c-0.1-0.1-0.3-0.2-0.4-0.3
	c-0.2-0.1-0.4,0-0.6,0.1c-0.1,0.1-0.1,0.2-0.1,0.2c0,0.1,0,0.1,0.1,0.2l0.9,1C59.7,57.7,59.8,57.5,59.9,57.3"/>
<path class="st11" d="M62.5,57.4c0.1-0.1,0.2-0.2,0.2-0.2c0-0.1,0-0.2-0.1-0.3l-1.6-2c-0.1-0.1-0.2-0.2-0.3-0.2
	c-0.1,0-0.2,0.1-0.3,0.1l-0.1-0.1l1.3-1l0.1,0.1c-0.1,0.1-0.2,0.2-0.2,0.2c0,0.1,0,0.2,0.1,0.3l1.6,2c0.1,0.1,0.2,0.2,0.3,0.2
	c0.1,0,0.2-0.1,0.3-0.2l0.1,0.1l-1.3,1L62.5,57.4z"/>
<path class="st11" d="M64.2,52c0.2,0,0.3-0.1,0.3-0.1c0,0,0.1-0.1,0.1-0.1c0-0.1,0-0.1,0-0.2l0.1-0.1l0.7,1l-0.1,0.1
	c-0.2-0.2-0.5-0.3-0.6-0.3c-0.3-0.1-0.6-0.1-0.9,0.1c-0.3,0.2-0.4,0.4-0.3,0.8c0.1,0.3,0.2,0.7,0.5,1.1c0.2,0.3,0.4,0.5,0.6,0.7
	c0.4,0.3,0.7,0.3,1.1,0.1c0.2-0.1,0.3-0.3,0.4-0.6c0-0.1,0.1-0.3,0.1-0.6l0.2,0c0,0.3-0.1,0.5-0.1,0.7c-0.1,0.3-0.3,0.5-0.5,0.7
	c-0.4,0.3-0.8,0.4-1.2,0.3c-0.5-0.1-0.9-0.4-1.2-0.8c-0.3-0.5-0.4-0.9-0.4-1.4c0.1-0.4,0.3-0.8,0.7-1.1C63.8,52.2,64,52.1,64.2,52"
	/>
<path class="st11" d="M67.2,54c0.1-0.1,0.2-0.1,0.2-0.2c0.1-0.1,0-0.2,0-0.3l-1.3-2.2c-0.1-0.1-0.2-0.2-0.3-0.2
	c-0.1,0-0.2,0-0.3,0.1l-0.1-0.1l1.4-0.8l0.1,0.1c-0.1,0.1-0.2,0.1-0.2,0.2c-0.1,0.1,0,0.2,0,0.3l1.3,2.2c0.1,0.1,0.2,0.2,0.2,0.2
	c0.1,0,0.2,0,0.3-0.1l0.1,0.1l-1.4,0.8L67.2,54z"/>
<path class="st11" d="M70.3,49c0.4,0.2,0.8,0.5,1,1c0.2,0.5,0.3,1,0.2,1.4c-0.1,0.4-0.4,0.8-0.8,1c-0.5,0.2-0.9,0.2-1.4,0
	c-0.4-0.2-0.7-0.5-1-0.9c-0.2-0.5-0.3-1-0.2-1.4c0.1-0.5,0.4-0.8,0.9-1C69.5,48.9,69.9,48.9,70.3,49 M69.2,48c0,0,0,0.1-0.1,0.2
	l-0.4,0.7L68.6,49l0.2-1c0,0,0-0.1,0-0.1c0-0.1,0.1-0.1,0.1-0.1c0.1,0,0.1,0,0.2,0c0.1,0,0.1,0.1,0.1,0.1C69.2,47.9,69.2,48,69.2,48
	 M70.9,51.3c0-0.3-0.2-0.6-0.3-0.9c-0.2-0.5-0.5-0.8-0.8-1s-0.5-0.2-0.7-0.1c-0.3,0.2-0.4,0.5-0.4,1c0,0.3,0.2,0.6,0.3,0.9
	c0.2,0.4,0.4,0.6,0.5,0.8c0.3,0.4,0.6,0.5,1,0.3C70.9,52.1,71,51.8,70.9,51.3"/>
<path class="st11" d="M72.5,51.2c0.2-0.1,0.3-0.1,0.3-0.2c0-0.1,0-0.2,0-0.3l-0.9-2.3c-0.2-0.1-0.3-0.2-0.4-0.2c0,0-0.1,0-0.2,0
	l0-0.1l0.9-0.4l2.3,1.4l0,0l-0.5-1.4c-0.1-0.2-0.1-0.3-0.2-0.3c-0.1,0-0.2,0-0.4,0l0-0.1l1-0.4l0,0.1c-0.1,0.1-0.2,0.1-0.2,0.2
	c0,0.1,0,0.2,0,0.3l1.1,2.9l-0.1,0l-2.9-1.8l0,0l0.7,1.9c0.1,0.1,0.1,0.2,0.2,0.3c0.1,0.1,0.2,0.1,0.4,0l0,0.1l-1,0.4L72.5,51.2z"/>
<path class="st11" d="M79.5,45.6l0,0.1c-0.2,0-0.3,0.1-0.3,0.1c0,0-0.1,0.1,0,0.1c0,0,0,0,0,0.1c0,0,0,0.1,0.1,0.1l0.9,1.1l0,0
	l0.3-1c0-0.1,0-0.1,0.1-0.2c0-0.1,0-0.2,0-0.3c0-0.1-0.1-0.1-0.1-0.2c0,0-0.1,0-0.3,0l0-0.1l1-0.2l0,0.1c-0.1,0-0.1,0.1-0.2,0.1
	c0,0-0.1,0.1-0.1,0.2l-0.6,1.8l0.2,0.9c0,0.2,0.1,0.3,0.2,0.4c0.1,0,0.2,0,0.4,0l0,0.1l-1.6,0.3l0-0.1c0.2,0,0.3-0.1,0.3-0.2
	c0-0.1,0-0.2,0-0.4l-0.2-0.7l-1.2-1.5c-0.1-0.1-0.2-0.2-0.3-0.2c-0.1,0-0.1,0-0.2,0l0-0.1L79.5,45.6z"/>
<path class="st11" d="M83.2,44.9l2.8-0.2l0.1,1l-0.1,0c-0.1-0.4-0.2-0.6-0.4-0.7c-0.1-0.1-0.3-0.1-0.5-0.1l0.2,2.7
	c0,0.2,0.1,0.3,0.1,0.4c0.1,0.1,0.2,0.1,0.4,0.1l0,0.1l-1.7,0.1l0-0.1c0.2,0,0.3-0.1,0.4-0.1c0.1-0.1,0.1-0.2,0.1-0.4L84.3,45
	c-0.2,0-0.4,0.1-0.5,0.2c-0.2,0.2-0.3,0.4-0.3,0.8l-0.1,0L83.2,44.9z"/>
<path class="st11" d="M86.9,48.2l0-0.1c0.1,0,0.2,0,0.3-0.1c0.1-0.1,0.1-0.2,0.1-0.3l0-2.5c0-0.2,0-0.3-0.1-0.3
	c-0.1,0-0.1,0-0.3-0.1l0-0.1l2.7,0l0,1l-0.1,0c-0.1-0.3-0.2-0.6-0.3-0.7c-0.1-0.1-0.4-0.2-0.8-0.2c-0.1,0-0.2,0-0.3,0.1
	c0,0-0.1,0.1-0.1,0.2l0,1.2c0.3,0,0.5-0.1,0.5-0.2s0.2-0.3,0.2-0.6l0.1,0l0,1.8l-0.1,0c0-0.3-0.1-0.5-0.2-0.6
	c-0.1-0.1-0.3-0.2-0.6-0.2l0,1.3c0,0.1,0,0.2,0.1,0.2c0.1,0,0.2,0.1,0.3,0.1c0.3,0,0.5-0.1,0.7-0.2c0.2-0.1,0.4-0.4,0.5-0.7l0.1,0
	l-0.2,1.1L86.9,48.2z"/>
<path class="st11" d="M92.9,44.9c0.2,0.1,0.3,0.1,0.3,0.1c0.1,0,0.1,0,0.2-0.1c0,0,0.1-0.1,0.1-0.2l0.1,0L93.5,46l-0.1,0
	c-0.1-0.3-0.2-0.5-0.3-0.6c-0.2-0.3-0.4-0.5-0.7-0.5c-0.3,0-0.6,0.1-0.7,0.4c-0.2,0.3-0.3,0.7-0.3,1.2c0,0.4,0,0.7,0,0.9
	c0.1,0.5,0.4,0.7,0.8,0.7c0.2,0,0.5,0,0.7-0.2c0.1-0.1,0.3-0.2,0.5-0.4l0.1,0.1c-0.2,0.2-0.4,0.4-0.5,0.4c-0.3,0.2-0.5,0.2-0.9,0.2
	c-0.5,0-0.8-0.2-1.1-0.6c-0.3-0.4-0.5-0.8-0.4-1.4c0-0.6,0.2-1,0.6-1.3c0.3-0.3,0.7-0.4,1.2-0.4C92.5,44.7,92.7,44.8,92.9,44.9"/>
<path class="st11" d="M94,48.3c0.2,0,0.3,0,0.4,0c0.1-0.1,0.1-0.2,0.1-0.3l0.4-2.4c-0.1-0.2-0.2-0.3-0.2-0.4c0,0-0.1-0.1-0.1-0.1
	l0-0.1l1,0.2l1.2,2.4l0,0l0.3-1.5c0-0.2,0-0.3,0-0.4c0-0.1-0.2-0.1-0.3-0.2l0-0.1l1,0.2l0,0.1c-0.2,0-0.3,0-0.3,0.1
	c-0.1,0-0.1,0.1-0.1,0.3l-0.5,3l-0.1,0l-1.6-3.1l0,0l-0.4,2c0,0.2,0,0.3,0,0.3c0,0.1,0.2,0.2,0.4,0.2l0,0.1L94,48.5L94,48.3z"/>
<path class="st11" d="M101.2,46.9c0.2,0.4,0.3,0.9,0.1,1.4c-0.1,0.5-0.4,0.9-0.8,1.2c-0.4,0.2-0.8,0.3-1.3,0.2
	c-0.5-0.1-0.8-0.4-1-0.9C98,48.4,98,48,98.1,47.5c0.1-0.5,0.4-0.9,0.8-1.2c0.4-0.3,0.8-0.3,1.3-0.2C100.7,46.2,101,46.5,101.2,46.9
	 M100.2,49c0.1-0.2,0.3-0.5,0.4-0.9c0.1-0.5,0.2-1,0.1-1.3c-0.1-0.3-0.2-0.5-0.5-0.6c-0.3-0.1-0.6,0.1-0.9,0.5
	c-0.1,0.2-0.3,0.5-0.4,0.9c-0.1,0.4-0.2,0.7-0.2,1c0,0.5,0.2,0.8,0.5,0.9C99.6,49.6,99.9,49.4,100.2,49"/>
<path class="st11" d="M101.4,50.1c0.1,0,0.2,0.1,0.3,0c0.1,0,0.2-0.1,0.2-0.2l0.9-2.4c0.1-0.1,0-0.3,0-0.3c0,0-0.1-0.1-0.2-0.2
	l0-0.1l1.6,0.6l0,0.1c-0.2-0.1-0.3-0.1-0.4-0.1c-0.1,0-0.2,0.1-0.2,0.3l-0.9,2.3c0,0.1,0,0.2,0,0.2s0.1,0.1,0.3,0.2
	c0.3,0.1,0.5,0.1,0.7,0.1c0.2-0.1,0.5-0.3,0.8-0.6l0.1,0l-0.6,1l-2.6-1L101.4,50.1z"/>
<path class="st11" d="M108.5,49.9c0.1,0.5,0.1,0.9-0.1,1.4c-0.2,0.5-0.6,0.8-1,1c-0.4,0.2-0.9,0.1-1.3-0.1c-0.5-0.2-0.7-0.6-0.9-1
	c-0.1-0.4-0.1-0.9,0.1-1.3c0.2-0.5,0.6-0.8,1-1c0.4-0.2,0.9-0.2,1.3,0C108.1,49.1,108.4,49.4,108.5,49.9 M107.1,51.8
	c0.2-0.2,0.3-0.5,0.5-0.8c0.2-0.5,0.4-0.9,0.3-1.2c0-0.3-0.1-0.5-0.4-0.6c-0.3-0.2-0.6-0.1-1,0.3c-0.2,0.2-0.3,0.5-0.5,0.8
	c-0.2,0.4-0.3,0.7-0.3,0.9c-0.1,0.5,0,0.8,0.4,0.9C106.5,52.2,106.8,52.1,107.1,51.8"/>
<path class="st11" d="M110.1,50.8c0.5-0.1,0.9-0.1,1.3,0.2c0.2,0.1,0.3,0.2,0.4,0.4c0.1,0.2,0.2,0.3,0.2,0.3c0,0,0.1,0,0.1,0
	c0,0,0.1-0.1,0.2-0.1l0.1,0.1l-0.6,1l-0.1-0.1c0-0.3,0-0.5,0-0.7c0-0.4-0.2-0.6-0.4-0.8c-0.3-0.2-0.5-0.1-0.8,0
	c-0.3,0.2-0.5,0.5-0.8,0.9c-0.2,0.4-0.4,0.7-0.4,1.1c-0.1,0.4,0.1,0.6,0.4,0.8c0.2,0.1,0.3,0.1,0.4,0.1c0.1,0,0.1-0.1,0.2-0.2
	l0.3-0.5c0.1-0.1,0.1-0.2,0-0.3c0-0.1-0.1-0.1-0.3-0.2l0.1-0.1l1.4,0.8l-0.1,0.1c-0.1-0.1-0.3-0.1-0.3-0.1c-0.1,0-0.2,0.1-0.3,0.3
	l-0.3,0.6c-0.1,0-0.3,0-0.5-0.1c-0.2-0.1-0.5-0.2-0.7-0.3c-0.4-0.3-0.7-0.6-0.8-1.1c-0.1-0.4,0-0.9,0.3-1.3
	C109.3,51.2,109.7,50.9,110.1,50.8"/>
<path class="st11" d="M111.5,55.1c0.1,0.1,0.2,0.1,0.3,0.1c0.1,0,0.2,0,0.3-0.2l1.5-2c0.1-0.1,0.1-0.2,0.1-0.3
	c0-0.1-0.1-0.1-0.2-0.2l0.1-0.1l1.4,1l-0.1,0.1c-0.1-0.1-0.2-0.1-0.3-0.1c-0.1,0-0.2,0-0.3,0.2l-1.5,2c-0.1,0.1-0.1,0.2-0.1,0.3
	c0,0.1,0.1,0.2,0.2,0.3l-0.1,0.1l-1.4-1L111.5,55.1z M115.2,52.4c0,0-0.1,0-0.2,0l-0.8,0l-0.2-0.1l1-0.3c0,0,0.1,0,0.1,0
	c0.1,0,0.1,0,0.2,0c0.1,0,0.1,0.1,0.1,0.1c0,0.1,0,0.1,0,0.2C115.3,52.4,115.2,52.4,115.2,52.4"/>
<path class="st11" d="M113.2,56.3c0.1,0.1,0.2,0.1,0.3,0c0.1,0,0.2-0.1,0.4-0.2l2.6-1.5l0.1,0.1l-0.9,2.8c-0.1,0.3-0.2,0.5-0.2,0.6
	c0,0.1,0,0.2,0.1,0.3l-0.1,0.1l-1.2-1l0.1-0.1c0.1,0.1,0.2,0.1,0.3,0.2c0.1,0,0.1,0,0.2-0.1c0,0,0.1-0.1,0.1-0.2c0,0,0-0.1,0.1-0.2
	l0.1-0.3l-0.8-0.7c-0.2,0.1-0.3,0.2-0.4,0.2c-0.1,0.1-0.2,0.1-0.2,0.2c0,0.1,0,0.1,0,0.2c0,0,0.1,0.1,0.2,0.2l-0.1,0.1l-0.7-0.6
	L113.2,56.3z M115.3,56.6l0.4-1.2l0,0l-1.1,0.7L115.3,56.6z"/>
<path class="st11" d="M116.9,59.5c0.1,0.1,0.2,0.1,0.2,0.1c0.1,0,0.2,0,0.3-0.1l1.8-1.8c0.1-0.1,0.1-0.2,0.1-0.3
	c0-0.1-0.1-0.1-0.1-0.2l0.1-0.1l1,1c0.4,0.4,0.6,0.9,0.6,1.3c0,0.4-0.2,0.8-0.6,1.2c-0.3,0.3-0.7,0.5-1.2,0.5
	c-0.5,0-0.9-0.2-1.3-0.6L116.9,59.5L116.9,59.5z M117.9,60.3c0,0.1,0,0.1,0.1,0.2c0.2,0.2,0.4,0.3,0.7,0.3c0.3,0,0.6-0.2,1.1-0.7
	c0.3-0.3,0.5-0.5,0.6-0.8c0.2-0.4,0.2-0.7-0.1-1c-0.1-0.1-0.2-0.1-0.2-0.1c0,0-0.1,0-0.2,0.1l-1.8,1.8
	C117.9,60.2,117.9,60.2,117.9,60.3"/>
<path class="st11" d="M119.4,62.2l0.1-0.1c0.1,0.1,0.2,0.2,0.2,0.2c0.1,0,0.2,0,0.3-0.1l2-1.6c0.1-0.1,0.2-0.2,0.2-0.3
	c0-0.1-0.1-0.1-0.1-0.3l0.1-0.1l1.7,2.1l-0.8,0.7l-0.1-0.1c0.2-0.3,0.3-0.5,0.3-0.7c0-0.2-0.1-0.4-0.3-0.7c-0.1-0.1-0.2-0.2-0.2-0.2
	c-0.1,0-0.1,0-0.2,0.1l-0.9,0.8c0.2,0.2,0.3,0.3,0.5,0.3c0.1,0,0.3-0.1,0.6-0.2l0.1,0.1l-1.4,1.1l-0.1-0.1c0.2-0.2,0.3-0.4,0.4-0.6
	s0-0.3-0.2-0.6l-1,0.8c-0.1,0.1-0.1,0.1-0.1,0.2c0,0.1,0.1,0.2,0.2,0.3c0.2,0.2,0.4,0.4,0.6,0.5c0.2,0.1,0.5,0.1,0.9-0.1l0.1,0.1
	l-1,0.5L119.4,62.2z"/>
<path class="st11" d="M122.4,66.1c0.1,0.1,0.1,0.2,0.2,0.2c0.1,0.1,0.2,0,0.3,0l2.1-1.3c0.1-0.1,0.2-0.2,0.2-0.3
	c0-0.1,0-0.2-0.1-0.3l0.1-0.1l0.9,1.4l-0.1,0.1c-0.1-0.2-0.2-0.3-0.3-0.3c-0.1,0-0.2,0-0.4,0.1l-2.1,1.3c-0.1,0.1-0.1,0.1-0.2,0.2
	c0,0.1,0,0.2,0.1,0.3c0.2,0.2,0.3,0.4,0.6,0.5c0.2,0.1,0.5,0.1,0.9,0l0.1,0.1l-1.1,0.5l-1.5-2.3L122.4,66.1z"/>
<path class="st11" d="M128.2,70.3c-0.2,0.4-0.5,0.8-1,1c-0.5,0.2-1,0.3-1.4,0.2c-0.4-0.1-0.8-0.4-1-0.8c-0.2-0.5-0.2-0.9-0.1-1.4
	c0.2-0.4,0.5-0.7,0.9-1c0.5-0.2,1-0.3,1.4-0.2c0.5,0.1,0.8,0.4,1,0.8C128.3,69.4,128.4,69.8,128.2,70.3 M125.9,70.9
	c0.3,0,0.6-0.2,0.9-0.3c0.5-0.2,0.8-0.5,1-0.8c0.2-0.3,0.2-0.5,0.1-0.7c-0.2-0.3-0.5-0.4-1-0.3c-0.3,0-0.6,0.2-0.9,0.3
	c-0.4,0.2-0.6,0.4-0.8,0.5c-0.4,0.3-0.4,0.6-0.3,1C125.1,70.9,125.5,71,125.9,70.9"/>
<path class="st11" d="M127,72.2l0.1,0.1c-0.3,0.2-0.5,0.4-0.6,0.7c-0.1,0.2-0.1,0.4,0,0.6c0.1,0.2,0.2,0.3,0.3,0.3
	c0.1,0,0.3,0,0.4,0c0.1-0.1,0.2-0.1,0.3-0.3c0-0.1,0.1-0.2,0.1-0.4l0-0.3c0-0.3,0.1-0.6,0.2-0.8c0.1-0.2,0.3-0.3,0.5-0.4
	c0.2-0.1,0.5-0.1,0.7,0c0.3,0.1,0.5,0.3,0.6,0.6c0.1,0.2,0.1,0.3,0.1,0.5c0,0.2,0,0.3,0,0.3c0,0,0,0.1,0.1,0.1c0,0,0.1,0,0.1,0
	l0.1,0.1l-1,0.4l0-0.1c0.2-0.2,0.4-0.3,0.5-0.6c0.1-0.2,0.1-0.4,0-0.6c-0.1-0.1-0.1-0.2-0.3-0.3c-0.1,0-0.2,0-0.4,0
	c-0.2,0.1-0.2,0.1-0.3,0.3c0,0.1-0.1,0.3-0.1,0.7l0,0.4c0,0.2-0.1,0.3-0.1,0.5c-0.1,0.2-0.3,0.4-0.6,0.5c-0.2,0.1-0.5,0.1-0.8,0
	c-0.3-0.1-0.5-0.3-0.7-0.7c0-0.1-0.1-0.2-0.1-0.3c0-0.1,0-0.2,0-0.3l0-0.1c0,0,0,0,0-0.1c0,0,0,0,0,0c0,0,0-0.1-0.1-0.1
	s-0.1,0-0.1,0l0-0.1L127,72.2z"/>
<path class="st11" d="M127.5,76.4c0,0.1,0.1,0.2,0.2,0.2c0.1,0,0.2,0,0.5,0.1l3,0.2l0,0.1l-2.3,1.8c-0.3,0.2-0.4,0.3-0.5,0.4
	c-0.1,0.1-0.1,0.2-0.1,0.3l-0.1,0l-0.4-1.5l0.1,0c0,0.1,0.1,0.2,0.1,0.3s0.1,0,0.2,0c0,0,0.1,0,0.2-0.1c0,0,0.1-0.1,0.2-0.1l0.3-0.2
	l-0.3-1c-0.2,0-0.4,0-0.4,0c-0.1,0-0.2,0-0.3,0c-0.1,0-0.1,0.1-0.1,0.2c0,0.1,0,0.1,0,0.2l-0.1,0l-0.3-0.9L127.5,76.4z M129,77.8
	l1-0.8l0,0l-1.3-0.1L129,77.8z"/>
<path class="st11" d="M128.4,79.9c0,0.1,0.1,0.2,0.1,0.3c0.1,0.1,0.2,0.1,0.3,0.1l2.5-0.5c0.1,0,0.2-0.1,0.3-0.2c0-0.1,0-0.2,0-0.3
	l0.1,0l0.3,1.6l-0.1,0c0-0.2-0.1-0.3-0.2-0.4c-0.1-0.1-0.2-0.1-0.4,0L129,81c-0.1,0-0.2,0.1-0.2,0.1c0,0.1,0,0.2,0,0.3
	c0.1,0.3,0.2,0.5,0.3,0.7c0.2,0.2,0.5,0.3,0.9,0.3l0,0.1l-1.2,0l-0.5-2.7L128.4,79.9z"/>
<path class="st11" d="M129.1,83.3c0,0.1,0,0.2,0.1,0.3c0.1,0.1,0.2,0.1,0.3,0.1l2.5-0.3c0.2,0,0.2-0.1,0.3-0.2c0-0.1,0-0.2,0-0.3
	l0.1,0l0.2,1.6l-0.1,0c0-0.1-0.1-0.2-0.1-0.3c-0.1-0.1-0.2-0.1-0.3-0.1l-2.5,0.3c-0.1,0-0.2,0.1-0.3,0.1c0,0.1-0.1,0.2,0,0.3l-0.1,0
	l-0.2-1.6L129.1,83.3z"/>
<path class="st11" d="M129.3,85.4c0,0.2,0,0.3,0.1,0.3c0.1,0.1,0.2,0.1,0.3,0.1l2.5-0.1c0.1,0,0.2,0,0.3-0.1c0-0.1,0.1-0.2,0.1-0.3
	l0.1,0l0,1.2l-2.4,1l0,0l2.4,0.8l0,1.2l-0.1,0c0-0.2-0.1-0.3-0.1-0.3c-0.1-0.1-0.2-0.1-0.4-0.1l-2.3,0.1c-0.2,0-0.3,0-0.4,0.1
	c-0.1,0.1-0.1,0.2-0.1,0.3l-0.1,0l-0.1-1.6l0.1,0c0,0.1,0,0.2,0.1,0.3c0,0.1,0.2,0.1,0.3,0.1l2.5-0.1l0,0l-3.1-1l0-0.1l2.9-1.3l0,0
	l-2.3,0.1c-0.2,0-0.3,0-0.4,0.1c-0.1,0.1-0.1,0.2-0.1,0.4l-0.1,0l0-1.1L129.3,85.4z"/>
<path class="st11" d="M129.3,90.1l0.1,0c0,0.1,0,0.2,0,0.3c0,0.1,0.1,0.1,0.3,0.1l2.5,0.1c0.2,0,0.3,0,0.3-0.1
	c0-0.1,0.1-0.1,0.1-0.3l0.1,0l-0.2,2.7l-1-0.1l0-0.1c0.3,0,0.6-0.1,0.7-0.3c0.1-0.1,0.2-0.4,0.2-0.8c0-0.1,0-0.2,0-0.3
	c0,0-0.1-0.1-0.2-0.1l-1.2-0.1c0,0.3,0,0.5,0.1,0.6c0.1,0.1,0.3,0.2,0.6,0.3l0,0.1l-1.8-0.1l0-0.1c0.3,0,0.5-0.1,0.6-0.2
	c0.1-0.1,0.2-0.3,0.2-0.6l-1.3-0.1c-0.1,0-0.2,0-0.2,0.1c0,0-0.1,0.2-0.1,0.3c0,0.3,0,0.6,0.1,0.8c0.1,0.2,0.3,0.4,0.7,0.5l0,0.1
	l-1.1-0.3L129.3,90.1z"/>
<path class="st11" d="M129.3,93.5c0,0.2,0,0.3,0.1,0.4c0.1,0.1,0.2,0.1,0.3,0.1l2.4,0.3c0.2-0.1,0.3-0.2,0.3-0.2
	c0,0,0.1-0.1,0.1-0.1l0.1,0l-0.1,1l-2.4,1.3l0,0l1.5,0.2c0.2,0,0.3,0,0.4,0c0.1,0,0.1-0.2,0.2-0.3l0.1,0l-0.1,1l-0.1,0
	c0-0.1,0-0.3-0.1-0.3c0-0.1-0.1-0.1-0.3-0.1l-3-0.4l0-0.1l3-1.7l0,0l-2-0.3c-0.2,0-0.3,0-0.3,0c-0.1,0-0.2,0.2-0.2,0.4l-0.1,0
	l0.2-1.1L129.3,93.5z"/>
<path class="st11" d="M132,98l-0.7,2.8l-1-0.2l0-0.1c0.4,0,0.7,0,0.8-0.2c0.1-0.1,0.2-0.3,0.2-0.5l-2.7-0.6c-0.2,0-0.3,0-0.4,0
	c-0.1,0-0.1,0.2-0.2,0.3l-0.1,0l0.4-1.6l0.1,0c0,0.2,0,0.3,0,0.4c0,0.1,0.2,0.1,0.3,0.2l2.7,0.6c0-0.2,0-0.4,0-0.5
	c-0.1-0.3-0.3-0.4-0.7-0.5l0-0.1L132,98z"/>
<path class="st11" d="M129.8,104.1c-0.4,0.2-0.9,0.2-1.4,0s-0.9-0.5-1.1-0.9c-0.2-0.4-0.3-0.8-0.1-1.3c0.2-0.5,0.5-0.8,0.9-1
	c0.4-0.2,0.9-0.2,1.3,0c0.5,0.2,0.9,0.5,1.1,0.9c0.2,0.4,0.3,0.9,0.1,1.3C130.5,103.6,130.3,103.9,129.8,104.1 M127.8,103
	c0.2,0.1,0.5,0.3,0.9,0.4c0.5,0.2,0.9,0.2,1.3,0.2c0.3-0.1,0.5-0.2,0.6-0.5c0.1-0.3,0-0.6-0.4-0.9c-0.2-0.1-0.5-0.3-0.9-0.4
	c-0.4-0.1-0.7-0.2-1-0.2c-0.5,0-0.8,0.1-0.9,0.5C127.2,102.4,127.4,102.7,127.8,103"/>
<path class="st11" d="M127.6,104.6l-0.1,0.1c-0.4-0.1-0.7-0.1-0.9,0c-0.2,0.1-0.4,0.2-0.5,0.4c-0.1,0.2-0.1,0.4,0,0.5
	c0.1,0.1,0.2,0.2,0.3,0.3c0.1,0.1,0.3,0.1,0.4,0c0.1,0,0.2-0.1,0.4-0.2l0.3-0.2c0.3-0.2,0.5-0.3,0.7-0.4c0.2-0.1,0.4,0,0.6,0.1
	c0.2,0.1,0.4,0.3,0.6,0.5c0.1,0.2,0.1,0.5,0,0.8c-0.1,0.2-0.2,0.3-0.3,0.4c-0.1,0.1-0.2,0.2-0.2,0.2c0,0,0,0.1,0,0.1
	s0.1,0.1,0.1,0.1l-0.1,0.1l-1-0.4l0.1-0.1c0.3,0,0.5,0,0.8,0c0.2-0.1,0.4-0.2,0.5-0.4c0.1-0.1,0.1-0.3,0-0.4
	c-0.1-0.1-0.1-0.2-0.3-0.3c-0.2-0.1-0.3-0.1-0.4,0c-0.1,0-0.3,0.2-0.6,0.4l-0.3,0.2c-0.1,0.1-0.3,0.2-0.4,0.2
	c-0.2,0.1-0.5,0.1-0.8,0c-0.2-0.1-0.4-0.3-0.6-0.5c-0.1-0.3-0.1-0.6,0-1c0-0.1,0.1-0.2,0.1-0.3c0.1-0.1,0.1-0.2,0.2-0.2l0.1-0.1
	c0,0,0,0,0-0.1c0,0,0,0,0,0c0,0,0-0.1,0-0.1s-0.1-0.1-0.1-0.1l0.1-0.1L127.6,104.6z"/>
<path class="st11" d="M54.7,112.5c0,0.9-0.8,1.7-1.7,1.7c-0.9,0-1.7-0.8-1.7-1.7c0-0.9,0.8-1.7,1.7-1.7
	C53.9,110.8,54.7,111.5,54.7,112.5"/>
<path class="st11" d="M124.5,113.6c0,0.9-0.8,1.7-1.7,1.7c-0.9,0-1.7-0.8-1.7-1.7c0-0.9,0.8-1.7,1.7-1.7
	C123.8,112,124.5,112.7,124.5,113.6"/>
<circle class="st10" cx="88.5" cy="88.8" r="36.8"/>
<path class="st11" d="M88.5,52.1c-20.3,0-36.8,16.5-36.8,36.8c0,4.6,0.8,8.9,2.3,12.9h68.9c1.5-4,2.3-8.4,2.3-12.9
	C125.2,68.5,108.8,52.1,88.5,52.1"/>
<path class="st9" d="M98.9,68.7c0-5.5-4.4-9.9-9.9-9.9c-5.5,0-9.9,4.4-9.9,9.9c0,5.5,4.4,9.9,9.9,9.9C94.5,78.7,98.9,74.2,98.9,68.7
	"/>
<path class="st9" d="M79,99.9c0,0,0-0.1,0-0.1c0-5.5,4.3-9.9,9.5-9.9c0.1,0,0.1,0,0.2,0V79.6c-0.1,0-0.1,0-0.2,0
	c-10.7,0-19.4,9-19.4,20.2c0,0,0,0.1,0,0.1H79z"/>
<path class="st9" d="M98.4,79.7c0,0,0,0.1,0,0.1c0,5.5-4.3,9.9-9.5,9.9c-0.1,0-0.1,0-0.2,0V100c0.1,0,0.1,0,0.2,0
	c10.7,0,19.4-9,19.4-20.2c0,0,0-0.1,0-0.1H98.4z"/>
<path class="st9" d="M102.1,75.6c1,1.1,1.3,2.5,1.3,2.5s-1.4-0.4-2.4-1.5c-1-1.1-1.3-2.5-1.3-2.5S101.1,74.5,102.1,75.6"/>
<path class="st9" d="M106.3,76.7c-1,1.1-2.4,1.4-2.4,1.4s0.3-1.4,1.3-2.5c1-1.1,2.4-1.4,2.4-1.4S107.4,75.6,106.3,76.7"/>
<path class="st9" d="M104.4,70c0,1.5-0.8,2.7-0.8,2.7s-0.8-1.2-0.8-2.7c0-1.5,0.8-2.7,0.8-2.7S104.4,68.4,104.4,70"/>
<polygon class="st9" points="100.4,70.7 103.6,73.8 106.9,70.9 103.6,75.4 "/>
<path class="st11" d="M69.4,107.6h4.6v9.2h-4.6V107.6z M69.4,104.1h4.6v2.6h-4.6V104.1z"/>
<path class="st11" d="M75.4,110.5c0-1.9,0-2.4,0-2.9h4.5c0.1,0.2,0,0.6,0,0.9c0.5-0.5,1.8-1,3.8-1c2.3,0,4.2,1.3,4.2,2.8v6.5h-4.7
	v-5.4c0-0.7-0.2-1.2-1.4-1.2c-1.1,0-1.8,0.3-1.8,1.4v5.1h-4.5V110.5z"/>
<path class="st11" d="M88.2,107.5h2v-2.6h4.6v2.6h2.4v2.2h-2.4v3.6c0,0.5,0.1,0.7,1.1,0.7c0.3,0,0.4,0,1.3,0v2.7c0,0-2.7,0-3.3,0
	c-3,0-3.7-1-3.7-2.7v-4.3h-2V107.5z"/>
<path class="st11" d="M109.6,114.1c0,0.6,0.1,1.9,0.4,2.3l-4.6,0.1c0,0,0-0.6,0-0.8c-0.8,0.6-2.1,1-3.8,1c-2.9,0-4.2-1.3-4.2-2.8
	c0-1.9,2-2.9,6.2-2.9c0.4,0,1.3-0.1,1.7-0.1v-0.8c0-0.5-0.5-0.9-1.6-0.9c-1.1,0-1.4,0.4-1.4,1h-4.4c0.1-1.6,1.4-2.9,5.9-2.9
	c3.8,0,5.8,0.7,5.8,2.7V114.1z M105.4,112.6c-0.3,0-1,0-1.3,0c-1.7,0-2.1,0.5-2.1,1.1c0,0.5,0.4,1,1.4,1c1.4,0,2.1-0.6,2.1-1.7
	V112.6z"/>
<g>
	<defs>
		<path id="SVGID_18_" d="M26.2,88.6c0-34.4,27.9-62.3,62.3-62.3c34.4,0,62.3,27.9,62.3,62.3c0,34.4-27.9,62.3-62.3,62.3
			C54.1,150.9,26.2,123,26.2,88.6 M24.7,88.6c0,35.3,28.6,63.9,63.9,63.9c35.3,0,63.9-28.6,63.9-63.9c0-35.3-28.6-63.9-63.9-63.9
			C53.3,24.7,24.7,53.3,24.7,88.6"/>
	</defs>
	<clipPath id="SVGID_19_">
		<use xlink:href="#SVGID_18_"  style="overflow:visible;"/>
	</clipPath>
	
		<linearGradient id="SVGID_20_" gradientUnits="userSpaceOnUse" x1="-218" y1="618" x2="-217" y2="618" gradientTransform="matrix(127.7189 0 0 -127.7189 27867.4277 79018.8672)">
		<stop  offset="0" style="stop-color:#8B622E"/>
		<stop  offset="8.183340e-02" style="stop-color:#8B622E"/>
		<stop  offset="0.2046" style="stop-color:#A1773C"/>
		<stop  offset="0.4541" style="stop-color:#D9AB5E"/>
		<stop  offset="0.514" style="stop-color:#DFBE71"/>
		<stop  offset="0.6351" style="stop-color:#F0F0A3"/>
		<stop  offset="0.6355" style="stop-color:#F0F0A3"/>
		<stop  offset="0.8349" style="stop-color:#E1C376"/>
		<stop  offset="0.9615" style="stop-color:#D9AB5E"/>
		<stop  offset="1" style="stop-color:#D9AB5E"/>
	</linearGradient>
	<rect x="24.7" y="24.7" class="st12" width="127.7" height="127.7"/>
</g>
<g>
	<defs>
		<path id="SVGID_21_" d="M29.7,88.9c0,1.4,1.1,2.5,2.5,2.5c1.4,0,2.5-1.1,2.5-2.5c0-1.4-1.1-2.5-2.5-2.5
			C30.8,86.4,29.7,87.5,29.7,88.9"/>
	</defs>
	<clipPath id="SVGID_22_">
		<use xlink:href="#SVGID_21_"  style="overflow:visible;"/>
	</clipPath>
	
		<linearGradient id="SVGID_23_" gradientUnits="userSpaceOnUse" x1="-218" y1="618" x2="-217" y2="618" gradientTransform="matrix(3.4981 -3.4981 -3.4981 -3.4981 2954.8169 1489.8772)">
		<stop  offset="0" style="stop-color:#B09164"/>
		<stop  offset="2.480440e-03" style="stop-color:#B09164"/>
		<stop  offset="0.1576" style="stop-color:#C1A16F"/>
		<stop  offset="0.4628" style="stop-color:#ECCB8A"/>
		<stop  offset="0.5131" style="stop-color:#F4D38F"/>
		<stop  offset="0.8297" style="stop-color:#C5A67C"/>
		<stop  offset="1" style="stop-color:#B19274"/>
	</linearGradient>
	<polygon class="st13" points="27.2,88.9 32.1,83.9 37.1,88.9 32.1,93.8 	"/>
</g>
<g>
	<defs>
		<path id="SVGID_24_" d="M142.1,88.9c0,1.4,1.1,2.5,2.5,2.5c1.4,0,2.5-1.1,2.5-2.5c0-1.4-1.1-2.5-2.5-2.5
			C143.2,86.4,142.1,87.5,142.1,88.9"/>
	</defs>
	<clipPath id="SVGID_25_">
		<use xlink:href="#SVGID_24_"  style="overflow:visible;"/>
	</clipPath>
	
		<linearGradient id="SVGID_26_" gradientUnits="userSpaceOnUse" x1="-218" y1="618" x2="-217" y2="618" gradientTransform="matrix(3.4981 -3.4981 -3.4981 -3.4981 3067.2886 1489.8772)">
		<stop  offset="0" style="stop-color:#B09164"/>
		<stop  offset="2.480440e-03" style="stop-color:#B09164"/>
		<stop  offset="0.1576" style="stop-color:#C1A16F"/>
		<stop  offset="0.4628" style="stop-color:#ECCB8A"/>
		<stop  offset="0.5131" style="stop-color:#F4D38F"/>
		<stop  offset="0.8297" style="stop-color:#C5A67C"/>
		<stop  offset="1" style="stop-color:#B19274"/>
	</linearGradient>
	<polygon class="st14" points="139.7,88.9 144.6,83.9 149.6,88.9 144.6,93.8 	"/>
</g>
<g>
	<path class="st3" d="M48,53.4c0,0.3,0,0.7-0.1,1.1c-0.1,0.4-0.3,0.8-0.5,1.2c-0.2,0.4-0.5,0.8-0.8,1.3c-0.4,0.5-0.7,0.9-1.1,1.2
		c-0.4,0.3-0.8,0.6-1.2,0.8c-0.3,0.1-0.5,0.2-0.8,0.2c-0.2,0-0.4,0-0.6-0.1c-0.2-0.1-0.4-0.2-0.6-0.3c-0.2-0.1-0.4-0.3-0.7-0.5
		c-0.3-0.2-0.5-0.4-0.7-0.5s-0.3-0.3-0.4-0.5c-0.1-0.2-0.2-0.4-0.2-0.6c0-0.2,0-0.5,0-0.8c0.1-0.4,0.2-0.9,0.5-1.4
		c0.2-0.5,0.5-1,0.9-1.4c0.3-0.4,0.7-0.8,1-1.1c0.3-0.3,0.7-0.6,1-0.8c0.3-0.2,0.7-0.3,1-0.4c0.3-0.1,0.6,0,0.9,0.1l-0.8,1
		c-0.4-0.1-0.8,0-1.3,0.2c-0.5,0.3-0.9,0.7-1.4,1.3c-0.2,0.3-0.4,0.6-0.6,1c-0.2,0.3-0.3,0.6-0.3,0.9c0,0.2,0,0.4,0,0.6
		c0,0.2,0.1,0.3,0.2,0.4c0.1,0.1,0.2,0.3,0.4,0.4c0.2,0.1,0.4,0.3,0.6,0.5c0.3,0.2,0.5,0.4,0.7,0.5c0.2,0.1,0.4,0.2,0.5,0.3
		s0.3,0.1,0.5,0c0.2,0,0.3-0.1,0.5-0.2c0.3-0.1,0.5-0.3,0.8-0.5c0.3-0.2,0.5-0.5,0.8-0.8c0.5-0.6,0.7-1.2,0.9-1.7
		c0.1-0.5,0.1-1-0.1-1.3l0.8-1C47.9,52.7,48,53,48,53.4z"/>
</g>
<g>
	<path class="st3" d="M53.8,49.1L50,44.2l5.9-4.5l0.4,0.5l-4.9,3.7l1.3,1.7l4.1-3.2l0.4,0.5l-4.1,3.2l1.4,1.8l4.9-3.7l0.4,0.5
		L53.8,49.1z"/>
</g>
<g>
	<path class="st3" d="M71.5,38.9L68,37.4l-2.6,1.1l1,2.5l-1.2,0.5l-2.3-5.7l4.2-1.7c0.5-0.2,0.9-0.3,1.4-0.4
		c0.4-0.1,0.8-0.1,1.2-0.1c0.3,0,0.6,0.1,0.9,0.2c0.2,0.1,0.4,0.3,0.5,0.6c0.2,0.4,0.1,0.8-0.2,1.3s-0.8,0.9-1.5,1.2l3.7,1.5
		L71.5,38.9z M68.9,34.3c-0.5,0-1,0.1-1.7,0.4l-2.9,1.2l0.9,2.1l2.9-1.2c0.7-0.3,1.1-0.6,1.5-0.9c0.3-0.3,0.4-0.7,0.3-1
		S69.4,34.3,68.9,34.3z"/>
</g>
<g>
	<path class="st3" d="M81.8,31l0.7,5.5l-1.3,0.2l-0.7-5.5l-3.4,0.4L77.1,31l8.1-1l0.1,0.6L81.8,31z"/>
</g>
<g>
	<path class="st3" d="M91.9,36.3l0.4-6.2l1.3,0.1l-0.4,6.2L91.9,36.3z"/>
</g>
<g>
	<path class="st3" d="M103.1,32.3l-0.6,2.2l5,1.4l-0.2,0.6l-5-1.4l-0.7,2.6l-1.2-0.3l1.7-5.9l7.1,2l-0.2,0.6L103.1,32.3z"/>
</g>
<g>
	<path class="st3" d="M112.9,42l2.9-5.5l1.1,0.6l-2.9,5.5L112.9,42z"/>
</g>
<g>
	<path class="st3" d="M126.4,50.2c-0.3,0-0.7,0-1.1-0.1c-0.4-0.1-0.8-0.3-1.2-0.5c-0.4-0.2-0.8-0.5-1.2-0.9
		c-0.5-0.4-0.8-0.8-1.2-1.2c-0.3-0.4-0.6-0.8-0.8-1.3c-0.1-0.3-0.2-0.5-0.2-0.8s0-0.4,0.1-0.6c0.1-0.2,0.2-0.4,0.3-0.6
		c0.1-0.2,0.3-0.4,0.5-0.7s0.4-0.5,0.6-0.6c0.2-0.2,0.3-0.3,0.5-0.4c0.2-0.1,0.4-0.2,0.6-0.2c0.2,0,0.5,0,0.8,0.1
		c0.4,0.1,0.9,0.3,1.4,0.5c0.5,0.2,0.9,0.6,1.4,0.9c0.4,0.3,0.8,0.7,1.1,1.1c0.3,0.4,0.5,0.7,0.7,1.1c0.2,0.4,0.3,0.7,0.3,1
		c0,0.3,0,0.6-0.1,0.9l-1-0.8c0.1-0.4,0.1-0.8-0.2-1.3c-0.2-0.5-0.6-1-1.2-1.5c-0.3-0.3-0.6-0.5-0.9-0.6c-0.3-0.2-0.6-0.3-0.9-0.4
		c-0.2,0-0.4-0.1-0.5,0c-0.2,0-0.3,0.1-0.5,0.2c-0.1,0.1-0.3,0.2-0.5,0.4c-0.2,0.2-0.3,0.4-0.5,0.6c-0.2,0.2-0.4,0.5-0.5,0.6
		c-0.1,0.2-0.2,0.4-0.3,0.5c-0.1,0.2-0.1,0.3-0.1,0.5c0,0.2,0.1,0.3,0.1,0.5c0.1,0.3,0.3,0.6,0.5,0.8c0.2,0.3,0.5,0.6,0.8,0.8
		c0.6,0.5,1.1,0.8,1.7,0.9c0.5,0.2,1,0.1,1.3-0.1l1,0.8C127,50.1,126.7,50.2,126.4,50.2z"/>
</g>
<g>
	<path class="st3" d="M134.3,61.7l0.6-1.6l-3-4.3l-1.7,0l-0.8-1.1l7.6,0l0.6,0.9l-2.5,7.1L134.3,61.7z M136.6,55.9l-4,0l2.6,3.6
		L136.6,55.9z"/>
</g>
<g>
	<path class="st3" d="M44,126.4c-0.3-0.1-0.7-0.2-1-0.4c-0.3-0.2-0.7-0.5-1-0.8c-0.3-0.3-0.7-0.7-1-1.1c-0.4-0.5-0.6-1-0.9-1.4
		c-0.2-0.5-0.4-0.9-0.4-1.4c-0.1-0.3-0.1-0.6,0-0.8c0-0.2,0.1-0.4,0.2-0.6c0.1-0.2,0.3-0.3,0.5-0.5c0.2-0.2,0.4-0.3,0.7-0.5
		c0.3-0.2,0.5-0.4,0.7-0.5c0.2-0.1,0.4-0.2,0.6-0.3c0.2-0.1,0.4-0.1,0.6,0c0.2,0,0.5,0.1,0.7,0.2c0.4,0.2,0.8,0.5,1.2,0.8
		c0.4,0.3,0.8,0.8,1.1,1.2c0.3,0.4,0.6,0.9,0.8,1.3c0.2,0.4,0.4,0.8,0.4,1.2c0.1,0.4,0.1,0.7,0.1,1.1c0,0.3-0.1,0.6-0.3,0.9l-0.8-1
		c0.2-0.4,0.3-0.8,0.1-1.3c-0.1-0.5-0.4-1.1-0.8-1.7c-0.2-0.3-0.5-0.6-0.8-0.8c-0.3-0.2-0.5-0.4-0.8-0.6c-0.2-0.1-0.4-0.2-0.5-0.2
		s-0.3,0-0.5,0s-0.3,0.1-0.5,0.3c-0.2,0.1-0.4,0.3-0.7,0.5c-0.3,0.2-0.5,0.4-0.6,0.5c-0.2,0.1-0.3,0.3-0.4,0.4
		c-0.1,0.1-0.2,0.3-0.2,0.4c0,0.2,0,0.3,0,0.6c0,0.3,0.1,0.6,0.3,0.9c0.2,0.3,0.4,0.7,0.6,1c0.4,0.6,0.9,1,1.4,1.3
		c0.5,0.3,0.9,0.3,1.3,0.2l0.8,1C44.6,126.5,44.3,126.5,44,126.4z"/>
</g>
<g>
	<path class="st3" d="M49,132.9l3.8-4.8l5.8,4.6l-0.4,0.5l-4.8-3.8l-1.4,1.7l4.1,3.3l-0.4,0.5l-4.1-3.3l-1.4,1.7l4.8,3.8l-0.4,0.5
		L49,132.9z"/>
</g>
<g>
	<path class="st3" d="M67.5,144.2l-1.4-3.6l-2.6-1.2l-1.1,2.5l-1.2-0.5l2.5-5.7l4.2,1.8c0.5,0.2,0.9,0.4,1.3,0.7
		c0.4,0.2,0.7,0.5,0.9,0.8c0.2,0.3,0.4,0.5,0.4,0.8c0.1,0.3,0.1,0.5-0.1,0.8c-0.2,0.4-0.5,0.7-1.1,0.7c-0.6,0.1-1.2,0-1.9-0.2
		l1.5,3.7L67.5,144.2z M69.1,139c-0.3-0.3-0.8-0.7-1.5-0.9l-2.9-1.3l-0.9,2.1l2.9,1.3c0.6,0.3,1.2,0.4,1.7,0.4
		c0.5,0,0.8-0.2,0.9-0.5C69.5,139.7,69.4,139.4,69.1,139z"/>
</g>
<g>
	<path class="st3" d="M80.6,141.8l-0.9,5.5l-1.3-0.2l0.9-5.5l-3.4-0.6l0.1-0.6l8.1,1.3l-0.1,0.6L80.6,141.8z"/>
</g>
<g>
	<path class="st3" d="M90,147.9l-0.2-6.2l1.3,0l0.2,6.2L90,147.9z"/>
</g>
<g>
	<path class="st3" d="M99.4,141.4l0.5,2.2l5.1-1.2l0.1,0.6l-5.1,1.2l0.6,2.7l-1.2,0.3l-1.4-6l7.2-1.7l0.1,0.6L99.4,141.4z"/>
</g>
<g>
	<path class="st3" d="M113.2,142.8l-2.6-5.6l1.2-0.5l2.6,5.6L113.2,142.8z"/>
</g>
<g>
	<path class="st3" d="M126.8,133.2c-0.1,0.3-0.2,0.7-0.4,1s-0.5,0.7-0.8,1c-0.3,0.3-0.7,0.7-1.1,1c-0.5,0.4-1,0.6-1.4,0.9
		c-0.5,0.2-0.9,0.4-1.4,0.4c-0.3,0.1-0.6,0.1-0.8,0c-0.2,0-0.4-0.1-0.6-0.2c-0.2-0.1-0.3-0.3-0.5-0.5c-0.2-0.2-0.3-0.4-0.5-0.7
		c-0.2-0.3-0.4-0.5-0.5-0.7c-0.1-0.2-0.2-0.4-0.3-0.6c-0.1-0.2-0.1-0.4,0-0.6c0-0.2,0.1-0.5,0.2-0.7c0.2-0.4,0.5-0.8,0.8-1.2
		c0.4-0.4,0.8-0.8,1.2-1.1c0.4-0.3,0.9-0.6,1.3-0.8c0.4-0.2,0.8-0.4,1.2-0.4c0.4-0.1,0.7-0.1,1.1-0.1c0.3,0,0.6,0.1,0.9,0.3l-1,0.8
		c-0.4-0.2-0.8-0.3-1.3-0.2c-0.5,0.1-1.1,0.4-1.7,0.8c-0.3,0.2-0.6,0.5-0.8,0.8c-0.2,0.3-0.4,0.5-0.6,0.8c-0.1,0.2-0.2,0.4-0.2,0.5
		c0,0.2,0,0.3,0,0.5c0.1,0.2,0.1,0.3,0.3,0.5c0.1,0.2,0.3,0.4,0.5,0.7c0.2,0.3,0.4,0.5,0.5,0.6c0.1,0.2,0.3,0.3,0.4,0.4
		s0.3,0.2,0.4,0.2c0.2,0,0.3,0,0.6,0c0.3,0,0.6-0.1,0.9-0.3c0.3-0.2,0.7-0.4,1-0.6c0.6-0.4,1-0.9,1.3-1.4s0.4-0.9,0.2-1.3l1-0.8
		C126.8,132.5,126.8,132.8,126.8,133.2z"/>
</g>
<g>
	<path class="st3" d="M137.6,122.9l-1.7-0.1l-3.3,4.1l0.5,1.6l-0.8,1.1l-2.1-7.3l0.7-0.8l7.6,0.5L137.6,122.9z M131.3,122.4l1.1,3.8
		l2.8-3.5L131.3,122.4z"/>
</g>
</svg>
