<?xml version="1.0" encoding="utf-8"?>
<!-- Generator: Adobe Illustrator 25.2.3, SVG Export Plug-In . SVG Version: 6.00 Build 0)  -->
<svg version="1.1" id="Capa_1" xmlns="http://www.w3.org/2000/svg" xmlns:xlink="http://www.w3.org/1999/xlink" x="0px" y="0px"
	 viewBox="0 0 654 183" style="enable-background:new 0 0 654 183;" xml:space="preserve">
<style type="text/css">
	.st0{clip-path:url(#SVGID_2_);fill:#F5E7E2;}
	.st1{clip-path:url(#SVGID_4_);fill:#FDF9E6;}
	.st2{clip-path:url(#SVGID_6_);fill:#E7F2F9;}
	.st3{fill:url(#SVGID_7_);}
	.st4{fill:url(#SVGID_8_);}
	.st5{fill:url(#SVGID_9_);}
	.st6{fill:url(#SVGID_10_);}
	.st7{fill:url(#SVGID_11_);}
	.st8{fill:#FFFFFF;}
	.st9{fill:none;stroke:#394578;stroke-width:0.4708;stroke-miterlimit:10;}
	.st10{fill:#003891;}
	.st11{fill:url(#SVGID_12_);}
	.st12{opacity:0.5;fill:#886530;enable-background:new    ;}
	.st13{fill:url(#SVGID_13_);stroke:url(#SVGID_14_);stroke-width:0.8342;stroke-miterlimit:10;}
	.st14{fill:url(#SVGID_15_);stroke:url(#SVGID_16_);stroke-width:0.8342;stroke-miterlimit:10;}
	.st15{fill:none;}
	.st16{font-family:'ArialMT';}
	.st17{font-size:12px;}
	.st18{fill:#FFFFFF;stroke:#1F1D1B;stroke-width:0.8071;stroke-miterlimit:10;}
	.st19{fill:#1E1C1A;}
</style>
<g>
	<g>
		<g>
			<g>
				<defs>
					<path id="SVGID_1_" d="M512,86.7c0,8.8-35.6,65.3-38.1,67.9s-5.9,4.2-9.7,4.2h-94.7L111.6,158c-3.7,0-26.7-0.4-29.1-3
						s-4-6.1-4-10V88.4l-1.1-54.9c0-3.9,1.5-7.4,4-10S98.3,13.2,102,13.2l267.4,1.3h94.7c3.8,0,7.2,1.6,9.7,4.2S512,78.7,512,86.7z"
						/>
				</defs>
				<clipPath id="SVGID_2_">
					<use xlink:href="#SVGID_1_"  style="overflow:visible;"/>
				</clipPath>
				<rect x="76.2" y="26.3" class="st0" width="474.1" height="139.4"/>
			</g>
			<g>
				<defs>
					<path id="SVGID_3_" d="M512,86.7c0,8.8-35.6,65.3-38.1,67.9s-5.9,4.2-9.7,4.2h-94.7L111.6,158c-3.7,0-26.7-0.4-29.1-3
						s-4-6.1-4-10V88.4l-1.1-54.9c0-3.9,1.5-7.4,4-10S98.3,13.2,102,13.2l267.4,1.3h94.7c3.8,0,7.2,1.6,9.7,4.2S512,78.7,512,86.7z"
						/>
				</defs>
				<clipPath id="SVGID_4_">
					<use xlink:href="#SVGID_3_"  style="overflow:visible;"/>
				</clipPath>
				<rect x="91.8" y="1.2" class="st1" width="433.8" height="110.7"/>
			</g>
			<g>
				<defs>
					<path id="SVGID_5_" d="M512.4,86.3c0,8.8-35.6,65.3-38.1,67.9s-5.9,4.2-9.7,4.2h-94.7L112,157.6c-3.7,0-26.7-0.4-29.1-3
						s-4-6.1-4-10V88l-1.1-54.9c0-3.9,1.5-7.4,4-10s16.9-10.3,20.6-10.3l267.4,1.3h94.7c3.8,0,7.2,1.6,9.7,4.2
						S512.4,78.3,512.4,86.3z"/>
				</defs>
				<clipPath id="SVGID_6_">
					<use xlink:href="#SVGID_5_"  style="overflow:visible;"/>
				</clipPath>
				<rect x="75.6" y="-109.2" class="st2" width="450" height="169.8"/>
			</g>
		</g>
		<g>
			<path d="M268.9,44.5c-0.2,0.4-0.5,0.8-0.8,1.1s-0.7,0.5-1.1,0.6s-0.8,0.2-1.3,0.2s-1-0.1-1.4-0.3s-0.8-0.5-1.2-0.9
				c-0.2-0.3-0.4-0.5-0.6-0.8c-0.1-0.3-0.2-0.6-0.3-1s-0.1-0.7-0.1-1.2c0-0.4,0-0.9,0-1.4s0-1,0-1.4s0-0.8,0.1-1.2s0.2-0.7,0.3-1
				c0.1-0.3,0.3-0.6,0.6-0.8c0.3-0.4,0.7-0.7,1.2-0.9c0.4-0.2,0.9-0.3,1.4-0.3c0.9,0,1.7,0.3,2.3,0.9c0.6,0.6,1,1.4,1.2,2.5h-1.5
				c-0.1-0.5-0.3-1-0.7-1.3s-0.8-0.5-1.3-0.5c-0.3,0-0.6,0.1-0.8,0.2s-0.5,0.3-0.6,0.5c-0.1,0.1-0.2,0.3-0.3,0.5
				c-0.1,0.2-0.1,0.4-0.2,0.6c0,0.2-0.1,0.6-0.1,0.9s0,0.8,0,1.4s0,1,0,1.4s0,0.7,0.1,0.9s0.1,0.5,0.2,0.6c0.1,0.2,0.2,0.3,0.3,0.5
				c0.2,0.2,0.4,0.4,0.6,0.5s0.5,0.2,0.8,0.2c0.6,0,1-0.2,1.3-0.5s0.6-0.8,0.7-1.3h1.5C269.3,43.6,269.1,44.1,268.9,44.5z"/>
			<path d="M278.6,42.3c0,0.4,0,0.8-0.1,1.2c-0.1,0.3-0.1,0.7-0.3,1c-0.1,0.3-0.3,0.6-0.6,0.8c-0.3,0.4-0.7,0.7-1.2,0.9
				c-0.4,0.2-0.9,0.3-1.4,0.3s-1-0.1-1.4-0.3s-0.8-0.5-1.2-0.9c-0.2-0.3-0.4-0.5-0.6-0.8c-0.1-0.3-0.2-0.6-0.3-1s-0.1-0.7-0.1-1.2
				c0-0.4,0-0.9,0-1.4s0-1,0-1.4s0-0.8,0.1-1.2s0.2-0.7,0.3-1c0.1-0.3,0.3-0.6,0.6-0.8c0.3-0.4,0.7-0.7,1.2-0.9
				c0.4-0.2,0.9-0.3,1.4-0.3s1,0.1,1.4,0.3s0.8,0.5,1.2,0.9c0.2,0.3,0.4,0.5,0.6,0.8c0.1,0.3,0.2,0.6,0.3,1c0.1,0.3,0.1,0.7,0.1,1.2
				c0,0.4,0,0.9,0,1.4S278.6,41.9,278.6,42.3z M277.1,39.5c0-0.4,0-0.7-0.1-0.9s-0.1-0.5-0.2-0.6s-0.2-0.3-0.3-0.5
				c-0.2-0.2-0.4-0.4-0.6-0.5c-0.3-0.1-0.5-0.2-0.8-0.2s-0.6,0.1-0.8,0.2c-0.3,0.1-0.5,0.3-0.6,0.5c-0.1,0.1-0.2,0.3-0.3,0.5
				s-0.1,0.4-0.2,0.6c0,0.2-0.1,0.6-0.1,0.9s0,0.8,0,1.4s0,1,0,1.4s0,0.7,0.1,0.9c0,0.2,0.1,0.5,0.2,0.6s0.2,0.3,0.3,0.5
				c0.2,0.2,0.4,0.4,0.6,0.5c0.3,0.1,0.5,0.2,0.8,0.2s0.6-0.1,0.8-0.2c0.3-0.1,0.5-0.3,0.6-0.5c0.1-0.1,0.2-0.3,0.3-0.5
				s0.1-0.4,0.2-0.6c0-0.2,0.1-0.6,0.1-0.9c0-0.4,0-0.8,0-1.4S277.1,39.9,277.1,39.5z"/>
			<path d="M288.5,46.4v-7.3l-2.3,5.3h-1.1l-2.3-5.3v7.3h-1.5V35.5h1.5l2.9,6.8l2.8-6.8h1.5v10.9H288.5z"/>
			<path d="M299.8,40.1c-0.1,0.4-0.4,0.7-0.6,1c-0.3,0.3-0.6,0.5-1,0.7s-0.8,0.3-1.3,0.3h-2.2v4.3h-1.5V35.5h3.7
				c0.5,0,0.9,0.1,1.3,0.3s0.7,0.4,1,0.7s0.5,0.6,0.6,1s0.2,0.8,0.2,1.3S299.9,39.7,299.8,40.1z M298,37.4c-0.3-0.3-0.7-0.5-1.3-0.5
				h-2.2v3.6h2.2c0.5,0,1-0.2,1.3-0.5s0.5-0.8,0.5-1.3S298.3,37.7,298,37.4z"/>
			<path d="M309,42.3c0,0.4,0,0.8-0.1,1.2c-0.1,0.3-0.1,0.7-0.3,1c-0.1,0.3-0.3,0.6-0.6,0.8c-0.3,0.4-0.7,0.7-1.2,0.9
				c-0.4,0.2-0.9,0.3-1.4,0.3s-1-0.1-1.4-0.3s-0.8-0.5-1.2-0.9c-0.2-0.3-0.4-0.5-0.6-0.8c-0.1-0.3-0.2-0.6-0.3-1s-0.1-0.7-0.1-1.2
				c0-0.4,0-0.9,0-1.4s0-1,0-1.4s0-0.8,0.1-1.2s0.2-0.7,0.3-1c0.1-0.3,0.3-0.6,0.6-0.8c0.3-0.4,0.7-0.7,1.2-0.9
				c0.4-0.2,0.9-0.3,1.4-0.3s1,0.1,1.4,0.3s0.8,0.5,1.2,0.9c0.2,0.3,0.4,0.5,0.6,0.8c0.1,0.3,0.2,0.6,0.3,1c0.1,0.3,0.1,0.7,0.1,1.2
				c0,0.4,0,0.9,0,1.4S309,41.9,309,42.3z M307.5,39.5c0-0.4,0-0.7-0.1-0.9s-0.1-0.5-0.2-0.6s-0.2-0.3-0.3-0.5
				c-0.2-0.2-0.4-0.4-0.6-0.5c-0.3-0.1-0.5-0.2-0.8-0.2s-0.6,0.1-0.8,0.2c-0.3,0.1-0.5,0.3-0.6,0.5c-0.1,0.1-0.2,0.3-0.3,0.5
				s-0.1,0.4-0.2,0.6c0,0.2-0.1,0.6-0.1,0.9s0,0.8,0,1.4s0,1,0,1.4s0,0.7,0.1,0.9c0,0.2,0.1,0.5,0.2,0.6s0.2,0.3,0.3,0.5
				c0.2,0.2,0.4,0.4,0.6,0.5c0.3,0.1,0.5,0.2,0.8,0.2s0.6-0.1,0.8-0.2c0.3-0.1,0.5-0.3,0.6-0.5c0.1-0.1,0.2-0.3,0.3-0.5
				s0.1-0.4,0.2-0.6c0-0.2,0.1-0.6,0.1-0.9c0-0.4,0-0.8,0-1.4S307.5,39.9,307.5,39.5z"/>
			<path d="M317.7,44.6c-0.2,0.4-0.4,0.7-0.7,1c-0.3,0.3-0.7,0.5-1.1,0.6s-0.9,0.2-1.4,0.2c-0.8,0-1.4-0.1-2-0.3s-1.1-0.6-1.5-1.1
				l1-1.1c0.4,0.4,0.7,0.7,1.2,0.8c0.4,0.1,0.9,0.2,1.4,0.2c0.6,0,1.1-0.1,1.5-0.4c0.4-0.3,0.5-0.7,0.5-1.2s-0.1-0.9-0.4-1.1
				c-0.1-0.1-0.3-0.2-0.4-0.3s-0.4-0.1-0.7-0.2l-1.2-0.2c-0.8-0.1-1.4-0.4-1.9-0.9s-0.7-1.2-0.7-2.1c0-0.5,0.1-0.9,0.2-1.3
				c0.2-0.4,0.4-0.7,0.7-1c0.3-0.3,0.6-0.5,1-0.7s0.9-0.2,1.4-0.2c0.7,0,1.2,0.1,1.7,0.3s0.9,0.5,1.4,0.9l-1,1
				c-0.3-0.3-0.6-0.5-1-0.7c-0.4-0.1-0.7-0.2-1.2-0.2c-0.6,0-1,0.2-1.3,0.5s-0.5,0.7-0.5,1.2c0,0.2,0,0.4,0.1,0.6s0.2,0.3,0.3,0.5
				c0.3,0.3,0.6,0.4,1.1,0.5l1.1,0.2c0.5,0.1,0.8,0.2,1.1,0.3c0.3,0.1,0.5,0.3,0.7,0.5c0.3,0.3,0.5,0.6,0.6,1s0.2,0.8,0.2,1.3
				C317.9,43.7,317.8,44.2,317.7,44.6z"/>
			<path d="M320.4,46.4V35.5h1.5v10.9H320.4z"/>
			<path d="M331.3,44.5c-0.2,0.4-0.5,0.8-0.8,1.1s-0.7,0.5-1.1,0.6s-0.8,0.2-1.3,0.2s-1-0.1-1.4-0.3s-0.8-0.5-1.2-0.9
				c-0.2-0.3-0.4-0.5-0.6-0.8c-0.1-0.3-0.2-0.6-0.3-1s-0.1-0.7-0.1-1.2c0-0.4,0-0.9,0-1.4s0-1,0-1.4s0-0.8,0.1-1.2s0.2-0.7,0.3-1
				c0.1-0.3,0.3-0.6,0.6-0.8c0.3-0.4,0.7-0.7,1.2-0.9c0.4-0.2,0.9-0.3,1.4-0.3c0.9,0,1.7,0.3,2.3,0.9c0.6,0.6,1,1.4,1.2,2.5h-1.5
				c-0.1-0.5-0.3-1-0.7-1.3s-0.8-0.5-1.3-0.5c-0.3,0-0.6,0.1-0.8,0.2s-0.5,0.3-0.6,0.5c-0.1,0.1-0.2,0.3-0.3,0.5
				c-0.1,0.2-0.1,0.4-0.2,0.6c0,0.2-0.1,0.6-0.1,0.9s0,0.8,0,1.4s0,1,0,1.4s0,0.7,0.1,0.9s0.1,0.5,0.2,0.6c0.1,0.2,0.2,0.3,0.3,0.5
				c0.2,0.2,0.4,0.4,0.6,0.5s0.5,0.2,0.8,0.2c0.6,0,1-0.2,1.3-0.5s0.6-0.8,0.7-1.3h1.5C331.6,43.6,331.5,44.1,331.3,44.5z"/>
			<path d="M334.2,46.4V35.5h1.5v10.9H334.2z"/>
			<path d="M345.5,42.3c0,0.4,0,0.8-0.1,1.2s-0.1,0.7-0.3,1c-0.1,0.3-0.3,0.6-0.6,0.8c-0.3,0.4-0.7,0.7-1.2,0.9
				c-0.4,0.2-0.9,0.3-1.4,0.3s-1-0.1-1.4-0.3s-0.8-0.5-1.2-0.9c-0.2-0.3-0.4-0.5-0.6-0.8s-0.2-0.6-0.3-1c-0.1-0.3-0.1-0.7-0.1-1.2
				c0-0.4,0-0.9,0-1.4s0-1,0-1.4s0-0.8,0.1-1.2c0.1-0.3,0.2-0.7,0.3-1s0.3-0.6,0.6-0.8c0.3-0.4,0.7-0.7,1.2-0.9
				c0.4-0.2,0.9-0.3,1.4-0.3s1,0.1,1.4,0.3s0.8,0.5,1.2,0.9c0.2,0.3,0.4,0.5,0.6,0.8c0.1,0.3,0.2,0.6,0.3,1s0.1,0.7,0.1,1.2
				c0,0.4,0,0.9,0,1.4S345.5,41.9,345.5,42.3z M344,39.5c0-0.4,0-0.7-0.1-0.9c0-0.2-0.1-0.5-0.2-0.6c-0.1-0.2-0.2-0.3-0.3-0.5
				c-0.2-0.2-0.4-0.4-0.6-0.5c-0.3-0.1-0.5-0.2-0.8-0.2s-0.6,0.1-0.8,0.2c-0.3,0.1-0.5,0.3-0.6,0.5c-0.1,0.1-0.2,0.3-0.3,0.5
				c-0.1,0.2-0.1,0.4-0.2,0.6c0,0.2-0.1,0.6-0.1,0.9s0,0.8,0,1.4s0,1,0,1.4s0,0.7,0.1,0.9c0,0.2,0.1,0.5,0.2,0.6
				c0.1,0.2,0.2,0.3,0.3,0.5c0.2,0.2,0.4,0.4,0.6,0.5c0.3,0.1,0.5,0.2,0.8,0.2s0.6-0.1,0.8-0.2c0.3-0.1,0.5-0.3,0.6-0.5
				c0.1-0.1,0.2-0.3,0.3-0.5c0.1-0.2,0.1-0.4,0.2-0.6c0-0.2,0.1-0.6,0.1-0.9c0-0.4,0-0.8,0-1.4S344,39.9,344,39.5z M342.3,34.4h-1.1
				l1-2.5h1.6L342.3,34.4z"/>
			<path d="M354.3,46.4l-4.6-7.7v7.7h-1.5V35.5h1.4l4.6,7.6v-7.6h1.5v10.9H354.3z"/>
			<path d="M368.6,46.4l-4.6-7.7v7.7h-1.5V35.5h1.4l4.6,7.6v-7.6h1.5v10.9H368.6z"/>
			<path d="M379.8,44.2c-0.2,0.5-0.4,0.9-0.8,1.2c-0.3,0.3-0.7,0.6-1.1,0.8s-0.9,0.3-1.4,0.3s-1-0.1-1.4-0.3s-0.8-0.4-1.1-0.8
				c-0.3-0.3-0.6-0.7-0.7-1.2c-0.2-0.5-0.3-1-0.3-1.5v-7.2h1.5v7.1c0,0.7,0.2,1.3,0.6,1.7s0.9,0.6,1.5,0.6s1.1-0.2,1.5-0.6
				c0.4-0.4,0.6-1,0.6-1.7v-7.1h1.5v7.2C380,43.2,379.9,43.8,379.8,44.2z"/>
			<path d="M386.3,37v9.4h-1.5V37h-2.7v-1.5h6.9V37H386.3z"/>
			<path d="M396.7,46.4l-2.1-4.6h-1.9v4.6h-1.5V35.5h3.8c0.5,0,0.9,0.1,1.3,0.2c0.4,0.2,0.7,0.4,1,0.7s0.5,0.6,0.6,1
				s0.2,0.8,0.2,1.3c0,0.8-0.2,1.4-0.6,1.9s-0.8,0.8-1.4,1l2.3,4.8H396.7z M396.2,37.4c-0.3-0.3-0.7-0.5-1.2-0.5h-2.2v3.4h2.2
				c0.5,0,0.9-0.1,1.2-0.4c0.3-0.3,0.5-0.7,0.5-1.3C396.6,38.1,396.5,37.7,396.2,37.4z"/>
			<path d="M400.8,46.4V35.5h1.5v10.9H400.8z"/>
			<path d="M411.7,44.5c-0.2,0.4-0.5,0.8-0.8,1.1s-0.7,0.5-1.1,0.6s-0.8,0.2-1.3,0.2s-1-0.1-1.4-0.3s-0.8-0.5-1.2-0.9
				c-0.2-0.3-0.4-0.5-0.6-0.8s-0.2-0.6-0.3-1c-0.1-0.3-0.1-0.7-0.1-1.2c0-0.4,0-0.9,0-1.4s0-1,0-1.4s0-0.8,0.1-1.2
				c0.1-0.3,0.2-0.7,0.3-1s0.3-0.6,0.6-0.8c0.3-0.4,0.7-0.7,1.2-0.9c0.4-0.2,0.9-0.3,1.4-0.3c0.9,0,1.7,0.3,2.3,0.9
				c0.6,0.6,1,1.4,1.2,2.5h-1.5c-0.1-0.5-0.3-1-0.7-1.3c-0.3-0.3-0.8-0.5-1.3-0.5c-0.3,0-0.6,0.1-0.8,0.2s-0.5,0.3-0.6,0.5
				c-0.1,0.1-0.2,0.3-0.3,0.5c-0.1,0.2-0.1,0.4-0.2,0.6c0,0.2-0.1,0.6-0.1,0.9s0,0.8,0,1.4s0,1,0,1.4s0,0.7,0.1,0.9
				c0,0.2,0.1,0.5,0.2,0.6c0.1,0.2,0.2,0.3,0.3,0.5c0.2,0.2,0.4,0.4,0.6,0.5s0.5,0.2,0.8,0.2c0.6,0,1-0.2,1.3-0.5s0.6-0.8,0.7-1.3
				h1.5C412,43.6,411.9,44.1,411.7,44.5z"/>
			<path d="M414.6,46.4V35.5h1.5v10.9H414.6z"/>
			<path d="M425.9,42.3c0,0.4,0,0.8-0.1,1.2s-0.1,0.7-0.3,1c-0.1,0.3-0.3,0.6-0.6,0.8c-0.3,0.4-0.7,0.7-1.2,0.9
				c-0.4,0.2-0.9,0.3-1.4,0.3s-1-0.1-1.4-0.3s-0.8-0.5-1.2-0.9c-0.2-0.3-0.4-0.5-0.6-0.8s-0.2-0.6-0.3-1c-0.1-0.3-0.1-0.7-0.1-1.2
				c0-0.4,0-0.9,0-1.4s0-1,0-1.4s0-0.8,0.1-1.2c0.1-0.3,0.2-0.7,0.3-1s0.3-0.6,0.6-0.8c0.3-0.4,0.7-0.7,1.2-0.9
				c0.4-0.2,0.9-0.3,1.4-0.3s1,0.1,1.4,0.3s0.8,0.5,1.2,0.9c0.2,0.3,0.4,0.5,0.6,0.8c0.1,0.3,0.2,0.6,0.3,1s0.1,0.7,0.1,1.2
				c0,0.4,0,0.9,0,1.4S425.9,41.9,425.9,42.3z M424.4,39.5c0-0.4,0-0.7-0.1-0.9c0-0.2-0.1-0.5-0.2-0.6c-0.1-0.2-0.2-0.3-0.3-0.5
				c-0.2-0.2-0.4-0.4-0.6-0.5c-0.3-0.1-0.5-0.2-0.8-0.2s-0.6,0.1-0.8,0.2c-0.3,0.1-0.5,0.3-0.6,0.5c-0.1,0.1-0.2,0.3-0.3,0.5
				c-0.1,0.2-0.1,0.4-0.2,0.6c0,0.2-0.1,0.6-0.1,0.9s0,0.8,0,1.4s0,1,0,1.4s0,0.7,0.1,0.9c0,0.2,0.1,0.5,0.2,0.6
				c0.1,0.2,0.2,0.3,0.3,0.5c0.2,0.2,0.4,0.4,0.6,0.5c0.3,0.1,0.5,0.2,0.8,0.2s0.6-0.1,0.8-0.2c0.3-0.1,0.5-0.3,0.6-0.5
				c0.1-0.1,0.2-0.3,0.3-0.5c0.1-0.2,0.1-0.4,0.2-0.6c0-0.2,0.1-0.6,0.1-0.9c0-0.4,0-0.8,0-1.4S424.4,39.9,424.4,39.5z"/>
			<path d="M434.7,46.4l-4.6-7.7v7.7h-1.5V35.5h1.4l4.6,7.6v-7.6h1.5v10.9H434.7z"/>
			<path d="M444.8,46.4l-0.7-2.2h-3.9l-0.7,2.2h-1.6l3.6-10.9h1.2l3.6,10.9H444.8z M442.2,37.9l-1.5,4.8h3L442.2,37.9z"/>
			<path d="M448.3,46.4V35.5h1.5v9.4h4.8v1.5H448.3z"/>
		</g>
		<g>
			<path d="M264.5,92.7V81.8h1.5v10.9C266,92.7,264.5,92.7,264.5,92.7z"/>
			<path d="M275.2,92.7l-4.6-7.7v7.7h-1.5V81.8h1.4l4.6,7.6v-7.6h1.5v10.9C276.6,92.7,275.2,92.7,275.2,92.7z"/>
			<path d="M286.4,88.7c0,0.4,0,0.8-0.1,1.2c-0.1,0.3-0.1,0.7-0.3,1c-0.1,0.3-0.3,0.6-0.6,0.8c-0.3,0.4-0.7,0.7-1.2,0.9
				c-0.4,0.2-0.9,0.3-1.4,0.3s-1-0.1-1.4-0.3c-0.4-0.2-0.8-0.5-1.2-0.9c-0.2-0.3-0.4-0.5-0.6-0.8c-0.1-0.3-0.2-0.6-0.3-1
				c-0.1-0.3-0.1-0.7-0.1-1.2s0-0.9,0-1.4s0-1,0-1.4s0-0.8,0.1-1.2c0.1-0.3,0.2-0.7,0.3-1c0.1-0.3,0.3-0.6,0.6-0.8
				c0.3-0.4,0.7-0.7,1.2-0.9c0.4-0.2,0.9-0.3,1.4-0.3s1,0.1,1.4,0.3c0.4,0.2,0.8,0.5,1.2,0.9c0.2,0.3,0.4,0.5,0.6,0.8
				c0.1,0.3,0.2,0.6,0.3,1c0.1,0.3,0.1,0.7,0.1,1.2s0,0.9,0,1.4S286.4,88.3,286.4,88.7z M284.8,85.9c0-0.4,0-0.7-0.1-0.9
				c0-0.2-0.1-0.5-0.2-0.6s-0.2-0.3-0.3-0.5c-0.2-0.2-0.4-0.4-0.6-0.5c-0.3-0.1-0.5-0.2-0.8-0.2s-0.6,0.1-0.8,0.2
				c-0.3,0.1-0.5,0.3-0.6,0.5c-0.1,0.1-0.2,0.3-0.3,0.5s-0.1,0.4-0.2,0.6c0,0.2-0.1,0.6-0.1,0.9s0,0.8,0,1.4s0,1,0,1.4
				s0,0.7,0.1,0.9c0,0.2,0.1,0.5,0.2,0.6s0.2,0.3,0.3,0.5c0.2,0.2,0.4,0.4,0.6,0.5c0.3,0.1,0.5,0.2,0.8,0.2s0.6-0.1,0.8-0.2
				c0.3-0.1,0.5-0.3,0.6-0.5c0.1-0.1,0.2-0.3,0.3-0.5s0.1-0.4,0.2-0.6c0-0.2,0.1-0.6,0.1-0.9c0-0.4,0-0.8,0-1.4
				S284.9,86.3,284.8,85.9z"/>
			<path d="M295.4,90.9c-0.2,0.4-0.5,0.8-0.8,1.1s-0.7,0.5-1.1,0.6s-0.8,0.2-1.3,0.2s-1-0.1-1.4-0.3c-0.4-0.2-0.8-0.5-1.2-0.9
				c-0.2-0.3-0.4-0.5-0.6-0.8c-0.1-0.3-0.2-0.6-0.3-1c-0.1-0.3-0.1-0.7-0.1-1.2s0-0.9,0-1.4s0-1,0-1.4s0-0.8,0.1-1.2
				c0.1-0.3,0.2-0.7,0.3-1c0.1-0.3,0.3-0.6,0.6-0.8c0.3-0.4,0.7-0.7,1.2-0.9c0.4-0.2,0.9-0.3,1.4-0.3c0.9,0,1.7,0.3,2.3,0.9
				c0.6,0.6,1,1.4,1.2,2.5h-1.5c-0.1-0.5-0.3-1-0.7-1.3c-0.3-0.3-0.8-0.5-1.3-0.5c-0.3,0-0.6,0.1-0.8,0.2c-0.2,0.1-0.5,0.3-0.6,0.5
				c-0.1,0.1-0.2,0.3-0.3,0.5s-0.1,0.4-0.2,0.6c0,0.2-0.1,0.6-0.1,0.9c0,0.4,0,0.8,0,1.4s0,1,0,1.4s0,0.7,0.1,0.9
				c0,0.2,0.1,0.5,0.2,0.6s0.2,0.3,0.3,0.5c0.2,0.2,0.4,0.4,0.6,0.5s0.5,0.2,0.8,0.2c0.6,0,1-0.2,1.3-0.5s0.6-0.8,0.7-1.3h1.5
				C295.7,90,295.6,90.5,295.4,90.9z"/>
			<path d="M305,90.6c-0.2,0.5-0.4,0.9-0.8,1.2c-0.3,0.3-0.7,0.6-1.1,0.8c-0.4,0.2-0.9,0.3-1.4,0.3s-1-0.1-1.4-0.3
				c-0.4-0.2-0.8-0.4-1.1-0.8c-0.3-0.3-0.6-0.7-0.7-1.2c-0.2-0.5-0.3-1-0.3-1.5v-7.2h1.5V89c0,0.7,0.2,1.3,0.6,1.7
				c0.4,0.4,0.9,0.6,1.5,0.6s1.1-0.2,1.5-0.6s0.6-1,0.6-1.7v-7.1h1.5v7.2C305.2,89.6,305.1,90.1,305,90.6z"/>
			<path d="M308.1,92.7V81.8h1.5v10.9C309.6,92.7,308.1,92.7,308.1,92.7z"/>
			<path d="M319.7,88.4c0,0.4,0,0.8-0.1,1.2c-0.1,0.4-0.2,0.8-0.3,1.1c-0.1,0.4-0.3,0.7-0.6,1c-0.3,0.3-0.7,0.6-1.1,0.8
				s-0.9,0.3-1.4,0.3h-3.5v-11h3.5c0.5,0,1,0.1,1.4,0.3s0.8,0.4,1.1,0.8c0.3,0.3,0.5,0.6,0.6,1c0.1,0.3,0.2,0.7,0.3,1.1
				c0.1,0.4,0.1,0.8,0.1,1.1c0,0.4,0,0.8,0,1.2S319.7,88,319.7,88.4z M318.2,85.3c0-0.5-0.2-0.9-0.5-1.2c-0.4-0.5-1-0.7-1.7-0.7
				h-1.8v7.9h1.8c0.7,0,1.3-0.2,1.7-0.7c0.3-0.3,0.4-0.8,0.5-1.3c0-0.6,0.1-1.2,0.1-2S318.2,85.8,318.2,85.3z"/>
			<path d="M328,92.7l-0.7-2.2h-3.9l-0.7,2.2h-1.6l3.6-10.9h1.2l3.6,10.9H328z M325.4,84.3l-1.5,4.8h3L325.4,84.3z"/>
			<path d="M338.5,88.4c0,0.4,0,0.8-0.1,1.2s-0.2,0.8-0.3,1.1s-0.3,0.7-0.6,1c-0.3,0.3-0.7,0.6-1.1,0.8c-0.4,0.2-0.9,0.3-1.4,0.3
				h-3.5v-11h3.5c0.5,0,1,0.1,1.4,0.3c0.4,0.2,0.8,0.4,1.1,0.8c0.3,0.3,0.5,0.6,0.6,1s0.2,0.7,0.3,1.1s0.1,0.8,0.1,1.1
				c0,0.4,0,0.8,0,1.2S338.5,88,338.5,88.4z M336.9,85.3c0-0.5-0.2-0.9-0.5-1.2c-0.4-0.5-1-0.7-1.7-0.7H333v7.9h1.8
				c0.7,0,1.3-0.2,1.7-0.7c0.3-0.3,0.4-0.8,0.5-1.3c0-0.6,0.1-1.2,0.1-2S337,85.8,336.9,85.3z"/>
			<path d="M352.3,92.7v-7.3l-2.3,5.3h-1.1l-2.3-5.3v7.3H345V81.8h1.5l2.9,6.8l2.8-6.8h1.5v10.9C353.7,92.7,352.3,92.7,352.3,92.7z"
				/>
			<path d="M356.8,92.7V81.8h1.5v10.9C358.3,92.7,356.8,92.7,356.8,92.7z"/>
			<path d="M367.7,90.9c-0.2,0.4-0.5,0.8-0.8,1.1s-0.7,0.5-1.1,0.6s-0.8,0.2-1.3,0.2s-1-0.1-1.4-0.3c-0.4-0.2-0.8-0.5-1.2-0.9
				c-0.2-0.3-0.4-0.5-0.6-0.8c-0.1-0.3-0.2-0.6-0.3-1c-0.1-0.3-0.1-0.7-0.1-1.2c0-0.4,0-0.9,0-1.4s0-1,0-1.4s0-0.8,0.1-1.2
				c0.1-0.3,0.2-0.7,0.3-1c0.1-0.3,0.3-0.6,0.6-0.8c0.3-0.4,0.7-0.7,1.2-0.9c0.4-0.2,0.9-0.3,1.4-0.3c0.9,0,1.7,0.3,2.3,0.9
				s1,1.4,1.2,2.5h-1.5c-0.1-0.5-0.3-1-0.7-1.3c-0.3-0.3-0.8-0.5-1.3-0.5c-0.3,0-0.6,0.1-0.8,0.2c-0.2,0.1-0.5,0.3-0.6,0.5
				c-0.1,0.1-0.2,0.3-0.3,0.5c-0.1,0.2-0.1,0.4-0.2,0.6c0,0.2-0.1,0.6-0.1,0.9c0,0.4,0,0.8,0,1.4s0,1,0,1.4s0,0.7,0.1,0.9
				c0,0.2,0.1,0.5,0.2,0.6c0.1,0.2,0.2,0.3,0.3,0.5c0.2,0.2,0.4,0.4,0.6,0.5s0.5,0.2,0.8,0.2c0.6,0,1-0.2,1.3-0.5s0.6-0.8,0.7-1.3
				h1.5C368,90,367.9,90.5,367.7,90.9z"/>
			<path d="M376,92.7l-2.1-4.6H372v4.6h-1.5V81.8h3.8c0.5,0,0.9,0.1,1.3,0.2c0.4,0.2,0.7,0.4,1,0.7s0.5,0.6,0.6,1s0.2,0.8,0.2,1.3
				c0,0.8-0.2,1.4-0.6,1.9s-0.8,0.8-1.4,1l2.3,4.8C377.7,92.7,376,92.7,376,92.7z M375.5,83.8c-0.3-0.3-0.7-0.5-1.2-0.5h-2.2v3.4
				h2.2c0.5,0,0.9-0.1,1.2-0.4s0.5-0.7,0.5-1.3C376,84.5,375.8,84.1,375.5,83.8z"/>
			<path d="M386.9,88.7c0,0.4,0,0.8-0.1,1.2c-0.1,0.3-0.1,0.7-0.3,1c-0.1,0.3-0.3,0.6-0.6,0.8c-0.3,0.4-0.7,0.7-1.2,0.9
				c-0.4,0.2-0.9,0.3-1.4,0.3s-1-0.1-1.4-0.3c-0.4-0.2-0.8-0.5-1.2-0.9c-0.2-0.3-0.4-0.5-0.6-0.8c-0.1-0.3-0.2-0.6-0.3-1
				c-0.1-0.3-0.1-0.7-0.1-1.2c0-0.4,0-0.9,0-1.4s0-1,0-1.4s0-0.8,0.1-1.2c0.1-0.3,0.2-0.7,0.3-1c0.1-0.3,0.3-0.6,0.6-0.8
				c0.3-0.4,0.7-0.7,1.2-0.9c0.4-0.2,0.9-0.3,1.4-0.3s1,0.1,1.4,0.3c0.4,0.2,0.8,0.5,1.2,0.9c0.2,0.3,0.4,0.5,0.6,0.8
				c0.1,0.3,0.2,0.6,0.3,1c0.1,0.3,0.1,0.7,0.1,1.2c0,0.4,0,0.9,0,1.4S386.9,88.3,386.9,88.7z M385.4,85.9c0-0.4,0-0.7-0.1-0.9
				c0-0.2-0.1-0.5-0.2-0.6c-0.1-0.2-0.2-0.3-0.3-0.5c-0.2-0.2-0.4-0.4-0.6-0.5c-0.3-0.1-0.5-0.2-0.8-0.2s-0.6,0.1-0.8,0.2
				s-0.5,0.3-0.6,0.5c-0.1,0.1-0.2,0.3-0.3,0.5c-0.1,0.2-0.1,0.4-0.2,0.6c0,0.2-0.1,0.6-0.1,0.9s0,0.8,0,1.4s0,1,0,1.4
				s0,0.7,0.1,0.9c0,0.2,0.1,0.5,0.2,0.6c0.1,0.2,0.2,0.3,0.3,0.5c0.2,0.2,0.4,0.4,0.6,0.5s0.5,0.2,0.8,0.2s0.6-0.1,0.8-0.2
				c0.3-0.1,0.5-0.3,0.6-0.5c0.1-0.1,0.2-0.3,0.3-0.5c0.1-0.2,0.1-0.4,0.2-0.6c0-0.2,0.1-0.6,0.1-0.9s0-0.8,0-1.4
				S385.4,86.3,385.4,85.9z"/>
			<path d="M396.4,91c-0.1,0.4-0.4,0.7-0.6,1c-0.3,0.3-0.6,0.5-0.9,0.6c-0.4,0.1-0.8,0.2-1.2,0.2h-4v-11h3.8c0.9,0,1.7,0.3,2.2,0.8
				s0.8,1.3,0.8,2.2c0,0.3,0,0.6-0.1,0.8c-0.1,0.2-0.2,0.5-0.3,0.7c-0.1,0.2-0.3,0.4-0.4,0.5c-0.2,0.1-0.3,0.2-0.5,0.3
				c0.2,0.1,0.4,0.2,0.6,0.3c0.2,0.1,0.3,0.3,0.5,0.5c0.1,0.2,0.2,0.4,0.3,0.7c0.1,0.3,0.1,0.6,0.1,0.9
				C396.6,90.2,396.5,90.6,396.4,91z M394.5,83.7c-0.3-0.3-0.7-0.4-1.2-0.4h-2.2v3.1h2.2c0.5,0,0.9-0.1,1.2-0.4
				c0.3-0.3,0.4-0.7,0.4-1.2C395,84.4,394.8,84,394.5,83.7z M394.7,88.4c-0.3-0.3-0.7-0.5-1.2-0.5h-2.4v3.3h2.4
				c0.5,0,0.9-0.2,1.2-0.5c0.3-0.3,0.4-0.7,0.4-1.2C395.1,89.1,395,88.7,394.7,88.4z"/>
			<path d="M399.3,92.7V81.8h1.5v10.9C400.8,92.7,399.3,92.7,399.3,92.7z"/>
			<path d="M410.6,88.7c0,0.4,0,0.8-0.1,1.2c-0.1,0.3-0.1,0.7-0.3,1c-0.1,0.3-0.3,0.6-0.6,0.8c-0.3,0.4-0.7,0.7-1.2,0.9
				c-0.4,0.2-0.9,0.3-1.4,0.3s-1-0.1-1.4-0.3c-0.4-0.2-0.8-0.5-1.2-0.9c-0.2-0.3-0.4-0.5-0.6-0.8c-0.1-0.3-0.2-0.6-0.3-1
				c-0.1-0.3-0.1-0.7-0.1-1.2c0-0.4,0-0.9,0-1.4s0-1,0-1.4s0-0.8,0.1-1.2c0.1-0.3,0.2-0.7,0.3-1c0.1-0.3,0.3-0.6,0.6-0.8
				c0.3-0.4,0.7-0.7,1.2-0.9c0.4-0.2,0.9-0.3,1.4-0.3s1,0.1,1.4,0.3c0.4,0.2,0.8,0.5,1.2,0.9c0.2,0.3,0.4,0.5,0.6,0.8
				c0.1,0.3,0.2,0.6,0.3,1c0.1,0.3,0.1,0.7,0.1,1.2c0,0.4,0,0.9,0,1.4S410.6,88.3,410.6,88.7z M409.1,85.9c0-0.4,0-0.7-0.1-0.9
				c0-0.2-0.1-0.5-0.2-0.6c-0.1-0.2-0.2-0.3-0.3-0.5c-0.2-0.2-0.4-0.4-0.6-0.5c-0.3-0.1-0.5-0.2-0.8-0.2s-0.6,0.1-0.8,0.2
				s-0.5,0.3-0.6,0.5c-0.1,0.1-0.2,0.3-0.3,0.5c-0.1,0.2-0.1,0.4-0.2,0.6c0,0.2-0.1,0.6-0.1,0.9s0,0.8,0,1.4s0,1,0,1.4
				s0,0.7,0.1,0.9c0,0.2,0.1,0.5,0.2,0.6c0.1,0.2,0.2,0.3,0.3,0.5c0.2,0.2,0.4,0.4,0.6,0.5s0.5,0.2,0.8,0.2s0.6-0.1,0.8-0.2
				c0.3-0.1,0.5-0.3,0.6-0.5c0.1-0.1,0.2-0.3,0.3-0.5c0.1-0.2,0.1-0.4,0.2-0.6c0-0.2,0.1-0.6,0.1-0.9s0-0.8,0-1.4
				S409.1,86.3,409.1,85.9z"/>
			<path d="M413.3,92.7V81.8h1.5v9.4h4.8v1.5C419.6,92.7,413.3,92.7,413.3,92.7z"/>
			<path d="M428.1,88.7c0,0.4,0,0.8-0.1,1.2c-0.1,0.3-0.1,0.7-0.3,1c-0.1,0.3-0.3,0.6-0.6,0.8c-0.3,0.4-0.7,0.7-1.2,0.9
				c-0.4,0.2-0.9,0.3-1.4,0.3s-1-0.1-1.4-0.3c-0.4-0.2-0.8-0.5-1.2-0.9c-0.2-0.3-0.4-0.5-0.6-0.8c-0.1-0.3-0.2-0.6-0.3-1
				c-0.1-0.3-0.1-0.7-0.1-1.2c0-0.4,0-0.9,0-1.4s0-1,0-1.4s0-0.8,0.1-1.2c0.1-0.3,0.2-0.7,0.3-1c0.1-0.3,0.3-0.6,0.6-0.8
				c0.3-0.4,0.7-0.7,1.2-0.9c0.4-0.2,0.9-0.3,1.4-0.3s1,0.1,1.4,0.3c0.4,0.2,0.8,0.5,1.2,0.9c0.2,0.3,0.4,0.5,0.6,0.8
				c0.1,0.3,0.2,0.6,0.3,1c0.1,0.3,0.1,0.7,0.1,1.2c0,0.4,0,0.9,0,1.4S428.1,88.3,428.1,88.7z M426.6,85.9c0-0.4,0-0.7-0.1-0.9
				c0-0.2-0.1-0.5-0.2-0.6c-0.1-0.2-0.2-0.3-0.3-0.5c-0.2-0.2-0.4-0.4-0.6-0.5c-0.3-0.1-0.5-0.2-0.8-0.2s-0.6,0.1-0.8,0.2
				s-0.5,0.3-0.6,0.5c-0.1,0.1-0.2,0.3-0.3,0.5c-0.1,0.2-0.1,0.4-0.2,0.6c0,0.2-0.1,0.6-0.1,0.9s0,0.8,0,1.4s0,1,0,1.4
				s0,0.7,0.1,0.9c0,0.2,0.1,0.5,0.2,0.6c0.1,0.2,0.2,0.3,0.3,0.5c0.2,0.2,0.4,0.4,0.6,0.5s0.5,0.2,0.8,0.2s0.6-0.1,0.8-0.2
				c0.3-0.1,0.5-0.3,0.6-0.5c0.1-0.1,0.2-0.3,0.3-0.5c0.1-0.2,0.1-0.4,0.2-0.6c0-0.2,0.1-0.6,0.1-0.9s0-0.8,0-1.4
				S426.6,86.3,426.6,85.9z M424.9,80.8h-1.1l1-2.5h1.6L424.9,80.8z"/>
			<path d="M437.5,90.3c-0.1,0.5-0.4,0.9-0.7,1.3c-0.4,0.4-0.8,0.8-1.2,0.9c-0.5,0.2-0.9,0.3-1.5,0.3c-0.5,0-1-0.1-1.4-0.3
				c-0.4-0.2-0.8-0.5-1.2-0.9c-0.2-0.3-0.4-0.5-0.6-0.8c-0.1-0.3-0.2-0.6-0.3-1c-0.1-0.3-0.1-0.7-0.1-1.2c0-0.4,0-0.9,0-1.4
				s0-1,0-1.4s0-0.8,0.1-1.2c0.1-0.3,0.2-0.7,0.3-1c0.1-0.3,0.3-0.6,0.6-0.8c0.3-0.4,0.7-0.7,1.2-0.9c0.4-0.2,0.9-0.3,1.4-0.3
				s1,0.1,1.4,0.3s0.8,0.4,1.1,0.7s0.5,0.7,0.7,1.1s0.3,0.8,0.4,1.3h-1.5c-0.1-0.6-0.4-1.1-0.7-1.4s-0.8-0.5-1.4-0.5
				c-0.3,0-0.6,0.1-0.8,0.2s-0.5,0.3-0.6,0.5c-0.1,0.1-0.2,0.3-0.3,0.5c-0.1,0.2-0.1,0.4-0.2,0.6c0,0.2-0.1,0.6-0.1,0.9s0,0.8,0,1.4
				s0,1,0,1.4s0,0.7,0.1,0.9c0,0.2,0.1,0.5,0.2,0.6c0.1,0.2,0.2,0.3,0.3,0.5c0.2,0.2,0.4,0.4,0.6,0.5s0.5,0.2,0.8,0.2
				s0.6-0.1,0.9-0.2s0.5-0.3,0.7-0.6c0.2-0.2,0.3-0.5,0.4-0.8s0.1-0.6,0.1-0.9v-0.6H434v-1.4h3.6v1.7
				C437.7,89.2,437.6,89.8,437.5,90.3z"/>
			<path d="M440.4,92.7V81.8h1.5v10.9C441.9,92.7,440.4,92.7,440.4,92.7z"/>
			<path d="M451.2,90.9c-0.2,0.4-0.5,0.8-0.8,1.1s-0.7,0.5-1.1,0.6s-0.8,0.2-1.3,0.2s-1-0.1-1.4-0.3c-0.4-0.2-0.8-0.5-1.2-0.9
				c-0.2-0.3-0.4-0.5-0.6-0.8c-0.1-0.3-0.2-0.6-0.3-1c-0.1-0.3-0.1-0.7-0.1-1.2c0-0.4,0-0.9,0-1.4s0-1,0-1.4s0-0.8,0.1-1.2
				c0.1-0.3,0.2-0.7,0.3-1c0.1-0.3,0.3-0.6,0.6-0.8c0.3-0.4,0.7-0.7,1.2-0.9c0.4-0.2,0.9-0.3,1.4-0.3c0.9,0,1.7,0.3,2.3,0.9
				s1,1.4,1.2,2.5H450c-0.1-0.5-0.3-1-0.7-1.3c-0.3-0.3-0.8-0.5-1.3-0.5c-0.3,0-0.6,0.1-0.8,0.2c-0.2,0.1-0.5,0.3-0.6,0.5
				c-0.1,0.1-0.2,0.3-0.3,0.5c-0.1,0.2-0.1,0.4-0.2,0.6c0,0.2-0.1,0.6-0.1,0.9c0,0.4,0,0.8,0,1.4s0,1,0,1.4s0,0.7,0.1,0.9
				c0,0.2,0.1,0.5,0.2,0.6c0.1,0.2,0.2,0.3,0.3,0.5c0.2,0.2,0.4,0.4,0.6,0.5s0.5,0.2,0.8,0.2c0.6,0,1-0.2,1.3-0.5s0.6-0.8,0.7-1.3
				h1.5C451.6,90,451.4,90.5,451.2,90.9z"/>
			<path d="M459.7,92.7l-0.7-2.2h-3.9l-0.7,2.2h-1.6l3.6-10.9h1.2l3.6,10.9H459.7z M457.1,84.3l-1.5,4.8h3L457.1,84.3z"/>
		</g>
		<g>
			<path d="M269.3,132.7c-0.1,0.4-0.4,0.7-0.6,1s-0.6,0.5-1,0.7s-0.8,0.3-1.3,0.3h-2.2v4.3h-1.5v-10.9h3.7c0.5,0,0.9,0.1,1.3,0.3
				s0.7,0.4,1,0.7s0.5,0.6,0.6,1s0.2,0.8,0.2,1.3C269.5,131.9,269.5,132.3,269.3,132.7z M267.6,130.1c-0.3-0.3-0.7-0.5-1.3-0.5h-2.2
				v3.6h2.2c0.5,0,1-0.2,1.3-0.5s0.5-0.8,0.5-1.3C268,130.8,267.9,130.4,267.6,130.1z"/>
			<path d="M277.3,139l-2.1-4.6h-1.9v4.6h-1.5v-10.9h3.8c0.5,0,0.9,0.1,1.3,0.2c0.4,0.2,0.7,0.4,1,0.7s0.5,0.6,0.6,1
				s0.2,0.8,0.2,1.3c0,0.8-0.2,1.4-0.6,1.9s-0.8,0.8-1.4,1l2.3,4.8H277.3z M276.8,130c-0.3-0.3-0.7-0.5-1.2-0.5h-2.2v3.4h2.2
				c0.5,0,0.9-0.1,1.2-0.4s0.5-0.7,0.5-1.3C277.3,130.8,277.1,130.4,276.8,130z"/>
			<path d="M288.2,135c0,0.4,0,0.8-0.1,1.2c-0.1,0.3-0.1,0.7-0.3,1c-0.1,0.3-0.3,0.6-0.6,0.8c-0.3,0.4-0.7,0.7-1.2,0.9
				c-0.4,0.2-0.9,0.3-1.4,0.3s-1-0.1-1.4-0.3s-0.8-0.5-1.2-0.9c-0.2-0.3-0.4-0.5-0.6-0.8c-0.1-0.3-0.2-0.6-0.3-1
				c-0.1-0.3-0.1-0.7-0.1-1.2s0-0.9,0-1.4s0-1,0-1.4s0-0.8,0.1-1.2c0.1-0.3,0.2-0.7,0.3-1c0.1-0.3,0.3-0.6,0.6-0.8
				c0.3-0.4,0.7-0.7,1.2-0.9c0.4-0.2,0.9-0.3,1.4-0.3s1,0.1,1.4,0.3s0.8,0.5,1.2,0.9c0.2,0.3,0.4,0.5,0.6,0.8c0.1,0.3,0.2,0.6,0.3,1
				c0.1,0.3,0.1,0.7,0.1,1.2s0,0.9,0,1.4S288.2,134.5,288.2,135z M286.7,132.2c0-0.4,0-0.7-0.1-0.9c0-0.2-0.1-0.5-0.2-0.6
				s-0.2-0.3-0.3-0.5c-0.2-0.2-0.4-0.4-0.6-0.5c-0.3-0.1-0.5-0.2-0.8-0.2s-0.6,0.1-0.8,0.2c-0.3,0.1-0.5,0.3-0.6,0.5
				c-0.1,0.1-0.2,0.3-0.3,0.5s-0.1,0.4-0.2,0.6c0,0.2-0.1,0.6-0.1,0.9s0,0.8,0,1.4s0,1,0,1.4s0,0.7,0.1,0.9c0,0.2,0.1,0.5,0.2,0.6
				s0.2,0.3,0.3,0.5c0.2,0.2,0.4,0.4,0.6,0.5c0.3,0.1,0.5,0.2,0.8,0.2s0.6-0.1,0.8-0.2c0.3-0.1,0.5-0.3,0.6-0.5
				c0.1-0.1,0.2-0.3,0.3-0.5s0.1-0.4,0.2-0.6c0-0.2,0.1-0.6,0.1-0.9c0-0.4,0-0.8,0-1.4S286.7,132.5,286.7,132.2z"/>
			<path d="M297.2,137.2c-0.2,0.4-0.5,0.8-0.8,1.1s-0.7,0.5-1.1,0.6s-0.8,0.2-1.3,0.2s-1-0.1-1.4-0.3s-0.8-0.5-1.2-0.9
				c-0.2-0.3-0.4-0.5-0.6-0.8c-0.1-0.3-0.2-0.6-0.3-1c-0.1-0.3-0.1-0.7-0.1-1.2s0-0.9,0-1.4s0-1,0-1.4s0-0.8,0.1-1.2
				c0.1-0.3,0.2-0.7,0.3-1c0.1-0.3,0.3-0.6,0.6-0.8c0.3-0.4,0.7-0.7,1.2-0.9c0.4-0.2,0.9-0.3,1.4-0.3c0.9,0,1.7,0.3,2.3,0.9
				c0.6,0.6,1,1.4,1.2,2.5H296c-0.1-0.5-0.3-1-0.7-1.3c-0.3-0.3-0.8-0.5-1.3-0.5c-0.3,0-0.6,0.1-0.8,0.2c-0.2,0.1-0.5,0.3-0.6,0.5
				c-0.1,0.1-0.2,0.3-0.3,0.5s-0.1,0.4-0.2,0.6c0,0.2-0.1,0.6-0.1,0.9c0,0.4,0,0.8,0,1.4s0,1,0,1.4s0,0.7,0.1,0.9
				c0,0.2,0.1,0.5,0.2,0.6s0.2,0.3,0.3,0.5c0.2,0.2,0.4,0.4,0.6,0.5s0.5,0.2,0.8,0.2c0.6,0,1-0.2,1.3-0.5s0.6-0.8,0.7-1.3h1.5
				C297.5,136.3,297.4,136.8,297.2,137.2z"/>
			<path d="M300.1,139v-10.9h6.3v1.5h-4.8v3.2h4.1v1.5h-4.1v3.3h4.8v1.5h-6.3V139z"/>
			<path d="M314.9,137.2c-0.2,0.4-0.4,0.7-0.7,1c-0.3,0.3-0.7,0.5-1.1,0.6s-0.9,0.2-1.4,0.2c-0.8,0-1.4-0.1-2-0.3s-1.1-0.6-1.5-1.1
				l1-1.1c0.4,0.4,0.7,0.7,1.2,0.8c0.4,0.1,0.9,0.2,1.4,0.2c0.6,0,1.1-0.1,1.5-0.4c0.4-0.3,0.5-0.7,0.5-1.2s-0.1-0.9-0.4-1.1
				c-0.1-0.1-0.3-0.2-0.4-0.3s-0.4-0.1-0.7-0.2l-1.2-0.2c-0.8-0.1-1.4-0.4-1.9-0.9s-0.7-1.2-0.7-2.1c0-0.5,0.1-0.9,0.2-1.3
				c0.2-0.4,0.4-0.7,0.7-1c0.3-0.3,0.6-0.5,1-0.7s0.9-0.2,1.4-0.2c0.7,0,1.2,0.1,1.7,0.3c0.5,0.2,0.9,0.5,1.4,0.9l-1,1
				c-0.3-0.3-0.6-0.5-1-0.7c-0.4-0.1-0.7-0.2-1.2-0.2c-0.6,0-1,0.2-1.3,0.5s-0.5,0.7-0.5,1.2c0,0.2,0,0.4,0.1,0.6s0.2,0.3,0.3,0.5
				c0.3,0.3,0.6,0.4,1.1,0.5l1.1,0.2c0.5,0.1,0.8,0.2,1.1,0.3c0.3,0.1,0.5,0.3,0.7,0.5c0.3,0.3,0.5,0.6,0.6,1s0.2,0.8,0.2,1.3
				C315.1,136.4,315.1,136.8,314.9,137.2z"/>
			<path d="M324.4,135c0,0.4,0,0.8-0.1,1.2c-0.1,0.3-0.1,0.7-0.3,1c-0.1,0.3-0.3,0.6-0.6,0.8c-0.3,0.4-0.7,0.7-1.2,0.9
				c-0.4,0.2-0.9,0.3-1.4,0.3s-1-0.1-1.4-0.3s-0.8-0.5-1.2-0.9c-0.2-0.3-0.4-0.5-0.6-0.8c-0.1-0.3-0.2-0.6-0.3-1
				c-0.1-0.3-0.1-0.7-0.1-1.2s0-0.9,0-1.4s0-1,0-1.4s0-0.8,0.1-1.2c0.1-0.3,0.2-0.7,0.3-1c0.1-0.3,0.3-0.6,0.6-0.8
				c0.3-0.4,0.7-0.7,1.2-0.9c0.4-0.2,0.9-0.3,1.4-0.3s1,0.1,1.4,0.3s0.8,0.5,1.2,0.9c0.2,0.3,0.4,0.5,0.6,0.8c0.1,0.3,0.2,0.6,0.3,1
				c0.1,0.3,0.1,0.7,0.1,1.2s0,0.9,0,1.4S324.4,134.5,324.4,135z M322.9,132.2c0-0.4,0-0.7-0.1-0.9c0-0.2-0.1-0.5-0.2-0.6
				s-0.2-0.3-0.3-0.5c-0.2-0.2-0.4-0.4-0.6-0.5c-0.3-0.1-0.5-0.2-0.8-0.2s-0.6,0.1-0.8,0.2c-0.3,0.1-0.5,0.3-0.6,0.5
				c-0.1,0.1-0.2,0.3-0.3,0.5s-0.1,0.4-0.2,0.6c0,0.2-0.1,0.6-0.1,0.9s0,0.8,0,1.4s0,1,0,1.4s0,0.7,0.1,0.9c0,0.2,0.1,0.5,0.2,0.6
				s0.2,0.3,0.3,0.5c0.2,0.2,0.4,0.4,0.6,0.5c0.3,0.1,0.5,0.2,0.8,0.2s0.6-0.1,0.8-0.2c0.3-0.1,0.5-0.3,0.6-0.5
				c0.1-0.1,0.2-0.3,0.3-0.5s0.1-0.4,0.2-0.6c0-0.2,0.1-0.6,0.1-0.9c0-0.4,0-0.8,0-1.4S322.9,132.5,322.9,132.2z"/>
			<path d="M333,137.2c-0.2,0.4-0.4,0.7-0.7,1c-0.3,0.3-0.7,0.5-1.1,0.6s-0.9,0.2-1.4,0.2c-0.8,0-1.4-0.1-2-0.3s-1.1-0.6-1.5-1.1
				l1-1.1c0.4,0.4,0.7,0.7,1.2,0.8c0.4,0.1,0.9,0.2,1.4,0.2c0.6,0,1.2-0.1,1.5-0.4c0.4-0.3,0.5-0.7,0.5-1.2s-0.1-0.9-0.4-1.1
				c-0.1-0.1-0.3-0.2-0.4-0.3s-0.4-0.1-0.7-0.2l-1.2-0.2c-0.8-0.1-1.4-0.4-1.9-0.9s-0.7-1.2-0.7-2.1c0-0.5,0.1-0.9,0.2-1.3
				c0.2-0.4,0.4-0.7,0.7-1c0.3-0.3,0.6-0.5,1-0.7s0.9-0.2,1.4-0.2c0.7,0,1.2,0.1,1.7,0.3c0.5,0.2,0.9,0.5,1.4,0.9l-1,1
				c-0.3-0.3-0.6-0.5-1-0.7c-0.4-0.1-0.7-0.2-1.2-0.2c-0.6,0-1,0.2-1.3,0.5s-0.5,0.7-0.5,1.2c0,0.2,0,0.4,0.1,0.6s0.2,0.3,0.3,0.5
				c0.3,0.3,0.6,0.4,1.1,0.5l1.1,0.2c0.5,0.1,0.8,0.2,1.1,0.3c0.3,0.1,0.5,0.3,0.7,0.5c0.3,0.3,0.5,0.6,0.6,1s0.2,0.8,0.2,1.3
				C333.3,136.4,333.2,136.8,333,137.2z"/>
			<path d="M345.3,139l-0.7-2.2h-3.9L340,139h-1.6l3.6-10.9h1.2l3.6,10.9H345.3z M342.7,130.6l-1.5,4.8h3L342.7,130.6z"/>
			<path d="M355.4,136.9c-0.2,0.5-0.4,0.9-0.8,1.2s-0.7,0.6-1.1,0.8s-0.9,0.3-1.4,0.3s-1-0.1-1.4-0.3s-0.8-0.4-1.1-0.8
				s-0.6-0.7-0.7-1.2c-0.2-0.5-0.3-1-0.3-1.5v-7.2h1.5v7.1c0,0.7,0.2,1.3,0.6,1.7s0.9,0.6,1.5,0.6s1.1-0.2,1.5-0.6
				c0.4-0.4,0.6-1,0.6-1.7v-7.1h1.5v7.2C355.7,135.9,355.6,136.4,355.4,136.9z"/>
			<path d="M365.6,134.7c0,0.4,0,0.8-0.1,1.2s-0.2,0.8-0.3,1.1s-0.3,0.7-0.6,1c-0.3,0.3-0.7,0.6-1.1,0.8s-0.9,0.3-1.4,0.3h-3.5
				v-10.9h3.5c0.5,0,1,0.1,1.4,0.3s0.8,0.4,1.1,0.8c0.3,0.3,0.5,0.6,0.6,1s0.2,0.7,0.3,1.1s0.1,0.8,0.1,1.1c0,0.4,0,0.8,0,1.2
				S365.6,134.3,365.6,134.7z M364.1,131.6c0-0.5-0.2-0.9-0.5-1.2c-0.4-0.5-1-0.7-1.7-0.7h-1.8v7.9h1.8c0.7,0,1.3-0.2,1.7-0.7
				c0.3-0.3,0.4-0.8,0.5-1.3c0-0.6,0.1-1.2,0.1-2S364.1,132.1,364.1,131.6z"/>
			<path d="M368.4,139v-10.9h1.5V139H368.4z"/>
			<path d="M376.3,129.6v9.4h-1.5v-9.4h-2.7v-1.5h6.9v1.5H376.3z"/>
			<path d="M386,139l-0.7-2.2h-3.9l-0.7,2.2h-1.6l3.6-10.9h1.2l3.6,10.9H386z M383.4,130.6l-1.5,4.8h3L383.4,130.6z"/>
			<path d="M396.5,134.7c0,0.4,0,0.8-0.1,1.2s-0.2,0.8-0.3,1.1s-0.3,0.7-0.6,1c-0.3,0.3-0.7,0.6-1.1,0.8s-0.9,0.3-1.4,0.3h-3.5
				v-10.9h3.5c0.5,0,1,0.1,1.4,0.3s0.8,0.4,1.1,0.8c0.3,0.3,0.5,0.6,0.6,1s0.2,0.7,0.3,1.1s0.1,0.8,0.1,1.1c0,0.4,0,0.8,0,1.2
				S396.5,134.3,396.5,134.7z M395,131.6c0-0.5-0.2-0.9-0.5-1.2c-0.4-0.5-1-0.7-1.7-0.7H391v7.9h1.8c0.7,0,1.3-0.2,1.7-0.7
				c0.3-0.3,0.4-0.8,0.5-1.3c0-0.6,0.1-1.2,0.1-2S395,132.1,395,131.6z"/>
			<path d="M406,135c0,0.4,0,0.8-0.1,1.2c-0.1,0.3-0.1,0.7-0.3,1c-0.1,0.3-0.3,0.6-0.6,0.8c-0.3,0.4-0.7,0.7-1.2,0.9
				c-0.4,0.2-0.9,0.3-1.4,0.3s-1-0.1-1.4-0.3s-0.8-0.5-1.2-0.9c-0.2-0.3-0.4-0.5-0.6-0.8c-0.1-0.3-0.2-0.6-0.3-1
				c-0.1-0.3-0.1-0.7-0.1-1.2c0-0.4,0-0.9,0-1.4s0-1,0-1.4s0-0.8,0.1-1.2c0.1-0.3,0.2-0.7,0.3-1c0.1-0.3,0.3-0.6,0.6-0.8
				c0.3-0.4,0.7-0.7,1.2-0.9c0.4-0.2,0.9-0.3,1.4-0.3s1,0.1,1.4,0.3s0.8,0.5,1.2,0.9c0.2,0.3,0.4,0.5,0.6,0.8c0.1,0.3,0.2,0.6,0.3,1
				c0.1,0.3,0.1,0.7,0.1,1.2c0,0.4,0,0.9,0,1.4S406,134.5,406,135z M404.5,132.2c0-0.4,0-0.7-0.1-0.9c0-0.2-0.1-0.5-0.2-0.6
				c-0.1-0.2-0.2-0.3-0.3-0.5c-0.2-0.2-0.4-0.4-0.6-0.5c-0.3-0.1-0.5-0.2-0.8-0.2s-0.6,0.1-0.8,0.2s-0.5,0.3-0.6,0.5
				c-0.1,0.1-0.2,0.3-0.3,0.5c-0.1,0.2-0.1,0.4-0.2,0.6c0,0.2-0.1,0.6-0.1,0.9s0,0.8,0,1.4s0,1,0,1.4s0,0.7,0.1,0.9
				c0,0.2,0.1,0.5,0.2,0.6c0.1,0.2,0.2,0.3,0.3,0.5c0.2,0.2,0.4,0.4,0.6,0.5s0.5,0.2,0.8,0.2s0.6-0.1,0.8-0.2
				c0.3-0.1,0.5-0.3,0.6-0.5c0.1-0.1,0.2-0.3,0.3-0.5c0.1-0.2,0.1-0.4,0.2-0.6c0-0.2,0.1-0.6,0.1-0.9s0-0.8,0-1.4
				S404.5,132.5,404.5,132.2z"/>
			<path d="M414.6,137.2c-0.2,0.4-0.4,0.7-0.7,1c-0.3,0.3-0.7,0.5-1.1,0.6s-0.9,0.2-1.4,0.2c-0.8,0-1.4-0.1-2-0.3s-1.1-0.6-1.5-1.1
				l1-1.1c0.4,0.4,0.7,0.7,1.2,0.8s0.9,0.2,1.4,0.2c0.6,0,1.2-0.1,1.5-0.4c0.4-0.3,0.5-0.7,0.5-1.2s-0.1-0.9-0.4-1.1
				c-0.1-0.1-0.3-0.2-0.4-0.3s-0.4-0.1-0.7-0.2l-1.2-0.2c-0.8-0.1-1.4-0.4-1.9-0.9s-0.7-1.2-0.7-2.1c0-0.5,0.1-0.9,0.2-1.3
				c0.2-0.4,0.4-0.7,0.7-1c0.3-0.3,0.6-0.5,1-0.7s0.9-0.2,1.4-0.2c0.7,0,1.2,0.1,1.7,0.3c0.5,0.2,0.9,0.5,1.4,0.9l-1,1
				c-0.3-0.3-0.6-0.5-1-0.7c-0.4-0.1-0.7-0.2-1.2-0.2c-0.6,0-1,0.2-1.3,0.5s-0.5,0.7-0.5,1.2c0,0.2,0,0.4,0.1,0.6
				c0.1,0.2,0.2,0.3,0.3,0.5c0.3,0.3,0.6,0.4,1.1,0.5l1.1,0.2c0.5,0.1,0.8,0.2,1.1,0.3c0.3,0.1,0.5,0.3,0.7,0.5
				c0.3,0.3,0.5,0.6,0.6,1s0.2,0.8,0.2,1.3C414.9,136.4,414.8,136.8,414.6,137.2z"/>
		</g>
		
			<linearGradient id="SVGID_7_" gradientUnits="userSpaceOnUse" x1="217.6877" y1="143.2365" x2="242.7656" y2="143.2365" gradientTransform="matrix(1 0 0 -1 0 184)">
			<stop  offset="2.480436e-03" style="stop-color:#AE9565"/>
			<stop  offset="0.5131" style="stop-color:#EED693"/>
			<stop  offset="1" style="stop-color:#B09778"/>
		</linearGradient>
		<path class="st3" d="M242.3,29.7c-0.6-0.5-1.5-0.5-2.1,0.1l-13.6,15l-6.4-5.3c-0.5-0.4-1.2-0.5-1.8-0.1c-0.7,0.5-0.8,1.4-0.4,2.1
			l6.7,9.5c0.2,0.3,0.4,0.5,0.7,0.7c1.3,0.9,3,0.5,3.8-0.7l0.1-0.2l13.2-19.3C242.9,31,242.8,30.2,242.3,29.7z"/>
		
			<linearGradient id="SVGID_8_" gradientUnits="userSpaceOnUse" x1="217.6877" y1="99.7365" x2="242.7656" y2="99.7365" gradientTransform="matrix(1 0 0 -1 0 184)">
			<stop  offset="2.480436e-03" style="stop-color:#AE9565"/>
			<stop  offset="0.5131" style="stop-color:#EED693"/>
			<stop  offset="1" style="stop-color:#B09778"/>
		</linearGradient>
		<path class="st4" d="M242.3,73.2c-0.6-0.5-1.5-0.5-2.1,0.1l-13.6,15l-6.4-5.3c-0.5-0.4-1.2-0.5-1.8-0.1c-0.7,0.5-0.8,1.4-0.4,2.1
			l6.7,9.5c0.2,0.3,0.4,0.5,0.7,0.7c1.3,0.9,3,0.5,3.8-0.7l0.1-0.2L242.5,75C242.9,74.6,242.8,73.7,242.3,73.2z"/>
		
			<linearGradient id="SVGID_9_" gradientUnits="userSpaceOnUse" x1="217.6877" y1="50.6365" x2="242.7656" y2="50.6365" gradientTransform="matrix(1 0 0 -1 0 184)">
			<stop  offset="2.480436e-03" style="stop-color:#AE9565"/>
			<stop  offset="0.5131" style="stop-color:#EED693"/>
			<stop  offset="1" style="stop-color:#B09778"/>
		</linearGradient>
		<path class="st5" d="M242.3,122.3c-0.6-0.5-1.5-0.5-2.1,0.1l-13.6,15l-6.4-5.3c-0.5-0.4-1.2-0.5-1.8-0.1c-0.7,0.5-0.8,1.4-0.4,2.1
			l6.7,9.5c0.2,0.3,0.4,0.5,0.7,0.7c1.3,0.9,3,0.5,3.8-0.7l0.1-0.2l13.2-19.3C242.9,123.7,242.8,122.8,242.3,122.3z"/>
		<g>
			<g>
				
					<linearGradient id="SVGID_10_" gradientUnits="userSpaceOnUse" x1="31.8035" y1="66.6024" x2="188.3965" y2="123.5976" gradientTransform="matrix(1 0 0 -1 0 184)">
					<stop  offset="0" style="stop-color:#D3B05E"/>
					<stop  offset="0.4081" style="stop-color:#F4F0A8"/>
					<stop  offset="0.7476" style="stop-color:#D3B05E"/>
					<stop  offset="0.952" style="stop-color:#886530"/>
				</linearGradient>
				<path class="st6" d="M193.4,88.9c0,46-37.3,83.3-83.3,83.3s-83.3-37.3-83.3-83.3S64.1,5.6,110.1,5.6
					C156.1,5.6,193.4,42.9,193.4,88.9z"/>
			</g>
			
				<linearGradient id="SVGID_11_" gradientUnits="userSpaceOnUse" x1="152.0895" y1="47.4671" x2="68.0146" y2="143.5866" gradientTransform="matrix(1 0 0 -1 0 184)">
				<stop  offset="0" style="stop-color:#D3B05E"/>
				<stop  offset="0.4081" style="stop-color:#F4F0A8"/>
				<stop  offset="0.7476" style="stop-color:#D3B05E"/>
				<stop  offset="0.952" style="stop-color:#886530"/>
			</linearGradient>
			<path class="st7" d="M173.8,88.7c0,35.1-28.4,63.5-63.5,63.5s-63.5-28.4-63.5-63.5s28.4-63.5,63.5-63.5
				C145.3,25.3,173.8,53.7,173.8,88.7z"/>
			<path class="st8" d="M171.3,88.6c0,33.7-27.3,61-61,61s-61-27.3-61-61s27.3-61,61-61C144,27.6,171.3,54.9,171.3,88.6z"/>
			<g>
				<g>
					<circle class="st9" cx="110.2" cy="88.9" r="46.7"/>
					<path class="st10" d="M110.2,42.2c-25.8,0-46.7,20.9-46.7,46.7c0,5.8,1.1,11.3,3,16.4H154c1.9-5.1,3-10.7,3-16.4
						C157,63.1,136,42.2,110.2,42.2z"/>
					<circle class="st8" cx="110.9" cy="63.4" r="12.6"/>
					<path class="st8" d="M98.2,103c0-0.1,0-0.1,0-0.2c0-7,5.4-12.6,12.1-12.6c0.1,0,0.1,0,0.2,0v-13c-0.1,0-0.1,0-0.2,0
						c-13.6,0-24.7,11.5-24.7,25.7c0,0.1,0,0.1,0,0.2L98.2,103L98.2,103z"/>
					<path class="st8" d="M122.9,77.4c0,0.1,0,0.1,0,0.2c0,7-5.4,12.6-12.1,12.6c-0.1,0-0.1,0-0.2,0v13.1c0.1,0,0.1,0,0.2,0
						c13.6,0,24.7-11.5,24.7-25.7c0-0.1,0-0.1,0-0.2C135.5,77.4,122.9,77.4,122.9,77.4z"/>
					<path class="st8" d="M127.5,72.1c1.3,1.4,1.6,3.2,1.6,3.2s-1.7-0.4-3-1.8s-1.6-3.2-1.6-3.2S126.2,70.7,127.5,72.1z"/>
					<path class="st8" d="M132.9,73.5c-1.3,1.4-3,1.8-3,1.8s0.4-1.8,1.7-3.2c1.3-1.4,3-1.8,3-1.8S134.2,72.2,132.9,73.5z"/>
					<path class="st8" d="M130.5,64.9c0,1.9-1,3.5-1,3.5s-1-1.6-1-3.5s1-3.5,1-3.5S130.5,63,130.5,64.9z"/>
					<polygon class="st8" points="125.4,65.9 129.5,69.8 133.6,66.1 129.5,71.9 					"/>
					<path class="st10" d="M86,112.8h5.9v11.6H86V112.8z M86,108.4h5.9v3.4H86V108.4z"/>
					<path class="st10" d="M93.6,116.4c0-2.4,0-3.1,0-3.6h5.8c0.1,0.2,0,0.8,0,1.1c0.7-0.6,2.3-1.3,4.8-1.3c3,0,5.3,1.7,5.3,3.6v8.2
						h-6v-6.8c0-0.9-0.3-1.5-1.8-1.5c-1.3,0-2.3,0.4-2.3,1.8v6.5h-5.7v-8H93.6z"/>
					<path class="st10" d="M109.9,112.7h2.6v-3.3h5.8v3.3h3v2.8h-3v4.6c0,0.6,0.1,0.9,1.4,0.9c0.4,0,0.6,0,1.6,0v3.4
						c0,0-3.4,0.1-4.2,0.1c-3.8,0-4.7-1.2-4.7-3.4v-5.5h-2.5C109.9,115.6,109.9,112.7,109.9,112.7z"/>
					<path class="st10" d="M137.1,121.1c0,0.8,0.1,2.5,0.5,2.9l-5.8,0.2c0,0,0-0.8,0-1.1c-1,0.8-2.7,1.3-4.9,1.3
						c-3.7,0-5.3-1.6-5.3-3.6c0-2.4,2.6-3.7,7.9-3.7c0.6,0,1.7-0.2,2.1-0.1v-1.1c0-0.7-0.6-1.2-2.1-1.2c-1.4,0-1.7,0.5-1.8,1.3h-5.5
						c0.1-2,1.8-3.7,7.5-3.7c4.8,0,7.4,1,7.4,3.4L137.1,121.1L137.1,121.1z M131.7,119.1c-0.4,0-1.2,0-1.7,0c-2.1,0-2.7,0.6-2.7,1.4
						c0,0.7,0.5,1.2,1.8,1.2c1.8,0,2.6-0.8,2.6-2.1L131.7,119.1L131.7,119.1z"/>
				</g>
				<g>
					<path class="st10" d="M74.6,126.5L74.6,126.5c-0.3-0.1-0.4-0.2-0.5-0.2s-0.2,0.1-0.4,0.2l-1.5,1.5c-0.2,0.2-0.4,0.4-0.4,0.6
						c-0.1,0.3,0,0.6,0.3,0.9c0.4,0.3,0.7,0.4,1.1,0.3c0.2-0.1,0.4-0.2,0.7-0.5l1.3-1.4c0.2-0.2,0.2-0.3,0.2-0.4s-0.1-0.3-0.3-0.5
						l0.1-0.1l1,1l-0.1,0.1c-0.2-0.1-0.3-0.2-0.4-0.2s-0.2,0.1-0.3,0.2l-1.4,1.5c-0.4,0.4-0.8,0.6-1.2,0.6c-0.4,0-0.8-0.2-1.2-0.6
						c-0.5-0.5-0.8-1-0.7-1.5c0.1-0.3,0.2-0.5,0.5-0.8l1.5-1.5c0.2-0.2,0.2-0.3,0.2-0.4s-0.1-0.2-0.2-0.4L73,125L74.6,126.5z"/>
					<path class="st10" d="M74,131.6c0.2,0.1,0.3,0.2,0.5,0.2c0.1,0,0.2-0.1,0.3-0.2l1.8-2.4c0-0.3,0-0.5-0.1-0.5
						c0-0.1,0-0.1-0.1-0.2l0.1-0.1l1.1,0.9l0.1,3.5l0,0l1.1-1.5c0.1-0.2,0.2-0.3,0.2-0.4c0-0.1-0.1-0.3-0.3-0.4l0.1-0.1l1.1,0.9
						l-0.1,0.1c-0.2-0.1-0.3-0.2-0.4-0.1c-0.1,0-0.2,0.1-0.3,0.2l-2.3,2.9l-0.1-0.1l-0.2-4.4l0,0l-1.5,2c-0.1,0.2-0.2,0.3-0.2,0.4
						c0,0.2,0.1,0.3,0.3,0.5l-0.1,0.1l-1.2-0.9L74,131.6z"/>
					<path class="st10" d="M78.2,134.8c0.2,0.1,0.3,0.2,0.4,0.2s0.3,0,0.4-0.2l1.7-2.5c0.1-0.2,0.1-0.3,0.1-0.4
						c0-0.1-0.1-0.2-0.3-0.3l0.1-0.1l1.9,1.3l-0.1,0.1c-0.2-0.1-0.3-0.2-0.4-0.2s-0.3,0.1-0.4,0.2l-1.7,2.5
						c-0.1,0.1-0.1,0.3-0.1,0.4c0.1,0.1,0.2,0.2,0.3,0.3l-0.1,0.1l-1.9-1.3L78.2,134.8z"/>
					<path class="st10" d="M84.7,134l-0.1,0.1c-0.2-0.1-0.4-0.2-0.4-0.2c-0.1,0-0.1,0-0.2,0.1v0.1v0.1l-0.3,2.6l0,0l1.8-1.4l0.1-0.1
						c0.1-0.1,0.1-0.1,0.1-0.2c0.1-0.1,0.1-0.2,0-0.3c0-0.1-0.2-0.2-0.4-0.3l0.1-0.1l1.2,0.7l-0.1,0.1c-0.1-0.1-0.3-0.1-0.4-0.1
						s-0.2,0.1-0.4,0.2l-3.1,2.5l-0.2-0.1l0.4-4.1c0-0.2,0-0.3,0-0.4c0-0.1-0.1-0.2-0.2-0.3l0.1-0.1L84.7,134z"/>
					<path class="st10" d="M85.2,139.2l0.1-0.1c0.2,0.1,0.3,0.1,0.4,0.1s0.2-0.1,0.3-0.3l1.3-2.8c0.1-0.2,0.1-0.3,0-0.4
						c-0.1-0.1-0.2-0.1-0.3-0.2l0.1-0.1l3.4,1.6l-0.5,1.2l-0.1-0.1c0.1-0.4,0.1-0.7,0-0.9s-0.4-0.4-0.9-0.7
						c-0.2-0.1-0.3-0.1-0.4-0.1s-0.1,0.1-0.2,0.2l-0.6,1.3c0.3,0.2,0.6,0.2,0.8,0.1c0.2-0.1,0.4-0.3,0.6-0.5l0.2,0.1l-0.9,2
						l-0.2-0.1c0.1-0.3,0.1-0.6,0.1-0.8c-0.1-0.2-0.3-0.4-0.6-0.5l-0.6,1.4c-0.1,0.1-0.1,0.2,0,0.3c0,0.1,0.2,0.2,0.4,0.2
						c0.4,0.2,0.7,0.2,1,0.2s0.6-0.2,1-0.5l0.2,0.1L89,141L85.2,139.2z"/>
					<path class="st10" d="M89.8,141c0.2,0.1,0.4,0.1,0.5,0c0.1,0,0.2-0.2,0.3-0.4l0.9-2.6c0.1-0.2,0.1-0.4,0-0.5
						c0-0.1-0.2-0.1-0.4-0.2l0.1-0.2l2,0.7c0.4,0.1,0.7,0.3,1,0.5c0.4,0.3,0.6,0.7,0.4,1.2c-0.1,0.3-0.3,0.5-0.7,0.6
						c-0.2,0.1-0.5,0.1-0.7,0.1l0.7,2.2c0,0.1,0,0.1,0.1,0.1l0.1,0.1v0.1l-1.3-0.4l-0.8-2.4l0,0l-0.4,1.2c-0.1,0.2-0.1,0.4,0,0.5
						c0,0.1,0.2,0.2,0.4,0.3l-0.1,0.2l-2.1-0.7V141z M92.9,139.8c0.2,0,0.4-0.3,0.5-0.6c0.1-0.2,0.1-0.4,0.1-0.6
						c0-0.3-0.2-0.5-0.5-0.6c-0.2-0.1-0.3-0.1-0.3-0.1c-0.1,0-0.1,0.1-0.1,0.2l-0.5,1.5C92.4,139.8,92.7,139.8,92.9,139.8z"/>
					<path class="st10" d="M95.2,141.5h0.2c0,0.5,0.1,0.9,0.2,1.1c0.2,0.3,0.4,0.4,0.7,0.5c0.3,0.1,0.5,0.1,0.7-0.1
						c0.2-0.1,0.3-0.2,0.3-0.4s0-0.3-0.1-0.5c-0.1-0.1-0.2-0.2-0.4-0.4l-0.4-0.3c-0.4-0.3-0.6-0.6-0.7-0.8s-0.1-0.5-0.1-0.8
						c0.1-0.3,0.3-0.6,0.5-0.8c0.3-0.2,0.7-0.2,1.1-0.1c0.2,0.1,0.4,0.1,0.6,0.3c0.2,0.1,0.3,0.2,0.3,0.2c0.1,0,0.1,0,0.2,0l0.1-0.1
						h0.2l-0.3,1.3h-0.2c0-0.3-0.1-0.6-0.2-0.9c-0.2-0.3-0.4-0.5-0.7-0.5c-0.2-0.1-0.4,0-0.5,0c-0.2,0.1-0.2,0.2-0.3,0.4
						c0,0.2,0,0.4,0.1,0.5s0.3,0.3,0.6,0.6l0.4,0.3c0.2,0.2,0.3,0.3,0.4,0.5c0.2,0.3,0.2,0.6,0.1,0.9c-0.1,0.3-0.3,0.6-0.6,0.8
						c-0.3,0.2-0.8,0.2-1.3,0.1c-0.1,0-0.3-0.1-0.4-0.1c-0.1-0.1-0.2-0.1-0.4-0.2l-0.1-0.1h-0.1c0,0,0,0-0.1,0s-0.1,0-0.1,0
						l-0.1,0.1h-0.2L95.2,141.5z"/>
					<path class="st10" d="M98.8,143.7c0.2,0,0.3,0,0.4,0s0.2-0.2,0.3-0.3l0.6-3c0-0.2,0-0.3-0.1-0.4c-0.1-0.1-0.2-0.1-0.4-0.1v-0.2
						l2.3,0.4v0.2c-0.2,0-0.3,0-0.4,0s-0.2,0.2-0.3,0.3l-0.6,3c0,0.2,0,0.3,0.1,0.4c0.1,0.1,0.2,0.1,0.4,0.2v0.2l-2.3-0.4V143.7z"/>
					<path class="st10" d="M101.7,144.2c0.2,0,0.3,0,0.4,0s0.2-0.2,0.2-0.3l0.3-3.1c0-0.2,0-0.3-0.1-0.4c-0.1,0-0.2-0.1-0.4-0.1
						v-0.2l2,0.2c0.8,0.1,1.4,0.4,1.8,0.8c0.3,0.4,0.5,0.9,0.4,1.6c-0.1,0.6-0.3,1-0.7,1.4c-0.5,0.4-1.1,0.6-1.8,0.5l-2.1-0.2
						L101.7,144.2z M103.4,144.3c0,0.1,0.1,0.1,0.3,0.1c0.4,0,0.7-0.1,1-0.3s0.5-0.7,0.5-1.5c0-0.4,0-0.8-0.1-1.2
						c-0.2-0.5-0.5-0.8-1-0.9c-0.2,0-0.3,0-0.3,0.1c0,0-0.1,0.1-0.1,0.3l-0.3,3.1C103.4,144.1,103.4,144.2,103.4,144.3z"/>
					<path class="st10" d="M107,144.8c0.2,0,0.3-0.1,0.4-0.2c0.1-0.1,0.2-0.3,0.3-0.5l1.5-3.4h0.2l1.4,3.4c0.2,0.4,0.3,0.6,0.4,0.7
						c0.1,0.1,0.2,0.2,0.3,0.2v0.2h-2.1V145c0.2,0,0.4,0,0.4,0c0.1,0,0.1-0.1,0.1-0.2c0,0,0-0.1,0-0.2c0-0.1,0-0.1-0.1-0.2l-0.2-0.4
						h-1.5c-0.1,0.3-0.2,0.4-0.2,0.5c-0.1,0.2-0.1,0.3-0.1,0.4c0,0.1,0.1,0.2,0.2,0.2s0.2,0,0.3,0v0.2H107L107,144.8z M109.5,143.5
						l-0.6-1.5h-0.1l-0.6,1.5H109.5z"/>
					<path class="st10" d="M112.2,144.8c0.2,0,0.3-0.1,0.3-0.1c0.1-0.1,0.2-0.2,0.2-0.4l-0.2-3.1c0-0.2-0.1-0.3-0.2-0.3
						s-0.2,0-0.4,0v-0.2l2-0.2c0.8-0.1,1.4,0.1,1.9,0.5c0.4,0.3,0.6,0.8,0.7,1.5c0,0.6-0.1,1.1-0.5,1.5c-0.4,0.5-1,0.7-1.7,0.8
						l-2.1,0.2L112.2,144.8z M113.9,144.6c0,0.1,0.1,0.1,0.3,0.1c0.4,0,0.7-0.2,0.9-0.5c0.2-0.3,0.3-0.8,0.3-1.6
						c0-0.4-0.1-0.8-0.3-1.1c-0.3-0.5-0.6-0.7-1.2-0.7c-0.2,0-0.3,0.1-0.3,0.1s0,0.1,0,0.3l0.2,3.1
						C113.8,144.4,113.8,144.5,113.9,144.6z"/>
					<path class="st10" d="M119.5,144.1c0.2,0,0.3-0.1,0.3-0.1c0.1-0.1,0.2-0.2,0.1-0.4l-0.6-3.1c0-0.2-0.1-0.3-0.2-0.3
						s-0.2,0-0.4,0V140l2-0.4c0.8-0.2,1.4-0.1,1.9,0.2s0.8,0.7,0.9,1.4c0.1,0.6,0,1.1-0.3,1.5c-0.3,0.5-0.9,0.9-1.6,1l-2,0.4
						L119.5,144.1z M121.1,143.6c0.1,0,0.2,0.1,0.3,0c0.4-0.1,0.7-0.3,0.9-0.6c0.2-0.3,0.2-0.8,0.1-1.6c-0.1-0.4-0.2-0.8-0.4-1.1
						c-0.3-0.5-0.7-0.6-1.2-0.5c-0.2,0-0.3,0.1-0.3,0.2c0,0.1,0,0.1,0,0.3l0.6,3.1C121,143.5,121,143.5,121.1,143.6z"/>
					<path class="st10" d="M124.7,143.1v-0.2c0.2-0.1,0.3-0.1,0.4-0.2c0.1-0.1,0.1-0.2,0.1-0.4l-0.9-2.9c-0.1-0.2-0.2-0.3-0.3-0.3
						c-0.1,0-0.2,0-0.4,0v-0.2l3.6-1.1l0.4,1.2h-0.2c-0.2-0.4-0.4-0.6-0.7-0.7c-0.2-0.1-0.6,0-1.1,0.1c-0.2,0.1-0.3,0.1-0.3,0.2
						c0,0.1,0,0.1,0,0.3l0.4,1.4c0.4-0.1,0.6-0.2,0.7-0.4s0.1-0.4,0.1-0.8h0.2l0.6,2h-0.2c-0.2-0.3-0.3-0.5-0.5-0.6s-0.5-0.1-0.8,0
						l0.5,1.5c0,0.1,0.1,0.2,0.2,0.2s0.2,0,0.4-0.1c0.4-0.1,0.7-0.3,0.9-0.5c0.2-0.2,0.3-0.6,0.4-1.1l0.2-0.1l0.1,1.3L124.7,143.1z"
						/>
					<path class="st10" d="M132.5,135.7c0.3,0,0.5,0,0.5-0.1c0.1,0,0.1-0.1,0.1-0.2c0-0.1,0-0.1,0-0.2l0.2-0.1l0.6,1.3l-0.2,0.1
						c-0.3-0.2-0.5-0.4-0.8-0.5c-0.4-0.2-0.8-0.2-1.2,0s-0.6,0.5-0.6,0.9s0.1,0.9,0.4,1.5c0.2,0.4,0.4,0.7,0.6,0.9
						c0.4,0.4,0.9,0.5,1.4,0.3c0.3-0.1,0.6-0.4,0.7-0.6c0.1-0.2,0.2-0.4,0.3-0.7l0.2,0.1c-0.1,0.4-0.2,0.6-0.4,0.8
						c-0.2,0.3-0.5,0.6-0.9,0.8c-0.6,0.3-1.2,0.3-1.7,0.2c-0.6-0.2-1.1-0.6-1.4-1.2c-0.3-0.6-0.3-1.2-0.1-1.8
						c0.2-0.5,0.6-0.9,1.2-1.2C131.9,135.8,132.2,135.7,132.5,135.7z"/>
					<path class="st10" d="M136,138.5c0.1-0.1,0.2-0.2,0.3-0.2c0.1-0.1,0.1-0.3,0-0.4l-1.5-2.7c-0.1-0.2-0.2-0.2-0.3-0.2
						s-0.2,0-0.4,0.1L134,135l1.9-1.1l0.1,0.1c-0.2,0.1-0.3,0.2-0.3,0.3c-0.1,0.1-0.1,0.3,0,0.4l0.7,1.1l1.4-0.8l-0.7-1.1
						c-0.1-0.2-0.2-0.2-0.3-0.2s-0.2,0-0.4,0.1l-0.1-0.1l1.9-1.1l0.1,0.1c-0.2,0.1-0.3,0.2-0.3,0.3c-0.1,0.1-0.1,0.2,0,0.4l1.5,2.7
						c0.1,0.2,0.2,0.2,0.4,0.2c0.1,0,0.2,0,0.4-0.1l0.1,0.1l-1.9,1.1l-0.1-0.1c0.2-0.1,0.3-0.2,0.3-0.3c0.1-0.1,0.1-0.3,0-0.4
						l-0.7-1.3l-1.4,0.8l0.7,1.3c0.1,0.2,0.2,0.2,0.4,0.2c0.1,0,0.2-0.1,0.4-0.1l0.1,0.1l-1.9,1.1L136,138.5z"/>
					<path class="st10" d="M140.8,135.6c0.2-0.1,0.2-0.2,0.3-0.3s0.1-0.3-0.1-0.4l-1.7-2.5c-0.1-0.2-0.2-0.2-0.4-0.2
						c-0.1,0-0.2,0.1-0.4,0.2l-0.1-0.1l1.9-1.3l0.1,0.1c-0.2,0.1-0.3,0.2-0.3,0.3c-0.1,0.1-0.1,0.3,0.1,0.4l1.7,2.5
						c0.1,0.1,0.2,0.2,0.3,0.2s0.3-0.1,0.4-0.2l0.1,0.1l-1.9,1.3L140.8,135.6z"/>
					<path class="st10" d="M143.3,133.9c0.1-0.1,0.2-0.2,0.3-0.3s0-0.3-0.1-0.4l-1.9-2.4c-0.1-0.1-0.2-0.2-0.4-0.2
						c-0.1,0-0.2,0.1-0.4,0.2l-0.1-0.1l1.8-1.4l0.1,0.1c-0.2,0.2-0.3,0.3-0.3,0.4c0,0.1,0,0.3,0.2,0.5l1.9,2.3
						c0.1,0.1,0.2,0.2,0.3,0.1c0.1,0,0.2-0.1,0.4-0.2c0.3-0.2,0.5-0.5,0.6-0.8s0.1-0.7-0.1-1.2l0.2-0.1l0.7,1.3l-3,2.4L143.3,133.9z
						"/>
					<path class="st10" d="M147.2,130.9l-0.1-0.1c0.1-0.1,0.2-0.2,0.2-0.3s0-0.3-0.1-0.4l-2.1-2.2c-0.1-0.1-0.3-0.2-0.4-0.1
						c-0.1,0-0.2,0.1-0.3,0.2l-0.1-0.1l2.7-2.6l0.9,0.9l-0.1,0.1c-0.3-0.2-0.6-0.3-0.9-0.3s-0.6,0.2-0.9,0.6
						c-0.1,0.1-0.2,0.2-0.2,0.3c0,0.1,0,0.1,0.1,0.2l1,1.1c0.3-0.3,0.4-0.5,0.4-0.7s-0.1-0.4-0.3-0.7l0.1-0.1l1.5,1.5l-0.1,0.1
						c-0.3-0.2-0.5-0.3-0.7-0.4c-0.2,0-0.4,0.1-0.7,0.4l1.1,1.1c0.1,0.1,0.2,0.1,0.3,0.1s0.2-0.1,0.4-0.3c0.3-0.3,0.5-0.6,0.6-0.9
						c0.1-0.3,0.1-0.7-0.1-1.1l0.1-0.1l0.7,1.1L147.2,130.9z"/>
				</g>
				<g>
					<path class="st10" d="M62.6,110.3c-0.1-0.2-0.1-0.3-0.2-0.3c-0.1-0.1-0.3-0.1-0.4,0l-3,1.2c-0.2,0.1-0.3,0.2-0.3,0.3
						c0,0.1,0,0.2,0.1,0.4l-0.2,0.1l-0.8-1.9L58,110c0.1,0.2,0.2,0.3,0.2,0.3c0.1,0.1,0.2,0.1,0.4,0l3-1.2c0.2-0.1,0.3-0.2,0.3-0.3
						c0-0.1,0-0.3-0.1-0.4l0.2-0.1l0.8,1.9L62.6,110.3z"/>
					<path class="st10" d="M61.6,107.9c-0.1-0.2-0.2-0.3-0.3-0.4c-0.1,0-0.2,0-0.4,0l-3,1c-0.2,0.2-0.2,0.4-0.3,0.4s0,0.1,0,0.2
						l-0.2,0.1L57,108l2-2.8l0,0l-1.8,0.6c-0.2,0.1-0.4,0.2-0.4,0.3c-0.1,0.1-0.1,0.3,0,0.5l-0.2,0.1l-0.4-1.2l0.2-0.1
						c0.1,0.2,0.2,0.3,0.2,0.3c0.1,0,0.2,0,0.4,0l3.7-1.2l0.1,0.2l-2.5,3.6l0,0l2.5-0.8c0.2-0.1,0.3-0.1,0.4-0.2
						c0.1-0.1,0.1-0.3,0.1-0.5l0.2-0.1l0.4,1.3L61.6,107.9z"/>
					<path class="st10" d="M58.8,103.6v-0.2c0.5-0.2,0.8-0.4,0.9-0.7c0.2-0.3,0.2-0.5,0.2-0.8c-0.1-0.3-0.2-0.4-0.4-0.5
						s-0.3-0.1-0.5-0.1s-0.3,0.1-0.4,0.3c-0.1,0.1-0.1,0.3-0.2,0.5l-0.1,0.4c-0.1,0.4-0.3,0.7-0.4,0.9c-0.2,0.2-0.4,0.3-0.7,0.4
						s-0.6,0-0.9-0.1c-0.3-0.1-0.5-0.4-0.6-0.8c-0.1-0.2-0.1-0.4,0-0.6c0-0.2,0-0.3,0-0.4s0-0.1-0.1-0.1c0,0-0.1,0-0.2,0v-0.2
						l1.4-0.3v0.2c-0.3,0.2-0.5,0.4-0.7,0.6s-0.2,0.5-0.2,0.8c0,0.2,0.1,0.3,0.3,0.4c0.1,0.1,0.3,0.1,0.5,0.1s0.3-0.1,0.4-0.3
						c0.1-0.1,0.2-0.4,0.3-0.8l0.1-0.5c0.1-0.2,0.1-0.4,0.2-0.5c0.2-0.3,0.5-0.5,0.8-0.5c0.3-0.1,0.7,0,1,0.1c0.3,0.2,0.6,0.5,0.7,1
						c0,0.1,0,0.2,0.1,0.4c0,0.1,0,0.3,0,0.4v0.1v0.1c0,0,0,0,0,0.1s0,0.1,0.1,0.1c0,0,0.1,0,0.2,0v0.2L58.8,103.6z"/>
					<path class="st10" d="M55.1,100.5l-0.6-3.6l1.3-0.2v0.2c-0.5,0.1-0.8,0.3-0.9,0.6c-0.1,0.2-0.1,0.4,0,0.7l3.4-0.6
						c0.2,0,0.4-0.1,0.5-0.2s0.1-0.3,0-0.5H59l0.3,2.1h-0.2c0-0.2-0.1-0.4-0.2-0.4c-0.1-0.1-0.3-0.1-0.5,0L55,99.2
						c0.1,0.3,0.1,0.5,0.3,0.6c0.2,0.3,0.6,0.4,1,0.3v0.2L55.1,100.5z"/>
					<path class="st10" d="M58.7,95.5c0-0.2-0.1-0.3-0.1-0.4C58.5,95,58.3,95,58.1,95L55,95.3c-0.2,0-0.3,0.1-0.4,0.2
						c0,0.1,0,0.2,0,0.4h-0.2l-0.2-2.1h0.2c0,0.2,0.1,0.3,0.1,0.4c0.1,0.1,0.2,0.2,0.4,0.1L58,94c0.2,0,0.3-0.1,0.4-0.2
						c0.1-0.1,0.1-0.2,0.1-0.4h0.2l0.2,2.1H58.7z"/>
					<path class="st10" d="M54.1,92.9L54,89.3h1.3v0.2c-0.5,0.1-0.8,0.2-1,0.5c-0.1,0.2-0.1,0.4-0.1,0.7l3.5-0.1
						c0.2,0,0.4-0.1,0.5-0.1c0.1-0.1,0.1-0.2,0.1-0.5h0.2l0.1,2.1h-0.2c0-0.2-0.1-0.4-0.1-0.5c-0.1-0.1-0.2-0.1-0.5-0.1l-3.5,0.1
						c0,0.3,0.1,0.5,0.2,0.7c0.2,0.3,0.5,0.4,1,0.5V93L54.1,92.9z"/>
					<path class="st10" d="M54.1,86.2h0.2c0,0.2,0,0.4,0.1,0.5s0.2,0.1,0.5,0.1L57,87c0.3,0,0.6,0,0.8-0.1c0.3-0.1,0.5-0.4,0.6-0.7
						c0-0.5-0.1-0.8-0.5-1C57.7,85.1,57.4,85,57,85l-2-0.1c-0.2,0-0.4,0-0.5,0.1s-0.2,0.2-0.2,0.5h-0.2l0.1-1.3h0.2
						c0,0.2,0.1,0.3,0.1,0.4c0.1,0.1,0.2,0.1,0.4,0.1l2.1,0.1c0.6,0,1,0.2,1.3,0.4c0.3,0.3,0.4,0.7,0.4,1.2c0,0.7-0.3,1.2-0.8,1.4
						C57.7,87.9,57.3,88,57,88l-2.2-0.1c-0.2,0-0.4,0-0.5,0.1s-0.1,0.2-0.2,0.4h-0.2L54.1,86.2z"/>
					<path class="st10" d="M54.3,83.1l0.5-3.6l1.3,0.2v0.2c-0.5,0-0.8,0.1-1,0.3c-0.1,0.1-0.2,0.4-0.2,0.6l3.4,0.5
						c0.2,0,0.4,0,0.5,0c0.1-0.1,0.2-0.2,0.2-0.5h0.2L58.8,83h-0.2c0-0.2,0-0.4-0.1-0.5s-0.2-0.1-0.5-0.2l-3.4-0.5
						c0,0.3,0,0.5,0.1,0.7c0.1,0.3,0.4,0.5,0.9,0.6v0.2L54.3,83.1z"/>
					<path class="st10" d="M56.4,75.1c0.5-0.3,1.1-0.4,1.8-0.2c0.7,0.2,1.2,0.5,1.5,1s0.4,1,0.3,1.6c-0.1,0.6-0.5,1.1-1,1.4
						s-1.1,0.3-1.7,0.2c-0.7-0.2-1.2-0.5-1.5-1s-0.5-1-0.3-1.7C55.5,75.8,55.9,75.4,56.4,75.1z M59.1,76.3c-0.3-0.2-0.7-0.3-1.2-0.4
						c-0.7-0.2-1.2-0.2-1.6-0.1c-0.4,0.1-0.6,0.3-0.7,0.6c-0.1,0.4,0.1,0.8,0.7,1.1c0.3,0.2,0.7,0.3,1.2,0.4s0.9,0.2,1.2,0.1
						c0.6,0,1-0.3,1.1-0.7C59.8,77,59.6,76.6,59.1,76.3z"/>
					<path class="st10" d="M60.9,73c0-0.1,0.1-0.3,0-0.3c0-0.1-0.1-0.2-0.3-0.3l-3-1.1c-0.2-0.1-0.3,0-0.4,0c-0.1,0-0.1,0.1-0.2,0.3
						l-0.2-0.1l0.6-1.7c0.3-0.7,0.7-1.2,1.2-1.4c0.5-0.2,1.1-0.2,1.7,0.1c0.6,0.2,1,0.6,1.2,1c0.3,0.5,0.3,1.1,0.1,1.8L60.9,73
						L60.9,73z M61.3,71.5c0.1,0,0.1-0.1,0.2-0.2c0.1-0.3,0.1-0.7-0.1-1c-0.2-0.3-0.6-0.6-1.4-0.9c-0.4-0.2-0.8-0.2-1.2-0.2
						c-0.6,0-0.9,0.2-1.1,0.7c-0.1,0.1-0.1,0.3,0,0.3c0,0,0.1,0.1,0.2,0.1l3,1.1C61.1,71.5,61.2,71.5,61.3,71.5z"/>
					<path class="st10" d="M62.7,68.6l-0.2-0.1c0.1-0.2,0.1-0.3,0.1-0.4s-0.1-0.2-0.3-0.3l-2.9-1.4c-0.2-0.1-0.3-0.1-0.4,0
						c-0.1,0-0.1,0.1-0.2,0.3l-0.2-0.1l1.5-3.1l1.2,0.6l-0.1,0.1c-0.4-0.1-0.7-0.1-1,0c-0.2,0.1-0.4,0.4-0.6,0.8
						c-0.1,0.2-0.1,0.3-0.1,0.3s0.1,0.1,0.2,0.2l1.4,0.7c0.2-0.3,0.2-0.5,0.1-0.7c-0.1-0.2-0.3-0.4-0.6-0.6l0.1-0.1l2,1l-0.1,0.1
						c-0.4-0.1-0.6-0.2-0.8-0.1s-0.4,0.2-0.5,0.5l1.4,0.7c0.1,0.1,0.2,0.1,0.3,0c0.1,0,0.2-0.1,0.2-0.3c0.2-0.3,0.2-0.7,0.2-1
						s-0.2-0.6-0.6-1l0.1-0.2l1.1,0.8L62.7,68.6z"/>
					<path class="st10" d="M65.3,63c0.1-0.2,0.2-0.3,0.1-0.4c0-0.1-0.1-0.2-0.3-0.3l-2.6-1.7c-0.3,0-0.5,0.1-0.5,0.1
						c-0.1,0-0.1,0.1-0.2,0.1l-0.1-0.1l0.7-1.1l3.4-0.3l0,0l-1.6-1c-0.2-0.1-0.3-0.2-0.5-0.2c-0.1,0-0.2,0.1-0.4,0.3l-0.1-0.1
						l0.7-1.1l0.1,0.1c0,0.2,0,0.3,0,0.4c0,0.1,0.1,0.2,0.3,0.3l3.3,2.1l-0.1,0.1L63,60.6l0,0l2.2,1.4c0.2,0.1,0.3,0.2,0.4,0.2
						c0.2,0,0.3-0.1,0.5-0.3l0.1,0.1l-0.7,1.2L65.3,63z"/>
					<path class="st10" d="M65.7,54.8L65.7,54.8c0,0.3-0.1,0.4-0.1,0.5c0,0.1,0.1,0.2,0.3,0.4l1.8,1.3c0.3,0.2,0.5,0.3,0.7,0.4
						c0.3,0.1,0.6,0,0.9-0.3c0.3-0.4,0.3-0.7,0.1-1.1c-0.1-0.2-0.3-0.4-0.6-0.6l-1.6-1.2C67,54.1,66.9,54,66.7,54
						c-0.1,0-0.3,0.1-0.4,0.3l-0.1-0.1l0.8-1.1l0.1,0.1C67,53.5,67,53.6,67,53.7c0,0.1,0.1,0.2,0.3,0.3l1.7,1.3
						c0.4,0.3,0.7,0.7,0.8,1.1c0.1,0.4,0,0.8-0.3,1.2c-0.4,0.5-0.9,0.8-1.4,0.7c-0.3,0-0.6-0.2-0.9-0.4l-1.8-1.3
						c-0.2-0.2-0.3-0.2-0.4-0.2s-0.2,0.1-0.4,0.2l-0.1-0.1L65.7,54.8z"/>
					<path class="st10" d="M67.6,52.4l2.4-2.7l1,0.9l-0.1,0.1c-0.4-0.3-0.7-0.4-1-0.3c-0.2,0-0.4,0.2-0.6,0.4l2.6,2.3
						c0.2,0.2,0.3,0.2,0.4,0.2s0.2-0.1,0.4-0.3l0.1,0.1l-1.4,1.6l-0.1-0.1c0.2-0.2,0.2-0.3,0.2-0.4c0-0.1-0.1-0.2-0.3-0.4l-2.6-2.3
						c-0.2,0.2-0.3,0.4-0.3,0.6c-0.1,0.3,0.1,0.7,0.4,1l-0.1,0.1L67.6,52.4z"/>
					<path class="st10" d="M73.7,52.2c0.1-0.1,0.2-0.3,0.2-0.4c0-0.1-0.1-0.2-0.2-0.4l-2-2.1c-0.2-0.2-0.3-0.3-0.4-0.3
						s-0.2,0.1-0.4,0.2L70.8,49l1.4-1.3c0.3-0.3,0.6-0.5,0.8-0.6c0.5-0.2,0.9-0.1,1.2,0.3c0.2,0.3,0.3,0.6,0.3,0.9
						c0,0.2-0.1,0.5-0.3,0.6l2.2,0.5c0.1,0,0.1,0,0.1,0s0.1,0,0.1-0.1l0.1,0.1l-0.9,0.9l-2.4-0.6l0,0l0.9,0.9
						c0.2,0.2,0.3,0.3,0.4,0.3s0.2-0.1,0.4-0.2l0.1,0.1L73.7,52.2L73.7,52.2z M73.9,48.9c0-0.2-0.1-0.5-0.4-0.8
						c-0.2-0.2-0.3-0.3-0.5-0.4c-0.3-0.1-0.5-0.1-0.7,0.1c-0.1,0.1-0.2,0.2-0.2,0.3s0,0.1,0.1,0.2l1.1,1.2
						C73.6,49.3,73.8,49.1,73.9,48.9z"/>
					<path class="st10" d="M77.2,49c0.1-0.1,0.2-0.2,0.2-0.3c0.1-0.1,0-0.3-0.1-0.4l-2-2.5c-0.1-0.2-0.2-0.2-0.4-0.2
						c-0.1,0-0.2,0.1-0.3,0.2l-0.1-0.1l1.6-1.3l0.1,0.1c-0.1,0.1-0.2,0.2-0.3,0.3c-0.1,0.1,0,0.3,0.1,0.4l2,2.5
						c0.1,0.1,0.2,0.2,0.3,0.2c0.1,0,0.2-0.1,0.4-0.2l0.1,0.1L77.2,49L77.2,49z"/>
					<path class="st10" d="M79.3,42.2c0.3-0.1,0.4-0.1,0.4-0.1c0.1,0,0.1-0.1,0.1-0.2c0-0.1,0-0.2,0-0.2l0.1-0.1l0.9,1.3L80.7,43
						c-0.3-0.2-0.6-0.3-0.8-0.4c-0.4-0.1-0.8-0.1-1.1,0.1c-0.3,0.2-0.5,0.5-0.4,1c0.1,0.4,0.3,0.9,0.7,1.4c0.3,0.4,0.5,0.7,0.8,0.9
						c0.5,0.4,0.9,0.4,1.3,0.1c0.3-0.2,0.4-0.4,0.6-0.7c0.1-0.2,0.1-0.4,0.1-0.7h0.2c0,0.4-0.1,0.7-0.2,0.9
						c-0.1,0.4-0.4,0.7-0.7,0.9c-0.5,0.3-1,0.5-1.6,0.4s-1.1-0.4-1.5-1s-0.6-1.2-0.5-1.8s0.4-1,0.9-1.3
						C78.8,42.3,79.1,42.2,79.3,42.2z"/>
					<path class="st10" d="M83.1,44.7c0.1-0.1,0.2-0.2,0.3-0.2c0.1-0.1,0.1-0.3,0-0.4l-1.6-2.8c-0.1-0.2-0.2-0.2-0.3-0.2
						c-0.1,0-0.2,0-0.4,0.1L81,41l1.8-1.1l0.1,0.1c-0.2,0.1-0.3,0.2-0.3,0.3c-0.1,0.1-0.1,0.3,0,0.4l1.6,2.8
						c0.1,0.2,0.2,0.2,0.3,0.2c0.1,0,0.3,0,0.4-0.1l0.1,0.1L83.1,44.7L83.1,44.7z"/>
					<path class="st10" d="M87.2,38.3c0.6,0.2,1,0.6,1.3,1.3c0.3,0.6,0.4,1.2,0.2,1.8c-0.2,0.6-0.5,1-1.1,1.2
						c-0.6,0.3-1.2,0.3-1.7,0.1s-0.9-0.6-1.2-1.2c-0.3-0.6-0.4-1.2-0.2-1.8c0.2-0.6,0.5-1,1.1-1.3C86.1,38.1,86.6,38.1,87.2,38.3z
						 M85.8,37.1c0,0.1,0,0.1-0.1,0.2l-0.5,0.9l-0.3,0.1l0.2-1.3c0-0.1,0-0.1,0-0.1c0-0.1,0.1-0.1,0.2-0.2c0.1,0,0.1,0,0.2,0
						s0.1,0.1,0.2,0.2C85.8,36.9,85.8,37,85.8,37.1z M87.9,41.2c-0.1-0.3-0.2-0.7-0.4-1.2c-0.3-0.6-0.6-1.1-1-1.3
						c-0.3-0.2-0.6-0.3-0.9-0.1c-0.4,0.2-0.6,0.6-0.4,1.2c0.1,0.3,0.2,0.7,0.4,1.2c0.2,0.5,0.5,0.8,0.7,1.1c0.4,0.5,0.8,0.6,1.2,0.4
						C87.9,42.2,88,41.8,87.9,41.2z"/>
					<path class="st10" d="M90,41.2c0.2-0.1,0.3-0.2,0.4-0.3c0-0.1,0-0.2,0-0.4l-1.1-2.9c-0.3-0.1-0.4-0.2-0.5-0.3
						c-0.1,0-0.1,0-0.2,0l-0.1-0.2l1.2-0.5l2.9,1.8l0,0l-0.7-1.8c-0.1-0.2-0.2-0.3-0.3-0.4c-0.1-0.1-0.3-0.1-0.5,0L91,36l1.2-0.5
						l0.1,0.2C92.1,35.8,92,35.9,92,36s0,0.2,0,0.4l1.4,3.6l-0.2,0.1l-3.7-2.3l0,0l0.9,2.4c0.1,0.2,0.1,0.3,0.2,0.4
						c0.1,0.1,0.3,0.1,0.5,0l0.1,0.2L90,41.2L90,41.2z"/>
					<path class="st10" d="M98.8,33.9v0.2c-0.2,0.1-0.3,0.1-0.4,0.1s-0.1,0.1-0.1,0.2v0.1c0,0,0.1,0.1,0.1,0.2l1.1,1.4l0,0l0.4-1.3
						c0-0.1,0.1-0.2,0.1-0.3c0-0.2,0-0.3,0-0.4c0-0.1-0.1-0.2-0.2-0.2s-0.2,0-0.4,0v-0.2l1.3-0.3v0.2c-0.1,0-0.2,0.1-0.2,0.1
						c-0.1,0.1-0.1,0.1-0.1,0.2l-0.7,2.2l0.2,1.2c0.1,0.2,0.1,0.4,0.2,0.5s0.2,0.1,0.5,0V38l-2,0.4v-0.2c0.2-0.1,0.4-0.1,0.4-0.2
						c0.1-0.1,0.1-0.3,0-0.5l0-0.8l-1.5-1.9c-0.1-0.1-0.2-0.2-0.3-0.2c-0.1,0-0.2,0-0.2,0v-0.2L98.8,33.9z"/>
					<path class="st10" d="M103.6,33.1l3.6-0.3l0.1,1.3h-0.2c-0.1-0.5-0.3-0.8-0.6-0.9c-0.2-0.1-0.4-0.1-0.7-0.1l0.3,3.5
						c0,0.2,0.1,0.4,0.2,0.5s0.2,0.1,0.5,0.1v0.2l-2.1,0.2v-0.2c0.2,0,0.4-0.1,0.5-0.2c0.1-0.1,0.1-0.3,0.1-0.5l-0.3-3.5
						c-0.3,0-0.5,0.1-0.7,0.2c-0.3,0.2-0.4,0.5-0.4,1h-0.2L103.6,33.1z"/>
					<path class="st10" d="M108.2,37.2V37c0.2,0,0.3,0,0.4-0.1s0.2-0.2,0.2-0.4l-0.1-3.2c0-0.2-0.1-0.3-0.2-0.4
						c-0.1,0-0.2-0.1-0.4-0.1v-0.2l3.5-0.1v1.3h-0.1c-0.1-0.4-0.2-0.7-0.4-0.9c-0.2-0.2-0.5-0.2-1-0.2c-0.2,0-0.3,0-0.4,0.1
						c0,0-0.1,0.1-0.1,0.3v1.5c0.3,0,0.6-0.1,0.7-0.2c0.1-0.1,0.2-0.4,0.3-0.8h0.2v2.2h-0.2c0-0.4-0.1-0.6-0.3-0.8
						c-0.1-0.2-0.4-0.2-0.7-0.2v1.6c0,0.1,0,0.2,0.1,0.3c0.1,0,0.2,0.1,0.4,0.1c0.4,0,0.7-0.1,0.9-0.3c0.2-0.2,0.5-0.5,0.6-0.9h0.2
						l-0.2,1.4L108.2,37.2z"/>
					<path class="st10" d="M115.9,33.1c0.2,0.1,0.4,0.2,0.4,0.2c0.1,0,0.1,0,0.2-0.1s0.1-0.1,0.1-0.2h0.2l-0.1,1.5h-0.2
						c-0.1-0.3-0.2-0.6-0.4-0.8c-0.3-0.4-0.6-0.6-0.9-0.6c-0.4,0-0.7,0.1-0.9,0.5c-0.2,0.4-0.3,0.9-0.4,1.5c0,0.5,0,0.9,0.1,1.2
						c0.1,0.6,0.5,0.9,1,0.9c0.3,0,0.6,0,0.9-0.2c0.2-0.1,0.4-0.3,0.6-0.5l0.2,0.2c-0.3,0.3-0.5,0.5-0.7,0.6
						c-0.3,0.2-0.7,0.3-1.1,0.3c-0.6,0-1.1-0.3-1.4-0.7c-0.4-0.5-0.6-1.1-0.5-1.8s0.3-1.3,0.8-1.7c0.4-0.4,0.9-0.5,1.5-0.5
						C115.4,32.9,115.6,33,115.9,33.1z"/>
					<path class="st10" d="M117.2,37.5c0.2,0,0.4,0,0.5-0.1s0.1-0.2,0.2-0.4l0.5-3.1c-0.1-0.3-0.2-0.4-0.3-0.5c0,0-0.1-0.1-0.2-0.1
						v-0.2l1.3,0.2l1.6,3.1l0,0l0.3-1.9c0-0.2,0-0.4,0-0.5c-0.1-0.1-0.2-0.2-0.4-0.2v-0.2l1.3,0.2V34c-0.2,0-0.3,0-0.4,0.1
						c-0.1,0-0.1,0.2-0.2,0.4l-0.7,3.8h-0.2l-2-3.9l0,0l-0.4,2.5c0,0.2,0,0.3,0,0.4c0.1,0.1,0.2,0.2,0.4,0.3v0.2L117.2,37.5
						L117.2,37.5z"/>
					<path class="st10" d="M126.4,35.7c0.3,0.5,0.3,1.1,0.2,1.8c-0.2,0.7-0.5,1.2-1,1.5s-1,0.4-1.6,0.2s-1.1-0.5-1.3-1.1
						c-0.2-0.5-0.3-1.1-0.1-1.7c0.2-0.7,0.5-1.2,1-1.5s1.1-0.4,1.7-0.2C125.7,34.8,126.2,35.1,126.4,35.7z M125.1,38.3
						c0.2-0.3,0.3-0.7,0.5-1.2c0.2-0.7,0.2-1.2,0.1-1.6c-0.1-0.4-0.3-0.6-0.6-0.7c-0.4-0.1-0.8,0.1-1.1,0.6
						c-0.2,0.3-0.3,0.7-0.5,1.2c-0.1,0.5-0.2,0.9-0.2,1.2c0,0.6,0.2,1,0.7,1.1C124.4,39.1,124.8,38.9,125.1,38.3z"/>
					<path class="st10" d="M126.7,39.6c0.2,0.1,0.3,0.1,0.4,0.1s0.2-0.1,0.3-0.3l1.1-3c0.1-0.2,0.1-0.3,0-0.4c0-0.1-0.2-0.1-0.3-0.2
						l0.1-0.2l2,0.7l-0.1,0.2c-0.2-0.1-0.4-0.1-0.5-0.1s-0.2,0.2-0.3,0.4l-1.1,2.9c-0.1,0.1-0.1,0.2,0,0.3c0,0.1,0.2,0.1,0.4,0.2
						c0.3,0.1,0.7,0.2,0.9,0.1c0.3-0.1,0.6-0.3,1-0.7l0.2,0.1L130,41l-3.3-1.2L126.7,39.6z"/>
					<path class="st10" d="M135.7,39.4c0.2,0.6,0.1,1.2-0.2,1.8s-0.7,1-1.3,1.3c-0.6,0.2-1.1,0.2-1.6-0.1c-0.6-0.3-1-0.7-1.1-1.3
						s-0.1-1.1,0.2-1.7c0.3-0.6,0.7-1,1.3-1.3c0.6-0.2,1.1-0.2,1.7,0.1C135.2,38.4,135.5,38.9,135.7,39.4z M133.9,41.8
						c0.2-0.2,0.4-0.6,0.7-1.1c0.3-0.6,0.4-1.2,0.4-1.6c0-0.4-0.2-0.7-0.5-0.8c-0.4-0.2-0.8-0.1-1.2,0.4c-0.2,0.2-0.4,0.6-0.7,1.1
						c-0.2,0.5-0.4,0.9-0.4,1.2c-0.1,0.6,0.1,1,0.5,1.2C133.1,42.4,133.5,42.3,133.9,41.8z"/>
					<path class="st10" d="M137.7,40.6c0.6-0.2,1.1-0.1,1.7,0.2c0.2,0.1,0.4,0.3,0.6,0.5c0.2,0.2,0.3,0.3,0.3,0.4c0.1,0,0.1,0,0.2,0
						c0.1,0,0.1-0.1,0.2-0.1l0.1,0.1L140,43l-0.1-0.1c0-0.4,0.1-0.7,0-0.9c-0.1-0.5-0.2-0.8-0.5-1s-0.7-0.2-1,0s-0.7,0.6-1,1.2
						c-0.3,0.5-0.5,0.9-0.5,1.4c-0.1,0.5,0.1,0.8,0.5,1.1c0.2,0.1,0.4,0.2,0.5,0.1c0.1,0,0.2-0.1,0.2-0.2l0.4-0.6
						c0.1-0.2,0.1-0.3,0.1-0.4c0-0.1-0.2-0.2-0.3-0.3l0.1-0.1l1.8,1.1l-0.1,0.1c-0.2-0.1-0.3-0.1-0.4-0.1c-0.1,0-0.2,0.2-0.3,0.3
						l-0.4,0.7c-0.2,0-0.4,0-0.7-0.1s-0.6-0.2-0.9-0.4c-0.6-0.3-0.9-0.8-1-1.4c-0.1-0.6,0-1.1,0.4-1.7
						C136.7,41.1,137.2,40.8,137.7,40.6z"/>
					<path class="st10" d="M139.5,46c0.1,0.1,0.3,0.1,0.3,0.2c0.1,0,0.3-0.1,0.4-0.2l1.9-2.6c0.1-0.2,0.1-0.3,0.1-0.4
						c0-0.1-0.1-0.2-0.3-0.3l0.1-0.1l1.7,1.2l-0.1,0.1c-0.2-0.1-0.3-0.2-0.4-0.2c-0.1,0-0.3,0.1-0.4,0.2l-1.9,2.6
						c-0.1,0.2-0.1,0.3-0.1,0.4c0,0.1,0.1,0.2,0.3,0.3l-0.1,0.1l-1.7-1.2L139.5,46z M144.2,42.6c-0.1,0-0.1,0-0.2,0h-1l-0.3-0.2
						l1.2-0.4c0.1,0,0.1,0,0.1,0c0.1,0,0.2,0,0.2,0.1c0.1,0,0.1,0.1,0.1,0.2c0,0.1,0,0.1-0.1,0.2C144.3,42.6,144.2,42.6,144.2,42.6z
						"/>
					<path class="st10" d="M141.7,47.6c0.1,0.1,0.3,0.1,0.4,0.1c0.1,0,0.3-0.1,0.5-0.3l3.3-1.9l0.1,0.1l-1.2,3.5
						c-0.1,0.4-0.2,0.7-0.2,0.8s0,0.2,0.1,0.3l-0.1,0.1l-1.5-1.2l0.1-0.1c0.2,0.1,0.3,0.2,0.3,0.2c0.1,0,0.1,0,0.2-0.1
						c0,0,0.1-0.1,0.1-0.2c0-0.1,0.1-0.1,0.1-0.2l0.1-0.4l-1-0.9c-0.2,0.1-0.4,0.2-0.5,0.3s-0.2,0.2-0.3,0.2c-0.1,0.1-0.1,0.2,0,0.3
						c0,0.1,0.1,0.1,0.2,0.2l-0.1,0.1l-0.9-0.8L141.7,47.6z M144.3,47.9l0.5-1.5l0,0l-1.4,0.8L144.3,47.9z"/>
					<path class="st10" d="M146.4,51.6c0.1,0.1,0.2,0.2,0.3,0.2s0.3,0,0.4-0.1l2.4-2.2c0.1-0.1,0.2-0.2,0.1-0.4
						c0-0.1-0.1-0.2-0.2-0.3l0.1-0.1l1.3,1.3c0.5,0.5,0.7,1.1,0.7,1.7c0,0.5-0.3,1-0.8,1.5c-0.4,0.4-0.9,0.6-1.5,0.7
						c-0.6,0-1.2-0.2-1.6-0.7l-1.3-1.4L146.4,51.6z M147.6,52.6c0,0.1,0,0.2,0.1,0.2c0.2,0.3,0.5,0.4,0.9,0.4s0.8-0.3,1.4-0.8
						c0.3-0.3,0.6-0.6,0.7-1c0.3-0.5,0.2-0.9-0.1-1.3c-0.1-0.1-0.2-0.2-0.3-0.1c-0.1,0-0.1,0.1-0.2,0.2l-2.3,2.2
						C147.6,52.5,147.6,52.6,147.6,52.6z"/>
					<path class="st10" d="M149.5,55.1l0.1-0.1c0.1,0.1,0.2,0.2,0.3,0.2s0.3,0,0.4-0.1l2.5-2c0.1-0.1,0.2-0.2,0.2-0.4
						c0-0.1-0.1-0.2-0.2-0.3l0.1-0.1l2.2,2.7l-1,0.8l-0.1-0.1c0.3-0.3,0.4-0.6,0.4-0.9c0-0.2-0.1-0.6-0.4-0.9
						c-0.1-0.1-0.2-0.2-0.3-0.2s-0.1,0-0.2,0.1l-1.2,1c0.2,0.3,0.4,0.4,0.6,0.4s0.4-0.1,0.8-0.3l0.1,0.1l-1.7,1.4l-0.1-0.1
						c0.3-0.3,0.4-0.5,0.5-0.7s-0.1-0.4-0.3-0.7l-1.2,1c-0.1,0.1-0.2,0.2-0.2,0.3s0.1,0.2,0.2,0.4c0.2,0.3,0.5,0.5,0.8,0.6
						s0.7,0.1,1.1-0.1l0.1,0.1l-1.2,0.7L149.5,55.1z"/>
					<path class="st10" d="M153.4,60c0.1,0.1,0.2,0.2,0.2,0.3c0.1,0.1,0.3,0,0.4-0.1l2.7-1.7c0.2-0.1,0.2-0.2,0.2-0.3s0-0.2-0.1-0.3
						l0.1-0.1l1.1,1.8l-0.1,0.1c-0.1-0.2-0.3-0.3-0.4-0.4c-0.1,0-0.3,0-0.5,0.2l-2.6,1.6c-0.1,0.1-0.2,0.2-0.2,0.2
						c0,0.1,0,0.2,0.2,0.4c0.2,0.3,0.4,0.5,0.7,0.6s0.7,0.1,1.2,0l0.1,0.1L155,63l-1.8-3L153.4,60z"/>
					<path class="st10" d="M160.7,65.3c-0.2,0.6-0.6,1-1.2,1.3c-0.6,0.3-1.2,0.4-1.8,0.2c-0.6-0.2-1-0.5-1.3-1.1s-0.3-1.1-0.1-1.7
						c0.2-0.5,0.6-0.9,1.2-1.2c0.6-0.3,1.2-0.4,1.8-0.2s1,0.5,1.3,1.1C160.9,64.2,160.9,64.8,160.7,65.3z M157.8,66.1
						c0.3-0.1,0.7-0.2,1.2-0.4c0.6-0.3,1.1-0.6,1.3-1c0.2-0.3,0.3-0.6,0.1-0.9c-0.2-0.4-0.6-0.6-1.2-0.4c-0.3,0.1-0.7,0.2-1.2,0.4
						s-0.8,0.5-1,0.7c-0.4,0.4-0.6,0.8-0.4,1.2C156.8,66.1,157.2,66.3,157.8,66.1z"/>
					<path class="st10" d="M159.2,67.8l0.1,0.2c-0.4,0.3-0.7,0.6-0.8,0.8c-0.1,0.3-0.1,0.6,0,0.8c0.1,0.2,0.2,0.4,0.4,0.4
						s0.4,0,0.5,0c0.2-0.1,0.3-0.2,0.4-0.3c0-0.1,0.1-0.3,0.1-0.6l0.1-0.4c0.1-0.4,0.1-0.8,0.3-1c0.1-0.2,0.3-0.4,0.6-0.5
						s0.6-0.1,1,0c0.3,0.1,0.6,0.3,0.7,0.7c0.1,0.2,0.1,0.4,0.1,0.6s0,0.3,0,0.4s0.1,0.1,0.1,0.1s0.1,0,0.2,0l0.1,0.2l-1.3,0.5
						l-0.1-0.2c0.3-0.2,0.5-0.4,0.6-0.7c0.1-0.3,0.2-0.5,0.1-0.8c-0.1-0.2-0.2-0.3-0.3-0.4c-0.2-0.1-0.3-0.1-0.5,0s-0.3,0.2-0.4,0.3
						c-0.1,0.1-0.1,0.4-0.2,0.8l-0.1,0.5c0,0.2-0.1,0.4-0.2,0.6c-0.1,0.3-0.4,0.5-0.7,0.6s-0.6,0.1-1,0s-0.6-0.4-0.8-0.9
						c0-0.1-0.1-0.2-0.1-0.4c0-0.1,0-0.2,0-0.4v-0.1v-0.1c0,0,0,0,0-0.1s-0.1-0.1-0.1-0.1s-0.1,0-0.2,0l-0.1-0.2L159.2,67.8z"/>
					<path class="st10" d="M159.8,73.1c0,0.1,0.2,0.2,0.3,0.3c0.1,0,0.3,0.1,0.6,0.1l3.8,0.3V74l-3,2.2c-0.3,0.3-0.5,0.4-0.6,0.5
						s-0.1,0.2-0.1,0.4h-0.2l-0.5-1.9h0.2c0.1,0.2,0.1,0.3,0.2,0.4c0,0.1,0.1,0.1,0.2,0c0,0,0.1-0.1,0.2-0.1c0.1,0,0.1-0.1,0.2-0.1
						l0.3-0.3l-0.4-1.3c-0.3,0-0.5,0-0.5,0c-0.2,0-0.3,0-0.4,0c-0.1,0-0.1,0.1-0.2,0.2c0,0.1,0,0.2,0,0.3h-0.2l-0.3-1.2H159.8z
						 M161.7,74.9l1.3-1l0,0l-1.6-0.1L161.7,74.9z"/>
					<path class="st10" d="M161,77.6c0,0.2,0.1,0.3,0.1,0.3c0.1,0.1,0.2,0.1,0.4,0.1l3.1-0.6c0.2,0,0.3-0.1,0.3-0.2s0-0.2,0-0.4h0.2
						l0.4,2.1h-0.2c-0.1-0.2-0.1-0.4-0.2-0.5c-0.1-0.1-0.2-0.1-0.5,0l-3.1,0.6c-0.1,0-0.2,0.1-0.3,0.2c0,0.1,0,0.2,0,0.4
						c0.1,0.4,0.2,0.6,0.4,0.8c0.2,0.2,0.6,0.4,1.1,0.4V81h-1.5l-0.7-3.4H161z"/>
					<path class="st10" d="M161.8,81.9c0,0.2,0.1,0.3,0.1,0.4c0.1,0.1,0.2,0.2,0.4,0.1l3.2-0.4c0.2,0,0.3-0.1,0.4-0.2
						c0-0.1,0-0.2,0-0.4h0.2l0.3,2.1h-0.2c0-0.2-0.1-0.3-0.1-0.4c-0.1-0.1-0.2-0.2-0.4-0.1l-3.2,0.4c-0.2,0-0.3,0.1-0.4,0.2
						c-0.1,0.1-0.1,0.2,0,0.4h-0.2l-0.3-2.1H161.8z"/>
					<path class="st10" d="M162.2,84.5c0,0.2,0.1,0.4,0.2,0.4c0.1,0.1,0.2,0.1,0.4,0.1l3.1-0.1c0.2,0,0.3-0.1,0.3-0.1
						c0.1-0.1,0.1-0.2,0.1-0.4h0.2l0.1,1.5l-3,1.3v0.1l3.1,1.1l0.1,1.5h-0.2c0-0.2-0.1-0.3-0.1-0.4c-0.1-0.1-0.2-0.1-0.5-0.1
						l-2.9,0.1c-0.2,0-0.4,0.1-0.5,0.1c-0.1,0.1-0.1,0.2-0.1,0.4h-0.2l-0.1-2h0.2c0,0.2,0.1,0.3,0.1,0.4c0.1,0.1,0.2,0.1,0.4,0.1
						l3.2-0.1l0,0l-3.9-1.3v-0.2l3.7-1.6l0,0l-3,0.1c-0.2,0-0.4,0.1-0.5,0.1c-0.1,0.1-0.1,0.2-0.1,0.5h-0.2l-0.1-1.4L162.2,84.5z"/>
					<path class="st10" d="M162.2,90.5h0.2c0,0.2,0,0.3,0.1,0.4s0.2,0.2,0.4,0.2l3.2,0.2c0.2,0,0.3,0,0.4-0.2c0-0.1,0.1-0.2,0.1-0.4
						h0.2l-0.2,3.5l-1.3-0.1V94c0.4-0.1,0.7-0.2,0.9-0.3c0.2-0.2,0.3-0.5,0.3-1c0-0.2,0-0.3,0-0.4s-0.1-0.1-0.2-0.1l-1.5-0.1
						c0,0.3,0,0.6,0.2,0.7c0.1,0.1,0.4,0.2,0.8,0.3v0.2l-2.2-0.1V93c0.4,0,0.6-0.1,0.8-0.2s0.3-0.4,0.3-0.7l-1.6-0.1
						c-0.1,0-0.2,0-0.3,0.1s-0.1,0.2-0.1,0.4c0,0.4,0,0.7,0.2,1c0.1,0.3,0.4,0.5,0.9,0.7v0.2L162,94L162.2,90.5z"/>
					<path class="st10" d="M162.1,94.9c0,0.2,0,0.4,0.1,0.4c0.1,0.1,0.2,0.1,0.4,0.2l3.1,0.4c0.2-0.2,0.4-0.2,0.4-0.3
						c0,0,0.1-0.1,0.1-0.2h0.2l-0.2,1.3l-3,1.7l0,0l1.9,0.3c0.2,0,0.4,0,0.5,0c0.1-0.1,0.2-0.2,0.2-0.4h0.2l-0.2,1.3h-0.2
						c0-0.2,0-0.3-0.1-0.4c0-0.1-0.2-0.1-0.4-0.1l-3.8-0.6v-0.2l3.9-2.1l0,0l-2.6-0.4c-0.2,0-0.3,0-0.4,0c-0.1,0.1-0.2,0.2-0.3,0.5
						h-0.2l0.2-1.4L162.1,94.9z"/>
					<path class="st10" d="M165.5,100.5l-0.8,3.5l-1.3-0.3v-0.2c0.5,0.1,0.8,0,1.1-0.3c0.1-0.1,0.2-0.3,0.3-0.6l-3.4-0.8
						c-0.2-0.1-0.4-0.1-0.5,0s-0.2,0.2-0.2,0.4h-0.2l0.5-2.1h0.2c-0.1,0.2-0.1,0.4,0,0.5s0.2,0.2,0.4,0.2l3.4,0.8
						c0.1-0.3,0.1-0.5,0-0.7c-0.1-0.3-0.4-0.6-0.8-0.7V100L165.5,100.5z"/>
					<path class="st10" d="M162.8,108.4c-0.5,0.3-1.1,0.3-1.8,0.1c-0.7-0.2-1.1-0.6-1.4-1.1c-0.3-0.5-0.3-1.1-0.1-1.6
						c0.2-0.6,0.6-1,1.2-1.3c0.5-0.2,1.1-0.2,1.7,0c0.7,0.2,1.1,0.6,1.4,1.1c0.3,0.5,0.4,1.1,0.2,1.7
						C163.7,107.7,163.3,108.1,162.8,108.4z M160.2,106.9c0.3,0.2,0.7,0.4,1.1,0.5c0.7,0.2,1.2,0.3,1.6,0.2c0.4-0.1,0.6-0.3,0.8-0.6
						c0.1-0.4,0-0.8-0.6-1.2c-0.3-0.2-0.6-0.4-1.1-0.5c-0.5-0.2-0.9-0.2-1.2-0.3c-0.6,0-1,0.2-1.1,0.6
						C159.5,106.2,159.7,106.5,160.2,106.9z"/>
					<path class="st10" d="M160,109l-0.1,0.2c-0.5-0.1-0.9-0.1-1.2,0s-0.5,0.3-0.6,0.5s-0.1,0.5,0,0.6c0.1,0.2,0.2,0.3,0.4,0.3
						c0.2,0.1,0.4,0.1,0.5,0c0.1,0,0.3-0.1,0.5-0.3l0.3-0.3c0.3-0.3,0.6-0.4,0.9-0.5c0.3-0.1,0.5,0,0.8,0.1s0.5,0.3,0.7,0.6
						c0.2,0.3,0.2,0.6,0,1c-0.1,0.2-0.2,0.4-0.3,0.5c-0.1,0.2-0.2,0.3-0.2,0.3c0,0.1,0,0.1,0,0.1l0.1,0.1l-0.1,0.2l-1.3-0.6l0.1-0.2
						c0.3,0.1,0.7,0,1,0c0.3-0.1,0.5-0.3,0.6-0.5s0.1-0.4,0-0.5c-0.1-0.2-0.2-0.3-0.3-0.3c-0.2-0.1-0.4-0.1-0.5,0s-0.4,0.2-0.7,0.5
						l-0.4,0.3c-0.2,0.1-0.4,0.2-0.5,0.3c-0.3,0.1-0.6,0.1-1,0c-0.3-0.1-0.5-0.4-0.7-0.7c-0.2-0.3-0.2-0.7,0-1.2
						c0-0.1,0.1-0.2,0.2-0.3c0.1-0.1,0.2-0.2,0.2-0.3l0.1-0.1c0,0,0,0,0-0.1c0,0,0,0,0-0.1s0-0.1,0-0.1l-0.1-0.1l0.1-0.2L160,109z"
						/>
				</g>
				<circle class="st10" cx="65.1" cy="119" r="2.1"/>
				<circle class="st10" cx="153.9" cy="120.5" r="2.1"/>
				<circle class="st9" cx="110.2" cy="88.9" r="46.7"/>
				<path class="st10" d="M110.2,42.2c-25.8,0-46.7,20.9-46.7,46.7c0,5.8,1.1,11.3,3,16.4H154c1.9-5.1,3-10.7,3-16.4
					C157,63.1,136,42.2,110.2,42.2z"/>
				<circle class="st8" cx="110.9" cy="63.4" r="12.6"/>
				<path class="st8" d="M98.2,103c0-0.1,0-0.1,0-0.2c0-7,5.4-12.6,12.1-12.6c0.1,0,0.1,0,0.2,0v-13c-0.1,0-0.1,0-0.2,0
					c-13.6,0-24.7,11.5-24.7,25.7c0,0.1,0,0.1,0,0.2L98.2,103L98.2,103z"/>
				<path class="st8" d="M122.9,77.4c0,0.1,0,0.1,0,0.2c0,7-5.4,12.6-12.1,12.6c-0.1,0-0.1,0-0.2,0v13.1c0.1,0,0.1,0,0.2,0
					c13.6,0,24.7-11.5,24.7-25.7c0-0.1,0-0.1,0-0.2C135.5,77.4,122.9,77.4,122.9,77.4z"/>
				<path class="st8" d="M127.5,72.1c1.3,1.4,1.6,3.2,1.6,3.2s-1.7-0.4-3-1.8s-1.6-3.2-1.6-3.2S126.2,70.7,127.5,72.1z"/>
				<path class="st8" d="M132.9,73.5c-1.3,1.4-3,1.8-3,1.8s0.4-1.8,1.7-3.2c1.3-1.4,3-1.8,3-1.8S134.2,72.2,132.9,73.5z"/>
				<path class="st8" d="M130.5,64.9c0,1.9-1,3.5-1,3.5s-1-1.6-1-3.5s1-3.5,1-3.5S130.5,63,130.5,64.9z"/>
				<polygon class="st8" points="125.4,65.9 129.5,69.8 133.6,66.1 129.5,71.9 				"/>
				<path class="st10" d="M86,112.8h5.9v11.6H86V112.8z M86,108.4h5.9v3.4H86V108.4z"/>
				<path class="st10" d="M93.6,116.4c0-2.4,0-3.1,0-3.6h5.8c0.1,0.2,0,0.8,0,1.1c0.7-0.6,2.3-1.3,4.8-1.3c3,0,5.3,1.7,5.3,3.6v8.2
					h-6v-6.8c0-0.9-0.3-1.5-1.8-1.5c-1.3,0-2.3,0.4-2.3,1.8v6.5h-5.7v-8H93.6z"/>
				<path class="st10" d="M109.9,112.7h2.6v-3.3h5.8v3.3h3v2.8h-3v4.6c0,0.6,0.1,0.9,1.4,0.9c0.4,0,0.6,0,1.6,0v3.4
					c0,0-3.4,0.1-4.2,0.1c-3.8,0-4.7-1.2-4.7-3.4v-5.5h-2.5C109.9,115.6,109.9,112.7,109.9,112.7z"/>
				<path class="st10" d="M137.1,121.1c0,0.8,0.1,2.5,0.5,2.9l-5.8,0.2c0,0,0-0.8,0-1.1c-1,0.8-2.7,1.3-4.9,1.3
					c-3.7,0-5.3-1.6-5.3-3.6c0-2.4,2.6-3.7,7.9-3.7c0.6,0,1.7-0.2,2.1-0.1v-1.1c0-0.7-0.6-1.2-2.1-1.2c-1.4,0-1.7,0.5-1.8,1.3h-5.5
					c0.1-2,1.8-3.7,7.5-3.7c4.8,0,7.4,1,7.4,3.4L137.1,121.1L137.1,121.1z M131.7,119.1c-0.4,0-1.2,0-1.7,0c-2.1,0-2.7,0.6-2.7,1.4
					c0,0.7,0.5,1.2,1.8,1.2c1.8,0,2.6-0.8,2.6-2.1L131.7,119.1L131.7,119.1z"/>
			</g>
			<g>
				
					<linearGradient id="SVGID_12_" gradientUnits="userSpaceOnUse" x1="29.1" y1="95.4" x2="191.5" y2="95.4" gradientTransform="matrix(1 0 0 -1 0 184)">
					<stop  offset="8.183338e-02" style="stop-color:#886530"/>
					<stop  offset="0.4541" style="stop-color:#D3B05E"/>
					<stop  offset="0.6355" style="stop-color:#F4F0A8"/>
					<stop  offset="0.9615" style="stop-color:#D3B05E"/>
				</linearGradient>
				<path class="st11" d="M110.3,7.4c-44.8,0-81.2,36.3-81.2,81.2c0,44.8,36.3,81.2,81.2,81.2c44.8,0,81.2-36.3,81.2-81.2
					C191.5,43.8,155.2,7.4,110.3,7.4z M110.3,167.8c-43.8,0-79.2-35.5-79.2-79.2c0-43.8,35.5-79.2,79.2-79.2
					c43.8,0,79.2,35.5,79.2,79.2C189.6,132.3,154.1,167.8,110.3,167.8z"/>
			</g>
			<g>
				<circle class="st12" cx="39.2" cy="90" r="3.1"/>
				
					<linearGradient id="SVGID_13_" gradientUnits="userSpaceOnUse" x1="36.3901" y1="92.7901" x2="40.8364" y2="97.2363" gradientTransform="matrix(1 0 0 -1 0 184)">
					<stop  offset="2.480436e-03" style="stop-color:#AE9565"/>
					<stop  offset="0.5131" style="stop-color:#EED693"/>
					<stop  offset="1" style="stop-color:#B09778"/>
				</linearGradient>
				
					<linearGradient id="SVGID_14_" gradientUnits="userSpaceOnUse" x1="36.0882" y1="97.5118" x2="41.1243" y2="92.4757" gradientTransform="matrix(1 0 0 -1 0 184)">
					<stop  offset="0" style="stop-color:#D3B05E"/>
					<stop  offset="0.2906" style="stop-color:#F4F0A8"/>
					<stop  offset="0.5481" style="stop-color:#DBBE73"/>
					<stop  offset="0.6291" style="stop-color:#D1B36B"/>
					<stop  offset="0.7702" style="stop-color:#B69755"/>
					<stop  offset="0.9535" style="stop-color:#8B6932"/>
					<stop  offset="0.9656" style="stop-color:#886530"/>
				</linearGradient>
				<circle class="st13" cx="38.6" cy="89" r="3.1"/>
			</g>
			<g>
				<circle class="st12" cx="182.2" cy="90" r="3.1"/>
				
					<linearGradient id="SVGID_15_" gradientUnits="userSpaceOnUse" x1="179.3679" y1="92.7678" x2="183.8141" y2="97.2141" gradientTransform="matrix(1 0 0 -1 0 184)">
					<stop  offset="2.480436e-03" style="stop-color:#AE9565"/>
					<stop  offset="0.5131" style="stop-color:#EED693"/>
					<stop  offset="1" style="stop-color:#B09778"/>
				</linearGradient>
				
					<linearGradient id="SVGID_16_" gradientUnits="userSpaceOnUse" x1="179.0659" y1="97.5341" x2="184.102" y2="92.498" gradientTransform="matrix(1 0 0 -1 0 184)">
					<stop  offset="0" style="stop-color:#D3B05E"/>
					<stop  offset="0.2906" style="stop-color:#F4F0A8"/>
					<stop  offset="0.5481" style="stop-color:#DBBE73"/>
					<stop  offset="0.6291" style="stop-color:#D1B36B"/>
					<stop  offset="0.7702" style="stop-color:#B69755"/>
					<stop  offset="0.9535" style="stop-color:#8B6932"/>
					<stop  offset="0.9656" style="stop-color:#886530"/>
				</linearGradient>
				<circle class="st14" cx="181.6" cy="89" r="3.1"/>
			</g>
			<path id="SVGID_x5F_15_x5F_" class="st15" d="M42.9,89.6c0-37.3,30.3-67.6,67.6-67.6s67.6,30.3,67.6,67.6s-30.3,67.6-67.6,67.6
				S42.9,126.9,42.9,89.6z"/>
			<text class="st16 st17"> </text>
			<path id="SVGID_x5F_16_x5F_" class="st15" d="M34.8,88.6c0,41.7,33.9,75.4,75.8,75.4s75.8-33.8,75.8-75.4
				c0-41.7-33.9-75.4-75.8-75.4C68.7,13.2,34.8,47,34.8,88.6z"/>
			<text class="st16 st17"> </text>
		</g>
	</g>
	<g>
		<rect x="545.3" y="45.2" class="st18" width="87.5" height="87.5"/>
		<rect x="576.5" y="53.9" class="st19" width="5.6" height="2.8"/>
		<rect x="593.3" y="53.9" class="st19" width="2.8" height="2.8"/>
		<rect x="598.9" y="53.9" class="st19" width="2.8" height="2.8"/>
		<rect x="590.5" y="56.7" class="st19" width="2.8" height="2.8"/>
		<rect x="596.1" y="56.7" class="st19" width="2.8" height="2.8"/>
		<rect x="576.5" y="59.5" class="st19" width="2.8" height="2.8"/>
		<rect x="584.9" y="59.5" class="st19" width="8.4" height="2.8"/>
		<rect x="596.1" y="59.5" class="st19" width="5.6" height="2.8"/>
		<rect x="576.5" y="62.3" class="st19" width="5.6" height="2.8"/>
		<rect x="584.9" y="62.3" class="st19" width="2.8" height="2.8"/>
		<rect x="590.5" y="62.3" class="st19" width="2.8" height="2.8"/>
		<rect x="596.1" y="62.3" class="st19" width="5.6" height="2.8"/>
		<rect x="576.5" y="65.1" class="st19" width="11.2" height="2.8"/>
		<rect x="593.3" y="65.1" class="st19" width="2.8" height="2.8"/>
		<rect x="598.9" y="65.1" class="st19" width="2.8" height="2.8"/>
		<rect x="579.3" y="67.9" class="st19" width="2.8" height="2.8"/>
		<rect x="587.7" y="67.9" class="st19" width="2.8" height="2.8"/>
		<rect x="593.3" y="67.9" class="st19" width="2.8" height="2.8"/>
		<rect x="598.9" y="67.9" class="st19" width="2.8" height="2.8"/>
		<rect x="576.5" y="70.7" class="st19" width="2.8" height="2.8"/>
		<rect x="582.1" y="70.7" class="st19" width="2.8" height="2.8"/>
		<rect x="587.7" y="70.7" class="st19" width="2.8" height="2.8"/>
		<rect x="593.3" y="70.7" class="st19" width="2.8" height="2.8"/>
		<rect x="598.9" y="70.7" class="st19" width="2.8" height="2.8"/>
		<rect x="579.3" y="73.5" class="st19" width="2.8" height="2.8"/>
		<rect x="584.9" y="73.5" class="st19" width="2.8" height="2.8"/>
		<rect x="593.3" y="73.5" class="st19" width="8.4" height="2.8"/>
		<rect x="554.1" y="76.3" class="st19" width="11.2" height="2.8"/>
		<rect x="570.9" y="76.3" class="st19" width="2.8" height="2.8"/>
		<rect x="576.5" y="76.3" class="st19" width="2.8" height="2.8"/>
		<rect x="598.9" y="76.3" class="st19" width="5.6" height="2.8"/>
		<rect x="610.1" y="76.3" class="st19" width="8.4" height="2.8"/>
		<rect x="621.3" y="76.3" class="st19" width="2.8" height="2.8"/>
		<rect x="556.9" y="79.1" class="st19" width="8.4" height="2.8"/>
		<rect x="573.7" y="79.1" class="st19" width="2.8" height="2.8"/>
		<rect x="579.3" y="79.1" class="st19" width="2.8" height="2.8"/>
		<rect x="593.3" y="79.1" class="st19" width="11.2" height="2.8"/>
		<rect x="607.3" y="79.1" class="st19" width="5.6" height="2.8"/>
		<rect x="621.3" y="79.1" class="st19" width="2.8" height="2.8"/>
		<rect x="562.5" y="81.9" class="st19" width="2.8" height="2.8"/>
		<rect x="570.9" y="81.9" class="st19" width="2.8" height="2.8"/>
		<rect x="576.5" y="81.9" class="st19" width="2.8" height="2.8"/>
		<rect x="612.9" y="81.9" class="st19" width="11.2" height="2.8"/>
		<rect x="554.1" y="84.7" class="st19" width="2.8" height="2.8"/>
		<rect x="562.5" y="84.7" class="st19" width="5.6" height="2.8"/>
		<rect x="573.7" y="84.7" class="st19" width="5.6" height="2.8"/>
		<rect x="584.9" y="84.7" class="st19" width="8.4" height="2.8"/>
		<rect x="596.1" y="84.7" class="st19" width="2.8" height="2.8"/>
		<rect x="601.7" y="84.7" class="st19" width="8.4" height="2.8"/>
		<rect x="612.9" y="84.7" class="st19" width="5.6" height="2.8"/>
		<rect x="621.3" y="84.7" class="st19" width="2.8" height="2.8"/>
		<rect x="556.9" y="87.5" class="st19" width="2.8" height="2.8"/>
		<rect x="565.3" y="87.5" class="st19" width="11.2" height="2.8"/>
		<rect x="579.3" y="87.5" class="st19" width="2.8" height="2.8"/>
		<rect x="584.9" y="87.5" class="st19" width="2.8" height="2.8"/>
		<rect x="590.5" y="87.5" class="st19" width="2.8" height="2.8"/>
		<rect x="596.1" y="87.5" class="st19" width="2.8" height="2.8"/>
		<rect x="604.5" y="87.5" class="st19" width="11.2" height="2.8"/>
		<rect x="618.5" y="87.5" class="st19" width="5.6" height="2.8"/>
		<rect x="556.9" y="90.3" class="st19" width="2.8" height="2.8"/>
		<rect x="565.3" y="90.3" class="st19" width="5.6" height="2.8"/>
		<rect x="576.5" y="90.3" class="st19" width="11.2" height="2.8"/>
		<rect x="593.3" y="90.3" class="st19" width="8.4" height="2.8"/>
		<rect x="607.3" y="90.3" class="st19" width="2.8" height="2.8"/>
		<rect x="612.9" y="90.3" class="st19" width="2.8" height="2.8"/>
		<rect x="618.5" y="90.3" class="st19" width="5.6" height="2.8"/>
		<rect x="556.9" y="93.1" class="st19" width="2.8" height="2.8"/>
		<rect x="562.5" y="93.1" class="st19" width="14" height="2.8"/>
		<rect x="579.3" y="93.1" class="st19" width="2.8" height="2.8"/>
		<rect x="587.7" y="93.1" class="st19" width="16.8" height="2.8"/>
		<rect x="607.3" y="93.1" class="st19" width="8.4" height="2.8"/>
		<rect x="618.5" y="93.1" class="st19" width="2.8" height="2.8"/>
		<rect x="554.1" y="95.9" class="st19" width="2.8" height="2.8"/>
		<rect x="559.7" y="95.9" class="st19" width="2.8" height="2.8"/>
		<rect x="568.1" y="95.9" class="st19" width="2.8" height="2.8"/>
		<rect x="573.7" y="95.9" class="st19" width="2.8" height="2.8"/>
		<rect x="587.7" y="95.9" class="st19" width="5.6" height="2.8"/>
		<rect x="601.7" y="95.9" class="st19" width="2.8" height="2.8"/>
		<rect x="618.5" y="95.9" class="st19" width="5.6" height="2.8"/>
		<rect x="559.7" y="98.7" class="st19" width="2.8" height="2.8"/>
		<rect x="568.1" y="98.7" class="st19" width="8.4" height="2.8"/>
		<rect x="584.9" y="98.7" class="st19" width="2.8" height="2.8"/>
		<rect x="590.5" y="98.7" class="st19" width="5.6" height="2.8"/>
		<rect x="598.9" y="98.7" class="st19" width="14" height="2.8"/>
		<rect x="618.5" y="98.7" class="st19" width="2.8" height="2.8"/>
		<rect x="576.5" y="101.5" class="st19" width="5.6" height="2.8"/>
		<rect x="587.7" y="101.5" class="st19" width="5.6" height="2.8"/>
		<rect x="596.1" y="101.5" class="st19" width="5.6" height="2.8"/>
		<rect x="610.1" y="101.5" class="st19" width="8.4" height="2.8"/>
		<rect x="579.3" y="104.3" class="st19" width="11.2" height="2.8"/>
		<rect x="593.3" y="104.3" class="st19" width="2.8" height="2.8"/>
		<rect x="598.9" y="104.3" class="st19" width="2.8" height="2.8"/>
		<rect x="604.5" y="104.3" class="st19" width="2.8" height="2.8"/>
		<rect x="610.1" y="104.3" class="st19" width="2.8" height="2.8"/>
		<rect x="615.7" y="104.3" class="st19" width="8.4" height="2.8"/>
		<rect x="582.1" y="107.1" class="st19" width="2.8" height="2.8"/>
		<rect x="587.7" y="107.1" class="st19" width="2.8" height="2.8"/>
		<rect x="596.1" y="107.1" class="st19" width="5.6" height="2.8"/>
		<rect x="610.1" y="107.1" class="st19" width="2.8" height="2.8"/>
		<rect x="618.5" y="107.1" class="st19" width="5.6" height="2.8"/>
		<rect x="579.3" y="109.9" class="st19" width="2.8" height="2.8"/>
		<rect x="584.9" y="109.9" class="st19" width="2.8" height="2.8"/>
		<rect x="590.5" y="109.9" class="st19" width="2.8" height="2.8"/>
		<rect x="596.1" y="109.9" class="st19" width="16.8" height="2.8"/>
		<rect x="615.7" y="109.9" class="st19" width="2.8" height="2.8"/>
		<rect x="621.3" y="109.9" class="st19" width="2.8" height="2.8"/>
		<rect x="576.5" y="112.7" class="st19" width="2.8" height="2.8"/>
		<rect x="587.7" y="112.7" class="st19" width="2.8" height="2.8"/>
		<rect x="593.3" y="112.7" class="st19" width="8.4" height="2.8"/>
		<rect x="604.5" y="112.7" class="st19" width="2.8" height="2.8"/>
		<rect x="610.1" y="112.7" class="st19" width="2.8" height="2.8"/>
		<rect x="618.5" y="112.7" class="st19" width="5.6" height="2.8"/>
		<rect x="576.5" y="115.5" class="st19" width="11.2" height="2.8"/>
		<rect x="596.1" y="115.5" class="st19" width="2.8" height="2.8"/>
		<rect x="601.7" y="115.5" class="st19" width="5.6" height="2.8"/>
		<rect x="612.9" y="115.5" class="st19" width="8.4" height="2.8"/>
		<rect x="576.5" y="118.3" class="st19" width="2.8" height="2.8"/>
		<rect x="596.1" y="118.3" class="st19" width="2.8" height="2.8"/>
		<rect x="601.7" y="118.3" class="st19" width="2.8" height="2.8"/>
		<rect x="610.1" y="118.3" class="st19" width="2.8" height="2.8"/>
		<rect x="615.7" y="118.3" class="st19" width="8.4" height="2.8"/>
		<rect x="576.5" y="121.1" class="st19" width="2.8" height="2.8"/>
		<rect x="582.1" y="121.1" class="st19" width="2.8" height="2.8"/>
		<rect x="587.7" y="121.1" class="st19" width="11.2" height="2.8"/>
		<rect x="615.7" y="121.1" class="st19" width="8.4" height="2.8"/>
		<rect x="554.1" y="53.9" class="st19" width="19.6" height="2.8"/>
		<rect x="554.1" y="56.7" class="st19" width="2.8" height="14"/>
		<rect x="570.9" y="56.7" class="st19" width="2.8" height="14"/>
		<rect x="554.1" y="70.7" class="st19" width="19.6" height="2.8"/>
		<rect x="554.1" y="53.9" class="st19" width="19.6" height="2.8"/>
		<rect x="554.1" y="56.7" class="st19" width="2.8" height="2.8"/>
		<rect x="570.9" y="56.7" class="st19" width="2.8" height="2.8"/>
		<rect x="554.1" y="59.5" class="st19" width="2.8" height="2.8"/>
		<rect x="570.9" y="59.5" class="st19" width="2.8" height="2.8"/>
		<rect x="554.1" y="62.3" class="st19" width="2.8" height="2.8"/>
		<rect x="570.9" y="62.3" class="st19" width="2.8" height="2.8"/>
		<rect x="554.1" y="65.1" class="st19" width="2.8" height="2.8"/>
		<rect x="570.9" y="65.1" class="st19" width="2.8" height="2.8"/>
		<rect x="554.1" y="67.9" class="st19" width="2.8" height="2.8"/>
		<rect x="570.9" y="67.9" class="st19" width="2.8" height="2.8"/>
		<rect x="554.1" y="70.7" class="st19" width="19.6" height="2.8"/>
		<rect x="559.7" y="59.5" class="st19" width="8.4" height="8.4"/>
		<rect x="604.5" y="53.9" class="st19" width="19.6" height="2.8"/>
		<rect x="604.5" y="56.7" class="st19" width="2.8" height="14"/>
		<rect x="621.3" y="56.7" class="st19" width="2.8" height="14"/>
		<rect x="604.5" y="70.7" class="st19" width="19.6" height="2.8"/>
		<rect x="604.5" y="53.9" class="st19" width="19.6" height="2.8"/>
		<rect x="604.5" y="56.7" class="st19" width="2.8" height="2.8"/>
		<rect x="621.3" y="56.7" class="st19" width="2.8" height="2.8"/>
		<rect x="604.5" y="59.5" class="st19" width="2.8" height="2.8"/>
		<rect x="621.3" y="59.5" class="st19" width="2.8" height="2.8"/>
		<rect x="604.5" y="62.3" class="st19" width="2.8" height="2.8"/>
		<rect x="621.3" y="62.3" class="st19" width="2.8" height="2.8"/>
		<rect x="604.5" y="65.1" class="st19" width="2.8" height="2.8"/>
		<rect x="621.3" y="65.1" class="st19" width="2.8" height="2.8"/>
		<rect x="604.5" y="67.9" class="st19" width="2.8" height="2.8"/>
		<rect x="621.3" y="67.9" class="st19" width="2.8" height="2.8"/>
		<rect x="604.5" y="70.7" class="st19" width="19.6" height="2.8"/>
		<rect x="610.1" y="59.5" class="st19" width="8.4" height="8.4"/>
		<rect x="554.1" y="104.3" class="st19" width="19.6" height="2.8"/>
		<rect x="554.1" y="107.1" class="st19" width="2.8" height="14"/>
		<rect x="570.9" y="107.1" class="st19" width="2.8" height="14"/>
		<rect x="554.1" y="121.1" class="st19" width="19.6" height="2.8"/>
		<rect x="554.1" y="104.3" class="st19" width="19.6" height="2.8"/>
		<rect x="554.1" y="107.1" class="st19" width="2.8" height="2.8"/>
		<rect x="570.9" y="107.1" class="st19" width="2.8" height="2.8"/>
		<rect x="554.1" y="109.9" class="st19" width="2.8" height="2.8"/>
		<rect x="570.9" y="109.9" class="st19" width="2.8" height="2.8"/>
		<rect x="554.1" y="112.7" class="st19" width="2.8" height="2.8"/>
		<rect x="570.9" y="112.7" class="st19" width="2.8" height="2.8"/>
		<rect x="554.1" y="115.5" class="st19" width="2.8" height="2.8"/>
		<rect x="570.9" y="115.5" class="st19" width="2.8" height="2.8"/>
		<rect x="554.1" y="118.3" class="st19" width="2.8" height="2.8"/>
		<rect x="570.9" y="118.3" class="st19" width="2.8" height="2.8"/>
		<rect x="554.1" y="121.1" class="st19" width="19.6" height="2.8"/>
		<rect x="559.7" y="109.9" class="st19" width="8.4" height="8.4"/>
	</g>
</g>
</svg>
